<?xml version="1.0" encoding="UTF-8" standalone="no"?>
<!DOCTYPE svg PUBLIC "-//W3C//DTD SVG 1.1//EN"
 "http://www.w3.org/Graphics/SVG/1.1/DTD/svg11.dtd">
<!-- Generated by graphviz version 2.43.0 (0)
 -->
<!-- Title: %3 Pages: 1 -->
<svg width="440pt" height="260pt"
 viewBox="0.00 0.00 439.83 260.00" xmlns="http://www.w3.org/2000/svg" xmlns:xlink="http://www.w3.org/1999/xlink">
<g id="graph0" class="graph" transform="scale(1 1) rotate(0) translate(4 256)">
<title>%3</title>
<polygon fill="white" stroke="transparent" points="-4,4 -4,-256 435.83,-256 435.83,4 -4,4"/>
<!-- inputnode (utility) -->
<g id="node1" class="node">
<title>inputnode (utility)</title>
<ellipse fill="none" stroke="black" cx="219.54" cy="-234" rx="94.78" ry="18"/>
<text text-anchor="middle" x="219.54" y="-230.3" font-family="Times,serif" font-size="14.00">inputnode (utility)</text>
</g>
<!-- inu_n4_final (ants) -->
<g id="node2" class="node">
<title>inu_n4_final (ants)</title>
<ellipse fill="none" stroke="black" cx="95.54" cy="-162" rx="95.58" ry="18"/>
<text text-anchor="middle" x="95.54" y="-158.3" font-family="Times,serif" font-size="14.00">inu_n4_final (ants)</text>
</g>
<!-- inputnode (utility)&#45;&gt;inu_n4_final (ants) -->
<g id="edge1" class="edge">
<title>inputnode (utility)&#45;&gt;inu_n4_final (ants)</title>
<path fill="none" stroke="black" d="M190.78,-216.76C173.69,-207.12 151.81,-194.77 133.34,-184.34"/>
<polygon fill="black" stroke="black" points="135,-181.26 124.57,-179.39 131.56,-187.35 135,-181.26"/>
</g>
<!-- binarize (nibabel) -->
<g id="node3" class="node">
<title>binarize (nibabel)</title>
<ellipse fill="none" stroke="black" cx="339.54" cy="-162" rx="92.08" ry="18"/>
<text text-anchor="middle" x="339.54" y="-158.3" font-family="Times,serif" font-size="14.00">binarize (nibabel)</text>
</g>
<!-- inputnode (utility)&#45;&gt;binarize (nibabel) -->
<g id="edge2" class="edge">
<title>inputnode (utility)&#45;&gt;binarize (nibabel)</title>
<path fill="none" stroke="black" d="M247.37,-216.76C263.76,-207.2 284.7,-194.99 302.48,-184.62"/>
<polygon fill="black" stroke="black" points="304.57,-187.45 311.44,-179.39 301.04,-181.41 304.57,-187.45"/>
</g>
<!-- atropos_wf -->
<g id="node4" class="node">
<title>atropos_wf</title>
<ellipse fill="none" stroke="black" cx="234.54" cy="-90" rx="61.99" ry="18"/>
<text text-anchor="middle" x="234.54" y="-86.3" font-family="Times,serif" font-size="14.00">atropos_wf</text>
</g>
<!-- inputnode (utility)&#45;&gt;atropos_wf -->
<g id="edge3" class="edge">
<title>inputnode (utility)&#45;&gt;atropos_wf</title>
<path fill="none" stroke="black" d="M221.35,-215.87C223.91,-191.67 228.6,-147.21 231.65,-118.39"/>
<polygon fill="black" stroke="black" points="235.16,-118.5 232.73,-108.19 228.19,-117.77 235.16,-118.5"/>
</g>
<!-- inu_n4_final (ants)&#45;&gt;atropos_wf -->
<g id="edge4" class="edge">
<title>inu_n4_final (ants)&#45;&gt;atropos_wf</title>
<path fill="none" stroke="black" d="M127.43,-144.94C147.68,-134.74 174.02,-121.48 195.51,-110.65"/>
<polygon fill="black" stroke="black" points="197.35,-113.65 204.7,-106.03 194.2,-107.4 197.35,-113.65"/>
</g>
<!-- binarize (nibabel)&#45;&gt;atropos_wf -->
<g id="edge6" class="edge">
<title>binarize (nibabel)&#45;&gt;atropos_wf</title>
<path fill="none" stroke="black" d="M314.92,-144.59C300.63,-135.06 282.46,-122.95 267.01,-112.65"/>
<polygon fill="black" stroke="black" points="268.54,-109.46 258.28,-106.83 264.66,-115.29 268.54,-109.46"/>
</g>
<!-- outputnode (utility) -->
<g id="node5" class="node">
<title>outputnode (utility)</title>
<ellipse fill="none" stroke="black" cx="279.54" cy="-18" rx="101.28" ry="18"/>
<text text-anchor="middle" x="279.54" y="-14.3" font-family="Times,serif" font-size="14.00">outputnode (utility)</text>
</g>
<!-- binarize (nibabel)&#45;&gt;outputnode (utility) -->
<g id="edge5" class="edge">
<title>binarize (nibabel)&#45;&gt;outputnode (utility)</title>
<path fill="none" stroke="black" d="M333.48,-143.75C327.01,-125.68 316.23,-96.57 305.54,-72 301.68,-63.12 297.13,-53.58 292.92,-45.08"/>
<polygon fill="black" stroke="black" points="295.98,-43.37 288.37,-36 289.72,-46.51 295.98,-43.37"/>
</g>
<!-- atropos_wf&#45;&gt;outputnode (utility) -->
<g id="edge7" class="edge">
<title>atropos_wf&#45;&gt;outputnode (utility)</title>
<path fill="none" stroke="black" d="M245.43,-72.05C250.66,-63.92 257.04,-54 262.86,-44.94"/>
<polygon fill="black" stroke="black" points="265.97,-46.58 268.44,-36.28 260.08,-42.79 265.97,-46.58"/>
</g>
</g>
</svg>
