<?xml version="1.0" encoding="UTF-8" standalone="no"?>
<!DOCTYPE svg PUBLIC "-//W3C//DTD SVG 1.1//EN"
 "http://www.w3.org/Graphics/SVG/1.1/DTD/svg11.dtd">
<!-- Generated by graphviz version 2.43.0 (0)
 -->
<!-- Title: %3 Pages: 1 -->
<svg width="1043pt" height="692pt"
 viewBox="0.00 0.00 1042.85 692.00" xmlns="http://www.w3.org/2000/svg" xmlns:xlink="http://www.w3.org/1999/xlink">
<g id="graph0" class="graph" transform="scale(1 1) rotate(0) translate(4 688)">
<title>%3</title>
<polygon fill="white" stroke="transparent" points="-4,4 -4,-688 1038.85,-688 1038.85,4 -4,4"/>
<!-- inputnode (utility) -->
<g id="node1" class="node">
<title>inputnode (utility)</title>
<ellipse fill="none" stroke="black" cx="115.85" cy="-666" rx="94.78" ry="18"/>
<text text-anchor="middle" x="115.85" y="-662.3" font-family="Times,serif" font-size="14.00">inputnode (utility)</text>
</g>
<!-- truncate_images (ants) -->
<g id="node2" class="node">
<title>truncate_images (ants)</title>
<ellipse fill="none" stroke="black" cx="461.85" cy="-594" rx="117.78" ry="18"/>
<text text-anchor="middle" x="461.85" y="-590.3" font-family="Times,serif" font-size="14.00">truncate_images (ants)</text>
</g>
<!-- inputnode (utility)&#45;&gt;truncate_images (ants) -->
<g id="edge1" class="edge">
<title>inputnode (utility)&#45;&gt;truncate_images (ants)</title>
<path fill="none" stroke="black" d="M178.1,-652.4C235.7,-640.75 321.54,-623.39 383.72,-610.81"/>
<polygon fill="black" stroke="black" points="384.77,-614.17 393.87,-608.75 383.38,-607.3 384.77,-614.17"/>
</g>
<!-- inu_n4_final (ants) -->
<g id="node3" class="node">
<title>inu_n4_final (ants)</title>
<ellipse fill="none" stroke="black" cx="125.85" cy="-162" rx="95.58" ry="18"/>
<text text-anchor="middle" x="125.85" y="-158.3" font-family="Times,serif" font-size="14.00">inu_n4_final (ants)</text>
</g>
<!-- inputnode (utility)&#45;&gt;inu_n4_final (ants) -->
<g id="edge2" class="edge">
<title>inputnode (utility)&#45;&gt;inu_n4_final (ants)</title>
<path fill="none" stroke="black" d="M99.73,-648.19C77.42,-623.09 39.85,-573.33 39.85,-523 39.85,-523 39.85,-523 39.85,-305 39.85,-263.79 43.76,-250.79 65.85,-216 73.02,-204.71 83.28,-194.41 93.3,-185.96"/>
<polygon fill="black" stroke="black" points="95.61,-188.59 101.21,-179.6 91.22,-183.14 95.61,-188.59"/>
</g>
<!-- init_aff (ants) -->
<g id="node4" class="node">
<title>init_aff (ants)</title>
<ellipse fill="none" stroke="black" cx="334.85" cy="-378" rx="72.29" ry="18"/>
<text text-anchor="middle" x="334.85" y="-374.3" font-family="Times,serif" font-size="14.00">init_aff (ants)</text>
</g>
<!-- inputnode (utility)&#45;&gt;init_aff (ants) -->
<g id="edge3" class="edge">
<title>inputnode (utility)&#45;&gt;init_aff (ants)</title>
<path fill="none" stroke="black" d="M120.49,-647.84C123.27,-637.48 126.83,-624 129.85,-612 149.91,-532.23 117.11,-492.49 172.85,-432 195.01,-407.95 228.24,-394.78 258.84,-387.59"/>
<polygon fill="black" stroke="black" points="259.64,-391 268.67,-385.46 258.16,-384.16 259.64,-391"/>
</g>
<!-- norm (fixes) -->
<g id="node5" class="node">
<title>norm (fixes)</title>
<ellipse fill="none" stroke="black" cx="393.85" cy="-306" rx="66.09" ry="18"/>
<text text-anchor="middle" x="393.85" y="-302.3" font-family="Times,serif" font-size="14.00">norm (fixes)</text>
</g>
<!-- inputnode (utility)&#45;&gt;norm (fixes) -->
<g id="edge4" class="edge">
<title>inputnode (utility)&#45;&gt;norm (fixes)</title>
<path fill="none" stroke="black" d="M115.85,-647.95C115.85,-621.29 115.85,-568.11 115.85,-523 115.85,-523 115.85,-523 115.85,-449 115.85,-399.24 258.91,-347.79 339.78,-322.69"/>
<polygon fill="black" stroke="black" points="341.26,-325.9 349.8,-319.62 339.21,-319.21 341.26,-325.9"/>
</g>
<!-- map_brainmask (fixes) -->
<g id="node6" class="node">
<title>map_brainmask (fixes)</title>
<ellipse fill="none" stroke="black" cx="421.85" cy="-234" rx="115.08" ry="18"/>
<text text-anchor="middle" x="421.85" y="-230.3" font-family="Times,serif" font-size="14.00">map_brainmask (fixes)</text>
</g>
<!-- inputnode (utility)&#45;&gt;map_brainmask (fixes) -->
<g id="edge5" class="edge">
<title>inputnode (utility)&#45;&gt;map_brainmask (fixes)</title>
<path fill="none" stroke="black" d="M206.48,-660.43C438.33,-647.53 1034.85,-606.24 1034.85,-523 1034.85,-523 1034.85,-523 1034.85,-377 1034.85,-277.22 722.73,-247.54 543.92,-238.72"/>
<polygon fill="black" stroke="black" points="544.08,-235.22 533.92,-238.24 543.75,-242.21 544.08,-235.22"/>
</g>
<!-- map_wmmask (fixes) -->
<g id="node7" class="node">
<title>map_wmmask (fixes)</title>
<ellipse fill="none" stroke="black" cx="181.85" cy="-234" rx="107.48" ry="18"/>
<text text-anchor="middle" x="181.85" y="-230.3" font-family="Times,serif" font-size="14.00">map_wmmask (fixes)</text>
</g>
<!-- inputnode (utility)&#45;&gt;map_wmmask (fixes) -->
<g id="edge6" class="edge">
<title>inputnode (utility)&#45;&gt;map_wmmask (fixes)</title>
<path fill="none" stroke="black" d="M108.16,-647.91C97.05,-621.62 77.85,-569.45 77.85,-523 77.85,-523 77.85,-523 77.85,-377 77.85,-336.55 73.62,-321.11 96.85,-288 106.19,-274.69 120.05,-264.03 133.88,-255.86"/>
<polygon fill="black" stroke="black" points="135.86,-258.76 142.91,-250.85 132.47,-252.64 135.86,-258.76"/>
</g>
<!-- atropos_wf -->
<g id="node8" class="node">
<title>atropos_wf</title>
<ellipse fill="none" stroke="black" cx="161.85" cy="-90" rx="61.99" ry="18"/>
<text text-anchor="middle" x="161.85" y="-86.3" font-family="Times,serif" font-size="14.00">atropos_wf</text>
</g>
<!-- inputnode (utility)&#45;&gt;atropos_wf -->
<g id="edge7" class="edge">
<title>inputnode (utility)&#45;&gt;atropos_wf</title>
<path fill="none" stroke="black" d="M89.69,-648.57C56.04,-625.16 1.85,-578.8 1.85,-523 1.85,-523 1.85,-523 1.85,-233 1.85,-192.55 -5.54,-174.65 20.85,-144 40.22,-121.49 70.15,-108.53 97.46,-101.06"/>
<polygon fill="black" stroke="black" points="98.54,-104.4 107.38,-98.56 96.82,-97.61 98.54,-104.4"/>
</g>
<!-- inu_n4 (ants) -->
<g id="node9" class="node">
<title>inu_n4 (ants)</title>
<ellipse fill="none" stroke="black" cx="557.85" cy="-522" rx="71.49" ry="18"/>
<text text-anchor="middle" x="557.85" y="-518.3" font-family="Times,serif" font-size="14.00">inu_n4 (ants)</text>
</g>
<!-- truncate_images (ants)&#45;&gt;inu_n4 (ants) -->
<g id="edge8" class="edge">
<title>truncate_images (ants)&#45;&gt;inu_n4 (ants)</title>
<path fill="none" stroke="black" d="M485.09,-576.05C497.77,-566.81 513.63,-555.24 527.3,-545.27"/>
<polygon fill="black" stroke="black" points="529.47,-548.03 535.48,-539.31 525.34,-542.37 529.47,-548.03"/>
</g>
<!-- inu_n4_final (ants)&#45;&gt;atropos_wf -->
<g id="edge10" class="edge">
<title>inu_n4_final (ants)&#45;&gt;atropos_wf</title>
<path fill="none" stroke="black" d="M134.56,-144.05C138.7,-136.01 143.74,-126.2 148.36,-117.23"/>
<polygon fill="black" stroke="black" points="151.5,-118.77 152.96,-108.28 145.28,-115.57 151.5,-118.77"/>
</g>
<!-- apply_mask (nibabel) -->
<g id="node10" class="node">
<title>apply_mask (nibabel)</title>
<ellipse fill="none" stroke="black" cx="367.85" cy="-90" rx="108.58" ry="18"/>
<text text-anchor="middle" x="367.85" y="-86.3" font-family="Times,serif" font-size="14.00">apply_mask (nibabel)</text>
</g>
<!-- inu_n4_final (ants)&#45;&gt;apply_mask (nibabel) -->
<g id="edge9" class="edge">
<title>inu_n4_final (ants)&#45;&gt;apply_mask (nibabel)</title>
<path fill="none" stroke="black" d="M175.7,-146.58C213.66,-135.6 266.12,-120.43 306.63,-108.71"/>
<polygon fill="black" stroke="black" points="307.76,-112.02 316.39,-105.88 305.82,-105.3 307.76,-112.02"/>
</g>
<!-- init_aff (ants)&#45;&gt;norm (fixes) -->
<g id="edge11" class="edge">
<title>init_aff (ants)&#45;&gt;norm (fixes)</title>
<path fill="none" stroke="black" d="M349.13,-360.05C356.3,-351.54 365.13,-341.07 373.04,-331.68"/>
<polygon fill="black" stroke="black" points="375.93,-333.69 379.7,-323.79 370.58,-329.18 375.93,-333.69"/>
</g>
<!-- norm (fixes)&#45;&gt;map_brainmask (fixes) -->
<g id="edge12" class="edge">
<title>norm (fixes)&#45;&gt;map_brainmask (fixes)</title>
<path fill="none" stroke="black" d="M400.63,-288.05C403.78,-280.18 407.6,-270.62 411.13,-261.79"/>
<polygon fill="black" stroke="black" points="414.47,-262.86 414.94,-252.28 407.97,-260.26 414.47,-262.86"/>
</g>
<!-- norm (fixes)&#45;&gt;map_wmmask (fixes) -->
<g id="edge13" class="edge">
<title>norm (fixes)&#45;&gt;map_wmmask (fixes)</title>
<path fill="none" stroke="black" d="M353.47,-291.67C320.86,-280.9 274.58,-265.62 238.3,-253.64"/>
<polygon fill="black" stroke="black" points="238.94,-250.17 228.35,-250.35 236.74,-256.81 238.94,-250.17"/>
</g>
<!-- thr_brainmask (ants) -->
<g id="node11" class="node">
<title>thr_brainmask (ants)</title>
<ellipse fill="none" stroke="black" cx="385.85" cy="-162" rx="107.78" ry="18"/>
<text text-anchor="middle" x="385.85" y="-158.3" font-family="Times,serif" font-size="14.00">thr_brainmask (ants)</text>
</g>
<!-- map_brainmask (fixes)&#45;&gt;thr_brainmask (ants) -->
<g id="edge14" class="edge">
<title>map_brainmask (fixes)&#45;&gt;thr_brainmask (ants)</title>
<path fill="none" stroke="black" d="M412.95,-215.7C408.85,-207.73 403.9,-198.1 399.35,-189.26"/>
<polygon fill="black" stroke="black" points="402.33,-187.4 394.64,-180.1 396.1,-190.6 402.33,-187.4"/>
</g>
<!-- map_wmmask (fixes)&#45;&gt;inu_n4_final (ants) -->
<g id="edge15" class="edge">
<title>map_wmmask (fixes)&#45;&gt;inu_n4_final (ants)</title>
<path fill="none" stroke="black" d="M168.29,-216.05C161.58,-207.67 153.35,-197.38 145.92,-188.1"/>
<polygon fill="black" stroke="black" points="148.65,-185.9 139.67,-180.28 143.18,-190.27 148.65,-185.9"/>
</g>
<!-- map_wmmask (fixes)&#45;&gt;atropos_wf -->
<g id="edge16" class="edge">
<title>map_wmmask (fixes)&#45;&gt;atropos_wf</title>
<path fill="none" stroke="black" d="M203.49,-216.34C213.88,-206.94 225.27,-194.24 230.85,-180 236.68,-165.1 237.92,-158.35 230.85,-144 224.29,-130.7 212.62,-119.8 200.71,-111.43"/>
<polygon fill="black" stroke="black" points="202.36,-108.32 192.08,-105.78 198.53,-114.18 202.36,-108.32"/>
</g>
<!-- outputnode (utility) -->
<g id="node19" class="node">
<title>outputnode (utility)</title>
<ellipse fill="none" stroke="black" cx="161.85" cy="-18" rx="101.28" ry="18"/>
<text text-anchor="middle" x="161.85" y="-14.3" font-family="Times,serif" font-size="14.00">outputnode (utility)</text>
</g>
<!-- atropos_wf&#45;&gt;outputnode (utility) -->
<g id="edge17" class="edge">
<title>atropos_wf&#45;&gt;outputnode (utility)</title>
<path fill="none" stroke="black" d="M161.85,-71.7C161.85,-63.98 161.85,-54.71 161.85,-46.11"/>
<polygon fill="black" stroke="black" points="165.35,-46.1 161.85,-36.1 158.35,-46.1 165.35,-46.1"/>
</g>
<!-- res_target (nibabel) -->
<g id="node12" class="node">
<title>res_target (nibabel)</title>
<ellipse fill="none" stroke="black" cx="492.85" cy="-450" rx="102.88" ry="18"/>
<text text-anchor="middle" x="492.85" y="-446.3" font-family="Times,serif" font-size="14.00">res_target (nibabel)</text>
</g>
<!-- inu_n4 (ants)&#45;&gt;res_target (nibabel) -->
<g id="edge18" class="edge">
<title>inu_n4 (ants)&#45;&gt;res_target (nibabel)</title>
<path fill="none" stroke="black" d="M542.44,-504.41C534.39,-495.73 524.37,-484.95 515.45,-475.34"/>
<polygon fill="black" stroke="black" points="517.96,-472.9 508.59,-467.96 512.83,-477.67 517.96,-472.9"/>
</g>
<!-- lap_target (ants) -->
<g id="node13" class="node">
<title>lap_target (ants)</title>
<ellipse fill="none" stroke="black" cx="739.85" cy="-450" rx="87.99" ry="18"/>
<text text-anchor="middle" x="739.85" y="-446.3" font-family="Times,serif" font-size="14.00">lap_target (ants)</text>
</g>
<!-- inu_n4 (ants)&#45;&gt;lap_target (ants) -->
<g id="edge19" class="edge">
<title>inu_n4 (ants)&#45;&gt;lap_target (ants)</title>
<path fill="none" stroke="black" d="M595.56,-506.5C623.18,-495.87 660.91,-481.36 690.87,-469.84"/>
<polygon fill="black" stroke="black" points="692.22,-473.07 700.3,-466.21 689.71,-466.54 692.22,-473.07"/>
</g>
<!-- mrg_target (utility) -->
<g id="node14" class="node">
<title>mrg_target (utility)</title>
<ellipse fill="none" stroke="black" cx="623.85" cy="-378" rx="100.98" ry="18"/>
<text text-anchor="middle" x="623.85" y="-374.3" font-family="Times,serif" font-size="14.00">mrg_target (utility)</text>
</g>
<!-- inu_n4 (ants)&#45;&gt;mrg_target (utility) -->
<g id="edge20" class="edge">
<title>inu_n4 (ants)&#45;&gt;mrg_target (utility)</title>
<path fill="none" stroke="black" d="M576.49,-504.58C586.36,-494.89 597.86,-481.83 604.85,-468 614.62,-448.67 619.37,-424.52 621.68,-406.25"/>
<polygon fill="black" stroke="black" points="625.17,-406.58 622.78,-396.26 618.21,-405.82 625.17,-406.58"/>
</g>
<!-- thr_brainmask (ants)&#45;&gt;atropos_wf -->
<g id="edge22" class="edge">
<title>thr_brainmask (ants)&#45;&gt;atropos_wf</title>
<path fill="none" stroke="black" d="M337.52,-145.9C300.45,-134.31 249.44,-118.37 211.94,-106.65"/>
<polygon fill="black" stroke="black" points="212.81,-103.26 202.22,-103.62 210.73,-109.94 212.81,-103.26"/>
</g>
<!-- thr_brainmask (ants)&#45;&gt;apply_mask (nibabel) -->
<g id="edge21" class="edge">
<title>thr_brainmask (ants)&#45;&gt;apply_mask (nibabel)</title>
<path fill="none" stroke="black" d="M381.4,-143.7C379.39,-135.9 376.98,-126.51 374.75,-117.83"/>
<polygon fill="black" stroke="black" points="378.13,-116.92 372.25,-108.1 371.35,-118.66 378.13,-116.92"/>
</g>
<!-- res_target (nibabel)&#45;&gt;init_aff (ants) -->
<g id="edge23" class="edge">
<title>res_target (nibabel)&#45;&gt;init_aff (ants)</title>
<path fill="none" stroke="black" d="M456.99,-433.12C433.5,-422.71 402.66,-409.05 377.85,-398.05"/>
<polygon fill="black" stroke="black" points="379.23,-394.83 368.66,-393.98 376.39,-401.23 379.23,-394.83"/>
</g>
<!-- lap_target (ants)&#45;&gt;mrg_target (utility) -->
<g id="edge24" class="edge">
<title>lap_target (ants)&#45;&gt;mrg_target (utility)</title>
<path fill="none" stroke="black" d="M712.94,-432.76C697.1,-423.2 676.86,-410.99 659.68,-400.62"/>
<polygon fill="black" stroke="black" points="661.38,-397.56 651.01,-395.39 657.76,-403.55 661.38,-397.56"/>
</g>
<!-- mrg_target (utility)&#45;&gt;norm (fixes) -->
<g id="edge25" class="edge">
<title>mrg_target (utility)&#45;&gt;norm (fixes)</title>
<path fill="none" stroke="black" d="M575.07,-362.15C537.3,-350.66 485.08,-334.77 446.4,-322.99"/>
<polygon fill="black" stroke="black" points="446.95,-319.5 436.37,-319.94 444.92,-326.2 446.95,-319.5"/>
</g>
<!-- res_tmpl (nibabel) -->
<g id="node15" class="node">
<title>res_tmpl (nibabel)</title>
<ellipse fill="none" stroke="black" cx="276.85" cy="-450" rx="94.78" ry="18"/>
<text text-anchor="middle" x="276.85" y="-446.3" font-family="Times,serif" font-size="14.00">res_tmpl (nibabel)</text>
</g>
<!-- res_tmpl (nibabel)&#45;&gt;init_aff (ants) -->
<g id="edge26" class="edge">
<title>res_tmpl (nibabel)&#45;&gt;init_aff (ants)</title>
<path fill="none" stroke="black" d="M290.89,-432.05C297.94,-423.54 306.62,-413.07 314.4,-403.68"/>
<polygon fill="black" stroke="black" points="317.25,-405.72 320.94,-395.79 311.86,-401.26 317.25,-405.72"/>
</g>
<!-- full_wm (utility) -->
<g id="node16" class="node">
<title>full_wm (utility)</title>
<ellipse fill="none" stroke="black" cx="189.85" cy="-306" rx="84.49" ry="18"/>
<text text-anchor="middle" x="189.85" y="-302.3" font-family="Times,serif" font-size="14.00">full_wm (utility)</text>
</g>
<!-- full_wm (utility)&#45;&gt;map_wmmask (fixes) -->
<g id="edge27" class="edge">
<title>full_wm (utility)&#45;&gt;map_wmmask (fixes)</title>
<path fill="none" stroke="black" d="M187.87,-287.7C186.99,-279.98 185.93,-270.71 184.95,-262.11"/>
<polygon fill="black" stroke="black" points="188.41,-261.64 183.8,-252.1 181.46,-262.44 188.41,-261.64"/>
</g>
<!-- lap_tmpl (ants) -->
<g id="node17" class="node">
<title>lap_tmpl (ants)</title>
<ellipse fill="none" stroke="black" cx="925.85" cy="-450" rx="80.69" ry="18"/>
<text text-anchor="middle" x="925.85" y="-446.3" font-family="Times,serif" font-size="14.00">lap_tmpl (ants)</text>
</g>
<!-- mrg_tmpl (utility) -->
<g id="node18" class="node">
<title>mrg_tmpl (utility)</title>
<ellipse fill="none" stroke="black" cx="874.85" cy="-378" rx="92.88" ry="18"/>
<text text-anchor="middle" x="874.85" y="-374.3" font-family="Times,serif" font-size="14.00">mrg_tmpl (utility)</text>
</g>
<!-- lap_tmpl (ants)&#45;&gt;mrg_tmpl (utility) -->
<g id="edge28" class="edge">
<title>lap_tmpl (ants)&#45;&gt;mrg_tmpl (utility)</title>
<path fill="none" stroke="black" d="M913.5,-432.05C907.45,-423.75 900.04,-413.58 893.34,-404.38"/>
<polygon fill="black" stroke="black" points="896.15,-402.3 887.43,-396.28 890.49,-406.42 896.15,-402.3"/>
</g>
<!-- mrg_tmpl (utility)&#45;&gt;norm (fixes) -->
<g id="edge29" class="edge">
<title>mrg_tmpl (utility)&#45;&gt;norm (fixes)</title>
<path fill="none" stroke="black" d="M803.1,-366.56C710.68,-353.11 551.23,-329.9 461.07,-316.78"/>
<polygon fill="black" stroke="black" points="461.36,-313.29 450.96,-315.31 460.35,-320.22 461.36,-313.29"/>
</g>
</g>
</svg>
