<?xml version="1.0" encoding="UTF-8" standalone="no"?>
<!DOCTYPE svg PUBLIC "-//W3C//DTD SVG 1.1//EN"
 "http://www.w3.org/Graphics/SVG/1.1/DTD/svg11.dtd">
<!-- Generated by graphviz version 2.43.0 (0)
 -->
<!-- Title: %3 Pages: 1 -->
<svg width="864pt" height="1844pt"
 viewBox="0.00 0.00 864.09 1844.00" xmlns="http://www.w3.org/2000/svg" xmlns:xlink="http://www.w3.org/1999/xlink">
<g id="graph0" class="graph" transform="scale(1 1) rotate(0) translate(4 1840)">
<title>%3</title>
<polygon fill="white" stroke="transparent" points="-4,4 -4,-1840 860.09,-1840 860.09,4 -4,4"/>
<!-- inputnode (utility) -->
<g id="node1" class="node">
<title>inputnode (utility)</title>
<ellipse fill="none" stroke="black" cx="313" cy="-1818" rx="94.78" ry="18"/>
<text text-anchor="middle" x="313" y="-1814.3" font-family="Times,serif" font-size="14.00">inputnode (utility)</text>
</g>
<!-- dil_brainmask (ants) -->
<g id="node2" class="node">
<title>dil_brainmask (ants)</title>
<ellipse fill="none" stroke="black" cx="313" cy="-1746" rx="105.08" ry="18"/>
<text text-anchor="middle" x="313" y="-1742.3" font-family="Times,serif" font-size="14.00">dil_brainmask (ants)</text>
</g>
<!-- inputnode (utility)&#45;&gt;dil_brainmask (ants) -->
<g id="edge1" class="edge">
<title>inputnode (utility)&#45;&gt;dil_brainmask (ants)</title>
<path fill="none" stroke="black" d="M313,-1799.7C313,-1791.98 313,-1782.71 313,-1774.11"/>
<polygon fill="black" stroke="black" points="316.5,-1774.1 313,-1764.1 309.5,-1774.1 316.5,-1774.1"/>
</g>
<!-- copy_xform (header) -->
<g id="node3" class="node">
<title>copy_xform (header)</title>
<ellipse fill="none" stroke="black" cx="211" cy="-162" rx="105.88" ry="18"/>
<text text-anchor="middle" x="211" y="-158.3" font-family="Times,serif" font-size="14.00">copy_xform (header)</text>
</g>
<!-- inputnode (utility)&#45;&gt;copy_xform (header) -->
<g id="edge2" class="edge">
<title>inputnode (utility)&#45;&gt;copy_xform (header)</title>
<path fill="none" stroke="black" d="M221.2,-1813.12C128.85,-1803.71 0,-1773.01 0,-1675 0,-1675 0,-1675 0,-305 0,-258.03 20.07,-245.03 57,-216 79.07,-198.64 107.2,-186.78 133.36,-178.75"/>
<polygon fill="black" stroke="black" points="134.65,-182.02 143.27,-175.86 132.69,-175.3 134.65,-182.02"/>
</g>
<!-- copy_xform_wm (header) -->
<g id="node4" class="node">
<title>copy_xform_wm (header)</title>
<ellipse fill="none" stroke="black" cx="236" cy="-1458" rx="126.98" ry="18"/>
<text text-anchor="middle" x="236" y="-1454.3" font-family="Times,serif" font-size="14.00">copy_xform_wm (header)</text>
</g>
<!-- inputnode (utility)&#45;&gt;copy_xform_wm (header) -->
<g id="edge3" class="edge">
<title>inputnode (utility)&#45;&gt;copy_xform_wm (header)</title>
<path fill="none" stroke="black" d="M259.34,-1803.06C237.78,-1794.94 214.43,-1782.54 199,-1764 172.86,-1732.6 176,-1715.86 176,-1675 176,-1675 176,-1675 176,-1601 176,-1560.55 177.98,-1548.69 195,-1512 199.55,-1502.19 206.21,-1492.51 212.84,-1484.16"/>
<polygon fill="black" stroke="black" points="215.67,-1486.23 219.38,-1476.3 210.29,-1481.75 215.67,-1486.23"/>
</g>
<!-- 03_pad_mask (ants) -->
<g id="node5" class="node">
<title>03_pad_mask (ants)</title>
<ellipse fill="none" stroke="black" cx="665" cy="-1674" rx="102.88" ry="18"/>
<text text-anchor="middle" x="665" y="-1670.3" font-family="Times,serif" font-size="14.00">03_pad_mask (ants)</text>
</g>
<!-- inputnode (utility)&#45;&gt;03_pad_mask (ants) -->
<g id="edge4" class="edge">
<title>inputnode (utility)&#45;&gt;03_pad_mask (ants)</title>
<path fill="none" stroke="black" d="M358.27,-1802.15C388.45,-1792.01 428.87,-1777.92 464,-1764 519.02,-1742.2 581.13,-1714.16 621.56,-1695.43"/>
<polygon fill="black" stroke="black" points="623.26,-1698.5 630.85,-1691.11 620.31,-1692.15 623.26,-1698.5"/>
</g>
<!-- 01_atropos (ants) -->
<g id="node6" class="node">
<title>01_atropos (ants)</title>
<ellipse fill="none" stroke="black" cx="382" cy="-1602" rx="91.78" ry="18"/>
<text text-anchor="middle" x="382" y="-1598.3" font-family="Times,serif" font-size="14.00">01_atropos (ants)</text>
</g>
<!-- inputnode (utility)&#45;&gt;01_atropos (ants) -->
<g id="edge5" class="edge">
<title>inputnode (utility)&#45;&gt;01_atropos (ants)</title>
<path fill="none" stroke="black" d="M370.59,-1803.68C391.83,-1795.76 413.9,-1783.33 427,-1764 453.94,-1724.24 448.51,-1700.73 431,-1656 426.73,-1645.1 419.06,-1635.1 411.03,-1626.79"/>
<polygon fill="black" stroke="black" points="413.27,-1624.09 403.64,-1619.66 408.4,-1629.12 413.27,-1624.09"/>
</g>
<!-- inu_n4_final (ants) -->
<g id="node7" class="node">
<title>inu_n4_final (ants)</title>
<ellipse fill="none" stroke="black" cx="124" cy="-1386" rx="95.58" ry="18"/>
<text text-anchor="middle" x="124" y="-1382.3" font-family="Times,serif" font-size="14.00">inu_n4_final (ants)</text>
</g>
<!-- inputnode (utility)&#45;&gt;inu_n4_final (ants) -->
<g id="edge6" class="edge">
<title>inputnode (utility)&#45;&gt;inu_n4_final (ants)</title>
<path fill="none" stroke="black" d="M245.27,-1805.32C176.79,-1789.16 81,-1752.68 81,-1675 81,-1675 81,-1675 81,-1529 81,-1487.06 98.39,-1441.04 111.05,-1413.08"/>
<polygon fill="black" stroke="black" points="114.24,-1414.53 115.3,-1403.98 107.9,-1411.57 114.24,-1414.53"/>
</g>
<!-- msk_conform (utility) -->
<g id="node8" class="node">
<title>msk_conform (utility)</title>
<ellipse fill="none" stroke="black" cx="710" cy="-234" rx="109.68" ry="18"/>
<text text-anchor="middle" x="710" y="-230.3" font-family="Times,serif" font-size="14.00">msk_conform (utility)</text>
</g>
<!-- inputnode (utility)&#45;&gt;msk_conform (utility) -->
<g id="edge7" class="edge">
<title>inputnode (utility)&#45;&gt;msk_conform (utility)</title>
<path fill="none" stroke="black" d="M402.5,-1811.98C556.44,-1800.87 855,-1767.41 855,-1675 855,-1675 855,-1675 855,-377 855,-336.25 859.35,-319.08 833,-288 819.37,-271.92 799.96,-260.58 780.59,-252.64"/>
<polygon fill="black" stroke="black" points="781.69,-249.32 771.1,-249.01 779.19,-255.86 781.69,-249.32"/>
</g>
<!-- get_brainmask (ants) -->
<g id="node9" class="node">
<title>get_brainmask (ants)</title>
<ellipse fill="none" stroke="black" cx="313" cy="-1674" rx="108.58" ry="18"/>
<text text-anchor="middle" x="313" y="-1670.3" font-family="Times,serif" font-size="14.00">get_brainmask (ants)</text>
</g>
<!-- dil_brainmask (ants)&#45;&gt;get_brainmask (ants) -->
<g id="edge8" class="edge">
<title>dil_brainmask (ants)&#45;&gt;get_brainmask (ants)</title>
<path fill="none" stroke="black" d="M313,-1727.7C313,-1719.98 313,-1710.71 313,-1702.11"/>
<polygon fill="black" stroke="black" points="316.5,-1702.1 313,-1692.1 309.5,-1702.1 316.5,-1702.1"/>
</g>
<!-- apply_mask (nibabel) -->
<g id="node10" class="node">
<title>apply_mask (nibabel)</title>
<ellipse fill="none" stroke="black" cx="280" cy="-90" rx="108.58" ry="18"/>
<text text-anchor="middle" x="280" y="-86.3" font-family="Times,serif" font-size="14.00">apply_mask (nibabel)</text>
</g>
<!-- copy_xform (header)&#45;&gt;apply_mask (nibabel) -->
<g id="edge9" class="edge">
<title>copy_xform (header)&#45;&gt;apply_mask (nibabel)</title>
<path fill="none" stroke="black" d="M227.7,-144.05C236.14,-135.5 246.53,-124.96 255.82,-115.54"/>
<polygon fill="black" stroke="black" points="258.44,-117.85 262.97,-108.28 253.46,-112.94 258.44,-117.85"/>
</g>
<!-- outputnode (utility) -->
<g id="node11" class="node">
<title>outputnode (utility)</title>
<ellipse fill="none" stroke="black" cx="211" cy="-18" rx="101.28" ry="18"/>
<text text-anchor="middle" x="211" y="-14.3" font-family="Times,serif" font-size="14.00">outputnode (utility)</text>
</g>
<!-- copy_xform (header)&#45;&gt;outputnode (utility) -->
<g id="edge10" class="edge">
<title>copy_xform (header)&#45;&gt;outputnode (utility)</title>
<path fill="none" stroke="black" d="M189.36,-144.34C178.96,-134.94 167.57,-122.24 162,-108 156.17,-93.1 156.17,-86.9 162,-72 166.27,-61.1 173.94,-51.1 181.97,-42.79"/>
<polygon fill="black" stroke="black" points="184.6,-45.12 189.36,-35.66 179.73,-40.09 184.6,-45.12"/>
</g>
<!-- copy_xform_wm (header)&#45;&gt;inu_n4_final (ants) -->
<g id="edge11" class="edge">
<title>copy_xform_wm (header)&#45;&gt;inu_n4_final (ants)</title>
<path fill="none" stroke="black" d="M209.17,-1440.23C194.1,-1430.81 175.12,-1418.95 158.9,-1408.82"/>
<polygon fill="black" stroke="black" points="160.56,-1405.72 150.22,-1403.39 156.85,-1411.66 160.56,-1405.72"/>
</g>
<!-- 20_add_7_2 (ants) -->
<g id="node12" class="node">
<title>20_add_7_2 (ants)</title>
<ellipse fill="none" stroke="black" cx="710" cy="-522" rx="94.48" ry="18"/>
<text text-anchor="middle" x="710" y="-518.3" font-family="Times,serif" font-size="14.00">20_add_7_2 (ants)</text>
</g>
<!-- 03_pad_mask (ants)&#45;&gt;20_add_7_2 (ants) -->
<g id="edge12" class="edge">
<title>03_pad_mask (ants)&#45;&gt;20_add_7_2 (ants)</title>
<path fill="none" stroke="black" d="M703.36,-1657.23C748.38,-1635.86 817,-1593.11 817,-1531 817,-1531 817,-1531 817,-665 817,-623.26 812.15,-609.32 787,-576 777.55,-563.48 764.25,-552.85 751.36,-544.48"/>
<polygon fill="black" stroke="black" points="752.91,-541.32 742.56,-539.05 749.23,-547.28 752.91,-541.32"/>
</g>
<!-- 02_pad_segm (ants) -->
<g id="node13" class="node">
<title>02_pad_segm (ants)</title>
<ellipse fill="none" stroke="black" cx="490" cy="-1530" rx="102.88" ry="18"/>
<text text-anchor="middle" x="490" y="-1526.3" font-family="Times,serif" font-size="14.00">02_pad_segm (ants)</text>
</g>
<!-- 01_atropos (ants)&#45;&gt;02_pad_segm (ants) -->
<g id="edge13" class="edge">
<title>01_atropos (ants)&#45;&gt;02_pad_segm (ants)</title>
<path fill="none" stroke="black" d="M407.32,-1584.59C421.84,-1575.18 440.26,-1563.24 456.02,-1553.02"/>
<polygon fill="black" stroke="black" points="457.98,-1555.93 464.46,-1547.55 454.17,-1550.05 457.98,-1555.93"/>
</g>
<!-- sel_wm (utility) -->
<g id="node14" class="node">
<title>sel_wm (utility)</title>
<ellipse fill="none" stroke="black" cx="287" cy="-1530" rx="82.59" ry="18"/>
<text text-anchor="middle" x="287" y="-1526.3" font-family="Times,serif" font-size="14.00">sel_wm (utility)</text>
</g>
<!-- 01_atropos (ants)&#45;&gt;sel_wm (utility) -->
<g id="edge14" class="edge">
<title>01_atropos (ants)&#45;&gt;sel_wm (utility)</title>
<path fill="none" stroke="black" d="M359.49,-1584.41C346.95,-1575.17 331.16,-1563.54 317.52,-1553.49"/>
<polygon fill="black" stroke="black" points="319.48,-1550.58 309.35,-1547.47 315.33,-1556.22 319.48,-1550.58"/>
</g>
<!-- inu_n4_final (ants)&#45;&gt;copy_xform (header) -->
<g id="edge15" class="edge">
<title>inu_n4_final (ants)&#45;&gt;copy_xform (header)</title>
<path fill="none" stroke="black" d="M105.56,-1368.15C80.56,-1343.36 39,-1294.43 39,-1243 39,-1243 39,-1243 39,-305 39,-243.52 105.16,-203.68 155.41,-182.29"/>
<polygon fill="black" stroke="black" points="156.99,-185.42 164.91,-178.38 154.33,-178.95 156.99,-185.42"/>
</g>
<!-- msk_conform (utility)&#45;&gt;copy_xform (header) -->
<g id="edge16" class="edge">
<title>msk_conform (utility)&#45;&gt;copy_xform (header)</title>
<path fill="none" stroke="black" d="M629.55,-221.71C539.38,-209.07 393.61,-188.62 300.07,-175.49"/>
<polygon fill="black" stroke="black" points="300.45,-172.01 290.06,-174.09 299.47,-178.95 300.45,-172.01"/>
</g>
<!-- get_brainmask (ants)&#45;&gt;01_atropos (ants) -->
<g id="edge17" class="edge">
<title>get_brainmask (ants)&#45;&gt;01_atropos (ants)</title>
<path fill="none" stroke="black" d="M329.7,-1656.05C338.26,-1647.37 348.84,-1636.64 358.23,-1627.11"/>
<polygon fill="black" stroke="black" points="360.92,-1629.37 365.45,-1619.79 355.94,-1624.45 360.92,-1629.37"/>
</g>
<!-- apply_mask (nibabel)&#45;&gt;outputnode (utility) -->
<g id="edge18" class="edge">
<title>apply_mask (nibabel)&#45;&gt;outputnode (utility)</title>
<path fill="none" stroke="black" d="M263.3,-72.05C254.74,-63.37 244.16,-52.64 234.77,-43.11"/>
<polygon fill="black" stroke="black" points="237.06,-40.45 227.55,-35.79 232.08,-45.37 237.06,-40.45"/>
</g>
<!-- 21_md_7_2 (ants) -->
<g id="node35" class="node">
<title>21_md_7_2 (ants)</title>
<ellipse fill="none" stroke="black" cx="710" cy="-450" rx="91.78" ry="18"/>
<text text-anchor="middle" x="710" y="-446.3" font-family="Times,serif" font-size="14.00">21_md_7_2 (ants)</text>
</g>
<!-- 20_add_7_2 (ants)&#45;&gt;21_md_7_2 (ants) -->
<g id="edge19" class="edge">
<title>20_add_7_2 (ants)&#45;&gt;21_md_7_2 (ants)</title>
<path fill="none" stroke="black" d="M710,-503.7C710,-495.98 710,-486.71 710,-478.11"/>
<polygon fill="black" stroke="black" points="713.5,-478.1 710,-468.1 706.5,-478.1 713.5,-478.1"/>
</g>
<!-- 04_sel_labels (utility) -->
<g id="node15" class="node">
<title>04_sel_labels (utility)</title>
<ellipse fill="none" stroke="black" cx="490" cy="-1458" rx="109.38" ry="18"/>
<text text-anchor="middle" x="490" y="-1454.3" font-family="Times,serif" font-size="14.00">04_sel_labels (utility)</text>
</g>
<!-- 02_pad_segm (ants)&#45;&gt;04_sel_labels (utility) -->
<g id="edge20" class="edge">
<title>02_pad_segm (ants)&#45;&gt;04_sel_labels (utility)</title>
<path fill="none" stroke="black" d="M490,-1511.7C490,-1503.98 490,-1494.71 490,-1486.11"/>
<polygon fill="black" stroke="black" points="493.5,-1486.1 490,-1476.1 486.5,-1486.1 493.5,-1486.1"/>
</g>
<!-- sel_wm (utility)&#45;&gt;copy_xform_wm (header) -->
<g id="edge21" class="edge">
<title>sel_wm (utility)&#45;&gt;copy_xform_wm (header)</title>
<path fill="none" stroke="black" d="M274.65,-1512.05C268.61,-1503.75 261.2,-1493.58 254.49,-1484.38"/>
<polygon fill="black" stroke="black" points="257.3,-1482.3 248.59,-1476.28 251.65,-1486.42 257.3,-1482.3"/>
</g>
<!-- 05_get_wm (ants) -->
<g id="node16" class="node">
<title>05_get_wm (ants)</title>
<ellipse fill="none" stroke="black" cx="369" cy="-1386" rx="92.88" ry="18"/>
<text text-anchor="middle" x="369" y="-1382.3" font-family="Times,serif" font-size="14.00">05_get_wm (ants)</text>
</g>
<!-- 04_sel_labels (utility)&#45;&gt;05_get_wm (ants) -->
<g id="edge22" class="edge">
<title>04_sel_labels (utility)&#45;&gt;05_get_wm (ants)</title>
<path fill="none" stroke="black" d="M461.63,-1440.59C445.09,-1431.02 424.05,-1418.85 406.19,-1408.52"/>
<polygon fill="black" stroke="black" points="407.6,-1405.29 397.19,-1403.31 404.09,-1411.35 407.6,-1405.29"/>
</g>
<!-- 06_get_gm (ants) -->
<g id="node17" class="node">
<title>06_get_gm (ants)</title>
<ellipse fill="none" stroke="black" cx="609" cy="-1386" rx="90.98" ry="18"/>
<text text-anchor="middle" x="609" y="-1382.3" font-family="Times,serif" font-size="14.00">06_get_gm (ants)</text>
</g>
<!-- 04_sel_labels (utility)&#45;&gt;06_get_gm (ants) -->
<g id="edge23" class="edge">
<title>04_sel_labels (utility)&#45;&gt;06_get_gm (ants)</title>
<path fill="none" stroke="black" d="M517.9,-1440.59C534.16,-1431.02 554.86,-1418.85 572.42,-1408.52"/>
<polygon fill="black" stroke="black" points="574.43,-1411.4 581.27,-1403.31 570.88,-1405.36 574.43,-1411.4"/>
</g>
<!-- 10_me_csf (ants) -->
<g id="node18" class="node">
<title>10_me_csf (ants)</title>
<ellipse fill="none" stroke="black" cx="489" cy="-1242" rx="88.28" ry="18"/>
<text text-anchor="middle" x="489" y="-1238.3" font-family="Times,serif" font-size="14.00">10_me_csf (ants)</text>
</g>
<!-- 04_sel_labels (utility)&#45;&gt;10_me_csf (ants) -->
<g id="edge24" class="edge">
<title>04_sel_labels (utility)&#45;&gt;10_me_csf (ants)</title>
<path fill="none" stroke="black" d="M489.92,-1439.85C489.75,-1402.83 489.34,-1315.18 489.13,-1270.39"/>
<polygon fill="black" stroke="black" points="492.63,-1270.22 489.08,-1260.23 485.63,-1270.25 492.63,-1270.22"/>
</g>
<!-- 27_depad_csf (ants) -->
<g id="node19" class="node">
<title>27_depad_csf (ants)</title>
<ellipse fill="none" stroke="black" cx="204" cy="-1314" rx="102.88" ry="18"/>
<text text-anchor="middle" x="204" y="-1310.3" font-family="Times,serif" font-size="14.00">27_depad_csf (ants)</text>
</g>
<!-- 04_sel_labels (utility)&#45;&gt;27_depad_csf (ants) -->
<g id="edge25" class="edge">
<title>04_sel_labels (utility)&#45;&gt;27_depad_csf (ants)</title>
<path fill="none" stroke="black" d="M414.63,-1444.96C359.75,-1435.11 290.99,-1420.2 267,-1404 243.98,-1388.45 226.65,-1361.48 216.05,-1341.29"/>
<polygon fill="black" stroke="black" points="219.14,-1339.65 211.52,-1332.28 212.88,-1342.79 219.14,-1339.65"/>
</g>
<!-- 09_relabel_wm (ants) -->
<g id="node20" class="node">
<title>09_relabel_wm (ants)</title>
<ellipse fill="none" stroke="black" cx="369" cy="-1098" rx="109.68" ry="18"/>
<text text-anchor="middle" x="369" y="-1094.3" font-family="Times,serif" font-size="14.00">09_relabel_wm (ants)</text>
</g>
<!-- 05_get_wm (ants)&#45;&gt;09_relabel_wm (ants) -->
<g id="edge26" class="edge">
<title>05_get_wm (ants)&#45;&gt;09_relabel_wm (ants)</title>
<path fill="none" stroke="black" d="M369,-1367.97C369,-1320.29 369,-1185.18 369,-1126.63"/>
<polygon fill="black" stroke="black" points="372.5,-1126.31 369,-1116.31 365.5,-1126.31 372.5,-1126.31"/>
</g>
<!-- 07_fill_gm (ants) -->
<g id="node21" class="node">
<title>07_fill_gm (ants)</title>
<ellipse fill="none" stroke="black" cx="607" cy="-1314" rx="87.18" ry="18"/>
<text text-anchor="middle" x="607" y="-1310.3" font-family="Times,serif" font-size="14.00">07_fill_gm (ants)</text>
</g>
<!-- 06_get_gm (ants)&#45;&gt;07_fill_gm (ants) -->
<g id="edge27" class="edge">
<title>06_get_gm (ants)&#45;&gt;07_fill_gm (ants)</title>
<path fill="none" stroke="black" d="M608.51,-1367.7C608.29,-1359.98 608.02,-1350.71 607.77,-1342.11"/>
<polygon fill="black" stroke="black" points="611.27,-1342 607.49,-1332.1 604.28,-1342.2 611.27,-1342"/>
</g>
<!-- 08_mult_gm (ants) -->
<g id="node22" class="node">
<title>08_mult_gm (ants)</title>
<ellipse fill="none" stroke="black" cx="692" cy="-1242" rx="96.68" ry="18"/>
<text text-anchor="middle" x="692" y="-1238.3" font-family="Times,serif" font-size="14.00">08_mult_gm (ants)</text>
</g>
<!-- 06_get_gm (ants)&#45;&gt;08_mult_gm (ants) -->
<g id="edge28" class="edge">
<title>06_get_gm (ants)&#45;&gt;08_mult_gm (ants)</title>
<path fill="none" stroke="black" d="M655.71,-1370.31C673.79,-1362.08 692.61,-1349.79 703,-1332 714.05,-1313.08 709.63,-1288.07 703.41,-1269.38"/>
<polygon fill="black" stroke="black" points="706.69,-1268.17 699.96,-1259.99 700.12,-1270.58 706.69,-1268.17"/>
</g>
<!-- 11_add_gm (ants) -->
<g id="node23" class="node">
<title>11_add_gm (ants)</title>
<ellipse fill="none" stroke="black" cx="640" cy="-1170" rx="92.88" ry="18"/>
<text text-anchor="middle" x="640" y="-1166.3" font-family="Times,serif" font-size="14.00">11_add_gm (ants)</text>
</g>
<!-- 10_me_csf (ants)&#45;&gt;11_add_gm (ants) -->
<g id="edge29" class="edge">
<title>10_me_csf (ants)&#45;&gt;11_add_gm (ants)</title>
<path fill="none" stroke="black" d="M522.89,-1225.29C544.67,-1215.19 573.17,-1201.98 596.6,-1191.12"/>
<polygon fill="black" stroke="black" points="598.36,-1194.16 605.96,-1186.78 595.42,-1187.81 598.36,-1194.16"/>
</g>
<!-- merge_tpms (utility) -->
<g id="node38" class="node">
<title>merge_tpms (utility)</title>
<ellipse fill="none" stroke="black" cx="211" cy="-954" rx="105.88" ry="18"/>
<text text-anchor="middle" x="211" y="-950.3" font-family="Times,serif" font-size="14.00">merge_tpms (utility)</text>
</g>
<!-- 27_depad_csf (ants)&#45;&gt;merge_tpms (utility) -->
<g id="edge30" class="edge">
<title>27_depad_csf (ants)&#45;&gt;merge_tpms (utility)</title>
<path fill="none" stroke="black" d="M173.9,-1296.73C136.35,-1273.98 77,-1228.88 77,-1171 77,-1171 77,-1171 77,-1097 77,-1056.55 70.74,-1039.59 96,-1008 108.51,-992.36 126.69,-981.14 144.91,-973.17"/>
<polygon fill="black" stroke="black" points="146.47,-976.31 154.41,-969.29 143.83,-969.83 146.47,-976.31"/>
</g>
<!-- 13_add_gm_wm (ants) -->
<g id="node24" class="node">
<title>13_add_gm_wm (ants)</title>
<ellipse fill="none" stroke="black" cx="675" cy="-1026" rx="113.98" ry="18"/>
<text text-anchor="middle" x="675" y="-1022.3" font-family="Times,serif" font-size="14.00">13_add_gm_wm (ants)</text>
</g>
<!-- 09_relabel_wm (ants)&#45;&gt;13_add_gm_wm (ants) -->
<g id="edge31" class="edge">
<title>09_relabel_wm (ants)&#45;&gt;13_add_gm_wm (ants)</title>
<path fill="none" stroke="black" d="M430.19,-1083C480.08,-1071.59 550.64,-1055.45 603.2,-1043.42"/>
<polygon fill="black" stroke="black" points="604.16,-1046.79 613.13,-1041.15 602.6,-1039.97 604.16,-1046.79"/>
</g>
<!-- 26_depad_wm (ants) -->
<g id="node25" class="node">
<title>26_depad_wm (ants)</title>
<ellipse fill="none" stroke="black" cx="211" cy="-1026" rx="105.88" ry="18"/>
<text text-anchor="middle" x="211" y="-1022.3" font-family="Times,serif" font-size="14.00">26_depad_wm (ants)</text>
</g>
<!-- 09_relabel_wm (ants)&#45;&gt;26_depad_wm (ants) -->
<g id="edge32" class="edge">
<title>09_relabel_wm (ants)&#45;&gt;26_depad_wm (ants)</title>
<path fill="none" stroke="black" d="M332.75,-1080.94C310.07,-1070.89 280.66,-1057.86 256.43,-1047.13"/>
<polygon fill="black" stroke="black" points="257.64,-1043.84 247.08,-1042.98 254.8,-1050.24 257.64,-1043.84"/>
</g>
<!-- 07_fill_gm (ants)&#45;&gt;08_mult_gm (ants) -->
<g id="edge33" class="edge">
<title>07_fill_gm (ants)&#45;&gt;08_mult_gm (ants)</title>
<path fill="none" stroke="black" d="M627.14,-1296.41C638.07,-1287.41 651.76,-1276.14 663.74,-1266.27"/>
<polygon fill="black" stroke="black" points="666.21,-1268.77 671.71,-1259.71 661.76,-1263.37 666.21,-1268.77"/>
</g>
<!-- 08_mult_gm (ants)&#45;&gt;11_add_gm (ants) -->
<g id="edge34" class="edge">
<title>08_mult_gm (ants)&#45;&gt;11_add_gm (ants)</title>
<path fill="none" stroke="black" d="M679.41,-1224.05C673.24,-1215.75 665.69,-1205.58 658.85,-1196.38"/>
<polygon fill="black" stroke="black" points="661.61,-1194.22 652.83,-1188.28 655.99,-1198.39 661.61,-1194.22"/>
</g>
<!-- 12_relabel_gm (ants) -->
<g id="node26" class="node">
<title>12_relabel_gm (ants)</title>
<ellipse fill="none" stroke="black" cx="640" cy="-1098" rx="107.78" ry="18"/>
<text text-anchor="middle" x="640" y="-1094.3" font-family="Times,serif" font-size="14.00">12_relabel_gm (ants)</text>
</g>
<!-- 11_add_gm (ants)&#45;&gt;12_relabel_gm (ants) -->
<g id="edge35" class="edge">
<title>11_add_gm (ants)&#45;&gt;12_relabel_gm (ants)</title>
<path fill="none" stroke="black" d="M640,-1151.7C640,-1143.98 640,-1134.71 640,-1126.11"/>
<polygon fill="black" stroke="black" points="643.5,-1126.1 640,-1116.1 636.5,-1126.1 643.5,-1126.1"/>
</g>
<!-- 14_sel_labels2 (utility) -->
<g id="node28" class="node">
<title>14_sel_labels2 (utility)</title>
<ellipse fill="none" stroke="black" cx="674" cy="-954" rx="115.08" ry="18"/>
<text text-anchor="middle" x="674" y="-950.3" font-family="Times,serif" font-size="14.00">14_sel_labels2 (utility)</text>
</g>
<!-- 13_add_gm_wm (ants)&#45;&gt;14_sel_labels2 (utility) -->
<g id="edge36" class="edge">
<title>13_add_gm_wm (ants)&#45;&gt;14_sel_labels2 (utility)</title>
<path fill="none" stroke="black" d="M674.75,-1007.7C674.64,-999.98 674.51,-990.71 674.39,-982.11"/>
<polygon fill="black" stroke="black" points="677.89,-982.05 674.24,-972.1 670.89,-982.15 677.89,-982.05"/>
</g>
<!-- 24_depad_segm (ants) -->
<g id="node29" class="node">
<title>24_depad_segm (ants)</title>
<ellipse fill="none" stroke="black" cx="397" cy="-882" rx="114.28" ry="18"/>
<text text-anchor="middle" x="397" y="-878.3" font-family="Times,serif" font-size="14.00">24_depad_segm (ants)</text>
</g>
<!-- 13_add_gm_wm (ants)&#45;&gt;24_depad_segm (ants) -->
<g id="edge37" class="edge">
<title>13_add_gm_wm (ants)&#45;&gt;24_depad_segm (ants)</title>
<path fill="none" stroke="black" d="M633.88,-1009.09C609.21,-999.16 577.4,-985.71 550,-972 508.35,-951.16 462.4,-923.81 431.83,-904.95"/>
<polygon fill="black" stroke="black" points="433.59,-901.93 423.25,-899.63 429.9,-907.88 433.59,-901.93"/>
</g>
<!-- 26_depad_wm (ants)&#45;&gt;merge_tpms (utility) -->
<g id="edge38" class="edge">
<title>26_depad_wm (ants)&#45;&gt;merge_tpms (utility)</title>
<path fill="none" stroke="black" d="M211,-1007.7C211,-999.98 211,-990.71 211,-982.11"/>
<polygon fill="black" stroke="black" points="214.5,-982.1 211,-972.1 207.5,-982.1 214.5,-982.1"/>
</g>
<!-- 12_relabel_gm (ants)&#45;&gt;13_add_gm_wm (ants) -->
<g id="edge39" class="edge">
<title>12_relabel_gm (ants)&#45;&gt;13_add_gm_wm (ants)</title>
<path fill="none" stroke="black" d="M648.47,-1080.05C652.5,-1072.01 657.4,-1062.2 661.89,-1053.23"/>
<polygon fill="black" stroke="black" points="665.02,-1054.78 666.36,-1044.28 658.76,-1051.65 665.02,-1054.78"/>
</g>
<!-- 25_depad_gm (ants) -->
<g id="node27" class="node">
<title>25_depad_gm (ants)</title>
<ellipse fill="none" stroke="black" cx="439" cy="-1026" rx="103.98" ry="18"/>
<text text-anchor="middle" x="439" y="-1022.3" font-family="Times,serif" font-size="14.00">25_depad_gm (ants)</text>
</g>
<!-- 12_relabel_gm (ants)&#45;&gt;25_depad_gm (ants) -->
<g id="edge40" class="edge">
<title>12_relabel_gm (ants)&#45;&gt;25_depad_gm (ants)</title>
<path fill="none" stroke="black" d="M595.39,-1081.46C565.1,-1070.92 524.88,-1056.91 492.81,-1045.74"/>
<polygon fill="black" stroke="black" points="493.73,-1042.35 483.14,-1042.37 491.43,-1048.97 493.73,-1042.35"/>
</g>
<!-- 25_depad_gm (ants)&#45;&gt;merge_tpms (utility) -->
<g id="edge41" class="edge">
<title>25_depad_gm (ants)&#45;&gt;merge_tpms (utility)</title>
<path fill="none" stroke="black" d="M390.37,-1010.07C355.07,-999.23 307.15,-984.52 269.72,-973.03"/>
<polygon fill="black" stroke="black" points="270.54,-969.62 259.95,-970.03 268.48,-976.31 270.54,-969.62"/>
</g>
<!-- 15_add_7 (ants) -->
<g id="node30" class="node">
<title>15_add_7 (ants)</title>
<ellipse fill="none" stroke="black" cx="677" cy="-882" rx="83.69" ry="18"/>
<text text-anchor="middle" x="677" y="-878.3" font-family="Times,serif" font-size="14.00">15_add_7 (ants)</text>
</g>
<!-- 14_sel_labels2 (utility)&#45;&gt;15_add_7 (ants) -->
<g id="edge42" class="edge">
<title>14_sel_labels2 (utility)&#45;&gt;15_add_7 (ants)</title>
<path fill="none" stroke="black" d="M674.74,-935.7C675.07,-927.98 675.47,-918.71 675.84,-910.11"/>
<polygon fill="black" stroke="black" points="679.34,-910.25 676.27,-900.1 672.34,-909.95 679.34,-910.25"/>
</g>
<!-- 24_depad_segm (ants)&#45;&gt;copy_xform (header) -->
<g id="edge43" class="edge">
<title>24_depad_segm (ants)&#45;&gt;copy_xform (header)</title>
<path fill="none" stroke="black" d="M378.77,-864.1C354.07,-839.27 313,-790.27 313,-739 313,-739 313,-739 313,-305 313,-255.54 271.68,-211.52 241.64,-186.04"/>
<polygon fill="black" stroke="black" points="243.84,-183.32 233.89,-179.67 239.39,-188.73 243.84,-183.32"/>
</g>
<!-- 16_me_7 (ants) -->
<g id="node31" class="node">
<title>16_me_7 (ants)</title>
<ellipse fill="none" stroke="black" cx="680" cy="-810" rx="81.49" ry="18"/>
<text text-anchor="middle" x="680" y="-806.3" font-family="Times,serif" font-size="14.00">16_me_7 (ants)</text>
</g>
<!-- 15_add_7 (ants)&#45;&gt;16_me_7 (ants) -->
<g id="edge44" class="edge">
<title>15_add_7 (ants)&#45;&gt;16_me_7 (ants)</title>
<path fill="none" stroke="black" d="M677.74,-863.7C678.07,-855.98 678.47,-846.71 678.84,-838.11"/>
<polygon fill="black" stroke="black" points="682.34,-838.25 679.27,-828.1 675.34,-837.95 682.34,-838.25"/>
</g>
<!-- 17_comp_7 (ants) -->
<g id="node32" class="node">
<title>17_comp_7 (ants)</title>
<ellipse fill="none" stroke="black" cx="691" cy="-738" rx="91.78" ry="18"/>
<text text-anchor="middle" x="691" y="-734.3" font-family="Times,serif" font-size="14.00">17_comp_7 (ants)</text>
</g>
<!-- 16_me_7 (ants)&#45;&gt;17_comp_7 (ants) -->
<g id="edge45" class="edge">
<title>16_me_7 (ants)&#45;&gt;17_comp_7 (ants)</title>
<path fill="none" stroke="black" d="M682.72,-791.7C683.93,-783.98 685.39,-774.71 686.74,-766.11"/>
<polygon fill="black" stroke="black" points="690.22,-766.53 688.31,-756.1 683.3,-765.44 690.22,-766.53"/>
</g>
<!-- 18_md_7 (ants) -->
<g id="node33" class="node">
<title>18_md_7 (ants)</title>
<ellipse fill="none" stroke="black" cx="696" cy="-666" rx="81.49" ry="18"/>
<text text-anchor="middle" x="696" y="-662.3" font-family="Times,serif" font-size="14.00">18_md_7 (ants)</text>
</g>
<!-- 17_comp_7 (ants)&#45;&gt;18_md_7 (ants) -->
<g id="edge46" class="edge">
<title>17_comp_7 (ants)&#45;&gt;18_md_7 (ants)</title>
<path fill="none" stroke="black" d="M692.24,-719.7C692.79,-711.98 693.45,-702.71 694.06,-694.11"/>
<polygon fill="black" stroke="black" points="697.56,-694.33 694.78,-684.1 690.57,-693.83 697.56,-694.33"/>
</g>
<!-- 19_fill_7 (ants) -->
<g id="node34" class="node">
<title>19_fill_7 (ants)</title>
<ellipse fill="none" stroke="black" cx="699" cy="-594" rx="78.79" ry="18"/>
<text text-anchor="middle" x="699" y="-590.3" font-family="Times,serif" font-size="14.00">19_fill_7 (ants)</text>
</g>
<!-- 18_md_7 (ants)&#45;&gt;19_fill_7 (ants) -->
<g id="edge47" class="edge">
<title>18_md_7 (ants)&#45;&gt;19_fill_7 (ants)</title>
<path fill="none" stroke="black" d="M696.74,-647.7C697.07,-639.98 697.47,-630.71 697.84,-622.11"/>
<polygon fill="black" stroke="black" points="701.34,-622.25 698.27,-612.1 694.34,-621.95 701.34,-622.25"/>
</g>
<!-- 19_fill_7 (ants)&#45;&gt;20_add_7_2 (ants) -->
<g id="edge48" class="edge">
<title>19_fill_7 (ants)&#45;&gt;20_add_7_2 (ants)</title>
<path fill="none" stroke="black" d="M701.72,-575.7C702.93,-567.98 704.39,-558.71 705.74,-550.11"/>
<polygon fill="black" stroke="black" points="709.22,-550.53 707.31,-540.1 702.3,-549.44 709.22,-550.53"/>
</g>
<!-- 22_me_7_2 (ants) -->
<g id="node36" class="node">
<title>22_me_7_2 (ants)</title>
<ellipse fill="none" stroke="black" cx="710" cy="-378" rx="90.98" ry="18"/>
<text text-anchor="middle" x="710" y="-374.3" font-family="Times,serif" font-size="14.00">22_me_7_2 (ants)</text>
</g>
<!-- 21_md_7_2 (ants)&#45;&gt;22_me_7_2 (ants) -->
<g id="edge49" class="edge">
<title>21_md_7_2 (ants)&#45;&gt;22_me_7_2 (ants)</title>
<path fill="none" stroke="black" d="M710,-431.7C710,-423.98 710,-414.71 710,-406.11"/>
<polygon fill="black" stroke="black" points="713.5,-406.1 710,-396.1 706.5,-406.1 713.5,-406.1"/>
</g>
<!-- 23_depad_mask (ants) -->
<g id="node37" class="node">
<title>23_depad_mask (ants)</title>
<ellipse fill="none" stroke="black" cx="710" cy="-306" rx="113.98" ry="18"/>
<text text-anchor="middle" x="710" y="-302.3" font-family="Times,serif" font-size="14.00">23_depad_mask (ants)</text>
</g>
<!-- 22_me_7_2 (ants)&#45;&gt;23_depad_mask (ants) -->
<g id="edge50" class="edge">
<title>22_me_7_2 (ants)&#45;&gt;23_depad_mask (ants)</title>
<path fill="none" stroke="black" d="M710,-359.7C710,-351.98 710,-342.71 710,-334.11"/>
<polygon fill="black" stroke="black" points="713.5,-334.1 710,-324.1 706.5,-334.1 713.5,-334.1"/>
</g>
<!-- 23_depad_mask (ants)&#45;&gt;msk_conform (utility) -->
<g id="edge51" class="edge">
<title>23_depad_mask (ants)&#45;&gt;msk_conform (utility)</title>
<path fill="none" stroke="black" d="M710,-287.7C710,-279.98 710,-270.71 710,-262.11"/>
<polygon fill="black" stroke="black" points="713.5,-262.1 710,-252.1 706.5,-262.1 713.5,-262.1"/>
</g>
<!-- merge_tpms (utility)&#45;&gt;copy_xform (header) -->
<g id="edge52" class="edge">
<title>merge_tpms (utility)&#45;&gt;copy_xform (header)</title>
<path fill="none" stroke="black" d="M211,-935.95C211,-909.29 211,-856.11 211,-811 211,-811 211,-811 211,-305 211,-265 211,-218.65 211,-190.08"/>
<polygon fill="black" stroke="black" points="214.5,-190.05 211,-180.05 207.5,-190.05 214.5,-190.05"/>
</g>
</g>
</svg>
