<?xml version="1.0" encoding="UTF-8" standalone="no"?>
<!DOCTYPE svg PUBLIC "-//W3C//DTD SVG 1.1//EN"
 "http://www.w3.org/Graphics/SVG/1.1/DTD/svg11.dtd">
<!-- Generated by graphviz version 2.40.1 (20161225.0304)
 -->
<!-- Title: structs Pages: 1 -->
<svg width="1626pt" height="686pt"
 viewBox="0.00 0.00 1625.50 686.00" xmlns="http://www.w3.org/2000/svg" xmlns:xlink="http://www.w3.org/1999/xlink">
<g id="graph0" class="graph" transform="scale(1 1) rotate(0) translate(4 682)">
<title>structs</title>
<polygon fill="#ffffff" stroke="transparent" points="-4,4 -4,-682 1621.5,-682 1621.5,4 -4,4"/>
<!-- bold_reference_wfinputnode -->
<g id="node1" class="node">
<title>bold_reference_wfinputnode</title>
<polygon fill="none" stroke="#000000" points="0,-585.5 0,-677.5 242,-677.5 242,-585.5 0,-585.5"/>
<text text-anchor="middle" x="17.5" y="-627.8" font-family="Times,serif" font-size="14.00" fill="#000000">IN</text>
<polyline fill="none" stroke="#000000" points="35,-585.5 35,-677.5 "/>
<text text-anchor="middle" x="79.5" y="-658.8" font-family="Times,serif" font-size="14.00" fill="#000000">inputnode</text>
<polyline fill="none" stroke="#000000" points="35,-647.5 124,-647.5 "/>
<text text-anchor="middle" x="79.5" y="-628.3" font-family="Times,serif" font-size="14.00" fill="#000000">utility</text>
<polyline fill="none" stroke="#000000" points="35,-616.5 124,-616.5 "/>
<text text-anchor="middle" x="79.5" y="-597.3" font-family="Times,serif" font-size="14.00" fill="#000000"> </text>
<polyline fill="none" stroke="#000000" points="124,-585.5 124,-677.5 "/>
<text text-anchor="middle" x="183" y="-662.3" font-family="Times,serif" font-size="14.00" fill="#000000">OUT</text>
<polyline fill="none" stroke="#000000" points="124,-654.5 242,-654.5 "/>
<text text-anchor="middle" x="183" y="-639.3" font-family="Times,serif" font-size="14.00" fill="#000000">bold_file</text>
<polyline fill="none" stroke="#000000" points="124,-631.5 242,-631.5 "/>
<text text-anchor="middle" x="183" y="-616.3" font-family="Times,serif" font-size="14.00" fill="#000000">bold_mask</text>
<polyline fill="none" stroke="#000000" points="124,-608.5 242,-608.5 "/>
<text text-anchor="middle" x="183" y="-593.3" font-family="Times,serif" font-size="14.00" fill="#000000">dummy_scans</text>
</g>
<!-- bold_reference_wfget_dummy -->
<g id="node2" class="node">
<title>bold_reference_wfget_dummy</title>
<polygon fill="none" stroke="#000000" points="299.5,-479.5 299.5,-548.5 546.5,-548.5 546.5,-479.5 299.5,-479.5"/>
<text text-anchor="middle" x="329.5" y="-527.8" font-family="Times,serif" font-size="14.00" fill="#000000">IN</text>
<polyline fill="none" stroke="#000000" points="299.5,-514.5 359.5,-514.5 "/>
<text text-anchor="middle" x="329.5" y="-493.3" font-family="Times,serif" font-size="14.00" fill="#000000">in_file</text>
<polyline fill="none" stroke="#000000" points="359.5,-479.5 359.5,-548.5 "/>
<text text-anchor="middle" x="410" y="-533.3" font-family="Times,serif" font-size="14.00" fill="#000000">get_dummy</text>
<polyline fill="none" stroke="#000000" points="359.5,-525.5 460.5,-525.5 "/>
<text text-anchor="middle" x="410" y="-510.3" font-family="Times,serif" font-size="14.00" fill="#000000">bold</text>
<polyline fill="none" stroke="#000000" points="359.5,-502.5 460.5,-502.5 "/>
<text text-anchor="middle" x="410" y="-487.3" font-family="Times,serif" font-size="14.00" fill="#000000"> </text>
<polyline fill="none" stroke="#000000" points="460.5,-479.5 460.5,-548.5 "/>
<text text-anchor="middle" x="503.5" y="-533.3" font-family="Times,serif" font-size="14.00" fill="#000000">OUT</text>
<polyline fill="none" stroke="#000000" points="460.5,-525.5 546.5,-525.5 "/>
<text text-anchor="middle" x="503.5" y="-510.3" font-family="Times,serif" font-size="14.00" fill="#000000">n_dummy</text>
<polyline fill="none" stroke="#000000" points="460.5,-502.5 546.5,-502.5 "/>
<text text-anchor="middle" x="503.5" y="-487.3" font-family="Times,serif" font-size="14.00" fill="#000000">t_mask</text>
</g>
<!-- bold_reference_wfinputnode&#45;&gt;bold_reference_wfget_dummy -->
<g id="edge10" class="edge">
<title>bold_reference_wfinputnode:e&#45;&gt;bold_reference_wfget_dummy:w</title>
<path fill="none" stroke="#000000" d="M242,-643.5C308.045,-643.5 237.7266,-512.5853 288.8569,-498.2665"/>
<polygon fill="#000000" stroke="#000000" points="289.5107,-501.7121 299,-497 288.6434,-494.7661 289.5107,-501.7121"/>
</g>
<!-- bold_reference_wfcalc_dummy_scans -->
<g id="node3" class="node">
<title>bold_reference_wfcalc_dummy_scans</title>
<polygon fill="none" stroke="#000000" points="174,-373.5 174,-442.5 606,-442.5 606,-373.5 174,-373.5"/>
<text text-anchor="middle" x="251.5" y="-427.3" font-family="Times,serif" font-size="14.00" fill="#000000">IN</text>
<polyline fill="none" stroke="#000000" points="174,-419.5 329,-419.5 "/>
<text text-anchor="middle" x="251.5" y="-404.3" font-family="Times,serif" font-size="14.00" fill="#000000">algo_dummy_scans</text>
<polyline fill="none" stroke="#000000" points="174,-396.5 329,-396.5 "/>
<text text-anchor="middle" x="251.5" y="-381.3" font-family="Times,serif" font-size="14.00" fill="#000000">dummy_scans</text>
<polyline fill="none" stroke="#000000" points="329,-373.5 329,-442.5 "/>
<text text-anchor="middle" x="406.5" y="-427.3" font-family="Times,serif" font-size="14.00" fill="#000000">calc_dummy_scans</text>
<polyline fill="none" stroke="#000000" points="329,-419.5 484,-419.5 "/>
<text text-anchor="middle" x="406.5" y="-404.3" font-family="Times,serif" font-size="14.00" fill="#000000">utility</text>
<polyline fill="none" stroke="#000000" points="329,-396.5 484,-396.5 "/>
<text text-anchor="middle" x="406.5" y="-381.3" font-family="Times,serif" font-size="14.00" fill="#000000"> </text>
<polyline fill="none" stroke="#000000" points="484,-373.5 484,-442.5 "/>
<text text-anchor="middle" x="545" y="-421.8" font-family="Times,serif" font-size="14.00" fill="#000000">OUT</text>
<polyline fill="none" stroke="#000000" points="484,-408.5 606,-408.5 "/>
<text text-anchor="middle" x="545" y="-387.3" font-family="Times,serif" font-size="14.00" fill="#000000">skip_vols_num</text>
</g>
<!-- bold_reference_wfinputnode&#45;&gt;bold_reference_wfcalc_dummy_scans -->
<g id="edge13" class="edge">
<title>bold_reference_wfinputnode:e&#45;&gt;bold_reference_wfcalc_dummy_scans:w</title>
<path fill="none" stroke="#000000" d="M242,-596.5C247.1111,-596.5 243.1319,-589.9842 242,-585 226.5042,-516.7631 189.4958,-511.2369 174,-443 169.3172,-422.3792 154.9709,-396.5605 164.1957,-387.9477"/>
<polygon fill="#000000" stroke="#000000" points="165.4312,-391.2311 174,-385 163.4157,-384.5275 165.4312,-391.2311"/>
</g>
<!-- bold_reference_wfval_bold -->
<g id="node4" class="node">
<title>bold_reference_wfval_bold</title>
<polygon fill="none" stroke="#000000" points="796,-479.5 796,-548.5 1024,-548.5 1024,-479.5 796,-479.5"/>
<text text-anchor="middle" x="826" y="-527.8" font-family="Times,serif" font-size="14.00" fill="#000000">IN</text>
<polyline fill="none" stroke="#000000" points="796,-514.5 856,-514.5 "/>
<text text-anchor="middle" x="826" y="-493.3" font-family="Times,serif" font-size="14.00" fill="#000000">in_file</text>
<polyline fill="none" stroke="#000000" points="856,-479.5 856,-548.5 "/>
<text text-anchor="middle" x="894" y="-533.3" font-family="Times,serif" font-size="14.00" fill="#000000">val_bold</text>
<polyline fill="none" stroke="#000000" points="856,-525.5 932,-525.5 "/>
<text text-anchor="middle" x="894" y="-510.3" font-family="Times,serif" font-size="14.00" fill="#000000">header</text>
<polyline fill="none" stroke="#000000" points="856,-502.5 932,-502.5 "/>
<text text-anchor="middle" x="894" y="-487.3" font-family="Times,serif" font-size="14.00" fill="#000000"> </text>
<polyline fill="none" stroke="#000000" points="932,-479.5 932,-548.5 "/>
<text text-anchor="middle" x="978" y="-533.3" font-family="Times,serif" font-size="14.00" fill="#000000">OUT</text>
<polyline fill="none" stroke="#000000" points="932,-525.5 1024,-525.5 "/>
<text text-anchor="middle" x="978" y="-510.3" font-family="Times,serif" font-size="14.00" fill="#000000">out_file</text>
<polyline fill="none" stroke="#000000" points="932,-502.5 1024,-502.5 "/>
<text text-anchor="middle" x="978" y="-487.3" font-family="Times,serif" font-size="14.00" fill="#000000">out_report</text>
</g>
<!-- bold_reference_wfinputnode&#45;&gt;bold_reference_wfval_bold -->
<g id="edge11" class="edge">
<title>bold_reference_wfinputnode:e&#45;&gt;bold_reference_wfval_bold:w</title>
<path fill="none" stroke="#000000" d="M242,-643.5C493.2037,-643.5 540.0547,-500.9785 785.6706,-497.0814"/>
<polygon fill="#000000" stroke="#000000" points="786.0279,-500.5788 796,-497 785.9727,-493.579 786.0279,-500.5788"/>
</g>
<!-- bold_reference_wfenhance_and_skullstrip_bold_wf -->
<g id="node6" class="node">
<title>bold_reference_wfenhance_and_skullstrip_bold_wf</title>
<polygon fill="none" stroke="#000000" points="662.5,-244.5 662.5,-336.5 1313.5,-336.5 1313.5,-244.5 662.5,-244.5"/>
<text text-anchor="middle" x="744" y="-317.8" font-family="Times,serif" font-size="14.00" fill="#000000">IN</text>
<polyline fill="none" stroke="#000000" points="662.5,-306.5 825.5,-306.5 "/>
<text text-anchor="middle" x="744" y="-287.3" font-family="Times,serif" font-size="14.00" fill="#000000">inputnode.in_file</text>
<polyline fill="none" stroke="#000000" points="662.5,-275.5 825.5,-275.5 "/>
<text text-anchor="middle" x="744" y="-256.3" font-family="Times,serif" font-size="14.00" fill="#000000">inputnode.pre_mask</text>
<polyline fill="none" stroke="#000000" points="825.5,-244.5 825.5,-336.5 "/>
<text text-anchor="middle" x="950" y="-317.8" font-family="Times,serif" font-size="14.00" fill="#000000">enhance_and_skullstrip_bold_wf</text>
<polyline fill="none" stroke="#000000" points="825.5,-306.5 1074.5,-306.5 "/>
<text text-anchor="middle" x="950" y="-287.3" font-family="Times,serif" font-size="14.00" fill="#000000"> </text>
<polyline fill="none" stroke="#000000" points="825.5,-275.5 1074.5,-275.5 "/>
<text text-anchor="middle" x="950" y="-256.3" font-family="Times,serif" font-size="14.00" fill="#000000"> </text>
<polyline fill="none" stroke="#000000" points="1074.5,-244.5 1074.5,-336.5 "/>
<text text-anchor="middle" x="1194" y="-321.3" font-family="Times,serif" font-size="14.00" fill="#000000">OUT</text>
<polyline fill="none" stroke="#000000" points="1074.5,-313.5 1313.5,-313.5 "/>
<text text-anchor="middle" x="1194" y="-298.3" font-family="Times,serif" font-size="14.00" fill="#000000">outputnode.bias_corrected_file</text>
<polyline fill="none" stroke="#000000" points="1074.5,-290.5 1313.5,-290.5 "/>
<text text-anchor="middle" x="1194" y="-275.3" font-family="Times,serif" font-size="14.00" fill="#000000">outputnode.mask_file</text>
<polyline fill="none" stroke="#000000" points="1074.5,-267.5 1313.5,-267.5 "/>
<text text-anchor="middle" x="1194" y="-252.3" font-family="Times,serif" font-size="14.00" fill="#000000">outputnode.skull_stripped_file</text>
</g>
<!-- bold_reference_wfinputnode&#45;&gt;bold_reference_wfenhance_and_skullstrip_bold_wf -->
<g id="edge12" class="edge">
<title>bold_reference_wfinputnode:e&#45;&gt;bold_reference_wfenhance_and_skullstrip_bold_wf:w</title>
<path fill="none" stroke="#000000" d="M242,-619.5C257.3333,-619.5 249.5547,-598.3431 242,-585 226.6779,-557.9382 199.4232,-574.7593 182,-549 137.9712,-483.9057 116.006,-434.4442 165,-373 233.6283,-286.9322 531.1734,-260.9627 651.9043,-259.5608"/>
<polygon fill="#000000" stroke="#000000" points="652.0213,-263.0603 662,-259.5 651.9791,-256.0604 652.0213,-263.0603"/>
</g>
<!-- bold_reference_wfget_dummy&#45;&gt;bold_reference_wfcalc_dummy_scans -->
<g id="edge7" class="edge">
<title>bold_reference_wfget_dummy:e&#45;&gt;bold_reference_wfcalc_dummy_scans:w</title>
<path fill="none" stroke="#000000" d="M547,-514C562.5556,-514 557.4578,-490.5157 547,-479 491.0162,-417.3528 229.9838,-504.6472 174,-443 166.6469,-434.903 161.9437,-420.889 165.2065,-413.2817"/>
<polygon fill="#000000" stroke="#000000" points="167.2297,-416.1494 174,-408 163.6253,-410.1487 167.2297,-416.1494"/>
</g>
<!-- bold_reference_wfgen_avg -->
<g id="node5" class="node">
<title>bold_reference_wfgen_avg</title>
<polygon fill="none" stroke="#000000" points="898,-373.5 898,-442.5 1112,-442.5 1112,-373.5 898,-373.5"/>
<text text-anchor="middle" x="932" y="-427.3" font-family="Times,serif" font-size="14.00" fill="#000000">IN</text>
<polyline fill="none" stroke="#000000" points="898,-419.5 966,-419.5 "/>
<text text-anchor="middle" x="932" y="-404.3" font-family="Times,serif" font-size="14.00" fill="#000000">in_file</text>
<polyline fill="none" stroke="#000000" points="898,-396.5 966,-396.5 "/>
<text text-anchor="middle" x="932" y="-381.3" font-family="Times,serif" font-size="14.00" fill="#000000">t_mask</text>
<polyline fill="none" stroke="#000000" points="966,-373.5 966,-442.5 "/>
<text text-anchor="middle" x="1004" y="-427.3" font-family="Times,serif" font-size="14.00" fill="#000000">gen_avg</text>
<polyline fill="none" stroke="#000000" points="966,-419.5 1042,-419.5 "/>
<text text-anchor="middle" x="1004" y="-404.3" font-family="Times,serif" font-size="14.00" fill="#000000">images</text>
<polyline fill="none" stroke="#000000" points="966,-396.5 1042,-396.5 "/>
<text text-anchor="middle" x="1004" y="-381.3" font-family="Times,serif" font-size="14.00" fill="#000000"> </text>
<polyline fill="none" stroke="#000000" points="1042,-373.5 1042,-442.5 "/>
<text text-anchor="middle" x="1077" y="-421.8" font-family="Times,serif" font-size="14.00" fill="#000000">OUT</text>
<polyline fill="none" stroke="#000000" points="1042,-408.5 1112,-408.5 "/>
<text text-anchor="middle" x="1077" y="-387.3" font-family="Times,serif" font-size="14.00" fill="#000000">out_file</text>
</g>
<!-- bold_reference_wfget_dummy&#45;&gt;bold_reference_wfgen_avg -->
<g id="edge9" class="edge">
<title>bold_reference_wfget_dummy:e&#45;&gt;bold_reference_wfgen_avg:w</title>
<path fill="none" stroke="#000000" d="M547,-491C706.4574,-491 733.9001,-389.5058 887.685,-385.1447"/>
<polygon fill="#000000" stroke="#000000" points="888.0501,-388.64 898,-385 887.9519,-381.6407 888.0501,-388.64"/>
</g>
<!-- bold_reference_wfoutputnode -->
<g id="node7" class="node">
<title>bold_reference_wfoutputnode</title>
<polygon fill="none" stroke="#000000" points="1314.5,-.5 1314.5,-207.5 1617.5,-207.5 1617.5,-.5 1314.5,-.5"/>
<text text-anchor="middle" x="1392" y="-192.3" font-family="Times,serif" font-size="14.00" fill="#000000">IN</text>
<polyline fill="none" stroke="#000000" points="1314.5,-184.5 1469.5,-184.5 "/>
<text text-anchor="middle" x="1392" y="-169.3" font-family="Times,serif" font-size="14.00" fill="#000000">algo_dummy_scans</text>
<polyline fill="none" stroke="#000000" points="1314.5,-161.5 1469.5,-161.5 "/>
<text text-anchor="middle" x="1392" y="-146.3" font-family="Times,serif" font-size="14.00" fill="#000000">bold_file</text>
<polyline fill="none" stroke="#000000" points="1314.5,-138.5 1469.5,-138.5 "/>
<text text-anchor="middle" x="1392" y="-123.3" font-family="Times,serif" font-size="14.00" fill="#000000">bold_mask</text>
<polyline fill="none" stroke="#000000" points="1314.5,-115.5 1469.5,-115.5 "/>
<text text-anchor="middle" x="1392" y="-100.3" font-family="Times,serif" font-size="14.00" fill="#000000">raw_ref_image</text>
<polyline fill="none" stroke="#000000" points="1314.5,-92.5 1469.5,-92.5 "/>
<text text-anchor="middle" x="1392" y="-77.3" font-family="Times,serif" font-size="14.00" fill="#000000">ref_image</text>
<polyline fill="none" stroke="#000000" points="1314.5,-69.5 1469.5,-69.5 "/>
<text text-anchor="middle" x="1392" y="-54.3" font-family="Times,serif" font-size="14.00" fill="#000000">ref_image_brain</text>
<polyline fill="none" stroke="#000000" points="1314.5,-46.5 1469.5,-46.5 "/>
<text text-anchor="middle" x="1392" y="-31.3" font-family="Times,serif" font-size="14.00" fill="#000000">skip_vols</text>
<polyline fill="none" stroke="#000000" points="1314.5,-23.5 1469.5,-23.5 "/>
<text text-anchor="middle" x="1392" y="-8.3" font-family="Times,serif" font-size="14.00" fill="#000000">validation_report</text>
<polyline fill="none" stroke="#000000" points="1469.5,-.5 1469.5,-207.5 "/>
<text text-anchor="middle" x="1518.5" y="-169.3" font-family="Times,serif" font-size="14.00" fill="#000000">outputnode</text>
<polyline fill="none" stroke="#000000" points="1469.5,-138.5 1567.5,-138.5 "/>
<text text-anchor="middle" x="1518.5" y="-100.3" font-family="Times,serif" font-size="14.00" fill="#000000">utility</text>
<polyline fill="none" stroke="#000000" points="1469.5,-69.5 1567.5,-69.5 "/>
<text text-anchor="middle" x="1518.5" y="-31.3" font-family="Times,serif" font-size="14.00" fill="#000000"> </text>
<polyline fill="none" stroke="#000000" points="1567.5,-.5 1567.5,-207.5 "/>
<text text-anchor="middle" x="1592.5" y="-100.3" font-family="Times,serif" font-size="14.00" fill="#000000">OUT</text>
</g>
<!-- bold_reference_wfget_dummy&#45;&gt;bold_reference_wfoutputnode -->
<g id="edge8" class="edge">
<title>bold_reference_wfget_dummy:e&#45;&gt;bold_reference_wfoutputnode:w</title>
<path fill="none" stroke="#000000" d="M547,-514C659.454,-514 630.7564,-265.3181 654,-244 706.3393,-195.9964 1201.4252,-174.609 1303.944,-173.0877"/>
<polygon fill="#000000" stroke="#000000" points="1304.031,-176.5872 1314,-173 1303.9698,-169.5875 1304.031,-176.5872"/>
</g>
<!-- bold_reference_wfcalc_dummy_scans&#45;&gt;bold_reference_wfoutputnode -->
<g id="edge1" class="edge">
<title>bold_reference_wfcalc_dummy_scans:e&#45;&gt;bold_reference_wfoutputnode:w</title>
<path fill="none" stroke="#000000" d="M606,-391C638.8145,-391 599.1981,-269.3786 620,-244 720.0084,-121.9886 1135.4034,-38.48 1303.7556,-35.1061"/>
<polygon fill="#000000" stroke="#000000" points="1304.0368,-38.6035 1314,-35 1303.9642,-31.6039 1304.0368,-38.6035"/>
</g>
<!-- bold_reference_wfval_bold&#45;&gt;bold_reference_wfgen_avg -->
<g id="edge14" class="edge">
<title>bold_reference_wfval_bold:e&#45;&gt;bold_reference_wfgen_avg:w</title>
<path fill="none" stroke="#000000" d="M1024,-514C1039.5556,-514 1033.3675,-491.4188 1024,-479 988.9276,-432.5035 933.0724,-489.4965 898,-443 891.5599,-434.4621 886.6225,-421.1208 889.2203,-413.6163"/>
<polygon fill="#000000" stroke="#000000" points="891.4622,-416.3371 898,-408 887.69,-410.4404 891.4622,-416.3371"/>
</g>
<!-- bold_reference_wfval_bold&#45;&gt;bold_reference_wfoutputnode -->
<g id="edge15" class="edge">
<title>bold_reference_wfval_bold:e&#45;&gt;bold_reference_wfoutputnode:w</title>
<path fill="none" stroke="#000000" d="M1024,-514C1107.7224,-514 1340.6686,-507.5383 1394,-443 1450.3394,-374.8216 1442.0228,-318.2713 1394,-244 1372.8297,-211.2583 1335.1703,-240.7417 1314,-208 1302.2997,-189.9045 1292.1476,-161.5325 1304.1893,-152.71"/>
<polygon fill="#000000" stroke="#000000" points="1305.2929,-156.0363 1314,-150 1303.429,-149.289 1305.2929,-156.0363"/>
</g>
<!-- bold_reference_wfval_bold&#45;&gt;bold_reference_wfoutputnode -->
<g id="edge16" class="edge">
<title>bold_reference_wfval_bold:e&#45;&gt;bold_reference_wfoutputnode:w</title>
<path fill="none" stroke="#000000" d="M1024,-491C1181.8347,-491 1260.0093,-470.6314 1344,-337 1365.9953,-302.005 1358.0709,-282.8646 1344,-244 1336.9098,-224.4167 1321.0902,-227.5833 1314,-208 1285.5615,-129.4514 1231.5553,-21.305 1303.999,-12.5657"/>
<polygon fill="#000000" stroke="#000000" points="1304.2137,-16.0593 1314,-12 1303.8183,-9.0704 1304.2137,-16.0593"/>
</g>
<!-- bold_reference_wfgen_avg&#45;&gt;bold_reference_wfenhance_and_skullstrip_bold_wf -->
<g id="edge5" class="edge">
<title>bold_reference_wfgen_avg:e&#45;&gt;bold_reference_wfenhance_and_skullstrip_bold_wf:w</title>
<path fill="none" stroke="#000000" d="M1112,-391C1120,-391 1117.4266,-378.8781 1112,-373 1043.9506,-299.2892 730.0494,-410.7108 662,-337 651.1762,-325.2757 644.843,-303.7246 652.5876,-295.1544"/>
<polygon fill="#000000" stroke="#000000" points="653.9448,-298.3821 662,-291.5 651.4112,-291.8567 653.9448,-298.3821"/>
</g>
<!-- bold_reference_wfgen_avg&#45;&gt;bold_reference_wfoutputnode -->
<g id="edge6" class="edge">
<title>bold_reference_wfgen_avg:e&#45;&gt;bold_reference_wfoutputnode:w</title>
<path fill="none" stroke="#000000" d="M1112,-391C1160.4001,-391 1293.3203,-375.232 1323,-337 1384.191,-258.1767 1223.1131,-115.1219 1303.5922,-104.6131"/>
<polygon fill="#000000" stroke="#000000" points="1304.2232,-108.0821 1314,-104 1303.8114,-101.0942 1304.2232,-108.0821"/>
</g>
<!-- bold_reference_wfenhance_and_skullstrip_bold_wf&#45;&gt;bold_reference_wfoutputnode -->
<g id="edge2" class="edge">
<title>bold_reference_wfenhance_and_skullstrip_bold_wf:e&#45;&gt;bold_reference_wfoutputnode:w</title>
<path fill="none" stroke="#000000" d="M1314,-302.5C1314,-302.5 1314,-134.4248 1314,-91.093"/>
<polygon fill="#000000" stroke="#000000" points="1317.5001,-91 1314,-81 1310.5001,-91 1317.5001,-91"/>
</g>
<!-- bold_reference_wfenhance_and_skullstrip_bold_wf&#45;&gt;bold_reference_wfoutputnode -->
<g id="edge3" class="edge">
<title>bold_reference_wfenhance_and_skullstrip_bold_wf:e&#45;&gt;bold_reference_wfoutputnode:w</title>
<path fill="none" stroke="#000000" d="M1314,-278.5C1314,-278.5 1314,-171.6414 1314,-137.4132"/>
<polygon fill="#000000" stroke="#000000" points="1317.5001,-137 1314,-127 1310.5001,-137 1317.5001,-137"/>
</g>
<!-- bold_reference_wfenhance_and_skullstrip_bold_wf&#45;&gt;bold_reference_wfoutputnode -->
<g id="edge4" class="edge">
<title>bold_reference_wfenhance_and_skullstrip_bold_wf:e&#45;&gt;bold_reference_wfoutputnode:w</title>
<path fill="none" stroke="#000000" d="M1314,-255.5C1314,-255.5 1314,-108.3122 1314,-68.0656"/>
<polygon fill="#000000" stroke="#000000" points="1317.5001,-68 1314,-58 1310.5001,-68 1317.5001,-68"/>
</g>
</g>
</svg>
