<?xml version="1.0" encoding="UTF-8" standalone="no"?>
<!DOCTYPE svg PUBLIC "-//W3C//DTD SVG 1.1//EN"
 "http://www.w3.org/Graphics/SVG/1.1/DTD/svg11.dtd">
<!-- Generated by graphviz version 2.40.1 (20161225.0304)
 -->
<!-- Title: structs Pages: 1 -->
<svg width="1164pt" height="1193pt"
 viewBox="0.00 0.00 1164.46 1193.00" xmlns="http://www.w3.org/2000/svg" xmlns:xlink="http://www.w3.org/1999/xlink">
<g id="graph0" class="graph" transform="scale(1 1) rotate(0) translate(4 1189)">
<title>structs</title>
<polygon fill="#ffffff" stroke="transparent" points="-4,4 -4,-1189 1160.4631,-1189 1160.4631,4 -4,4"/>
<!-- bbreg_wfinputnode -->
<g id="node1" class="node">
<title>bbreg_wfinputnode</title>
<polygon fill="none" stroke="#000000" points="72.2707,-1069.5 72.2707,-1184.5 340.2707,-1184.5 340.2707,-1069.5 72.2707,-1069.5"/>
<text text-anchor="middle" x="89.7707" y="-1123.3" font-family="Times,serif" font-size="14.00" fill="#000000">IN</text>
<polyline fill="none" stroke="#000000" points="107.2707,-1069.5 107.2707,-1184.5 "/>
<text text-anchor="middle" x="151.7707" y="-1161.8" font-family="Times,serif" font-size="14.00" fill="#000000">inputnode</text>
<polyline fill="none" stroke="#000000" points="107.2707,-1146.5 196.2707,-1146.5 "/>
<text text-anchor="middle" x="151.7707" y="-1123.8" font-family="Times,serif" font-size="14.00" fill="#000000">utility</text>
<polyline fill="none" stroke="#000000" points="107.2707,-1108.5 196.2707,-1108.5 "/>
<text text-anchor="middle" x="151.7707" y="-1085.3" font-family="Times,serif" font-size="14.00" fill="#000000"> </text>
<polyline fill="none" stroke="#000000" points="196.2707,-1069.5 196.2707,-1184.5 "/>
<text text-anchor="middle" x="268.2707" y="-1169.3" font-family="Times,serif" font-size="14.00" fill="#000000">OUT</text>
<polyline fill="none" stroke="#000000" points="196.2707,-1161.5 340.2707,-1161.5 "/>
<text text-anchor="middle" x="268.2707" y="-1146.3" font-family="Times,serif" font-size="14.00" fill="#000000">fsnative2t1w_xfm</text>
<polyline fill="none" stroke="#000000" points="196.2707,-1138.5 340.2707,-1138.5 "/>
<text text-anchor="middle" x="268.2707" y="-1123.3" font-family="Times,serif" font-size="14.00" fill="#000000">in_file</text>
<polyline fill="none" stroke="#000000" points="196.2707,-1115.5 340.2707,-1115.5 "/>
<text text-anchor="middle" x="268.2707" y="-1100.3" font-family="Times,serif" font-size="14.00" fill="#000000">subject_id</text>
<polyline fill="none" stroke="#000000" points="196.2707,-1092.5 340.2707,-1092.5 "/>
<text text-anchor="middle" x="268.2707" y="-1077.3" font-family="Times,serif" font-size="14.00" fill="#000000">subjects_dir</text>
</g>
<!-- bbreg_wfmri_coreg -->
<g id="node2" class="node">
<title>bbreg_wfmri_coreg</title>
<polygon fill="none" stroke="#000000" points="23.7707,-940.5 23.7707,-1032.5 312.7707,-1032.5 312.7707,-940.5 23.7707,-940.5"/>
<text text-anchor="middle" x="75.7707" y="-1017.3" font-family="Times,serif" font-size="14.00" fill="#000000">IN</text>
<polyline fill="none" stroke="#000000" points="23.7707,-1009.5 127.7707,-1009.5 "/>
<text text-anchor="middle" x="75.7707" y="-994.3" font-family="Times,serif" font-size="14.00" fill="#000000">source_file</text>
<polyline fill="none" stroke="#000000" points="23.7707,-986.5 127.7707,-986.5 "/>
<text text-anchor="middle" x="75.7707" y="-971.3" font-family="Times,serif" font-size="14.00" fill="#000000">subject_id</text>
<polyline fill="none" stroke="#000000" points="23.7707,-963.5 127.7707,-963.5 "/>
<text text-anchor="middle" x="75.7707" y="-948.3" font-family="Times,serif" font-size="14.00" fill="#000000">subjects_dir</text>
<polyline fill="none" stroke="#000000" points="127.7707,-940.5 127.7707,-1032.5 "/>
<text text-anchor="middle" x="172.2707" y="-1013.8" font-family="Times,serif" font-size="14.00" fill="#000000">mri_coreg</text>
<polyline fill="none" stroke="#000000" points="127.7707,-1002.5 216.7707,-1002.5 "/>
<text text-anchor="middle" x="172.2707" y="-983.3" font-family="Times,serif" font-size="14.00" fill="#000000">freesurfer</text>
<polyline fill="none" stroke="#000000" points="127.7707,-971.5 216.7707,-971.5 "/>
<text text-anchor="middle" x="172.2707" y="-952.3" font-family="Times,serif" font-size="14.00" fill="#000000"> </text>
<polyline fill="none" stroke="#000000" points="216.7707,-940.5 216.7707,-1032.5 "/>
<text text-anchor="middle" x="264.7707" y="-1013.8" font-family="Times,serif" font-size="14.00" fill="#000000">OUT</text>
<polyline fill="none" stroke="#000000" points="216.7707,-1002.5 312.7707,-1002.5 "/>
<text text-anchor="middle" x="264.7707" y="-983.3" font-family="Times,serif" font-size="14.00" fill="#000000">out_lta_file</text>
<polyline fill="none" stroke="#000000" points="216.7707,-971.5 312.7707,-971.5 "/>
<text text-anchor="middle" x="264.7707" y="-952.3" font-family="Times,serif" font-size="14.00" fill="#000000">out_report</text>
</g>
<!-- bbreg_wfinputnode&#45;&gt;bbreg_wfmri_coreg -->
<g id="edge10" class="edge">
<title>bbreg_wfinputnode:e&#45;&gt;bbreg_wfmri_coreg:w</title>
<path fill="none" stroke="#000000" d="M340.2707,-1127C366.0484,-1127 357.4391,-1088.2286 340.2707,-1069 245.8329,-963.2305 117.7084,-1138.7695 23.2707,-1033 16.0902,-1024.9579 11.4267,-1011.1687 14.6207,-1003.6902"/>
<polygon fill="#000000" stroke="#000000" points="16.4966,-1006.6463 23.2707,-998.5 12.895,-1000.6439 16.4966,-1006.6463"/>
</g>
<!-- bbreg_wfinputnode&#45;&gt;bbreg_wfmri_coreg -->
<g id="edge12" class="edge">
<title>bbreg_wfinputnode:e&#45;&gt;bbreg_wfmri_coreg:w</title>
<path fill="none" stroke="#000000" d="M340.2707,-1104C355.8262,-1104 350.631,-1080.6034 340.2707,-1069 245.8329,-963.2305 117.7084,-1138.7695 23.2707,-1033 8.6599,-1016.636 .195,-986.2393 13.5241,-977.1398"/>
<polygon fill="#000000" stroke="#000000" points="14.5334,-980.4926 23.2707,-974.5 12.7034,-973.7361 14.5334,-980.4926"/>
</g>
<!-- bbreg_wfinputnode&#45;&gt;bbreg_wfmri_coreg -->
<g id="edge14" class="edge">
<title>bbreg_wfinputnode:e&#45;&gt;bbreg_wfmri_coreg:w</title>
<path fill="none" stroke="#000000" d="M340.2707,-1081C345.604,-1081 343.8228,-1072.9783 340.2707,-1069 245.8329,-963.2305 117.7084,-1138.7695 23.2707,-1033 1.6904,-1008.8303 -10.2659,-962.6865 13.3796,-953.2219"/>
<polygon fill="#000000" stroke="#000000" points="14.0192,-956.6633 23.2707,-951.5 12.8185,-949.7671 14.0192,-956.6633"/>
</g>
<!-- bbreg_wfbbregister -->
<g id="node3" class="node">
<title>bbreg_wfbbregister</title>
<polygon fill="none" stroke="#000000" points="341.2707,-788.5 341.2707,-903.5 633.2707,-903.5 633.2707,-788.5 341.2707,-788.5"/>
<text text-anchor="middle" x="393.2707" y="-888.3" font-family="Times,serif" font-size="14.00" fill="#000000">IN</text>
<polyline fill="none" stroke="#000000" points="341.2707,-880.5 445.2707,-880.5 "/>
<text text-anchor="middle" x="393.2707" y="-865.3" font-family="Times,serif" font-size="14.00" fill="#000000">init_reg_file</text>
<polyline fill="none" stroke="#000000" points="341.2707,-857.5 445.2707,-857.5 "/>
<text text-anchor="middle" x="393.2707" y="-842.3" font-family="Times,serif" font-size="14.00" fill="#000000">source_file</text>
<polyline fill="none" stroke="#000000" points="341.2707,-834.5 445.2707,-834.5 "/>
<text text-anchor="middle" x="393.2707" y="-819.3" font-family="Times,serif" font-size="14.00" fill="#000000">subject_id</text>
<polyline fill="none" stroke="#000000" points="341.2707,-811.5 445.2707,-811.5 "/>
<text text-anchor="middle" x="393.2707" y="-796.3" font-family="Times,serif" font-size="14.00" fill="#000000">subjects_dir</text>
<polyline fill="none" stroke="#000000" points="445.2707,-788.5 445.2707,-903.5 "/>
<text text-anchor="middle" x="491.2707" y="-880.8" font-family="Times,serif" font-size="14.00" fill="#000000">bbregister</text>
<polyline fill="none" stroke="#000000" points="445.2707,-865.5 537.2707,-865.5 "/>
<text text-anchor="middle" x="491.2707" y="-842.8" font-family="Times,serif" font-size="14.00" fill="#000000">freesurfer</text>
<polyline fill="none" stroke="#000000" points="445.2707,-827.5 537.2707,-827.5 "/>
<text text-anchor="middle" x="491.2707" y="-804.3" font-family="Times,serif" font-size="14.00" fill="#000000"> </text>
<polyline fill="none" stroke="#000000" points="537.2707,-788.5 537.2707,-903.5 "/>
<text text-anchor="middle" x="585.2707" y="-880.8" font-family="Times,serif" font-size="14.00" fill="#000000">OUT</text>
<polyline fill="none" stroke="#000000" points="537.2707,-865.5 633.2707,-865.5 "/>
<text text-anchor="middle" x="585.2707" y="-842.8" font-family="Times,serif" font-size="14.00" fill="#000000">out_lta_file</text>
<polyline fill="none" stroke="#000000" points="537.2707,-827.5 633.2707,-827.5 "/>
<text text-anchor="middle" x="585.2707" y="-804.3" font-family="Times,serif" font-size="14.00" fill="#000000">out_report</text>
</g>
<!-- bbreg_wfinputnode&#45;&gt;bbreg_wfbbregister -->
<g id="edge9" class="edge">
<title>bbreg_wfinputnode:e&#45;&gt;bbreg_wfbbregister:w</title>
<path fill="none" stroke="#000000" d="M340.2707,-1127C426.5353,-1127 431.9579,-1016.5931 392.2707,-940 379.5063,-915.3657 354.0351,-928.6343 341.2707,-904 336.8697,-895.5065 331.9017,-867.6717 334.9019,-853.8839"/>
<polygon fill="#000000" stroke="#000000" points="337.7093,-855.9784 341.2707,-846 332.264,-851.5795 337.7093,-855.9784"/>
</g>
<!-- bbreg_wfinputnode&#45;&gt;bbreg_wfbbregister -->
<g id="edge11" class="edge">
<title>bbreg_wfinputnode:e&#45;&gt;bbreg_wfbbregister:w</title>
<path fill="none" stroke="#000000" d="M340.2707,-1104C372.4338,-1104 351.1448,-1065.0109 354.2707,-1033 358.2878,-991.8623 361.3967,-980.7144 354.2707,-940 351.3379,-923.2435 344.2035,-920.7565 341.2707,-904 338.7978,-889.871 328.8359,-846.8243 333.9993,-829.9195"/>
<polygon fill="#000000" stroke="#000000" points="336.4393,-832.4291 341.2707,-823 331.6137,-827.3582 336.4393,-832.4291"/>
</g>
<!-- bbreg_wfinputnode&#45;&gt;bbreg_wfbbregister -->
<g id="edge13" class="edge">
<title>bbreg_wfinputnode:e&#45;&gt;bbreg_wfbbregister:w</title>
<path fill="none" stroke="#000000" d="M340.2707,-1081C368.444,-1081 321.1654,-852.203 334.6021,-807.5161"/>
<polygon fill="#000000" stroke="#000000" points="337.252,-809.8031 341.2707,-800 332.0158,-805.1574 337.252,-809.8031"/>
</g>
<!-- bbreg_wfmerge_ltas -->
<g id="node10" class="node">
<title>bbreg_wfmerge_ltas</title>
<polygon fill="none" stroke="#000000" points="965.7707,-258.5 965.7707,-327.5 1150.7707,-327.5 1150.7707,-258.5 965.7707,-258.5"/>
<text text-anchor="middle" x="985.2707" y="-312.3" font-family="Times,serif" font-size="14.00" fill="#000000">IN</text>
<polyline fill="none" stroke="#000000" points="965.7707,-304.5 1004.7707,-304.5 "/>
<text text-anchor="middle" x="985.2707" y="-289.3" font-family="Times,serif" font-size="14.00" fill="#000000">in1</text>
<polyline fill="none" stroke="#000000" points="965.7707,-281.5 1004.7707,-281.5 "/>
<text text-anchor="middle" x="985.2707" y="-266.3" font-family="Times,serif" font-size="14.00" fill="#000000">in2</text>
<polyline fill="none" stroke="#000000" points="1004.7707,-258.5 1004.7707,-327.5 "/>
<text text-anchor="middle" x="1052.7707" y="-312.3" font-family="Times,serif" font-size="14.00" fill="#000000">merge_ltas</text>
<polyline fill="none" stroke="#000000" points="1004.7707,-304.5 1100.7707,-304.5 "/>
<text text-anchor="middle" x="1052.7707" y="-289.3" font-family="Times,serif" font-size="14.00" fill="#000000">utility</text>
<polyline fill="none" stroke="#000000" points="1004.7707,-281.5 1100.7707,-281.5 "/>
<text text-anchor="middle" x="1052.7707" y="-266.3" font-family="Times,serif" font-size="14.00" fill="#000000"> </text>
<polyline fill="none" stroke="#000000" points="1100.7707,-258.5 1100.7707,-327.5 "/>
<text text-anchor="middle" x="1125.7707" y="-306.8" font-family="Times,serif" font-size="14.00" fill="#000000">OUT</text>
<polyline fill="none" stroke="#000000" points="1100.7707,-293.5 1150.7707,-293.5 "/>
<text text-anchor="middle" x="1125.7707" y="-272.3" font-family="Times,serif" font-size="14.00" fill="#000000">out</text>
</g>
<!-- bbreg_wfinputnode&#45;&gt;bbreg_wfmerge_ltas -->
<g id="edge8" class="edge">
<title>bbreg_wfinputnode:e&#45;&gt;bbreg_wfmerge_ltas:w</title>
<path fill="none" stroke="#000000" d="M340.2707,-1150C500.3362,-1150 993.2707,-1006.0656 993.2707,-846 993.2707,-846 993.2707,-846 993.2707,-505 993.2707,-441.7669 986.1794,-426.1016 974.2707,-364 971.1646,-347.8027 967.2858,-344.3689 965.2707,-328 962.687,-307.0126 946.996,-281.4287 955.6697,-272.9121"/>
<polygon fill="#000000" stroke="#000000" points="956.7171,-276.252 965.2707,-270 954.6853,-269.5534 956.7171,-276.252"/>
</g>
<!-- bbreg_wfmri_coreg&#45;&gt;bbreg_wfbbregister -->
<g id="edge17" class="edge">
<title>bbreg_wfmri_coreg:e&#45;&gt;bbreg_wfbbregister:w</title>
<path fill="none" stroke="#000000" d="M313.2707,-987.5C324.5803,-987.5 327.0937,-904.6932 335.517,-877.5222"/>
<polygon fill="#000000" stroke="#000000" points="338.5759,-879.2464 341.2707,-869 332.7743,-875.3296 338.5759,-879.2464"/>
</g>
<!-- bbreg_wfreports -->
<g id="node4" class="node">
<title>bbreg_wfreports</title>
<polygon fill="none" stroke="#000000" points="275.2707,-682.5 275.2707,-751.5 433.2707,-751.5 433.2707,-682.5 275.2707,-682.5"/>
<text text-anchor="middle" x="294.7707" y="-736.3" font-family="Times,serif" font-size="14.00" fill="#000000">IN</text>
<polyline fill="none" stroke="#000000" points="275.2707,-728.5 314.2707,-728.5 "/>
<text text-anchor="middle" x="294.7707" y="-713.3" font-family="Times,serif" font-size="14.00" fill="#000000">in1</text>
<polyline fill="none" stroke="#000000" points="275.2707,-705.5 314.2707,-705.5 "/>
<text text-anchor="middle" x="294.7707" y="-690.3" font-family="Times,serif" font-size="14.00" fill="#000000">in2</text>
<polyline fill="none" stroke="#000000" points="314.2707,-682.5 314.2707,-751.5 "/>
<text text-anchor="middle" x="348.7707" y="-736.3" font-family="Times,serif" font-size="14.00" fill="#000000">reports</text>
<polyline fill="none" stroke="#000000" points="314.2707,-728.5 383.2707,-728.5 "/>
<text text-anchor="middle" x="348.7707" y="-713.3" font-family="Times,serif" font-size="14.00" fill="#000000">utility</text>
<polyline fill="none" stroke="#000000" points="314.2707,-705.5 383.2707,-705.5 "/>
<text text-anchor="middle" x="348.7707" y="-690.3" font-family="Times,serif" font-size="14.00" fill="#000000"> </text>
<polyline fill="none" stroke="#000000" points="383.2707,-682.5 383.2707,-751.5 "/>
<text text-anchor="middle" x="408.2707" y="-730.8" font-family="Times,serif" font-size="14.00" fill="#000000">OUT</text>
<polyline fill="none" stroke="#000000" points="383.2707,-717.5 433.2707,-717.5 "/>
<text text-anchor="middle" x="408.2707" y="-696.3" font-family="Times,serif" font-size="14.00" fill="#000000">out</text>
</g>
<!-- bbreg_wfmri_coreg&#45;&gt;bbreg_wfreports -->
<g id="edge19" class="edge">
<title>bbreg_wfmri_coreg:e&#45;&gt;bbreg_wfreports:w</title>
<path fill="none" stroke="#000000" d="M313.2707,-955.5C320.1596,-955.5 314.5409,-946.7708 313.2707,-940 310.1053,-923.1271 303.7462,-920.5737 299.2707,-904 275.737,-816.8503 188.5254,-703.2772 265.1045,-694.5373"/>
<polygon fill="#000000" stroke="#000000" points="265.4694,-698.023 275.2707,-694 265.0998,-691.0328 265.4694,-698.023"/>
</g>
<!-- bbreg_wftransforms -->
<g id="node5" class="node">
<title>bbreg_wftransforms</title>
<polygon fill="none" stroke="#000000" points="518.2707,-682.5 518.2707,-751.5 702.2707,-751.5 702.2707,-682.5 518.2707,-682.5"/>
<text text-anchor="middle" x="537.7707" y="-736.3" font-family="Times,serif" font-size="14.00" fill="#000000">IN</text>
<polyline fill="none" stroke="#000000" points="518.2707,-728.5 557.2707,-728.5 "/>
<text text-anchor="middle" x="537.7707" y="-713.3" font-family="Times,serif" font-size="14.00" fill="#000000">in1</text>
<polyline fill="none" stroke="#000000" points="518.2707,-705.5 557.2707,-705.5 "/>
<text text-anchor="middle" x="537.7707" y="-690.3" font-family="Times,serif" font-size="14.00" fill="#000000">in2</text>
<polyline fill="none" stroke="#000000" points="557.2707,-682.5 557.2707,-751.5 "/>
<text text-anchor="middle" x="604.7707" y="-736.3" font-family="Times,serif" font-size="14.00" fill="#000000">transforms</text>
<polyline fill="none" stroke="#000000" points="557.2707,-728.5 652.2707,-728.5 "/>
<text text-anchor="middle" x="604.7707" y="-713.3" font-family="Times,serif" font-size="14.00" fill="#000000">utility</text>
<polyline fill="none" stroke="#000000" points="557.2707,-705.5 652.2707,-705.5 "/>
<text text-anchor="middle" x="604.7707" y="-690.3" font-family="Times,serif" font-size="14.00" fill="#000000"> </text>
<polyline fill="none" stroke="#000000" points="652.2707,-682.5 652.2707,-751.5 "/>
<text text-anchor="middle" x="677.2707" y="-730.8" font-family="Times,serif" font-size="14.00" fill="#000000">OUT</text>
<polyline fill="none" stroke="#000000" points="652.2707,-717.5 702.2707,-717.5 "/>
<text text-anchor="middle" x="677.2707" y="-696.3" font-family="Times,serif" font-size="14.00" fill="#000000">out</text>
</g>
<!-- bbreg_wfmri_coreg&#45;&gt;bbreg_wftransforms -->
<g id="edge18" class="edge">
<title>bbreg_wfmri_coreg:e&#45;&gt;bbreg_wftransforms:w</title>
<path fill="none" stroke="#000000" d="M313.2707,-987.5C357.8046,-987.5 304.4509,-822.7754 332.2707,-788 364.4049,-747.8314 396.7405,-775.94 442.2707,-752 476.6471,-733.9247 476.1768,-700.4337 508.2923,-694.8109"/>
<polygon fill="#000000" stroke="#000000" points="508.5871,-698.2986 518.2707,-694 508.02,-691.3216 508.5871,-698.2986"/>
</g>
<!-- bbreg_wfbbregister&#45;&gt;bbreg_wfreports -->
<g id="edge2" class="edge">
<title>bbreg_wfbbregister:e&#45;&gt;bbreg_wfreports:w</title>
<path fill="none" stroke="#000000" d="M633.2707,-808C642.1596,-808 639.2333,-794.5923 633.2707,-788 579.6356,-728.701 328.9057,-811.299 275.2707,-752 267.9338,-743.8883 263.224,-729.8802 266.4815,-722.2778"/>
<polygon fill="#000000" stroke="#000000" points="268.4994,-725.1487 275.2707,-717 264.8957,-719.1475 268.4994,-725.1487"/>
</g>
<!-- bbreg_wfbbregister&#45;&gt;bbreg_wftransforms -->
<g id="edge1" class="edge">
<title>bbreg_wfbbregister:e&#45;&gt;bbreg_wftransforms:w</title>
<path fill="none" stroke="#000000" d="M633.2707,-847C659.4929,-847 648.7978,-809.1308 633.2707,-788 601.5576,-744.8418 549.9837,-795.1582 518.2707,-752 511.9381,-743.382 506.9604,-730.0708 509.5225,-722.5929"/>
<polygon fill="#000000" stroke="#000000" points="511.7306,-725.3354 518.2707,-717 507.9601,-719.4377 511.7306,-725.3354"/>
</g>
<!-- bbreg_wfselect_report -->
<g id="node8" class="node">
<title>bbreg_wfselect_report</title>
<polygon fill="none" stroke="#000000" points="437.2707,-364.5 437.2707,-433.5 655.2707,-433.5 655.2707,-364.5 437.2707,-364.5"/>
<text text-anchor="middle" x="465.2707" y="-418.3" font-family="Times,serif" font-size="14.00" fill="#000000">IN</text>
<polyline fill="none" stroke="#000000" points="437.2707,-410.5 493.2707,-410.5 "/>
<text text-anchor="middle" x="465.2707" y="-395.3" font-family="Times,serif" font-size="14.00" fill="#000000">index</text>
<polyline fill="none" stroke="#000000" points="437.2707,-387.5 493.2707,-387.5 "/>
<text text-anchor="middle" x="465.2707" y="-372.3" font-family="Times,serif" font-size="14.00" fill="#000000">inlist</text>
<polyline fill="none" stroke="#000000" points="493.2707,-364.5 493.2707,-433.5 "/>
<text text-anchor="middle" x="549.2707" y="-418.3" font-family="Times,serif" font-size="14.00" fill="#000000">select_report</text>
<polyline fill="none" stroke="#000000" points="493.2707,-410.5 605.2707,-410.5 "/>
<text text-anchor="middle" x="549.2707" y="-395.3" font-family="Times,serif" font-size="14.00" fill="#000000">utility</text>
<polyline fill="none" stroke="#000000" points="493.2707,-387.5 605.2707,-387.5 "/>
<text text-anchor="middle" x="549.2707" y="-372.3" font-family="Times,serif" font-size="14.00" fill="#000000"> </text>
<polyline fill="none" stroke="#000000" points="605.2707,-364.5 605.2707,-433.5 "/>
<text text-anchor="middle" x="630.2707" y="-412.8" font-family="Times,serif" font-size="14.00" fill="#000000">OUT</text>
<polyline fill="none" stroke="#000000" points="605.2707,-399.5 655.2707,-399.5 "/>
<text text-anchor="middle" x="630.2707" y="-378.3" font-family="Times,serif" font-size="14.00" fill="#000000">out</text>
</g>
<!-- bbreg_wfreports&#45;&gt;bbreg_wfselect_report -->
<g id="edge20" class="edge">
<title>bbreg_wfreports:e&#45;&gt;bbreg_wfselect_report:w</title>
<path fill="none" stroke="#000000" d="M433.2707,-700C441.2707,-700 433.6914,-689.9889 433.2707,-682 428.3024,-587.673 408.8669,-563.9885 418.2707,-470 422.1162,-431.5651 399.5907,-385.5923 427.0571,-377.3102"/>
<polygon fill="#000000" stroke="#000000" points="427.7973,-380.744 437.2707,-376 426.9066,-373.8009 427.7973,-380.744"/>
</g>
<!-- bbreg_wflta_ras2ras -->
<g id="node6" class="node">
<title>bbreg_wflta_ras2ras</title>
<polygon fill="none" stroke="#000000" points="457.7707,-576.5 457.7707,-645.5 676.7707,-645.5 676.7707,-576.5 457.7707,-576.5"/>
<text text-anchor="middle" x="485.7707" y="-624.8" font-family="Times,serif" font-size="14.00" fill="#000000">IN</text>
<polyline fill="none" stroke="#000000" points="457.7707,-611.5 513.7707,-611.5 "/>
<text text-anchor="middle" x="485.7707" y="-590.3" font-family="Times,serif" font-size="14.00" fill="#000000">in_lta</text>
<polyline fill="none" stroke="#000000" points="513.7707,-576.5 513.7707,-645.5 "/>
<text text-anchor="middle" x="562.2707" y="-630.3" font-family="Times,serif" font-size="14.00" fill="#000000">lta_ras2ras</text>
<polyline fill="none" stroke="#000000" points="513.7707,-622.5 610.7707,-622.5 "/>
<text text-anchor="middle" x="562.2707" y="-607.3" font-family="Times,serif" font-size="14.00" fill="#000000">freesurfer</text>
<polyline fill="none" stroke="#000000" points="513.7707,-599.5 610.7707,-599.5 "/>
<text text-anchor="middle" x="562.2707" y="-584.3" font-family="Times,serif" font-size="14.00" fill="#000000"> </text>
<polyline fill="none" stroke="#000000" points="610.7707,-576.5 610.7707,-645.5 "/>
<text text-anchor="middle" x="643.7707" y="-624.8" font-family="Times,serif" font-size="14.00" fill="#000000">OUT</text>
<polyline fill="none" stroke="#000000" points="610.7707,-611.5 676.7707,-611.5 "/>
<text text-anchor="middle" x="643.7707" y="-590.3" font-family="Times,serif" font-size="14.00" fill="#000000">out_lta</text>
</g>
<!-- bbreg_wftransforms&#45;&gt;bbreg_wflta_ras2ras -->
<g id="edge23" class="edge">
<title>bbreg_wftransforms:e&#45;&gt;bbreg_wflta_ras2ras:w</title>
<path fill="none" stroke="#000000" d="M702.2707,-700C710.2707,-700 707.5002,-688.0541 702.2707,-682 630.3267,-598.7122 529.2146,-729.2878 457.2707,-646 444.8778,-631.6531 437.2652,-605.8526 447.6869,-597.0438"/>
<polygon fill="#000000" stroke="#000000" points="448.7993,-600.3629 457.2707,-594 446.6803,-593.6913 448.7993,-600.3629"/>
</g>
<!-- bbreg_wfselect_transform -->
<g id="node9" class="node">
<title>bbreg_wfselect_transform</title>
<polygon fill="none" stroke="#000000" points="721.2707,-364.5 721.2707,-433.5 965.2707,-433.5 965.2707,-364.5 721.2707,-364.5"/>
<text text-anchor="middle" x="749.2707" y="-418.3" font-family="Times,serif" font-size="14.00" fill="#000000">IN</text>
<polyline fill="none" stroke="#000000" points="721.2707,-410.5 777.2707,-410.5 "/>
<text text-anchor="middle" x="749.2707" y="-395.3" font-family="Times,serif" font-size="14.00" fill="#000000">index</text>
<polyline fill="none" stroke="#000000" points="721.2707,-387.5 777.2707,-387.5 "/>
<text text-anchor="middle" x="749.2707" y="-372.3" font-family="Times,serif" font-size="14.00" fill="#000000">inlist</text>
<polyline fill="none" stroke="#000000" points="777.2707,-364.5 777.2707,-433.5 "/>
<text text-anchor="middle" x="846.2707" y="-418.3" font-family="Times,serif" font-size="14.00" fill="#000000">select_transform</text>
<polyline fill="none" stroke="#000000" points="777.2707,-410.5 915.2707,-410.5 "/>
<text text-anchor="middle" x="846.2707" y="-395.3" font-family="Times,serif" font-size="14.00" fill="#000000">utility</text>
<polyline fill="none" stroke="#000000" points="777.2707,-387.5 915.2707,-387.5 "/>
<text text-anchor="middle" x="846.2707" y="-372.3" font-family="Times,serif" font-size="14.00" fill="#000000"> </text>
<polyline fill="none" stroke="#000000" points="915.2707,-364.5 915.2707,-433.5 "/>
<text text-anchor="middle" x="940.2707" y="-412.8" font-family="Times,serif" font-size="14.00" fill="#000000">OUT</text>
<polyline fill="none" stroke="#000000" points="915.2707,-399.5 965.2707,-399.5 "/>
<text text-anchor="middle" x="940.2707" y="-378.3" font-family="Times,serif" font-size="14.00" fill="#000000">out</text>
</g>
<!-- bbreg_wftransforms&#45;&gt;bbreg_wfselect_transform -->
<g id="edge24" class="edge">
<title>bbreg_wftransforms:e&#45;&gt;bbreg_wfselect_transform:w</title>
<path fill="none" stroke="#000000" d="M702.2707,-700C773.6535,-700 712.0702,-611.2591 716.2707,-540 716.498,-536.1434 716.6578,-420.9875 719.477,-385.9904"/>
<polygon fill="#000000" stroke="#000000" points="722.9484,-386.4611 721.2707,-376 716.0586,-385.2241 722.9484,-386.4611"/>
</g>
<!-- bbreg_wfcompare_transforms -->
<g id="node7" class="node">
<title>bbreg_wfcompare_transforms</title>
<polygon fill="none" stroke="#000000" points="427.2707,-470.5 427.2707,-539.5 707.2707,-539.5 707.2707,-470.5 427.2707,-470.5"/>
<text text-anchor="middle" x="459.7707" y="-518.8" font-family="Times,serif" font-size="14.00" fill="#000000">IN</text>
<polyline fill="none" stroke="#000000" points="427.2707,-505.5 492.2707,-505.5 "/>
<text text-anchor="middle" x="459.7707" y="-484.3" font-family="Times,serif" font-size="14.00" fill="#000000">lta_list</text>
<polyline fill="none" stroke="#000000" points="492.2707,-470.5 492.2707,-539.5 "/>
<text text-anchor="middle" x="574.7707" y="-524.3" font-family="Times,serif" font-size="14.00" fill="#000000">compare_transforms</text>
<polyline fill="none" stroke="#000000" points="492.2707,-516.5 657.2707,-516.5 "/>
<text text-anchor="middle" x="574.7707" y="-501.3" font-family="Times,serif" font-size="14.00" fill="#000000">utility</text>
<polyline fill="none" stroke="#000000" points="492.2707,-493.5 657.2707,-493.5 "/>
<text text-anchor="middle" x="574.7707" y="-478.3" font-family="Times,serif" font-size="14.00" fill="#000000"> </text>
<polyline fill="none" stroke="#000000" points="657.2707,-470.5 657.2707,-539.5 "/>
<text text-anchor="middle" x="682.2707" y="-518.8" font-family="Times,serif" font-size="14.00" fill="#000000">OUT</text>
<polyline fill="none" stroke="#000000" points="657.2707,-505.5 707.2707,-505.5 "/>
<text text-anchor="middle" x="682.2707" y="-484.3" font-family="Times,serif" font-size="14.00" fill="#000000">out</text>
</g>
<!-- bbreg_wflta_ras2ras&#45;&gt;bbreg_wfcompare_transforms -->
<g id="edge15" class="edge">
<title>bbreg_wflta_ras2ras:e&#45;&gt;bbreg_wfcompare_transforms:w</title>
<path fill="none" stroke="#000000" d="M677.2707,-594C685.2707,-594 682.5089,-582.0466 677.2707,-576 603.767,-491.1537 500.7743,-624.8463 427.2707,-540 421.7733,-533.6543 418.1642,-509.0792 421.0336,-496.1142"/>
<polygon fill="#000000" stroke="#000000" points="423.9513,-498.0615 427.2707,-488 418.4014,-493.7954 423.9513,-498.0615"/>
</g>
<!-- bbreg_wfcompare_transforms&#45;&gt;bbreg_wfselect_report -->
<g id="edge4" class="edge">
<title>bbreg_wfcompare_transforms:e&#45;&gt;bbreg_wfselect_report:w</title>
<path fill="none" stroke="#000000" d="M707.2707,-488C715.2707,-488 712.5405,-476.0191 707.2707,-470 627.5242,-378.9149 517.0172,-525.0851 437.2707,-434 430.0659,-425.7708 425.3024,-411.8104 428.5164,-404.2468"/>
<polygon fill="#000000" stroke="#000000" points="430.4925,-407.1429 437.2707,-399 426.8939,-401.1387 430.4925,-407.1429"/>
</g>
<!-- bbreg_wfcompare_transforms&#45;&gt;bbreg_wfselect_transform -->
<g id="edge5" class="edge">
<title>bbreg_wfcompare_transforms:e&#45;&gt;bbreg_wfselect_transform:w</title>
<path fill="none" stroke="#000000" d="M707.2707,-488C742.933,-488 694.415,-417.4041 711.6629,-401.9612"/>
<polygon fill="#000000" stroke="#000000" points="712.7452,-405.2902 721.2707,-399 710.6834,-398.6007 712.7452,-405.2902"/>
</g>
<!-- bbreg_wfoutputnode -->
<g id="node12" class="node">
<title>bbreg_wfoutputnode</title>
<polygon fill="none" stroke="#000000" points="835.2707,-.5 835.2707,-115.5 1105.2707,-115.5 1105.2707,-.5 835.2707,-.5"/>
<text text-anchor="middle" x="896.2707" y="-100.3" font-family="Times,serif" font-size="14.00" fill="#000000">IN</text>
<polyline fill="none" stroke="#000000" points="835.2707,-92.5 957.2707,-92.5 "/>
<text text-anchor="middle" x="896.2707" y="-77.3" font-family="Times,serif" font-size="14.00" fill="#000000">fallback</text>
<polyline fill="none" stroke="#000000" points="835.2707,-69.5 957.2707,-69.5 "/>
<text text-anchor="middle" x="896.2707" y="-54.3" font-family="Times,serif" font-size="14.00" fill="#000000">itk_epi_to_t1w</text>
<polyline fill="none" stroke="#000000" points="835.2707,-46.5 957.2707,-46.5 "/>
<text text-anchor="middle" x="896.2707" y="-31.3" font-family="Times,serif" font-size="14.00" fill="#000000">itk_t1w_to_epi</text>
<polyline fill="none" stroke="#000000" points="835.2707,-23.5 957.2707,-23.5 "/>
<text text-anchor="middle" x="896.2707" y="-8.3" font-family="Times,serif" font-size="14.00" fill="#000000">out_report</text>
<polyline fill="none" stroke="#000000" points="957.2707,-.5 957.2707,-115.5 "/>
<text text-anchor="middle" x="1006.2707" y="-92.8" font-family="Times,serif" font-size="14.00" fill="#000000">outputnode</text>
<polyline fill="none" stroke="#000000" points="957.2707,-77.5 1055.2707,-77.5 "/>
<text text-anchor="middle" x="1006.2707" y="-54.8" font-family="Times,serif" font-size="14.00" fill="#000000">utility</text>
<polyline fill="none" stroke="#000000" points="957.2707,-39.5 1055.2707,-39.5 "/>
<text text-anchor="middle" x="1006.2707" y="-16.3" font-family="Times,serif" font-size="14.00" fill="#000000"> </text>
<polyline fill="none" stroke="#000000" points="1055.2707,-.5 1055.2707,-115.5 "/>
<text text-anchor="middle" x="1080.2707" y="-54.3" font-family="Times,serif" font-size="14.00" fill="#000000">OUT</text>
</g>
<!-- bbreg_wfcompare_transforms&#45;&gt;bbreg_wfoutputnode -->
<g id="edge3" class="edge">
<title>bbreg_wfcompare_transforms:e&#45;&gt;bbreg_wfoutputnode:w</title>
<path fill="none" stroke="#000000" d="M707.2707,-488C716.6055,-488 708.5452,-160.0504 713.2707,-152 743.2302,-100.9608 769.4052,-83.0334 824.9424,-81.1663"/>
<polygon fill="#000000" stroke="#000000" points="825.3283,-84.6606 835.2707,-81 825.2156,-77.6616 825.3283,-84.6606"/>
</g>
<!-- bbreg_wfselect_report&#45;&gt;bbreg_wfoutputnode -->
<g id="edge21" class="edge">
<title>bbreg_wfselect_report:e&#45;&gt;bbreg_wfoutputnode:w</title>
<path fill="none" stroke="#000000" d="M655.2707,-382C680.965,-382 667.5955,-174.8886 679.2707,-152 720.0305,-72.0927 740.5588,-16.2672 825.1947,-12.234"/>
<polygon fill="#000000" stroke="#000000" points="825.3546,-15.7313 835.2707,-12 825.1921,-8.7332 825.3546,-15.7313"/>
</g>
<!-- bbreg_wfselect_transform&#45;&gt;bbreg_wfmerge_ltas -->
<g id="edge22" class="edge">
<title>bbreg_wfselect_transform:e&#45;&gt;bbreg_wfmerge_ltas:w</title>
<path fill="none" stroke="#000000" d="M965.2707,-382C999.8818,-382 943.6387,-313.8594 955.5363,-296.8242"/>
<polygon fill="#000000" stroke="#000000" points="957.243,-299.9142 965.2707,-293 954.6833,-293.399 957.243,-299.9142"/>
</g>
<!-- bbreg_wfconcat_xfm -->
<g id="node11" class="node">
<title>bbreg_wfconcat_xfm</title>
<polygon fill="none" stroke="#000000" points="721.7707,-152.5 721.7707,-221.5 976.7707,-221.5 976.7707,-152.5 721.7707,-152.5"/>
<text text-anchor="middle" x="757.7707" y="-200.8" font-family="Times,serif" font-size="14.00" fill="#000000">IN</text>
<polyline fill="none" stroke="#000000" points="721.7707,-187.5 793.7707,-187.5 "/>
<text text-anchor="middle" x="757.7707" y="-166.3" font-family="Times,serif" font-size="14.00" fill="#000000">in_xfms</text>
<polyline fill="none" stroke="#000000" points="793.7707,-152.5 793.7707,-221.5 "/>
<text text-anchor="middle" x="848.2707" y="-206.3" font-family="Times,serif" font-size="14.00" fill="#000000">concat_xfm</text>
<polyline fill="none" stroke="#000000" points="793.7707,-198.5 902.7707,-198.5 "/>
<text text-anchor="middle" x="848.2707" y="-183.3" font-family="Times,serif" font-size="14.00" fill="#000000">nitransforms</text>
<polyline fill="none" stroke="#000000" points="793.7707,-175.5 902.7707,-175.5 "/>
<text text-anchor="middle" x="848.2707" y="-160.3" font-family="Times,serif" font-size="14.00" fill="#000000"> </text>
<polyline fill="none" stroke="#000000" points="902.7707,-152.5 902.7707,-221.5 "/>
<text text-anchor="middle" x="939.7707" y="-206.3" font-family="Times,serif" font-size="14.00" fill="#000000">OUT</text>
<polyline fill="none" stroke="#000000" points="902.7707,-198.5 976.7707,-198.5 "/>
<text text-anchor="middle" x="939.7707" y="-183.3" font-family="Times,serif" font-size="14.00" fill="#000000">out_inv</text>
<polyline fill="none" stroke="#000000" points="902.7707,-175.5 976.7707,-175.5 "/>
<text text-anchor="middle" x="939.7707" y="-160.3" font-family="Times,serif" font-size="14.00" fill="#000000">out_xfm</text>
</g>
<!-- bbreg_wfmerge_ltas&#45;&gt;bbreg_wfconcat_xfm -->
<g id="edge16" class="edge">
<title>bbreg_wfmerge_ltas:e&#45;&gt;bbreg_wfconcat_xfm:w</title>
<path fill="none" stroke="#000000" d="M1151.2707,-276C1159.2707,-276 1156.6864,-263.8881 1151.2707,-258 1086.3563,-187.4239 786.185,-292.5761 721.2707,-222 715.587,-215.8206 712.0623,-191.1702 714.9918,-178.1515"/>
<polygon fill="#000000" stroke="#000000" points="717.9412,-180.0581 721.2707,-170 712.3956,-175.7865 717.9412,-180.0581"/>
</g>
<!-- bbreg_wfconcat_xfm&#45;&gt;bbreg_wfoutputnode -->
<g id="edge6" class="edge">
<title>bbreg_wfconcat_xfm:e&#45;&gt;bbreg_wfoutputnode:w</title>
<path fill="none" stroke="#000000" d="M977.2707,-187C992.8262,-187 986.8234,-164.2768 977.2707,-152 937.2876,-100.6155 875.2537,-167.3845 835.2707,-116 815.5809,-90.6955 802.4079,-46.2144 825.1942,-36.7869"/>
<polygon fill="#000000" stroke="#000000" points="826.0354,-40.1924 835.2707,-35 824.8131,-33.2999 826.0354,-40.1924"/>
</g>
<!-- bbreg_wfconcat_xfm&#45;&gt;bbreg_wfoutputnode -->
<g id="edge7" class="edge">
<title>bbreg_wfconcat_xfm:e&#45;&gt;bbreg_wfoutputnode:w</title>
<path fill="none" stroke="#000000" d="M977.2707,-164C982.604,-164 980.5459,-156.2092 977.2707,-152 937.2876,-100.6155 875.2537,-167.3845 835.2707,-116 822.0375,-98.9933 812.9153,-69.8898 825.3362,-60.7979"/>
<polygon fill="#000000" stroke="#000000" points="826.594,-64.0799 835.2707,-58 824.6963,-57.3421 826.594,-64.0799"/>
</g>
</g>
</svg>
