<?xml version="1.0" encoding="UTF-8" standalone="no"?>
<!DOCTYPE svg PUBLIC "-//W3C//DTD SVG 1.1//EN"
 "http://www.w3.org/Graphics/SVG/1.1/DTD/svg11.dtd">
<!-- Generated by graphviz version 2.43.0 (0)
 -->
<!-- Title: %3 Pages: 1 -->
<svg width="884pt" height="332pt"
 viewBox="0.00 0.00 883.93 332.00" xmlns="http://www.w3.org/2000/svg" xmlns:xlink="http://www.w3.org/1999/xlink">
<g id="graph0" class="graph" transform="scale(1 1) rotate(0) translate(4 328)">
<title>%3</title>
<polygon fill="white" stroke="transparent" points="-4,4 -4,-328 879.93,-328 879.93,4 -4,4"/>
<!-- inputnode (utility) -->
<g id="node1" class="node">
<title>inputnode (utility)</title>
<ellipse fill="none" stroke="black" cx="389.09" cy="-306" rx="94.78" ry="18"/>
<text text-anchor="middle" x="389.09" y="-302.3" font-family="Times,serif" font-size="14.00">inputnode (utility)</text>
</g>
<!-- val_bold (images) -->
<g id="node2" class="node">
<title>val_bold (images)</title>
<ellipse fill="none" stroke="black" cx="263.09" cy="-234" rx="91.78" ry="18"/>
<text text-anchor="middle" x="263.09" y="-230.3" font-family="Times,serif" font-size="14.00">val_bold (images)</text>
</g>
<!-- inputnode (utility)&#45;&gt;val_bold (images) -->
<g id="edge1" class="edge">
<title>inputnode (utility)&#45;&gt;val_bold (images)</title>
<path fill="none" stroke="black" d="M359.87,-288.76C342.38,-279.05 319.95,-266.59 301.09,-256.11"/>
<polygon fill="black" stroke="black" points="302.6,-252.94 292.16,-251.15 299.2,-259.06 302.6,-252.94"/>
</g>
<!-- enhance_and_skullstrip_bold_wf -->
<g id="node3" class="node">
<title>enhance_and_skullstrip_bold_wf</title>
<ellipse fill="none" stroke="black" cx="389.09" cy="-90" rx="159.47" ry="18"/>
<text text-anchor="middle" x="389.09" y="-86.3" font-family="Times,serif" font-size="14.00">enhance_and_skullstrip_bold_wf</text>
</g>
<!-- inputnode (utility)&#45;&gt;enhance_and_skullstrip_bold_wf -->
<g id="edge2" class="edge">
<title>inputnode (utility)&#45;&gt;enhance_and_skullstrip_bold_wf</title>
<path fill="none" stroke="black" d="M389.09,-287.85C389.09,-250.83 389.09,-163.18 389.09,-118.39"/>
<polygon fill="black" stroke="black" points="392.59,-118.23 389.09,-108.23 385.59,-118.23 392.59,-118.23"/>
</g>
<!-- calc_dummy_scans (utility) -->
<g id="node4" class="node">
<title>calc_dummy_scans (utility)</title>
<ellipse fill="none" stroke="black" cx="740.09" cy="-90" rx="135.68" ry="18"/>
<text text-anchor="middle" x="740.09" y="-86.3" font-family="Times,serif" font-size="14.00">calc_dummy_scans (utility)</text>
</g>
<!-- inputnode (utility)&#45;&gt;calc_dummy_scans (utility) -->
<g id="edge3" class="edge">
<title>inputnode (utility)&#45;&gt;calc_dummy_scans (utility)</title>
<path fill="none" stroke="black" d="M439.72,-290.71C499.23,-272.15 598.89,-235.43 670.09,-180 692.59,-162.49 712.06,-136.25 724.72,-116.8"/>
<polygon fill="black" stroke="black" points="727.81,-118.45 730.2,-108.13 721.9,-114.71 727.81,-118.45"/>
</g>
<!-- gen_ref (registration) -->
<g id="node5" class="node">
<title>gen_ref (registration)</title>
<ellipse fill="none" stroke="black" cx="551.09" cy="-162" rx="110.48" ry="18"/>
<text text-anchor="middle" x="551.09" y="-158.3" font-family="Times,serif" font-size="14.00">gen_ref (registration)</text>
</g>
<!-- val_bold (images)&#45;&gt;gen_ref (registration) -->
<g id="edge4" class="edge">
<title>val_bold (images)&#45;&gt;gen_ref (registration)</title>
<path fill="none" stroke="black" d="M318.28,-219.59C365.06,-208.22 432.35,-191.86 482.57,-179.65"/>
<polygon fill="black" stroke="black" points="483.49,-183.03 492.38,-177.27 481.83,-176.23 483.49,-183.03"/>
</g>
<!-- bold_1st (utility) -->
<g id="node6" class="node">
<title>bold_1st (utility)</title>
<ellipse fill="none" stroke="black" cx="87.09" cy="-90" rx="87.18" ry="18"/>
<text text-anchor="middle" x="87.09" y="-86.3" font-family="Times,serif" font-size="14.00">bold_1st (utility)</text>
</g>
<!-- val_bold (images)&#45;&gt;bold_1st (utility) -->
<g id="edge5" class="edge">
<title>val_bold (images)&#45;&gt;bold_1st (utility)</title>
<path fill="none" stroke="black" d="M207.05,-219.69C182.12,-211.52 153.78,-198.91 133.09,-180 114.61,-163.11 102.37,-137.09 95.2,-117.53"/>
<polygon fill="black" stroke="black" points="98.47,-116.29 91.9,-107.98 91.86,-118.57 98.47,-116.29"/>
</g>
<!-- validate_1st (utility) -->
<g id="node7" class="node">
<title>validate_1st (utility)</title>
<ellipse fill="none" stroke="black" cx="247.09" cy="-162" rx="104.78" ry="18"/>
<text text-anchor="middle" x="247.09" y="-158.3" font-family="Times,serif" font-size="14.00">validate_1st (utility)</text>
</g>
<!-- val_bold (images)&#45;&gt;validate_1st (utility) -->
<g id="edge6" class="edge">
<title>val_bold (images)&#45;&gt;validate_1st (utility)</title>
<path fill="none" stroke="black" d="M259.14,-215.7C257.37,-207.98 255.26,-198.71 253.29,-190.11"/>
<polygon fill="black" stroke="black" points="256.64,-189.07 251,-180.1 249.82,-190.63 256.64,-189.07"/>
</g>
<!-- outputnode (utility) -->
<g id="node8" class="node">
<title>outputnode (utility)</title>
<ellipse fill="none" stroke="black" cx="389.09" cy="-18" rx="101.28" ry="18"/>
<text text-anchor="middle" x="389.09" y="-14.3" font-family="Times,serif" font-size="14.00">outputnode (utility)</text>
</g>
<!-- enhance_and_skullstrip_bold_wf&#45;&gt;outputnode (utility) -->
<g id="edge7" class="edge">
<title>enhance_and_skullstrip_bold_wf&#45;&gt;outputnode (utility)</title>
<path fill="none" stroke="black" d="M389.09,-71.7C389.09,-63.98 389.09,-54.71 389.09,-46.11"/>
<polygon fill="black" stroke="black" points="392.59,-46.1 389.09,-36.1 385.59,-46.1 392.59,-46.1"/>
</g>
<!-- calc_dummy_scans (utility)&#45;&gt;outputnode (utility) -->
<g id="edge8" class="edge">
<title>calc_dummy_scans (utility)&#45;&gt;outputnode (utility)</title>
<path fill="none" stroke="black" d="M668.22,-74.67C608.56,-62.77 524.01,-45.91 463.63,-33.87"/>
<polygon fill="black" stroke="black" points="464.27,-30.42 453.78,-31.9 462.9,-37.29 464.27,-30.42"/>
</g>
<!-- gen_ref (registration)&#45;&gt;enhance_and_skullstrip_bold_wf -->
<g id="edge9" class="edge">
<title>gen_ref (registration)&#45;&gt;enhance_and_skullstrip_bold_wf</title>
<path fill="none" stroke="black" d="M513.93,-144.94C491.08,-135.07 461.58,-122.32 437,-111.7"/>
<polygon fill="black" stroke="black" points="438.06,-108.35 427.49,-107.59 435.28,-114.77 438.06,-108.35"/>
</g>
<!-- gen_ref (registration)&#45;&gt;calc_dummy_scans (utility) -->
<g id="edge10" class="edge">
<title>gen_ref (registration)&#45;&gt;calc_dummy_scans (utility)</title>
<path fill="none" stroke="black" d="M593.51,-145.29C621.08,-135.08 657.26,-121.68 686.78,-110.75"/>
<polygon fill="black" stroke="black" points="688.35,-113.9 696.51,-107.14 685.91,-107.33 688.35,-113.9"/>
</g>
<!-- gen_ref (registration)&#45;&gt;outputnode (utility) -->
<g id="edge11" class="edge">
<title>gen_ref (registration)&#45;&gt;outputnode (utility)</title>
<path fill="none" stroke="black" d="M558.31,-143.77C565.17,-124.38 572.38,-92.86 557.09,-72 540.83,-49.81 515.25,-36.67 488.91,-28.96"/>
<polygon fill="black" stroke="black" points="489.76,-25.57 479.19,-26.36 487.95,-32.33 489.76,-25.57"/>
</g>
<!-- bold_1st (utility)&#45;&gt;outputnode (utility) -->
<g id="edge12" class="edge">
<title>bold_1st (utility)&#45;&gt;outputnode (utility)</title>
<path fill="none" stroke="black" d="M142.84,-76.08C192.89,-64.48 266.56,-47.4 320.28,-34.95"/>
<polygon fill="black" stroke="black" points="321.11,-38.35 330.06,-32.68 319.53,-31.53 321.11,-38.35"/>
</g>
<!-- validate_1st (utility)&#45;&gt;outputnode (utility) -->
<g id="edge13" class="edge">
<title>validate_1st (utility)&#45;&gt;outputnode (utility)</title>
<path fill="none" stroke="black" d="M234.09,-144.07C221.11,-124.95 205.2,-93.68 221.09,-72 237.36,-49.81 262.94,-36.67 289.27,-28.96"/>
<polygon fill="black" stroke="black" points="290.24,-32.33 298.99,-26.36 288.43,-25.57 290.24,-32.33"/>
</g>
</g>
</svg>
