<?xml version="1.0" encoding="UTF-8" standalone="no"?>
<!DOCTYPE svg PUBLIC "-//W3C//DTD SVG 1.1//EN"
 "http://www.w3.org/Graphics/SVG/1.1/DTD/svg11.dtd">
<!-- Generated by graphviz version 2.43.0 (0)
 -->
<!-- Title: %3 Pages: 1 -->
<svg width="864pt" height="1844pt"
 viewBox="0.00 0.00 864.28 1844.00" xmlns="http://www.w3.org/2000/svg" xmlns:xlink="http://www.w3.org/1999/xlink">
<g id="graph0" class="graph" transform="scale(1 1) rotate(0) translate(4 1840)">
<title>%3</title>
<polygon fill="white" stroke="transparent" points="-4,4 -4,-1840 860.28,-1840 860.28,4 -4,4"/>
<!-- inputnode (utility) -->
<g id="node1" class="node">
<title>inputnode (utility)</title>
<ellipse fill="none" stroke="black" cx="313" cy="-1818" rx="94.78" ry="18"/>
<text text-anchor="middle" x="313" y="-1814.3" font-family="Times,serif" font-size="14.00">inputnode (utility)</text>
</g>
<!-- dil_brainmask (ants) -->
<g id="node2" class="node">
<title>dil_brainmask (ants)</title>
<ellipse fill="none" stroke="black" cx="313" cy="-1746" rx="105.08" ry="18"/>
<text text-anchor="middle" x="313" y="-1742.3" font-family="Times,serif" font-size="14.00">dil_brainmask (ants)</text>
</g>
<!-- inputnode (utility)&#45;&gt;dil_brainmask (ants) -->
<g id="edge1" class="edge">
<title>inputnode (utility)&#45;&gt;dil_brainmask (ants)</title>
<path fill="none" stroke="black" d="M313,-1799.7C313,-1791.98 313,-1782.71 313,-1774.11"/>
<polygon fill="black" stroke="black" points="316.5,-1774.1 313,-1764.1 309.5,-1774.1 316.5,-1774.1"/>
</g>
<!-- copy_xform (utils) -->
<g id="node3" class="node">
<title>copy_xform (utils)</title>
<ellipse fill="none" stroke="black" cx="211" cy="-162" rx="94.48" ry="18"/>
<text text-anchor="middle" x="211" y="-158.3" font-family="Times,serif" font-size="14.00">copy_xform (utils)</text>
</g>
<!-- inputnode (utility)&#45;&gt;copy_xform (utils) -->
<g id="edge2" class="edge">
<title>inputnode (utility)&#45;&gt;copy_xform (utils)</title>
<path fill="none" stroke="black" d="M221.2,-1813.12C128.85,-1803.71 0,-1773.01 0,-1675 0,-1675 0,-1675 0,-305 0,-258.03 20.07,-245.03 57,-216 79.86,-198.02 109.22,-185.93 136.16,-177.91"/>
<polygon fill="black" stroke="black" points="137.29,-181.22 145.96,-175.13 135.38,-174.49 137.29,-181.22"/>
</g>
<!-- copy_xform_wm (utils) -->
<g id="node4" class="node">
<title>copy_xform_wm (utils)</title>
<ellipse fill="none" stroke="black" cx="248" cy="-1458" rx="115.08" ry="18"/>
<text text-anchor="middle" x="248" y="-1454.3" font-family="Times,serif" font-size="14.00">copy_xform_wm (utils)</text>
</g>
<!-- inputnode (utility)&#45;&gt;copy_xform_wm (utils) -->
<g id="edge3" class="edge">
<title>inputnode (utility)&#45;&gt;copy_xform_wm (utils)</title>
<path fill="none" stroke="black" d="M259.34,-1803.06C237.78,-1794.94 214.43,-1782.54 199,-1764 172.86,-1732.6 176,-1715.86 176,-1675 176,-1675 176,-1675 176,-1601 176,-1560.55 175.68,-1547.54 195,-1512 200.86,-1501.21 209.61,-1491.18 218.31,-1482.8"/>
<polygon fill="black" stroke="black" points="220.85,-1485.22 225.87,-1475.9 216.13,-1480.06 220.85,-1485.22"/>
</g>
<!-- 03_pad_mask (ants) -->
<g id="node5" class="node">
<title>03_pad_mask (ants)</title>
<ellipse fill="none" stroke="black" cx="665" cy="-1674" rx="102.88" ry="18"/>
<text text-anchor="middle" x="665" y="-1670.3" font-family="Times,serif" font-size="14.00">03_pad_mask (ants)</text>
</g>
<!-- inputnode (utility)&#45;&gt;03_pad_mask (ants) -->
<g id="edge4" class="edge">
<title>inputnode (utility)&#45;&gt;03_pad_mask (ants)</title>
<path fill="none" stroke="black" d="M358.27,-1802.15C388.45,-1792.01 428.87,-1777.92 464,-1764 519.02,-1742.2 581.13,-1714.16 621.56,-1695.43"/>
<polygon fill="black" stroke="black" points="623.26,-1698.5 630.85,-1691.11 620.31,-1692.15 623.26,-1698.5"/>
</g>
<!-- 01_atropos (ants) -->
<g id="node6" class="node">
<title>01_atropos (ants)</title>
<ellipse fill="none" stroke="black" cx="382" cy="-1602" rx="91.78" ry="18"/>
<text text-anchor="middle" x="382" y="-1598.3" font-family="Times,serif" font-size="14.00">01_atropos (ants)</text>
</g>
<!-- inputnode (utility)&#45;&gt;01_atropos (ants) -->
<g id="edge5" class="edge">
<title>inputnode (utility)&#45;&gt;01_atropos (ants)</title>
<path fill="none" stroke="black" d="M370.59,-1803.68C391.83,-1795.76 413.9,-1783.33 427,-1764 453.94,-1724.24 448.51,-1700.73 431,-1656 426.73,-1645.1 419.06,-1635.1 411.03,-1626.79"/>
<polygon fill="black" stroke="black" points="413.27,-1624.09 403.64,-1619.66 408.4,-1629.12 413.27,-1624.09"/>
</g>
<!-- inu_n4_final (ants) -->
<g id="node7" class="node">
<title>inu_n4_final (ants)</title>
<ellipse fill="none" stroke="black" cx="124" cy="-1386" rx="95.58" ry="18"/>
<text text-anchor="middle" x="124" y="-1382.3" font-family="Times,serif" font-size="14.00">inu_n4_final (ants)</text>
</g>
<!-- inputnode (utility)&#45;&gt;inu_n4_final (ants) -->
<g id="edge6" class="edge">
<title>inputnode (utility)&#45;&gt;inu_n4_final (ants)</title>
<path fill="none" stroke="black" d="M254.51,-1803.76C192.99,-1785.97 105,-1747.8 105,-1675 105,-1675 105,-1675 105,-1529 105,-1488.86 112.55,-1442.9 118.13,-1414.4"/>
<polygon fill="black" stroke="black" points="121.61,-1414.88 120.16,-1404.39 114.74,-1413.5 121.61,-1414.88"/>
</g>
<!-- msk_conform (utility) -->
<g id="node8" class="node">
<title>msk_conform (utility)</title>
<ellipse fill="none" stroke="black" cx="711" cy="-234" rx="109.68" ry="18"/>
<text text-anchor="middle" x="711" y="-230.3" font-family="Times,serif" font-size="14.00">msk_conform (utility)</text>
</g>
<!-- inputnode (utility)&#45;&gt;msk_conform (utility) -->
<g id="edge7" class="edge">
<title>inputnode (utility)&#45;&gt;msk_conform (utility)</title>
<path fill="none" stroke="black" d="M402.5,-1811.98C556.44,-1800.87 855,-1767.41 855,-1675 855,-1675 855,-1675 855,-377 855,-336.36 860.11,-319.14 834,-288 820.52,-271.92 801.26,-260.6 781.97,-252.67"/>
<polygon fill="black" stroke="black" points="783.11,-249.36 772.52,-249.04 780.61,-255.89 783.11,-249.36"/>
</g>
<!-- get_brainmask (ants) -->
<g id="node9" class="node">
<title>get_brainmask (ants)</title>
<ellipse fill="none" stroke="black" cx="313" cy="-1674" rx="108.58" ry="18"/>
<text text-anchor="middle" x="313" y="-1670.3" font-family="Times,serif" font-size="14.00">get_brainmask (ants)</text>
</g>
<!-- dil_brainmask (ants)&#45;&gt;get_brainmask (ants) -->
<g id="edge8" class="edge">
<title>dil_brainmask (ants)&#45;&gt;get_brainmask (ants)</title>
<path fill="none" stroke="black" d="M313,-1727.7C313,-1719.98 313,-1710.71 313,-1702.11"/>
<polygon fill="black" stroke="black" points="316.5,-1702.1 313,-1692.1 309.5,-1702.1 316.5,-1702.1"/>
</g>
<!-- apply_mask (nibabel) -->
<g id="node10" class="node">
<title>apply_mask (nibabel)</title>
<ellipse fill="none" stroke="black" cx="280" cy="-90" rx="108.58" ry="18"/>
<text text-anchor="middle" x="280" y="-86.3" font-family="Times,serif" font-size="14.00">apply_mask (nibabel)</text>
</g>
<!-- copy_xform (utils)&#45;&gt;apply_mask (nibabel) -->
<g id="edge9" class="edge">
<title>copy_xform (utils)&#45;&gt;apply_mask (nibabel)</title>
<path fill="none" stroke="black" d="M227.7,-144.05C236.14,-135.5 246.53,-124.96 255.82,-115.54"/>
<polygon fill="black" stroke="black" points="258.44,-117.85 262.97,-108.28 253.46,-112.94 258.44,-117.85"/>
</g>
<!-- outputnode (utility) -->
<g id="node11" class="node">
<title>outputnode (utility)</title>
<ellipse fill="none" stroke="black" cx="211" cy="-18" rx="101.28" ry="18"/>
<text text-anchor="middle" x="211" y="-14.3" font-family="Times,serif" font-size="14.00">outputnode (utility)</text>
</g>
<!-- copy_xform (utils)&#45;&gt;outputnode (utility) -->
<g id="edge10" class="edge">
<title>copy_xform (utils)&#45;&gt;outputnode (utility)</title>
<path fill="none" stroke="black" d="M189.36,-144.34C178.96,-134.94 167.57,-122.24 162,-108 156.17,-93.1 156.17,-86.9 162,-72 166.27,-61.1 173.94,-51.1 181.97,-42.79"/>
<polygon fill="black" stroke="black" points="184.6,-45.12 189.36,-35.66 179.73,-40.09 184.6,-45.12"/>
</g>
<!-- copy_xform_wm (utils)&#45;&gt;inu_n4_final (ants) -->
<g id="edge11" class="edge">
<title>copy_xform_wm (utils)&#45;&gt;inu_n4_final (ants)</title>
<path fill="none" stroke="black" d="M218.61,-1440.41C201.58,-1430.8 179.96,-1418.59 161.68,-1408.27"/>
<polygon fill="black" stroke="black" points="163.18,-1405.1 152.75,-1403.23 159.74,-1411.19 163.18,-1405.1"/>
</g>
<!-- 20_add_7_2 (ants) -->
<g id="node12" class="node">
<title>20_add_7_2 (ants)</title>
<ellipse fill="none" stroke="black" cx="711" cy="-522" rx="94.48" ry="18"/>
<text text-anchor="middle" x="711" y="-518.3" font-family="Times,serif" font-size="14.00">20_add_7_2 (ants)</text>
</g>
<!-- 03_pad_mask (ants)&#45;&gt;20_add_7_2 (ants) -->
<g id="edge12" class="edge">
<title>03_pad_mask (ants)&#45;&gt;20_add_7_2 (ants)</title>
<path fill="none" stroke="black" d="M703.36,-1657.23C748.38,-1635.86 817,-1593.11 817,-1531 817,-1531 817,-1531 817,-665 817,-624.14 817.99,-609.07 794,-576 784.45,-562.83 770.53,-552.13 756.81,-543.88"/>
<polygon fill="black" stroke="black" points="758.29,-540.7 747.87,-538.81 754.84,-546.79 758.29,-540.7"/>
</g>
<!-- 02_pad_segm (ants) -->
<g id="node13" class="node">
<title>02_pad_segm (ants)</title>
<ellipse fill="none" stroke="black" cx="490" cy="-1530" rx="102.88" ry="18"/>
<text text-anchor="middle" x="490" y="-1526.3" font-family="Times,serif" font-size="14.00">02_pad_segm (ants)</text>
</g>
<!-- 01_atropos (ants)&#45;&gt;02_pad_segm (ants) -->
<g id="edge13" class="edge">
<title>01_atropos (ants)&#45;&gt;02_pad_segm (ants)</title>
<path fill="none" stroke="black" d="M407.32,-1584.59C421.84,-1575.18 440.26,-1563.24 456.02,-1553.02"/>
<polygon fill="black" stroke="black" points="457.98,-1555.93 464.46,-1547.55 454.17,-1550.05 457.98,-1555.93"/>
</g>
<!-- sel_wm (utility) -->
<g id="node14" class="node">
<title>sel_wm (utility)</title>
<ellipse fill="none" stroke="black" cx="287" cy="-1530" rx="82.59" ry="18"/>
<text text-anchor="middle" x="287" y="-1526.3" font-family="Times,serif" font-size="14.00">sel_wm (utility)</text>
</g>
<!-- 01_atropos (ants)&#45;&gt;sel_wm (utility) -->
<g id="edge14" class="edge">
<title>01_atropos (ants)&#45;&gt;sel_wm (utility)</title>
<path fill="none" stroke="black" d="M359.49,-1584.41C346.95,-1575.17 331.16,-1563.54 317.52,-1553.49"/>
<polygon fill="black" stroke="black" points="319.48,-1550.58 309.35,-1547.47 315.33,-1556.22 319.48,-1550.58"/>
</g>
<!-- inu_n4_final (ants)&#45;&gt;copy_xform (utils) -->
<g id="edge15" class="edge">
<title>inu_n4_final (ants)&#45;&gt;copy_xform (utils)</title>
<path fill="none" stroke="black" d="M105.56,-1368.15C80.56,-1343.36 39,-1294.43 39,-1243 39,-1243 39,-1243 39,-305 39,-242.98 106.34,-202.98 156.75,-181.72"/>
<polygon fill="black" stroke="black" points="158.32,-184.86 166.26,-177.84 155.68,-178.38 158.32,-184.86"/>
</g>
<!-- msk_conform (utility)&#45;&gt;copy_xform (utils) -->
<g id="edge16" class="edge">
<title>msk_conform (utility)&#45;&gt;copy_xform (utils)</title>
<path fill="none" stroke="black" d="M630.39,-221.71C538.18,-208.8 387.92,-187.77 294.51,-174.69"/>
<polygon fill="black" stroke="black" points="294.92,-171.21 284.53,-173.29 293.95,-178.15 294.92,-171.21"/>
</g>
<!-- get_brainmask (ants)&#45;&gt;01_atropos (ants) -->
<g id="edge17" class="edge">
<title>get_brainmask (ants)&#45;&gt;01_atropos (ants)</title>
<path fill="none" stroke="black" d="M329.7,-1656.05C338.26,-1647.37 348.84,-1636.64 358.23,-1627.11"/>
<polygon fill="black" stroke="black" points="360.92,-1629.37 365.45,-1619.79 355.94,-1624.45 360.92,-1629.37"/>
</g>
<!-- apply_mask (nibabel)&#45;&gt;outputnode (utility) -->
<g id="edge18" class="edge">
<title>apply_mask (nibabel)&#45;&gt;outputnode (utility)</title>
<path fill="none" stroke="black" d="M263.3,-72.05C254.74,-63.37 244.16,-52.64 234.77,-43.11"/>
<polygon fill="black" stroke="black" points="237.06,-40.45 227.55,-35.79 232.08,-45.37 237.06,-40.45"/>
</g>
<!-- 21_md_7_2 (ants) -->
<g id="node35" class="node">
<title>21_md_7_2 (ants)</title>
<ellipse fill="none" stroke="black" cx="711" cy="-450" rx="91.78" ry="18"/>
<text text-anchor="middle" x="711" y="-446.3" font-family="Times,serif" font-size="14.00">21_md_7_2 (ants)</text>
</g>
<!-- 20_add_7_2 (ants)&#45;&gt;21_md_7_2 (ants) -->
<g id="edge19" class="edge">
<title>20_add_7_2 (ants)&#45;&gt;21_md_7_2 (ants)</title>
<path fill="none" stroke="black" d="M711,-503.7C711,-495.98 711,-486.71 711,-478.11"/>
<polygon fill="black" stroke="black" points="714.5,-478.1 711,-468.1 707.5,-478.1 714.5,-478.1"/>
</g>
<!-- 04_sel_labels (utility) -->
<g id="node15" class="node">
<title>04_sel_labels (utility)</title>
<ellipse fill="none" stroke="black" cx="490" cy="-1458" rx="109.38" ry="18"/>
<text text-anchor="middle" x="490" y="-1454.3" font-family="Times,serif" font-size="14.00">04_sel_labels (utility)</text>
</g>
<!-- 02_pad_segm (ants)&#45;&gt;04_sel_labels (utility) -->
<g id="edge20" class="edge">
<title>02_pad_segm (ants)&#45;&gt;04_sel_labels (utility)</title>
<path fill="none" stroke="black" d="M490,-1511.7C490,-1503.98 490,-1494.71 490,-1486.11"/>
<polygon fill="black" stroke="black" points="493.5,-1486.1 490,-1476.1 486.5,-1486.1 493.5,-1486.1"/>
</g>
<!-- sel_wm (utility)&#45;&gt;copy_xform_wm (utils) -->
<g id="edge21" class="edge">
<title>sel_wm (utility)&#45;&gt;copy_xform_wm (utils)</title>
<path fill="none" stroke="black" d="M277.56,-1512.05C273.08,-1504.01 267.61,-1494.2 262.61,-1485.23"/>
<polygon fill="black" stroke="black" points="265.55,-1483.31 257.62,-1476.28 259.43,-1486.71 265.55,-1483.31"/>
</g>
<!-- 05_get_wm (ants) -->
<g id="node16" class="node">
<title>05_get_wm (ants)</title>
<ellipse fill="none" stroke="black" cx="369" cy="-1386" rx="92.88" ry="18"/>
<text text-anchor="middle" x="369" y="-1382.3" font-family="Times,serif" font-size="14.00">05_get_wm (ants)</text>
</g>
<!-- 04_sel_labels (utility)&#45;&gt;05_get_wm (ants) -->
<g id="edge22" class="edge">
<title>04_sel_labels (utility)&#45;&gt;05_get_wm (ants)</title>
<path fill="none" stroke="black" d="M461.63,-1440.59C445.09,-1431.02 424.05,-1418.85 406.19,-1408.52"/>
<polygon fill="black" stroke="black" points="407.6,-1405.29 397.19,-1403.31 404.09,-1411.35 407.6,-1405.29"/>
</g>
<!-- 06_get_gm (ants) -->
<g id="node17" class="node">
<title>06_get_gm (ants)</title>
<ellipse fill="none" stroke="black" cx="609" cy="-1386" rx="90.98" ry="18"/>
<text text-anchor="middle" x="609" y="-1382.3" font-family="Times,serif" font-size="14.00">06_get_gm (ants)</text>
</g>
<!-- 04_sel_labels (utility)&#45;&gt;06_get_gm (ants) -->
<g id="edge23" class="edge">
<title>04_sel_labels (utility)&#45;&gt;06_get_gm (ants)</title>
<path fill="none" stroke="black" d="M517.9,-1440.59C534.16,-1431.02 554.86,-1418.85 572.42,-1408.52"/>
<polygon fill="black" stroke="black" points="574.43,-1411.4 581.27,-1403.31 570.88,-1405.36 574.43,-1411.4"/>
</g>
<!-- 10_me_csf (ants) -->
<g id="node18" class="node">
<title>10_me_csf (ants)</title>
<ellipse fill="none" stroke="black" cx="489" cy="-1242" rx="88.28" ry="18"/>
<text text-anchor="middle" x="489" y="-1238.3" font-family="Times,serif" font-size="14.00">10_me_csf (ants)</text>
</g>
<!-- 04_sel_labels (utility)&#45;&gt;10_me_csf (ants) -->
<g id="edge24" class="edge">
<title>04_sel_labels (utility)&#45;&gt;10_me_csf (ants)</title>
<path fill="none" stroke="black" d="M489.92,-1439.85C489.75,-1402.83 489.34,-1315.18 489.13,-1270.39"/>
<polygon fill="black" stroke="black" points="492.63,-1270.22 489.08,-1260.23 485.63,-1270.25 492.63,-1270.22"/>
</g>
<!-- 27_depad_csf (ants) -->
<g id="node19" class="node">
<title>27_depad_csf (ants)</title>
<ellipse fill="none" stroke="black" cx="204" cy="-1314" rx="102.88" ry="18"/>
<text text-anchor="middle" x="204" y="-1310.3" font-family="Times,serif" font-size="14.00">27_depad_csf (ants)</text>
</g>
<!-- 04_sel_labels (utility)&#45;&gt;27_depad_csf (ants) -->
<g id="edge25" class="edge">
<title>04_sel_labels (utility)&#45;&gt;27_depad_csf (ants)</title>
<path fill="none" stroke="black" d="M414.63,-1444.96C359.75,-1435.11 290.99,-1420.2 267,-1404 243.98,-1388.45 226.65,-1361.48 216.05,-1341.29"/>
<polygon fill="black" stroke="black" points="219.14,-1339.65 211.52,-1332.28 212.88,-1342.79 219.14,-1339.65"/>
</g>
<!-- 09_relabel_wm (ants) -->
<g id="node20" class="node">
<title>09_relabel_wm (ants)</title>
<ellipse fill="none" stroke="black" cx="369" cy="-1098" rx="109.68" ry="18"/>
<text text-anchor="middle" x="369" y="-1094.3" font-family="Times,serif" font-size="14.00">09_relabel_wm (ants)</text>
</g>
<!-- 05_get_wm (ants)&#45;&gt;09_relabel_wm (ants) -->
<g id="edge26" class="edge">
<title>05_get_wm (ants)&#45;&gt;09_relabel_wm (ants)</title>
<path fill="none" stroke="black" d="M369,-1367.97C369,-1320.29 369,-1185.18 369,-1126.63"/>
<polygon fill="black" stroke="black" points="372.5,-1126.31 369,-1116.31 365.5,-1126.31 372.5,-1126.31"/>
</g>
<!-- 07_fill_gm (ants) -->
<g id="node21" class="node">
<title>07_fill_gm (ants)</title>
<ellipse fill="none" stroke="black" cx="607" cy="-1314" rx="87.18" ry="18"/>
<text text-anchor="middle" x="607" y="-1310.3" font-family="Times,serif" font-size="14.00">07_fill_gm (ants)</text>
</g>
<!-- 06_get_gm (ants)&#45;&gt;07_fill_gm (ants) -->
<g id="edge27" class="edge">
<title>06_get_gm (ants)&#45;&gt;07_fill_gm (ants)</title>
<path fill="none" stroke="black" d="M608.51,-1367.7C608.29,-1359.98 608.02,-1350.71 607.77,-1342.11"/>
<polygon fill="black" stroke="black" points="611.27,-1342 607.49,-1332.1 604.28,-1342.2 611.27,-1342"/>
</g>
<!-- 08_mult_gm (ants) -->
<g id="node22" class="node">
<title>08_mult_gm (ants)</title>
<ellipse fill="none" stroke="black" cx="692" cy="-1242" rx="96.68" ry="18"/>
<text text-anchor="middle" x="692" y="-1238.3" font-family="Times,serif" font-size="14.00">08_mult_gm (ants)</text>
</g>
<!-- 06_get_gm (ants)&#45;&gt;08_mult_gm (ants) -->
<g id="edge28" class="edge">
<title>06_get_gm (ants)&#45;&gt;08_mult_gm (ants)</title>
<path fill="none" stroke="black" d="M655.71,-1370.31C673.79,-1362.08 692.61,-1349.79 703,-1332 714.05,-1313.08 709.63,-1288.07 703.41,-1269.38"/>
<polygon fill="black" stroke="black" points="706.69,-1268.17 699.96,-1259.99 700.12,-1270.58 706.69,-1268.17"/>
</g>
<!-- 11_add_gm (ants) -->
<g id="node23" class="node">
<title>11_add_gm (ants)</title>
<ellipse fill="none" stroke="black" cx="641" cy="-1170" rx="92.88" ry="18"/>
<text text-anchor="middle" x="641" y="-1166.3" font-family="Times,serif" font-size="14.00">11_add_gm (ants)</text>
</g>
<!-- 10_me_csf (ants)&#45;&gt;11_add_gm (ants) -->
<g id="edge29" class="edge">
<title>10_me_csf (ants)&#45;&gt;11_add_gm (ants)</title>
<path fill="none" stroke="black" d="M523.11,-1225.29C545.13,-1215.15 573.98,-1201.86 597.63,-1190.97"/>
<polygon fill="black" stroke="black" points="599.12,-1194.14 606.74,-1186.78 596.19,-1187.78 599.12,-1194.14"/>
</g>
<!-- merge_tpms (utility) -->
<g id="node38" class="node">
<title>merge_tpms (utility)</title>
<ellipse fill="none" stroke="black" cx="211" cy="-954" rx="105.88" ry="18"/>
<text text-anchor="middle" x="211" y="-950.3" font-family="Times,serif" font-size="14.00">merge_tpms (utility)</text>
</g>
<!-- 27_depad_csf (ants)&#45;&gt;merge_tpms (utility) -->
<g id="edge30" class="edge">
<title>27_depad_csf (ants)&#45;&gt;merge_tpms (utility)</title>
<path fill="none" stroke="black" d="M173.9,-1296.73C136.35,-1273.98 77,-1228.88 77,-1171 77,-1171 77,-1171 77,-1097 77,-1056.55 70.74,-1039.59 96,-1008 108.51,-992.36 126.69,-981.14 144.91,-973.17"/>
<polygon fill="black" stroke="black" points="146.47,-976.31 154.41,-969.29 143.83,-969.83 146.47,-976.31"/>
</g>
<!-- 13_add_gm_wm (ants) -->
<g id="node24" class="node">
<title>13_add_gm_wm (ants)</title>
<ellipse fill="none" stroke="black" cx="675" cy="-1026" rx="113.98" ry="18"/>
<text text-anchor="middle" x="675" y="-1022.3" font-family="Times,serif" font-size="14.00">13_add_gm_wm (ants)</text>
</g>
<!-- 09_relabel_wm (ants)&#45;&gt;13_add_gm_wm (ants) -->
<g id="edge31" class="edge">
<title>09_relabel_wm (ants)&#45;&gt;13_add_gm_wm (ants)</title>
<path fill="none" stroke="black" d="M430.19,-1083C480.08,-1071.59 550.64,-1055.45 603.2,-1043.42"/>
<polygon fill="black" stroke="black" points="604.16,-1046.79 613.13,-1041.15 602.6,-1039.97 604.16,-1046.79"/>
</g>
<!-- 26_depad_wm (ants) -->
<g id="node25" class="node">
<title>26_depad_wm (ants)</title>
<ellipse fill="none" stroke="black" cx="211" cy="-1026" rx="105.88" ry="18"/>
<text text-anchor="middle" x="211" y="-1022.3" font-family="Times,serif" font-size="14.00">26_depad_wm (ants)</text>
</g>
<!-- 09_relabel_wm (ants)&#45;&gt;26_depad_wm (ants) -->
<g id="edge32" class="edge">
<title>09_relabel_wm (ants)&#45;&gt;26_depad_wm (ants)</title>
<path fill="none" stroke="black" d="M332.75,-1080.94C310.07,-1070.89 280.66,-1057.86 256.43,-1047.13"/>
<polygon fill="black" stroke="black" points="257.64,-1043.84 247.08,-1042.98 254.8,-1050.24 257.64,-1043.84"/>
</g>
<!-- 07_fill_gm (ants)&#45;&gt;08_mult_gm (ants) -->
<g id="edge33" class="edge">
<title>07_fill_gm (ants)&#45;&gt;08_mult_gm (ants)</title>
<path fill="none" stroke="black" d="M627.14,-1296.41C638.07,-1287.41 651.76,-1276.14 663.74,-1266.27"/>
<polygon fill="black" stroke="black" points="666.21,-1268.77 671.71,-1259.71 661.76,-1263.37 666.21,-1268.77"/>
</g>
<!-- 08_mult_gm (ants)&#45;&gt;11_add_gm (ants) -->
<g id="edge34" class="edge">
<title>08_mult_gm (ants)&#45;&gt;11_add_gm (ants)</title>
<path fill="none" stroke="black" d="M679.65,-1224.05C673.61,-1215.75 666.2,-1205.58 659.49,-1196.38"/>
<polygon fill="black" stroke="black" points="662.3,-1194.3 653.59,-1188.28 656.65,-1198.42 662.3,-1194.3"/>
</g>
<!-- 12_relabel_gm (ants) -->
<g id="node26" class="node">
<title>12_relabel_gm (ants)</title>
<ellipse fill="none" stroke="black" cx="641" cy="-1098" rx="107.78" ry="18"/>
<text text-anchor="middle" x="641" y="-1094.3" font-family="Times,serif" font-size="14.00">12_relabel_gm (ants)</text>
</g>
<!-- 11_add_gm (ants)&#45;&gt;12_relabel_gm (ants) -->
<g id="edge35" class="edge">
<title>11_add_gm (ants)&#45;&gt;12_relabel_gm (ants)</title>
<path fill="none" stroke="black" d="M641,-1151.7C641,-1143.98 641,-1134.71 641,-1126.11"/>
<polygon fill="black" stroke="black" points="644.5,-1126.1 641,-1116.1 637.5,-1126.1 644.5,-1126.1"/>
</g>
<!-- 14_sel_labels2 (utility) -->
<g id="node28" class="node">
<title>14_sel_labels2 (utility)</title>
<ellipse fill="none" stroke="black" cx="674" cy="-954" rx="115.08" ry="18"/>
<text text-anchor="middle" x="674" y="-950.3" font-family="Times,serif" font-size="14.00">14_sel_labels2 (utility)</text>
</g>
<!-- 13_add_gm_wm (ants)&#45;&gt;14_sel_labels2 (utility) -->
<g id="edge36" class="edge">
<title>13_add_gm_wm (ants)&#45;&gt;14_sel_labels2 (utility)</title>
<path fill="none" stroke="black" d="M674.75,-1007.7C674.64,-999.98 674.51,-990.71 674.39,-982.11"/>
<polygon fill="black" stroke="black" points="677.89,-982.05 674.24,-972.1 670.89,-982.15 677.89,-982.05"/>
</g>
<!-- 24_depad_segm (ants) -->
<g id="node29" class="node">
<title>24_depad_segm (ants)</title>
<ellipse fill="none" stroke="black" cx="408" cy="-882" rx="114.28" ry="18"/>
<text text-anchor="middle" x="408" y="-878.3" font-family="Times,serif" font-size="14.00">24_depad_segm (ants)</text>
</g>
<!-- 13_add_gm_wm (ants)&#45;&gt;24_depad_segm (ants) -->
<g id="edge37" class="edge">
<title>13_add_gm_wm (ants)&#45;&gt;24_depad_segm (ants)</title>
<path fill="none" stroke="black" d="M633.14,-1009.19C608.49,-999.4 576.96,-986.05 550,-972 510.95,-951.65 468.44,-924.25 440.21,-905.26"/>
<polygon fill="black" stroke="black" points="442.17,-902.36 431.93,-899.65 438.25,-908.15 442.17,-902.36"/>
</g>
<!-- 26_depad_wm (ants)&#45;&gt;merge_tpms (utility) -->
<g id="edge38" class="edge">
<title>26_depad_wm (ants)&#45;&gt;merge_tpms (utility)</title>
<path fill="none" stroke="black" d="M211,-1007.7C211,-999.98 211,-990.71 211,-982.11"/>
<polygon fill="black" stroke="black" points="214.5,-982.1 211,-972.1 207.5,-982.1 214.5,-982.1"/>
</g>
<!-- 12_relabel_gm (ants)&#45;&gt;13_add_gm_wm (ants) -->
<g id="edge39" class="edge">
<title>12_relabel_gm (ants)&#45;&gt;13_add_gm_wm (ants)</title>
<path fill="none" stroke="black" d="M649.4,-1079.7C653.27,-1071.73 657.95,-1062.1 662.24,-1053.26"/>
<polygon fill="black" stroke="black" points="665.47,-1054.63 666.69,-1044.1 659.17,-1051.57 665.47,-1054.63"/>
</g>
<!-- 25_depad_gm (ants) -->
<g id="node27" class="node">
<title>25_depad_gm (ants)</title>
<ellipse fill="none" stroke="black" cx="439" cy="-1026" rx="103.98" ry="18"/>
<text text-anchor="middle" x="439" y="-1022.3" font-family="Times,serif" font-size="14.00">25_depad_gm (ants)</text>
</g>
<!-- 12_relabel_gm (ants)&#45;&gt;25_depad_gm (ants) -->
<g id="edge40" class="edge">
<title>12_relabel_gm (ants)&#45;&gt;25_depad_gm (ants)</title>
<path fill="none" stroke="black" d="M596.17,-1081.46C565.73,-1070.92 525.3,-1056.91 493.08,-1045.74"/>
<polygon fill="black" stroke="black" points="493.95,-1042.34 483.36,-1042.37 491.66,-1048.95 493.95,-1042.34"/>
</g>
<!-- 25_depad_gm (ants)&#45;&gt;merge_tpms (utility) -->
<g id="edge41" class="edge">
<title>25_depad_gm (ants)&#45;&gt;merge_tpms (utility)</title>
<path fill="none" stroke="black" d="M390.37,-1010.07C355.07,-999.23 307.15,-984.52 269.72,-973.03"/>
<polygon fill="black" stroke="black" points="270.54,-969.62 259.95,-970.03 268.48,-976.31 270.54,-969.62"/>
</g>
<!-- 15_add_7 (ants) -->
<g id="node30" class="node">
<title>15_add_7 (ants)</title>
<ellipse fill="none" stroke="black" cx="676" cy="-882" rx="83.69" ry="18"/>
<text text-anchor="middle" x="676" y="-878.3" font-family="Times,serif" font-size="14.00">15_add_7 (ants)</text>
</g>
<!-- 14_sel_labels2 (utility)&#45;&gt;15_add_7 (ants) -->
<g id="edge42" class="edge">
<title>14_sel_labels2 (utility)&#45;&gt;15_add_7 (ants)</title>
<path fill="none" stroke="black" d="M674.49,-935.7C674.71,-927.98 674.98,-918.71 675.23,-910.11"/>
<polygon fill="black" stroke="black" points="678.72,-910.2 675.51,-900.1 671.73,-910 678.72,-910.2"/>
</g>
<!-- 24_depad_segm (ants)&#45;&gt;copy_xform (utils) -->
<g id="edge43" class="edge">
<title>24_depad_segm (ants)&#45;&gt;copy_xform (utils)</title>
<path fill="none" stroke="black" d="M391.08,-863.85C368.13,-838.71 330,-789.35 330,-739 330,-739 330,-739 330,-305 330,-252.81 282.2,-209.74 247.19,-185.19"/>
<polygon fill="black" stroke="black" points="248.84,-182.08 238.6,-179.35 244.9,-187.87 248.84,-182.08"/>
</g>
<!-- 16_me_7 (ants) -->
<g id="node31" class="node">
<title>16_me_7 (ants)</title>
<ellipse fill="none" stroke="black" cx="677" cy="-810" rx="81.49" ry="18"/>
<text text-anchor="middle" x="677" y="-806.3" font-family="Times,serif" font-size="14.00">16_me_7 (ants)</text>
</g>
<!-- 15_add_7 (ants)&#45;&gt;16_me_7 (ants) -->
<g id="edge44" class="edge">
<title>15_add_7 (ants)&#45;&gt;16_me_7 (ants)</title>
<path fill="none" stroke="black" d="M676.25,-863.7C676.36,-855.98 676.49,-846.71 676.61,-838.11"/>
<polygon fill="black" stroke="black" points="680.11,-838.15 676.76,-828.1 673.11,-838.05 680.11,-838.15"/>
</g>
<!-- 17_comp_7 (ants) -->
<g id="node32" class="node">
<title>17_comp_7 (ants)</title>
<ellipse fill="none" stroke="black" cx="688" cy="-738" rx="91.78" ry="18"/>
<text text-anchor="middle" x="688" y="-734.3" font-family="Times,serif" font-size="14.00">17_comp_7 (ants)</text>
</g>
<!-- 16_me_7 (ants)&#45;&gt;17_comp_7 (ants) -->
<g id="edge45" class="edge">
<title>16_me_7 (ants)&#45;&gt;17_comp_7 (ants)</title>
<path fill="none" stroke="black" d="M679.72,-791.7C680.93,-783.98 682.39,-774.71 683.74,-766.11"/>
<polygon fill="black" stroke="black" points="687.22,-766.53 685.31,-756.1 680.3,-765.44 687.22,-766.53"/>
</g>
<!-- 18_md_7 (ants) -->
<g id="node33" class="node">
<title>18_md_7 (ants)</title>
<ellipse fill="none" stroke="black" cx="699" cy="-666" rx="81.49" ry="18"/>
<text text-anchor="middle" x="699" y="-662.3" font-family="Times,serif" font-size="14.00">18_md_7 (ants)</text>
</g>
<!-- 17_comp_7 (ants)&#45;&gt;18_md_7 (ants) -->
<g id="edge46" class="edge">
<title>17_comp_7 (ants)&#45;&gt;18_md_7 (ants)</title>
<path fill="none" stroke="black" d="M690.72,-719.7C691.93,-711.98 693.39,-702.71 694.74,-694.11"/>
<polygon fill="black" stroke="black" points="698.22,-694.53 696.31,-684.1 691.3,-693.44 698.22,-694.53"/>
</g>
<!-- 19_fill_7 (ants) -->
<g id="node34" class="node">
<title>19_fill_7 (ants)</title>
<ellipse fill="none" stroke="black" cx="706" cy="-594" rx="78.79" ry="18"/>
<text text-anchor="middle" x="706" y="-590.3" font-family="Times,serif" font-size="14.00">19_fill_7 (ants)</text>
</g>
<!-- 18_md_7 (ants)&#45;&gt;19_fill_7 (ants) -->
<g id="edge47" class="edge">
<title>18_md_7 (ants)&#45;&gt;19_fill_7 (ants)</title>
<path fill="none" stroke="black" d="M700.73,-647.7C701.5,-639.98 702.43,-630.71 703.29,-622.11"/>
<polygon fill="black" stroke="black" points="706.78,-622.4 704.29,-612.1 699.81,-621.71 706.78,-622.4"/>
</g>
<!-- 19_fill_7 (ants)&#45;&gt;20_add_7_2 (ants) -->
<g id="edge48" class="edge">
<title>19_fill_7 (ants)&#45;&gt;20_add_7_2 (ants)</title>
<path fill="none" stroke="black" d="M707.24,-575.7C707.79,-567.98 708.45,-558.71 709.06,-550.11"/>
<polygon fill="black" stroke="black" points="712.56,-550.33 709.78,-540.1 705.57,-549.83 712.56,-550.33"/>
</g>
<!-- 22_me_7_2 (ants) -->
<g id="node36" class="node">
<title>22_me_7_2 (ants)</title>
<ellipse fill="none" stroke="black" cx="711" cy="-378" rx="90.98" ry="18"/>
<text text-anchor="middle" x="711" y="-374.3" font-family="Times,serif" font-size="14.00">22_me_7_2 (ants)</text>
</g>
<!-- 21_md_7_2 (ants)&#45;&gt;22_me_7_2 (ants) -->
<g id="edge49" class="edge">
<title>21_md_7_2 (ants)&#45;&gt;22_me_7_2 (ants)</title>
<path fill="none" stroke="black" d="M711,-431.7C711,-423.98 711,-414.71 711,-406.11"/>
<polygon fill="black" stroke="black" points="714.5,-406.1 711,-396.1 707.5,-406.1 714.5,-406.1"/>
</g>
<!-- 23_depad_mask (ants) -->
<g id="node37" class="node">
<title>23_depad_mask (ants)</title>
<ellipse fill="none" stroke="black" cx="711" cy="-306" rx="113.98" ry="18"/>
<text text-anchor="middle" x="711" y="-302.3" font-family="Times,serif" font-size="14.00">23_depad_mask (ants)</text>
</g>
<!-- 22_me_7_2 (ants)&#45;&gt;23_depad_mask (ants) -->
<g id="edge50" class="edge">
<title>22_me_7_2 (ants)&#45;&gt;23_depad_mask (ants)</title>
<path fill="none" stroke="black" d="M711,-359.7C711,-351.98 711,-342.71 711,-334.11"/>
<polygon fill="black" stroke="black" points="714.5,-334.1 711,-324.1 707.5,-334.1 714.5,-334.1"/>
</g>
<!-- 23_depad_mask (ants)&#45;&gt;msk_conform (utility) -->
<g id="edge51" class="edge">
<title>23_depad_mask (ants)&#45;&gt;msk_conform (utility)</title>
<path fill="none" stroke="black" d="M711,-287.7C711,-279.98 711,-270.71 711,-262.11"/>
<polygon fill="black" stroke="black" points="714.5,-262.1 711,-252.1 707.5,-262.1 714.5,-262.1"/>
</g>
<!-- merge_tpms (utility)&#45;&gt;copy_xform (utils) -->
<g id="edge52" class="edge">
<title>merge_tpms (utility)&#45;&gt;copy_xform (utils)</title>
<path fill="none" stroke="black" d="M211,-935.95C211,-909.29 211,-856.11 211,-811 211,-811 211,-811 211,-305 211,-265 211,-218.65 211,-190.08"/>
<polygon fill="black" stroke="black" points="214.5,-190.05 211,-180.05 207.5,-190.05 214.5,-190.05"/>
</g>
</g>
</svg>
