<?xml version="1.0" encoding="UTF-8" standalone="no"?>
<!DOCTYPE svg PUBLIC "-//W3C//DTD SVG 1.1//EN"
 "http://www.w3.org/Graphics/SVG/1.1/DTD/svg11.dtd">
<!-- Generated by graphviz version 2.43.0 (0)
 -->
<!-- Title: %3 Pages: 1 -->
<svg width="675pt" height="1268pt"
 viewBox="0.00 0.00 675.43 1268.00" xmlns="http://www.w3.org/2000/svg" xmlns:xlink="http://www.w3.org/1999/xlink">
<g id="graph0" class="graph" transform="scale(1 1) rotate(0) translate(4 1264)">
<title>%3</title>
<polygon fill="white" stroke="transparent" points="-4,4 -4,-1264 671.43,-1264 671.43,4 -4,4"/>
<!-- inputnode (utility) -->
<g id="node1" class="node">
<title>inputnode (utility)</title>
<ellipse fill="none" stroke="black" cx="335.04" cy="-1242" rx="94.78" ry="18"/>
<text text-anchor="middle" x="335.04" y="-1238.3" font-family="Times,serif" font-size="14.00">inputnode (utility)</text>
</g>
<!-- init_aff (ants) -->
<g id="node2" class="node">
<title>init_aff (ants)</title>
<ellipse fill="none" stroke="black" cx="473.04" cy="-1170" rx="72.29" ry="18"/>
<text text-anchor="middle" x="473.04" y="-1166.3" font-family="Times,serif" font-size="14.00">init_aff (ants)</text>
</g>
<!-- inputnode (utility)&#45;&gt;init_aff (ants) -->
<g id="edge1" class="edge">
<title>inputnode (utility)&#45;&gt;init_aff (ants)</title>
<path fill="none" stroke="black" d="M366.7,-1224.94C386.52,-1214.88 412.23,-1201.84 433.4,-1191.1"/>
<polygon fill="black" stroke="black" points="435.14,-1194.15 442.47,-1186.5 431.97,-1187.91 435.14,-1194.15"/>
</g>
<!-- map_brainmask (fixes) -->
<g id="node3" class="node">
<title>map_brainmask (fixes)</title>
<ellipse fill="none" stroke="black" cx="484.04" cy="-1026" rx="115.08" ry="18"/>
<text text-anchor="middle" x="484.04" y="-1022.3" font-family="Times,serif" font-size="14.00">map_brainmask (fixes)</text>
</g>
<!-- inputnode (utility)&#45;&gt;map_brainmask (fixes) -->
<g id="edge2" class="edge">
<title>inputnode (utility)&#45;&gt;map_brainmask (fixes)</title>
<path fill="none" stroke="black" d="M414.4,-1232.11C469.74,-1224.09 536.65,-1210.1 554.04,-1188 564.47,-1174.74 559.64,-1102.23 548.04,-1080 541.82,-1068.09 531.66,-1057.84 521.25,-1049.6"/>
<polygon fill="black" stroke="black" points="523.03,-1046.57 512.91,-1043.44 518.87,-1052.2 523.03,-1046.57"/>
</g>
<!-- norm (fixes) -->
<g id="node4" class="node">
<title>norm (fixes)</title>
<ellipse fill="none" stroke="black" cx="473.04" cy="-1098" rx="66.09" ry="18"/>
<text text-anchor="middle" x="473.04" y="-1094.3" font-family="Times,serif" font-size="14.00">norm (fixes)</text>
</g>
<!-- inputnode (utility)&#45;&gt;norm (fixes) -->
<g id="edge3" class="edge">
<title>inputnode (utility)&#45;&gt;norm (fixes)</title>
<path fill="none" stroke="black" d="M343.27,-1223.76C353,-1204.64 370.6,-1173.64 392.04,-1152 404.47,-1139.44 420.36,-1128.26 434.77,-1119.44"/>
<polygon fill="black" stroke="black" points="436.68,-1122.37 443.5,-1114.26 433.12,-1116.35 436.68,-1122.37"/>
</g>
<!-- check_hdr (images) -->
<g id="node5" class="node">
<title>check_hdr (images)</title>
<ellipse fill="none" stroke="black" cx="455.04" cy="-810" rx="100.98" ry="18"/>
<text text-anchor="middle" x="455.04" y="-806.3" font-family="Times,serif" font-size="14.00">check_hdr (images)</text>
</g>
<!-- inputnode (utility)&#45;&gt;check_hdr (images) -->
<g id="edge4" class="edge">
<title>inputnode (utility)&#45;&gt;check_hdr (images)</title>
<path fill="none" stroke="black" d="M335.04,-1223.95C335.04,-1197.29 335.04,-1144.11 335.04,-1099 335.04,-1099 335.04,-1099 335.04,-953 335.04,-911.79 335.42,-896.28 361.04,-864 372.13,-850.01 388,-839.1 403.54,-830.9"/>
<polygon fill="black" stroke="black" points="405.22,-833.98 412.61,-826.39 402.1,-827.71 405.22,-833.98"/>
</g>
<!-- n4_correct (fixes) -->
<g id="node6" class="node">
<title>n4_correct (fixes)</title>
<ellipse fill="none" stroke="black" cx="455.04" cy="-738" rx="90.98" ry="18"/>
<text text-anchor="middle" x="455.04" y="-734.3" font-family="Times,serif" font-size="14.00">n4_correct (fixes)</text>
</g>
<!-- inputnode (utility)&#45;&gt;n4_correct (fixes) -->
<g id="edge5" class="edge">
<title>inputnode (utility)&#45;&gt;n4_correct (fixes)</title>
<path fill="none" stroke="black" d="M327.35,-1223.91C316.24,-1197.62 297.04,-1145.45 297.04,-1099 297.04,-1099 297.04,-1099 297.04,-881 297.04,-836.06 312.54,-823.05 345.04,-792 360.44,-777.28 380.71,-765.95 399.65,-757.61"/>
<polygon fill="black" stroke="black" points="401.23,-760.74 409.1,-753.64 398.52,-754.29 401.23,-760.74"/>
</g>
<!-- fixhdr_unifize (utils) -->
<g id="node7" class="node">
<title>fixhdr_unifize (utils)</title>
<ellipse fill="none" stroke="black" cx="180.04" cy="-378" rx="103.18" ry="18"/>
<text text-anchor="middle" x="180.04" y="-374.3" font-family="Times,serif" font-size="14.00">fixhdr_unifize (utils)</text>
</g>
<!-- inputnode (utility)&#45;&gt;fixhdr_unifize (utils) -->
<g id="edge6" class="edge">
<title>inputnode (utility)&#45;&gt;fixhdr_unifize (utils)</title>
<path fill="none" stroke="black" d="M297.09,-1225.41C279.39,-1216.59 259.16,-1204.07 245.04,-1188 216.64,-1155.69 207.04,-1142.01 207.04,-1099 207.04,-1099 207.04,-1099 207.04,-521 207.04,-480.5 196.31,-434.63 188.38,-406.26"/>
<polygon fill="black" stroke="black" points="191.63,-404.93 185.5,-396.29 184.91,-406.87 191.63,-404.93"/>
</g>
<!-- fixhdr_skullstrip2 (utils) -->
<g id="node8" class="node">
<title>fixhdr_skullstrip2 (utils)</title>
<ellipse fill="none" stroke="black" cx="332.04" cy="-234" rx="122.38" ry="18"/>
<text text-anchor="middle" x="332.04" y="-230.3" font-family="Times,serif" font-size="14.00">fixhdr_skullstrip2 (utils)</text>
</g>
<!-- inputnode (utility)&#45;&gt;fixhdr_skullstrip2 (utils) -->
<g id="edge7" class="edge">
<title>inputnode (utility)&#45;&gt;fixhdr_skullstrip2 (utils)</title>
<path fill="none" stroke="black" d="M318.92,-1224.19C296.61,-1199.09 259.04,-1149.33 259.04,-1099 259.04,-1099 259.04,-1099 259.04,-593 259.04,-584.59 309.19,-344.15 326.36,-262.12"/>
<polygon fill="black" stroke="black" points="329.79,-262.78 328.42,-252.27 322.94,-261.35 329.79,-262.78"/>
</g>
<!-- init_aff (ants)&#45;&gt;norm (fixes) -->
<g id="edge8" class="edge">
<title>init_aff (ants)&#45;&gt;norm (fixes)</title>
<path fill="none" stroke="black" d="M473.04,-1151.7C473.04,-1143.98 473.04,-1134.71 473.04,-1126.11"/>
<polygon fill="black" stroke="black" points="476.54,-1126.1 473.04,-1116.1 469.54,-1126.1 476.54,-1126.1"/>
</g>
<!-- binarize_mask (nibabel) -->
<g id="node9" class="node">
<title>binarize_mask (nibabel)</title>
<ellipse fill="none" stroke="black" cx="484.04" cy="-954" rx="120.78" ry="18"/>
<text text-anchor="middle" x="484.04" y="-950.3" font-family="Times,serif" font-size="14.00">binarize_mask (nibabel)</text>
</g>
<!-- map_brainmask (fixes)&#45;&gt;binarize_mask (nibabel) -->
<g id="edge9" class="edge">
<title>map_brainmask (fixes)&#45;&gt;binarize_mask (nibabel)</title>
<path fill="none" stroke="black" d="M484.04,-1007.7C484.04,-999.98 484.04,-990.71 484.04,-982.11"/>
<polygon fill="black" stroke="black" points="487.54,-982.1 484.04,-972.1 480.54,-982.1 487.54,-982.1"/>
</g>
<!-- norm (fixes)&#45;&gt;map_brainmask (fixes) -->
<g id="edge10" class="edge">
<title>norm (fixes)&#45;&gt;map_brainmask (fixes)</title>
<path fill="none" stroke="black" d="M475.76,-1079.7C476.97,-1071.98 478.42,-1062.71 479.78,-1054.11"/>
<polygon fill="black" stroke="black" points="483.25,-1054.53 481.35,-1044.1 476.34,-1053.44 483.25,-1054.53"/>
</g>
<!-- check_hdr (images)&#45;&gt;n4_correct (fixes) -->
<g id="edge11" class="edge">
<title>check_hdr (images)&#45;&gt;n4_correct (fixes)</title>
<path fill="none" stroke="black" d="M455.04,-791.7C455.04,-783.98 455.04,-774.71 455.04,-766.11"/>
<polygon fill="black" stroke="black" points="458.54,-766.1 455.04,-756.1 451.54,-766.1 458.54,-766.1"/>
</g>
<!-- skullstrip_first_pass (fsl) -->
<g id="node11" class="node">
<title>skullstrip_first_pass (fsl)</title>
<ellipse fill="none" stroke="black" cx="455.04" cy="-666" rx="124.28" ry="18"/>
<text text-anchor="middle" x="455.04" y="-662.3" font-family="Times,serif" font-size="14.00">skullstrip_first_pass (fsl)</text>
</g>
<!-- n4_correct (fixes)&#45;&gt;skullstrip_first_pass (fsl) -->
<g id="edge12" class="edge">
<title>n4_correct (fixes)&#45;&gt;skullstrip_first_pass (fsl)</title>
<path fill="none" stroke="black" d="M455.04,-719.7C455.04,-711.98 455.04,-702.71 455.04,-694.11"/>
<polygon fill="black" stroke="black" points="458.54,-694.1 455.04,-684.1 451.54,-694.1 458.54,-694.1"/>
</g>
<!-- outputnode (utility) -->
<g id="node12" class="node">
<title>outputnode (utility)</title>
<ellipse fill="none" stroke="black" cx="566.04" cy="-18" rx="101.28" ry="18"/>
<text text-anchor="middle" x="566.04" y="-14.3" font-family="Times,serif" font-size="14.00">outputnode (utility)</text>
</g>
<!-- n4_correct (fixes)&#45;&gt;outputnode (utility) -->
<g id="edge13" class="edge">
<title>n4_correct (fixes)&#45;&gt;outputnode (utility)</title>
<path fill="none" stroke="black" d="M508.34,-723.31C566.38,-704.8 651.04,-665.7 651.04,-595 651.04,-595 651.04,-595 651.04,-161 651.04,-114.19 616.61,-69.45 591.58,-43.1"/>
<polygon fill="black" stroke="black" points="593.98,-40.55 584.48,-35.85 588.98,-45.45 593.98,-40.55"/>
</g>
<!-- skullstrip_second_pass (afni) -->
<g id="node13" class="node">
<title>skullstrip_second_pass (afni)</title>
<ellipse fill="none" stroke="black" cx="160.04" cy="-306" rx="143.77" ry="18"/>
<text text-anchor="middle" x="160.04" y="-302.3" font-family="Times,serif" font-size="14.00">skullstrip_second_pass (afni)</text>
</g>
<!-- fixhdr_unifize (utils)&#45;&gt;skullstrip_second_pass (afni) -->
<g id="edge14" class="edge">
<title>fixhdr_unifize (utils)&#45;&gt;skullstrip_second_pass (afni)</title>
<path fill="none" stroke="black" d="M175.09,-359.7C172.86,-351.9 170.18,-342.51 167.7,-333.83"/>
<polygon fill="black" stroke="black" points="171.04,-332.76 164.92,-324.1 164.31,-334.68 171.04,-332.76"/>
</g>
<!-- apply_mask (fsl) -->
<g id="node14" class="node">
<title>apply_mask (fsl)</title>
<ellipse fill="none" stroke="black" cx="452.04" cy="-90" rx="85.59" ry="18"/>
<text text-anchor="middle" x="452.04" y="-86.3" font-family="Times,serif" font-size="14.00">apply_mask (fsl)</text>
</g>
<!-- fixhdr_unifize (utils)&#45;&gt;apply_mask (fsl) -->
<g id="edge15" class="edge">
<title>fixhdr_unifize (utils)&#45;&gt;apply_mask (fsl)</title>
<path fill="none" stroke="black" d="M102.85,-366C44.62,-354.11 -20.83,-330.82 7.04,-288 87.07,-165.04 263.28,-118.25 368.36,-100.87"/>
<polygon fill="black" stroke="black" points="368.98,-104.31 378.3,-99.28 367.88,-97.4 368.98,-104.31"/>
</g>
<!-- combine_masks (fsl) -->
<g id="node15" class="node">
<title>combine_masks (fsl)</title>
<ellipse fill="none" stroke="black" cx="485.04" cy="-162" rx="104.78" ry="18"/>
<text text-anchor="middle" x="485.04" y="-158.3" font-family="Times,serif" font-size="14.00">combine_masks (fsl)</text>
</g>
<!-- fixhdr_skullstrip2 (utils)&#45;&gt;combine_masks (fsl) -->
<g id="edge16" class="edge">
<title>fixhdr_skullstrip2 (utils)&#45;&gt;combine_masks (fsl)</title>
<path fill="none" stroke="black" d="M367.52,-216.76C389.32,-206.79 417.44,-193.93 440.7,-183.29"/>
<polygon fill="black" stroke="black" points="442.37,-186.37 450.01,-179.03 439.46,-180 442.37,-186.37"/>
</g>
<!-- pre_mask_dilate (fsl) -->
<g id="node10" class="node">
<title>pre_mask_dilate (fsl)</title>
<ellipse fill="none" stroke="black" cx="477.04" cy="-882" rx="106.68" ry="18"/>
<text text-anchor="middle" x="477.04" y="-878.3" font-family="Times,serif" font-size="14.00">pre_mask_dilate (fsl)</text>
</g>
<!-- binarize_mask (nibabel)&#45;&gt;pre_mask_dilate (fsl) -->
<g id="edge17" class="edge">
<title>binarize_mask (nibabel)&#45;&gt;pre_mask_dilate (fsl)</title>
<path fill="none" stroke="black" d="M482.31,-935.7C481.53,-927.98 480.61,-918.71 479.75,-910.11"/>
<polygon fill="black" stroke="black" points="483.22,-909.71 478.75,-900.1 476.26,-910.4 483.22,-909.71"/>
</g>
<!-- pre_mask_dilate (fsl)&#45;&gt;check_hdr (images) -->
<g id="edge18" class="edge">
<title>pre_mask_dilate (fsl)&#45;&gt;check_hdr (images)</title>
<path fill="none" stroke="black" d="M471.6,-863.7C469.15,-855.9 466.2,-846.51 463.47,-837.83"/>
<polygon fill="black" stroke="black" points="466.75,-836.59 460.41,-828.1 460.07,-838.69 466.75,-836.59"/>
</g>
<!-- skullstrip_first_pass (fsl)&#45;&gt;combine_masks (fsl) -->
<g id="edge21" class="edge">
<title>skullstrip_first_pass (fsl)&#45;&gt;combine_masks (fsl)</title>
<path fill="none" stroke="black" d="M529.34,-651.44C553.09,-643.62 577.48,-631.32 594.04,-612 620.35,-581.29 613.04,-563.45 613.04,-523 613.04,-523 613.04,-523 613.04,-305 613.04,-251.38 562.06,-208.89 524.45,-184.83"/>
<polygon fill="black" stroke="black" points="526.04,-181.7 515.7,-179.4 522.35,-187.65 526.04,-181.7"/>
</g>
<!-- skullstrip_first_dilate (fsl) -->
<g id="node16" class="node">
<title>skullstrip_first_dilate (fsl)</title>
<ellipse fill="none" stroke="black" cx="455.04" cy="-594" rx="129.98" ry="18"/>
<text text-anchor="middle" x="455.04" y="-590.3" font-family="Times,serif" font-size="14.00">skullstrip_first_dilate (fsl)</text>
</g>
<!-- skullstrip_first_pass (fsl)&#45;&gt;skullstrip_first_dilate (fsl) -->
<g id="edge19" class="edge">
<title>skullstrip_first_pass (fsl)&#45;&gt;skullstrip_first_dilate (fsl)</title>
<path fill="none" stroke="black" d="M455.04,-647.7C455.04,-639.98 455.04,-630.71 455.04,-622.11"/>
<polygon fill="black" stroke="black" points="458.54,-622.1 455.04,-612.1 451.54,-622.1 458.54,-622.1"/>
</g>
<!-- skullstrip_first_mask (fsl) -->
<g id="node17" class="node">
<title>skullstrip_first_mask (fsl)</title>
<ellipse fill="none" stroke="black" cx="415.04" cy="-522" rx="128.08" ry="18"/>
<text text-anchor="middle" x="415.04" y="-518.3" font-family="Times,serif" font-size="14.00">skullstrip_first_mask (fsl)</text>
</g>
<!-- skullstrip_first_pass (fsl)&#45;&gt;skullstrip_first_mask (fsl) -->
<g id="edge20" class="edge">
<title>skullstrip_first_pass (fsl)&#45;&gt;skullstrip_first_mask (fsl)</title>
<path fill="none" stroke="black" d="M375.04,-652.21C352.21,-644.45 329.81,-631.99 316.04,-612 306.96,-598.82 307.82,-589.73 316.04,-576 324.66,-561.6 338.69,-550.88 353.51,-543.01"/>
<polygon fill="black" stroke="black" points="355.35,-546.01 362.8,-538.47 352.28,-539.72 355.35,-546.01"/>
</g>
<!-- skullstrip_second_pass (afni)&#45;&gt;fixhdr_skullstrip2 (utils) -->
<g id="edge22" class="edge">
<title>skullstrip_second_pass (afni)&#45;&gt;fixhdr_skullstrip2 (utils)</title>
<path fill="none" stroke="black" d="M200.36,-288.59C225.12,-278.51 257,-265.54 283.19,-254.88"/>
<polygon fill="black" stroke="black" points="284.61,-258.08 292.56,-251.07 281.97,-251.6 284.61,-258.08"/>
</g>
<!-- apply_mask (fsl)&#45;&gt;outputnode (utility) -->
<g id="edge23" class="edge">
<title>apply_mask (fsl)&#45;&gt;outputnode (utility)</title>
<path fill="none" stroke="black" d="M478.48,-72.76C493.91,-63.29 513.57,-51.21 530.36,-40.91"/>
<polygon fill="black" stroke="black" points="532.65,-43.61 539.34,-35.39 528.99,-37.64 532.65,-43.61"/>
</g>
<!-- combine_masks (fsl)&#45;&gt;outputnode (utility) -->
<g id="edge25" class="edge">
<title>combine_masks (fsl)&#45;&gt;outputnode (utility)</title>
<path fill="none" stroke="black" d="M511.58,-144.38C524.18,-135.16 538.34,-122.6 547.04,-108 558.18,-89.27 562.83,-64.89 564.75,-46.38"/>
<polygon fill="black" stroke="black" points="568.25,-46.51 565.6,-36.25 561.28,-45.93 568.25,-46.51"/>
</g>
<!-- combine_masks (fsl)&#45;&gt;apply_mask (fsl) -->
<g id="edge24" class="edge">
<title>combine_masks (fsl)&#45;&gt;apply_mask (fsl)</title>
<path fill="none" stroke="black" d="M476.88,-143.7C473.12,-135.73 468.58,-126.1 464.42,-117.26"/>
<polygon fill="black" stroke="black" points="467.53,-115.66 460.1,-108.1 461.2,-118.64 467.53,-115.66"/>
</g>
<!-- skullstrip_first_dilate (fsl)&#45;&gt;skullstrip_first_mask (fsl) -->
<g id="edge26" class="edge">
<title>skullstrip_first_dilate (fsl)&#45;&gt;skullstrip_first_mask (fsl)</title>
<path fill="none" stroke="black" d="M445.15,-575.7C440.55,-567.64 434.98,-557.89 429.88,-548.98"/>
<polygon fill="black" stroke="black" points="432.81,-547.05 424.81,-540.1 426.73,-550.52 432.81,-547.05"/>
</g>
<!-- unifize (afni) -->
<g id="node18" class="node">
<title>unifize (afni)</title>
<ellipse fill="none" stroke="black" cx="386.04" cy="-450" rx="68.79" ry="18"/>
<text text-anchor="middle" x="386.04" y="-446.3" font-family="Times,serif" font-size="14.00">unifize (afni)</text>
</g>
<!-- skullstrip_first_mask (fsl)&#45;&gt;unifize (afni) -->
<g id="edge27" class="edge">
<title>skullstrip_first_mask (fsl)&#45;&gt;unifize (afni)</title>
<path fill="none" stroke="black" d="M407.87,-503.7C404.6,-495.81 400.66,-486.3 397.03,-477.55"/>
<polygon fill="black" stroke="black" points="400.18,-476 393.12,-468.1 393.72,-478.68 400.18,-476"/>
</g>
<!-- unifize (afni)&#45;&gt;fixhdr_unifize (utils) -->
<g id="edge28" class="edge">
<title>unifize (afni)&#45;&gt;fixhdr_unifize (utils)</title>
<path fill="none" stroke="black" d="M345.83,-435.34C314.15,-424.57 269.65,-409.45 234.73,-397.59"/>
<polygon fill="black" stroke="black" points="235.75,-394.24 225.16,-394.33 233.5,-400.86 235.75,-394.24"/>
</g>
</g>
</svg>
