<?xml version="1.0" encoding="UTF-8" standalone="no"?>
<!DOCTYPE svg PUBLIC "-//W3C//DTD SVG 1.1//EN"
 "http://www.w3.org/Graphics/SVG/1.1/DTD/svg11.dtd">
<!-- Generated by graphviz version 2.43.0 (0)
 -->
<!-- Title: %3 Pages: 1 -->
<svg width="476pt" height="404pt"
 viewBox="0.00 0.00 476.03 404.00" xmlns="http://www.w3.org/2000/svg" xmlns:xlink="http://www.w3.org/1999/xlink">
<g id="graph0" class="graph" transform="scale(1 1) rotate(0) translate(4 400)">
<title>%3</title>
<polygon fill="white" stroke="transparent" points="-4,4 -4,-400 472.03,-400 472.03,4 -4,4"/>
<!-- inputnode (utility) -->
<g id="node1" class="node">
<title>inputnode (utility)</title>
<ellipse fill="none" stroke="black" cx="197.79" cy="-378" rx="94.78" ry="18"/>
<text text-anchor="middle" x="197.79" y="-374.3" font-family="Times,serif" font-size="14.00">inputnode (utility)</text>
</g>
<!-- skullstrip_first_pass (fsl) -->
<g id="node2" class="node">
<title>skullstrip_first_pass (fsl)</title>
<ellipse fill="none" stroke="black" cx="197.79" cy="-306" rx="124.28" ry="18"/>
<text text-anchor="middle" x="197.79" y="-302.3" font-family="Times,serif" font-size="14.00">skullstrip_first_pass (fsl)</text>
</g>
<!-- inputnode (utility)&#45;&gt;skullstrip_first_pass (fsl) -->
<g id="edge1" class="edge">
<title>inputnode (utility)&#45;&gt;skullstrip_first_pass (fsl)</title>
<path fill="none" stroke="black" d="M197.79,-359.7C197.79,-351.98 197.79,-342.71 197.79,-334.11"/>
<polygon fill="black" stroke="black" points="201.29,-334.1 197.79,-324.1 194.29,-334.1 201.29,-334.1"/>
</g>
<!-- apply_mask (fsl) -->
<g id="node3" class="node">
<title>apply_mask (fsl)</title>
<ellipse fill="none" stroke="black" cx="85.79" cy="-90" rx="85.59" ry="18"/>
<text text-anchor="middle" x="85.79" y="-86.3" font-family="Times,serif" font-size="14.00">apply_mask (fsl)</text>
</g>
<!-- inputnode (utility)&#45;&gt;apply_mask (fsl) -->
<g id="edge2" class="edge">
<title>inputnode (utility)&#45;&gt;apply_mask (fsl)</title>
<path fill="none" stroke="black" d="M142.8,-363.19C117.2,-354.84 87.47,-342.2 64.79,-324 34.6,-299.77 27.19,-288.99 15.79,-252 0.39,-202 37.12,-146.66 62.99,-115.63"/>
<polygon fill="black" stroke="black" points="65.76,-117.78 69.62,-107.91 60.45,-113.22 65.76,-117.78"/>
</g>
<!-- mask_reportlet (masks) -->
<g id="node4" class="node">
<title>mask_reportlet (masks)</title>
<ellipse fill="none" stroke="black" cx="347.79" cy="-90" rx="120.48" ry="18"/>
<text text-anchor="middle" x="347.79" y="-86.3" font-family="Times,serif" font-size="14.00">mask_reportlet (masks)</text>
</g>
<!-- inputnode (utility)&#45;&gt;mask_reportlet (masks) -->
<g id="edge3" class="edge">
<title>inputnode (utility)&#45;&gt;mask_reportlet (masks)</title>
<path fill="none" stroke="black" d="M265.17,-365.21C289.52,-357.53 314.9,-344.86 330.79,-324 377.2,-263.09 364.41,-165.3 354.49,-118.15"/>
<polygon fill="black" stroke="black" points="357.84,-117.1 352.25,-108.1 351.01,-118.62 357.84,-117.1"/>
</g>
<!-- skullstrip_second_pass (afni) -->
<g id="node5" class="node">
<title>skullstrip_second_pass (afni)</title>
<ellipse fill="none" stroke="black" cx="168.79" cy="-234" rx="143.77" ry="18"/>
<text text-anchor="middle" x="168.79" y="-230.3" font-family="Times,serif" font-size="14.00">skullstrip_second_pass (afni)</text>
</g>
<!-- skullstrip_first_pass (fsl)&#45;&gt;skullstrip_second_pass (afni) -->
<g id="edge4" class="edge">
<title>skullstrip_first_pass (fsl)&#45;&gt;skullstrip_second_pass (afni)</title>
<path fill="none" stroke="black" d="M190.62,-287.7C187.36,-279.81 183.42,-270.3 179.79,-261.55"/>
<polygon fill="black" stroke="black" points="182.94,-260 175.88,-252.1 176.47,-262.68 182.94,-260"/>
</g>
<!-- combine_masks (fsl) -->
<g id="node6" class="node">
<title>combine_masks (fsl)</title>
<ellipse fill="none" stroke="black" cx="199.79" cy="-162" rx="104.78" ry="18"/>
<text text-anchor="middle" x="199.79" y="-158.3" font-family="Times,serif" font-size="14.00">combine_masks (fsl)</text>
</g>
<!-- skullstrip_first_pass (fsl)&#45;&gt;combine_masks (fsl) -->
<g id="edge5" class="edge">
<title>skullstrip_first_pass (fsl)&#45;&gt;combine_masks (fsl)</title>
<path fill="none" stroke="black" d="M267.4,-290.99C288.45,-283.15 309.28,-270.95 321.79,-252 330.61,-238.65 330.57,-229.38 321.79,-216 310.74,-199.15 293.05,-187.63 274.53,-179.76"/>
<polygon fill="black" stroke="black" points="275.69,-176.46 265.1,-176.08 273.14,-182.98 275.69,-176.46"/>
</g>
<!-- outputnode (utility) -->
<g id="node7" class="node">
<title>outputnode (utility)</title>
<ellipse fill="none" stroke="black" cx="199.79" cy="-18" rx="101.28" ry="18"/>
<text text-anchor="middle" x="199.79" y="-14.3" font-family="Times,serif" font-size="14.00">outputnode (utility)</text>
</g>
<!-- apply_mask (fsl)&#45;&gt;outputnode (utility) -->
<g id="edge6" class="edge">
<title>apply_mask (fsl)&#45;&gt;outputnode (utility)</title>
<path fill="none" stroke="black" d="M112.23,-72.76C127.66,-63.29 147.33,-51.21 164.12,-40.91"/>
<polygon fill="black" stroke="black" points="166.41,-43.61 173.1,-35.39 162.75,-37.64 166.41,-43.61"/>
</g>
<!-- mask_reportlet (masks)&#45;&gt;outputnode (utility) -->
<g id="edge7" class="edge">
<title>mask_reportlet (masks)&#45;&gt;outputnode (utility)</title>
<path fill="none" stroke="black" d="M313.09,-72.59C292.16,-62.69 265.32,-49.99 243.01,-39.44"/>
<polygon fill="black" stroke="black" points="244.3,-36.18 233.76,-35.07 241.31,-42.51 244.3,-36.18"/>
</g>
<!-- skullstrip_second_pass (afni)&#45;&gt;combine_masks (fsl) -->
<g id="edge8" class="edge">
<title>skullstrip_second_pass (afni)&#45;&gt;combine_masks (fsl)</title>
<path fill="none" stroke="black" d="M176.46,-215.7C179.98,-207.73 184.25,-198.1 188.16,-189.26"/>
<polygon fill="black" stroke="black" points="191.37,-190.67 192.22,-180.1 184.97,-187.83 191.37,-190.67"/>
</g>
<!-- combine_masks (fsl)&#45;&gt;apply_mask (fsl) -->
<g id="edge10" class="edge">
<title>combine_masks (fsl)&#45;&gt;apply_mask (fsl)</title>
<path fill="none" stroke="black" d="M173.06,-144.59C157.63,-135.11 138.02,-123.07 121.3,-112.8"/>
<polygon fill="black" stroke="black" points="122.71,-109.56 112.35,-107.31 119.04,-115.52 122.71,-109.56"/>
</g>
<!-- combine_masks (fsl)&#45;&gt;mask_reportlet (masks) -->
<g id="edge11" class="edge">
<title>combine_masks (fsl)&#45;&gt;mask_reportlet (masks)</title>
<path fill="none" stroke="black" d="M233.75,-144.94C254.58,-135.09 281.47,-122.37 303.91,-111.75"/>
<polygon fill="black" stroke="black" points="305.68,-114.79 313.23,-107.35 302.69,-108.46 305.68,-114.79"/>
</g>
<!-- combine_masks (fsl)&#45;&gt;outputnode (utility) -->
<g id="edge9" class="edge">
<title>combine_masks (fsl)&#45;&gt;outputnode (utility)</title>
<path fill="none" stroke="black" d="M199.79,-143.87C199.79,-119.67 199.79,-75.21 199.79,-46.39"/>
<polygon fill="black" stroke="black" points="203.29,-46.19 199.79,-36.19 196.29,-46.19 203.29,-46.19"/>
</g>
</g>
</svg>
