<?xml version="1.0" encoding="UTF-8" standalone="no"?>
<!DOCTYPE svg PUBLIC "-//W3C//DTD SVG 1.1//EN"
 "http://www.w3.org/Graphics/SVG/1.1/DTD/svg11.dtd">
<!-- Generated by graphviz version 2.43.0 (0)
 -->
<!-- Title: %3 Pages: 1 -->
<svg width="427pt" height="620pt"
 viewBox="0.00 0.00 427.33 620.00" xmlns="http://www.w3.org/2000/svg" xmlns:xlink="http://www.w3.org/1999/xlink">
<g id="graph0" class="graph" transform="scale(1 1) rotate(0) translate(4 616)">
<title>%3</title>
<polygon fill="white" stroke="transparent" points="-4,4 -4,-616 423.33,-616 423.33,4 -4,4"/>
<!-- inputnode (utility) -->
<g id="node1" class="node">
<title>inputnode (utility)</title>
<ellipse fill="none" stroke="black" cx="246.39" cy="-594" rx="94.78" ry="18"/>
<text text-anchor="middle" x="246.39" y="-590.3" font-family="Times,serif" font-size="14.00">inputnode (utility)</text>
</g>
<!-- validate_nii (header) -->
<g id="node2" class="node">
<title>validate_nii (header)</title>
<ellipse fill="none" stroke="black" cx="313.39" cy="-522" rx="105.88" ry="18"/>
<text text-anchor="middle" x="313.39" y="-518.3" font-family="Times,serif" font-size="14.00">validate_nii (header)</text>
</g>
<!-- inputnode (utility)&#45;&gt;validate_nii (header) -->
<g id="edge1" class="edge">
<title>inputnode (utility)&#45;&gt;validate_nii (header)</title>
<path fill="none" stroke="black" d="M262.61,-576.05C270.8,-567.5 280.89,-556.96 289.91,-547.54"/>
<polygon fill="black" stroke="black" points="292.47,-549.92 296.86,-540.28 287.41,-545.08 292.47,-549.92"/>
</g>
<!-- per_run_avgs (images) -->
<g id="node3" class="node">
<title>per_run_avgs (images)</title>
<ellipse fill="none" stroke="black" cx="179.39" cy="-450" rx="115.88" ry="18"/>
<text text-anchor="middle" x="179.39" y="-446.3" font-family="Times,serif" font-size="14.00">per_run_avgs (images)</text>
</g>
<!-- inputnode (utility)&#45;&gt;per_run_avgs (images) -->
<g id="edge2" class="edge">
<title>inputnode (utility)&#45;&gt;per_run_avgs (images)</title>
<path fill="none" stroke="black" d="M226.86,-576.19C216.89,-566.57 205.41,-553.7 198.39,-540 188.52,-520.72 183.77,-496.57 181.49,-478.29"/>
<polygon fill="black" stroke="black" points="184.97,-477.85 180.41,-468.29 178.01,-478.6 184.97,-477.85"/>
</g>
<!-- validate_nii (header)&#45;&gt;per_run_avgs (images) -->
<g id="edge3" class="edge">
<title>validate_nii (header)&#45;&gt;per_run_avgs (images)</title>
<path fill="none" stroke="black" d="M282.31,-504.76C263.67,-495.03 239.77,-482.54 219.69,-472.05"/>
<polygon fill="black" stroke="black" points="221.25,-468.92 210.77,-467.39 218.01,-475.12 221.25,-468.92"/>
</g>
<!-- outputnode (utility) -->
<g id="node4" class="node">
<title>outputnode (utility)</title>
<ellipse fill="none" stroke="black" cx="101.39" cy="-18" rx="101.28" ry="18"/>
<text text-anchor="middle" x="101.39" y="-14.3" font-family="Times,serif" font-size="14.00">outputnode (utility)</text>
</g>
<!-- validate_nii (header)&#45;&gt;outputnode (utility) -->
<g id="edge4" class="edge">
<title>validate_nii (header)&#45;&gt;outputnode (utility)</title>
<path fill="none" stroke="black" d="M323.75,-503.76C338.4,-477.7 363.39,-426.31 363.39,-379 363.39,-379 363.39,-379 363.39,-161 363.39,-120.55 372.93,-100.66 344.39,-72 323.55,-51.06 255.56,-37.37 196.78,-29.15"/>
<polygon fill="black" stroke="black" points="197.07,-25.66 186.69,-27.78 196.12,-32.59 197.07,-25.66"/>
</g>
<!-- per_run_avgs (images)&#45;&gt;outputnode (utility) -->
<g id="edge6" class="edge">
<title>per_run_avgs (images)&#45;&gt;outputnode (utility)</title>
<path fill="none" stroke="black" d="M133.54,-433.35C113.29,-424.73 90.31,-412.4 73.39,-396 41.12,-364.72 25.39,-351.94 25.39,-307 25.39,-307 25.39,-307 25.39,-161 25.39,-115.39 56.25,-70.25 78.64,-43.5"/>
<polygon fill="black" stroke="black" points="81.39,-45.67 85.27,-35.81 76.09,-41.09 81.39,-45.67"/>
</g>
<!-- clip_avgs (nibabel) -->
<g id="node5" class="node">
<title>clip_avgs (nibabel)</title>
<ellipse fill="none" stroke="black" cx="179.39" cy="-378" rx="96.68" ry="18"/>
<text text-anchor="middle" x="179.39" y="-374.3" font-family="Times,serif" font-size="14.00">clip_avgs (nibabel)</text>
</g>
<!-- per_run_avgs (images)&#45;&gt;clip_avgs (nibabel) -->
<g id="edge5" class="edge">
<title>per_run_avgs (images)&#45;&gt;clip_avgs (nibabel)</title>
<path fill="none" stroke="black" d="M179.39,-431.7C179.39,-423.98 179.39,-414.71 179.39,-406.11"/>
<polygon fill="black" stroke="black" points="182.89,-406.1 179.39,-396.1 175.89,-406.1 182.89,-406.1"/>
</g>
<!-- n4_avgs (ants) -->
<g id="node6" class="node">
<title>n4_avgs (ants)</title>
<ellipse fill="none" stroke="black" cx="179.39" cy="-306" rx="77.99" ry="18"/>
<text text-anchor="middle" x="179.39" y="-302.3" font-family="Times,serif" font-size="14.00">n4_avgs (ants)</text>
</g>
<!-- clip_avgs (nibabel)&#45;&gt;n4_avgs (ants) -->
<g id="edge7" class="edge">
<title>clip_avgs (nibabel)&#45;&gt;n4_avgs (ants)</title>
<path fill="none" stroke="black" d="M179.39,-359.7C179.39,-351.98 179.39,-342.71 179.39,-334.11"/>
<polygon fill="black" stroke="black" points="182.89,-334.1 179.39,-324.1 175.89,-334.1 182.89,-334.1"/>
</g>
<!-- n4_avgs (ants)&#45;&gt;outputnode (utility) -->
<g id="edge9" class="edge">
<title>n4_avgs (ants)&#45;&gt;outputnode (utility)</title>
<path fill="none" stroke="black" d="M133.01,-291.43C113.83,-283.27 93.5,-270.73 82.39,-252 43.41,-186.28 72.04,-91.21 89.92,-45.5"/>
<polygon fill="black" stroke="black" points="93.25,-46.6 93.75,-36.01 86.76,-43.97 93.25,-46.6"/>
</g>
<!-- clip_bg_noise (nibabel) -->
<g id="node7" class="node">
<title>clip_bg_noise (nibabel)</title>
<ellipse fill="none" stroke="black" cx="207.39" cy="-234" rx="116.18" ry="18"/>
<text text-anchor="middle" x="207.39" y="-230.3" font-family="Times,serif" font-size="14.00">clip_bg_noise (nibabel)</text>
</g>
<!-- n4_avgs (ants)&#45;&gt;clip_bg_noise (nibabel) -->
<g id="edge8" class="edge">
<title>n4_avgs (ants)&#45;&gt;clip_bg_noise (nibabel)</title>
<path fill="none" stroke="black" d="M186.17,-288.05C189.32,-280.18 193.14,-270.62 196.67,-261.79"/>
<polygon fill="black" stroke="black" points="200.02,-262.86 200.48,-252.28 193.52,-260.26 200.02,-262.86"/>
</g>
<!-- epi_merge (freesurfer) -->
<g id="node8" class="node">
<title>epi_merge (freesurfer)</title>
<ellipse fill="none" stroke="black" cx="207.39" cy="-162" rx="115.88" ry="18"/>
<text text-anchor="middle" x="207.39" y="-158.3" font-family="Times,serif" font-size="14.00">epi_merge (freesurfer)</text>
</g>
<!-- clip_bg_noise (nibabel)&#45;&gt;epi_merge (freesurfer) -->
<g id="edge10" class="edge">
<title>clip_bg_noise (nibabel)&#45;&gt;epi_merge (freesurfer)</title>
<path fill="none" stroke="black" d="M207.39,-215.7C207.39,-207.98 207.39,-198.71 207.39,-190.11"/>
<polygon fill="black" stroke="black" points="210.89,-190.1 207.39,-180.1 203.89,-190.1 210.89,-190.1"/>
</g>
<!-- epi_merge (freesurfer)&#45;&gt;outputnode (utility) -->
<g id="edge12" class="edge">
<title>epi_merge (freesurfer)&#45;&gt;outputnode (utility)</title>
<path fill="none" stroke="black" d="M167.1,-145.12C150.26,-136.54 131.95,-124.3 120.39,-108 107.65,-90.03 103.15,-65.24 101.69,-46.39"/>
<polygon fill="black" stroke="black" points="105.19,-46.13 101.16,-36.33 98.2,-46.51 105.19,-46.13"/>
</g>
<!-- post_merge (utility) -->
<g id="node9" class="node">
<title>post_merge (utility)</title>
<ellipse fill="none" stroke="black" cx="232.39" cy="-90" rx="102.88" ry="18"/>
<text text-anchor="middle" x="232.39" y="-86.3" font-family="Times,serif" font-size="14.00">post_merge (utility)</text>
</g>
<!-- epi_merge (freesurfer)&#45;&gt;post_merge (utility) -->
<g id="edge11" class="edge">
<title>epi_merge (freesurfer)&#45;&gt;post_merge (utility)</title>
<path fill="none" stroke="black" d="M213.57,-143.7C216.39,-135.81 219.78,-126.3 222.91,-117.55"/>
<polygon fill="black" stroke="black" points="226.21,-118.7 226.28,-108.1 219.62,-116.34 226.21,-118.7"/>
</g>
<!-- post_merge (utility)&#45;&gt;outputnode (utility) -->
<g id="edge13" class="edge">
<title>post_merge (utility)&#45;&gt;outputnode (utility)</title>
<path fill="none" stroke="black" d="M202.01,-72.76C183.87,-63.07 160.63,-50.65 141.05,-40.19"/>
<polygon fill="black" stroke="black" points="142.53,-37.02 132.06,-35.39 139.23,-43.19 142.53,-37.02"/>
</g>
</g>
</svg>
