<?xml version="1.0" encoding="UTF-8" standalone="no"?>
<!DOCTYPE svg PUBLIC "-//W3C//DTD SVG 1.1//EN"
 "http://www.w3.org/Graphics/SVG/1.1/DTD/svg11.dtd">
<!-- Generated by graphviz version 2.43.0 (0)
 -->
<!-- Title: %3 Pages: 1 -->
<svg width="640pt" height="548pt"
 viewBox="0.00 0.00 639.51 548.00" xmlns="http://www.w3.org/2000/svg" xmlns:xlink="http://www.w3.org/1999/xlink">
<g id="graph0" class="graph" transform="scale(1 1) rotate(0) translate(4 544)">
<title>%3</title>
<polygon fill="white" stroke="transparent" points="-4,4 -4,-544 635.51,-544 635.51,4 -4,4"/>
<!-- inputnode (utility) -->
<g id="node1" class="node">
<title>inputnode (utility)</title>
<ellipse fill="none" stroke="black" cx="329.79" cy="-522" rx="94.78" ry="18"/>
<text text-anchor="middle" x="329.79" y="-518.3" font-family="Times,serif" font-size="14.00">inputnode (utility)</text>
</g>
<!-- fssource (io) -->
<g id="node2" class="node">
<title>fssource (io)</title>
<ellipse fill="none" stroke="black" cx="329.79" cy="-450" rx="67.69" ry="18"/>
<text text-anchor="middle" x="329.79" y="-446.3" font-family="Times,serif" font-size="14.00">fssource (io)</text>
</g>
<!-- inputnode (utility)&#45;&gt;fssource (io) -->
<g id="edge1" class="edge">
<title>inputnode (utility)&#45;&gt;fssource (io)</title>
<path fill="none" stroke="black" d="M329.79,-503.7C329.79,-495.98 329.79,-486.71 329.79,-478.11"/>
<polygon fill="black" stroke="black" points="333.29,-478.1 329.79,-468.1 326.29,-478.1 333.29,-478.1"/>
</g>
<!-- save_midthickness (io) -->
<g id="node3" class="node">
<title>save_midthickness (io)</title>
<ellipse fill="none" stroke="black" cx="486.79" cy="-306" rx="115.88" ry="18"/>
<text text-anchor="middle" x="486.79" y="-302.3" font-family="Times,serif" font-size="14.00">save_midthickness (io)</text>
</g>
<!-- inputnode (utility)&#45;&gt;save_midthickness (io) -->
<g id="edge2" class="edge">
<title>inputnode (utility)&#45;&gt;save_midthickness (io)</title>
<path fill="none" stroke="black" d="M408.06,-511.73C478.13,-498.84 576.95,-468.23 624.79,-396 633.62,-382.66 633.85,-373.19 624.79,-360 612.74,-342.47 594.03,-330.74 574.24,-322.88"/>
<polygon fill="black" stroke="black" points="575.36,-319.57 564.77,-319.43 572.97,-326.15 575.36,-319.57"/>
</g>
<!-- fsnative_2_t1_xfm (freesurfer) -->
<g id="node4" class="node">
<title>fsnative_2_t1_xfm (freesurfer)</title>
<ellipse fill="none" stroke="black" cx="150.79" cy="-306" rx="150.57" ry="18"/>
<text text-anchor="middle" x="150.79" y="-302.3" font-family="Times,serif" font-size="14.00">fsnative_2_t1_xfm (freesurfer)</text>
</g>
<!-- inputnode (utility)&#45;&gt;fsnative_2_t1_xfm (freesurfer) -->
<g id="edge3" class="edge">
<title>inputnode (utility)&#45;&gt;fsnative_2_t1_xfm (freesurfer)</title>
<path fill="none" stroke="black" d="M300.61,-504.82C285.24,-495.39 266.74,-482.5 252.79,-468 212.9,-426.56 180.15,-367.16 163.23,-333.3"/>
<polygon fill="black" stroke="black" points="166.25,-331.49 158.7,-324.06 159.96,-334.58 166.25,-331.49"/>
</g>
<!-- fssource (io)&#45;&gt;fsnative_2_t1_xfm (freesurfer) -->
<g id="edge4" class="edge">
<title>fssource (io)&#45;&gt;fsnative_2_t1_xfm (freesurfer)</title>
<path fill="none" stroke="black" d="M309.25,-432.71C277.63,-407.62 216.85,-359.41 180.45,-330.53"/>
<polygon fill="black" stroke="black" points="182.2,-327.45 172.19,-323.98 177.85,-332.94 182.2,-327.45"/>
</g>
<!-- midthickness (freesurfer) -->
<g id="node5" class="node">
<title>midthickness (freesurfer)</title>
<ellipse fill="none" stroke="black" cx="486.79" cy="-378" rx="128.88" ry="18"/>
<text text-anchor="middle" x="486.79" y="-374.3" font-family="Times,serif" font-size="14.00">midthickness (freesurfer)</text>
</g>
<!-- fssource (io)&#45;&gt;midthickness (freesurfer) -->
<g id="edge5" class="edge">
<title>fssource (io)&#45;&gt;midthickness (freesurfer)</title>
<path fill="none" stroke="black" d="M363.08,-434.15C385.75,-424.05 416.05,-410.54 440.98,-399.42"/>
<polygon fill="black" stroke="black" points="442.54,-402.56 450.25,-395.29 439.69,-396.17 442.54,-402.56"/>
</g>
<!-- surface_list (utility) -->
<g id="node6" class="node">
<title>surface_list (utility)</title>
<ellipse fill="none" stroke="black" cx="337.79" cy="-234" rx="101.28" ry="18"/>
<text text-anchor="middle" x="337.79" y="-230.3" font-family="Times,serif" font-size="14.00">surface_list (utility)</text>
</g>
<!-- fssource (io)&#45;&gt;surface_list (utility) -->
<g id="edge6" class="edge">
<title>fssource (io)&#45;&gt;surface_list (utility)</title>
<path fill="none" stroke="black" d="M330.43,-431.85C331.81,-394.83 335.09,-307.18 336.76,-262.39"/>
<polygon fill="black" stroke="black" points="340.27,-262.36 337.14,-252.23 333.27,-262.09 340.27,-262.36"/>
</g>
<!-- save_midthickness (io)&#45;&gt;surface_list (utility) -->
<g id="edge7" class="edge">
<title>save_midthickness (io)&#45;&gt;surface_list (utility)</title>
<path fill="none" stroke="black" d="M452.23,-288.76C431,-278.79 403.62,-265.93 380.97,-255.29"/>
<polygon fill="black" stroke="black" points="382.44,-252.11 371.9,-251.03 379.46,-258.45 382.44,-252.11"/>
</g>
<!-- fix_surfs (surf) -->
<g id="node7" class="node">
<title>fix_surfs (surf)</title>
<ellipse fill="none" stroke="black" cx="240.79" cy="-90" rx="77.99" ry="18"/>
<text text-anchor="middle" x="240.79" y="-86.3" font-family="Times,serif" font-size="14.00">fix_surfs (surf)</text>
</g>
<!-- fsnative_2_t1_xfm (freesurfer)&#45;&gt;fix_surfs (surf) -->
<g id="edge8" class="edge">
<title>fsnative_2_t1_xfm (freesurfer)&#45;&gt;fix_surfs (surf)</title>
<path fill="none" stroke="black" d="M158,-287.85C173.71,-250.5 211.08,-161.63 229.76,-117.21"/>
<polygon fill="black" stroke="black" points="233.01,-118.51 233.66,-107.94 226.56,-115.8 233.01,-118.51"/>
</g>
<!-- outputnode (utility) -->
<g id="node8" class="node">
<title>outputnode (utility)</title>
<ellipse fill="none" stroke="black" cx="240.79" cy="-18" rx="101.28" ry="18"/>
<text text-anchor="middle" x="240.79" y="-14.3" font-family="Times,serif" font-size="14.00">outputnode (utility)</text>
</g>
<!-- fsnative_2_t1_xfm (freesurfer)&#45;&gt;outputnode (utility) -->
<g id="edge9" class="edge">
<title>fsnative_2_t1_xfm (freesurfer)&#45;&gt;outputnode (utility)</title>
<path fill="none" stroke="black" d="M145.73,-287.75C134.84,-247.02 113.31,-142.99 153.79,-72 161.76,-58.01 175.07,-47.27 188.91,-39.23"/>
<polygon fill="black" stroke="black" points="190.88,-42.15 198.03,-34.33 187.57,-35.98 190.88,-42.15"/>
</g>
<!-- midthickness (freesurfer)&#45;&gt;save_midthickness (io) -->
<g id="edge10" class="edge">
<title>midthickness (freesurfer)&#45;&gt;save_midthickness (io)</title>
<path fill="none" stroke="black" d="M486.79,-359.7C486.79,-351.98 486.79,-342.71 486.79,-334.11"/>
<polygon fill="black" stroke="black" points="490.29,-334.1 486.79,-324.1 483.29,-334.1 490.29,-334.1"/>
</g>
<!-- fs_2_gii (freesurfer) -->
<g id="node9" class="node">
<title>fs_2_gii (freesurfer)</title>
<ellipse fill="none" stroke="black" cx="337.79" cy="-162" rx="102.08" ry="18"/>
<text text-anchor="middle" x="337.79" y="-158.3" font-family="Times,serif" font-size="14.00">fs_2_gii (freesurfer)</text>
</g>
<!-- surface_list (utility)&#45;&gt;fs_2_gii (freesurfer) -->
<g id="edge11" class="edge">
<title>surface_list (utility)&#45;&gt;fs_2_gii (freesurfer)</title>
<path fill="none" stroke="black" d="M337.79,-215.7C337.79,-207.98 337.79,-198.71 337.79,-190.11"/>
<polygon fill="black" stroke="black" points="341.29,-190.1 337.79,-180.1 334.29,-190.1 341.29,-190.1"/>
</g>
<!-- fix_surfs (surf)&#45;&gt;outputnode (utility) -->
<g id="edge12" class="edge">
<title>fix_surfs (surf)&#45;&gt;outputnode (utility)</title>
<path fill="none" stroke="black" d="M240.79,-71.7C240.79,-63.98 240.79,-54.71 240.79,-46.11"/>
<polygon fill="black" stroke="black" points="244.29,-46.1 240.79,-36.1 237.29,-46.1 244.29,-46.1"/>
</g>
<!-- fs_2_gii (freesurfer)&#45;&gt;fix_surfs (surf) -->
<g id="edge13" class="edge">
<title>fs_2_gii (freesurfer)&#45;&gt;fix_surfs (surf)</title>
<path fill="none" stroke="black" d="M314.8,-144.41C301.99,-135.17 285.87,-123.54 271.95,-113.49"/>
<polygon fill="black" stroke="black" points="273.77,-110.48 263.61,-107.47 269.67,-116.16 273.77,-110.48"/>
</g>
<!-- fs_2_gii (freesurfer)&#45;&gt;outputnode (utility) -->
<g id="edge14" class="edge">
<title>fs_2_gii (freesurfer)&#45;&gt;outputnode (utility)</title>
<path fill="none" stroke="black" d="M340.09,-143.8C341.75,-124.72 341.67,-93.76 327.79,-72 319.05,-58.3 305.38,-47.61 291.44,-39.53"/>
<polygon fill="black" stroke="black" points="292.75,-36.26 282.29,-34.59 289.43,-42.42 292.75,-36.26"/>
</g>
</g>
</svg>
