<?xml version="1.0" encoding="UTF-8" standalone="no"?>
<!DOCTYPE svg PUBLIC "-//W3C//DTD SVG 1.1//EN"
 "http://www.w3.org/Graphics/SVG/1.1/DTD/svg11.dtd">
<!-- Generated by graphviz version 2.40.1 (20161225.0304)
 -->
<!-- Title: %3 Pages: 1 -->
<svg width="568pt" height="692pt"
 viewBox="0.00 0.00 568.26 692.00" xmlns="http://www.w3.org/2000/svg" xmlns:xlink="http://www.w3.org/1999/xlink">
<g id="graph0" class="graph" transform="scale(1 1) rotate(0) translate(4 688)">
<title>%3</title>
<polygon fill="#ffffff" stroke="transparent" points="-4,4 -4,-688 564.2554,-688 564.2554,4 -4,4"/>
<!-- inputnode (utility) -->
<g id="node1" class="node">
<title>inputnode (utility)</title>
<ellipse fill="none" stroke="#000000" cx="226.7652" cy="-666" rx="94.7833" ry="18"/>
<text text-anchor="middle" x="226.7652" y="-662.3" font-family="Times,serif" font-size="14.00" fill="#000000">inputnode (utility)</text>
</g>
<!-- merge_ltas (utility) -->
<g id="node2" class="node">
<title>merge_ltas (utility)</title>
<ellipse fill="none" stroke="#000000" cx="149.7652" cy="-162" rx="100.1823" ry="18"/>
<text text-anchor="middle" x="149.7652" y="-158.3" font-family="Times,serif" font-size="14.00" fill="#000000">merge_ltas (utility)</text>
</g>
<!-- inputnode (utility)&#45;&gt;merge_ltas (utility) -->
<g id="edge1" class="edge">
<title>inputnode (utility)&#45;&gt;merge_ltas (utility)</title>
<path fill="none" stroke="#000000" d="M160.4747,-653.0433C94.1053,-635.7652 1.7652,-598.0592 1.7652,-522 1.7652,-522 1.7652,-522 1.7652,-306 1.7652,-265.1184 -5.2955,-247.4984 20.7652,-216 34.7274,-199.1245 54.8686,-187.4368 75.1001,-179.3763"/>
<polygon fill="#000000" stroke="#000000" points="76.5389,-182.5756 84.695,-175.8134 74.1021,-176.0135 76.5389,-182.5756"/>
</g>
<!-- mri_coreg (freesurfer) -->
<g id="node3" class="node">
<title>mri_coreg (freesurfer)</title>
<ellipse fill="none" stroke="#000000" cx="226.7652" cy="-594" rx="114.2798" ry="18"/>
<text text-anchor="middle" x="226.7652" y="-590.3" font-family="Times,serif" font-size="14.00" fill="#000000">mri_coreg (freesurfer)</text>
</g>
<!-- inputnode (utility)&#45;&gt;mri_coreg (freesurfer) -->
<g id="edge2" class="edge">
<title>inputnode (utility)&#45;&gt;mri_coreg (freesurfer)</title>
<path fill="none" stroke="#000000" d="M226.7652,-647.8314C226.7652,-640.131 226.7652,-630.9743 226.7652,-622.4166"/>
<polygon fill="#000000" stroke="#000000" points="230.2653,-622.4132 226.7652,-612.4133 223.2653,-622.4133 230.2653,-622.4132"/>
</g>
<!-- bbregister (freesurfer) -->
<g id="node4" class="node">
<title>bbregister (freesurfer)</title>
<ellipse fill="none" stroke="#000000" cx="370.7652" cy="-522" rx="116.1796" ry="18"/>
<text text-anchor="middle" x="370.7652" y="-518.3" font-family="Times,serif" font-size="14.00" fill="#000000">bbregister (freesurfer)</text>
</g>
<!-- inputnode (utility)&#45;&gt;bbregister (freesurfer) -->
<g id="edge3" class="edge">
<title>inputnode (utility)&#45;&gt;bbregister (freesurfer)</title>
<path fill="none" stroke="#000000" d="M286.742,-652.0367C309.4908,-643.8956 333.7456,-631.2849 349.7652,-612 364.0382,-594.8176 368.9978,-569.7067 370.5526,-550.3722"/>
<polygon fill="#000000" stroke="#000000" points="374.0514,-550.4886 371.1036,-540.3122 367.0618,-550.1058 374.0514,-550.4886"/>
</g>
<!-- concat_xfm (nitransforms) -->
<g id="node5" class="node">
<title>concat_xfm (nitransforms)</title>
<ellipse fill="none" stroke="#000000" cx="149.7652" cy="-90" rx="133.7763" ry="18"/>
<text text-anchor="middle" x="149.7652" y="-86.3" font-family="Times,serif" font-size="14.00" fill="#000000">concat_xfm (nitransforms)</text>
</g>
<!-- merge_ltas (utility)&#45;&gt;concat_xfm (nitransforms) -->
<g id="edge4" class="edge">
<title>merge_ltas (utility)&#45;&gt;concat_xfm (nitransforms)</title>
<path fill="none" stroke="#000000" d="M149.7652,-143.8314C149.7652,-136.131 149.7652,-126.9743 149.7652,-118.4166"/>
<polygon fill="#000000" stroke="#000000" points="153.2653,-118.4132 149.7652,-108.4133 146.2653,-118.4133 153.2653,-118.4132"/>
</g>
<!-- mri_coreg (freesurfer)&#45;&gt;bbregister (freesurfer) -->
<g id="edge5" class="edge">
<title>mri_coreg (freesurfer)&#45;&gt;bbregister (freesurfer)</title>
<path fill="none" stroke="#000000" d="M261.2568,-576.7542C280.9712,-566.897 305.891,-554.4371 326.9764,-543.8944"/>
<polygon fill="#000000" stroke="#000000" points="328.6769,-546.9573 336.0559,-539.3546 325.5464,-540.6963 328.6769,-546.9573"/>
</g>
<!-- transforms (utility) -->
<g id="node7" class="node">
<title>transforms (utility)</title>
<ellipse fill="none" stroke="#000000" cx="188.7652" cy="-450" rx="99.3824" ry="18"/>
<text text-anchor="middle" x="188.7652" y="-446.3" font-family="Times,serif" font-size="14.00" fill="#000000">transforms (utility)</text>
</g>
<!-- mri_coreg (freesurfer)&#45;&gt;transforms (utility) -->
<g id="edge6" class="edge">
<title>mri_coreg (freesurfer)&#45;&gt;transforms (utility)</title>
<path fill="none" stroke="#000000" d="M221.9524,-575.7623C215.4424,-551.0928 203.7698,-506.8598 196.147,-477.9731"/>
<polygon fill="#000000" stroke="#000000" points="199.4746,-476.8656 193.5388,-468.0896 192.7063,-478.6517 199.4746,-476.8656"/>
</g>
<!-- reports (utility) -->
<g id="node8" class="node">
<title>reports (utility)</title>
<ellipse fill="none" stroke="#000000" cx="388.7652" cy="-450" rx="82.5854" ry="18"/>
<text text-anchor="middle" x="388.7652" y="-446.3" font-family="Times,serif" font-size="14.00" fill="#000000">reports (utility)</text>
</g>
<!-- mri_coreg (freesurfer)&#45;&gt;reports (utility) -->
<g id="edge7" class="edge">
<title>mri_coreg (freesurfer)&#45;&gt;reports (utility)</title>
<path fill="none" stroke="#000000" d="M225.7602,-575.9116C225.6422,-555.9912 228.5079,-524.1227 245.7652,-504 262.7703,-484.1713 287.8401,-471.6075 312.2587,-463.6534"/>
<polygon fill="#000000" stroke="#000000" points="313.3728,-466.973 321.928,-460.7233 311.3427,-460.2738 313.3728,-466.973"/>
</g>
<!-- bbregister (freesurfer)&#45;&gt;transforms (utility) -->
<g id="edge8" class="edge">
<title>bbregister (freesurfer)&#45;&gt;transforms (utility)</title>
<path fill="none" stroke="#000000" d="M328.0943,-505.1192C301.6846,-494.6714 267.6243,-481.197 239.7909,-470.186"/>
<polygon fill="#000000" stroke="#000000" points="240.8147,-466.8271 230.2283,-466.403 238.2396,-473.3363 240.8147,-466.8271"/>
</g>
<!-- bbregister (freesurfer)&#45;&gt;reports (utility) -->
<g id="edge9" class="edge">
<title>bbregister (freesurfer)&#45;&gt;reports (utility)</title>
<path fill="none" stroke="#000000" d="M375.3073,-503.8314C377.2536,-496.0463 379.5719,-486.7729 381.7315,-478.1347"/>
<polygon fill="#000000" stroke="#000000" points="385.1319,-478.9636 384.1619,-468.4133 378.3409,-477.2658 385.1319,-478.9636"/>
</g>
<!-- outputnode (utility) -->
<g id="node6" class="node">
<title>outputnode (utility)</title>
<ellipse fill="none" stroke="#000000" cx="311.7652" cy="-18" rx="101.2821" ry="18"/>
<text text-anchor="middle" x="311.7652" y="-14.3" font-family="Times,serif" font-size="14.00" fill="#000000">outputnode (utility)</text>
</g>
<!-- concat_xfm (nitransforms)&#45;&gt;outputnode (utility) -->
<g id="edge10" class="edge">
<title>concat_xfm (nitransforms)&#45;&gt;outputnode (utility)</title>
<path fill="none" stroke="#000000" d="M188.5682,-72.7542C211.4585,-62.5807 240.5866,-49.6349 264.7722,-38.8858"/>
<polygon fill="#000000" stroke="#000000" points="266.3996,-41.9927 274.1162,-34.7329 263.5566,-35.596 266.3996,-41.9927"/>
</g>
<!-- lta_ras2ras (freesurfer) -->
<g id="node9" class="node">
<title>lta_ras2ras (freesurfer)</title>
<ellipse fill="none" stroke="#000000" cx="281.7652" cy="-378" rx="119.6788" ry="18"/>
<text text-anchor="middle" x="281.7652" y="-374.3" font-family="Times,serif" font-size="14.00" fill="#000000">lta_ras2ras (freesurfer)</text>
</g>
<!-- transforms (utility)&#45;&gt;lta_ras2ras (freesurfer) -->
<g id="edge11" class="edge">
<title>transforms (utility)&#45;&gt;lta_ras2ras (freesurfer)</title>
<path fill="none" stroke="#000000" d="M211.7539,-432.2022C223.4909,-423.1156 237.9397,-411.9294 250.6572,-402.0836"/>
<polygon fill="#000000" stroke="#000000" points="252.9539,-404.7319 258.7185,-395.8425 248.6687,-399.1968 252.9539,-404.7319"/>
</g>
<!-- select_transform (utility) -->
<g id="node10" class="node">
<title>select_transform (utility)</title>
<ellipse fill="none" stroke="#000000" cx="156.7652" cy="-234" rx="127.2775" ry="18"/>
<text text-anchor="middle" x="156.7652" y="-230.3" font-family="Times,serif" font-size="14.00" fill="#000000">select_transform (utility)</text>
</g>
<!-- transforms (utility)&#45;&gt;select_transform (utility) -->
<g id="edge12" class="edge">
<title>transforms (utility)&#45;&gt;select_transform (utility)</title>
<path fill="none" stroke="#000000" d="M174.0895,-432.0699C166.6001,-422.0319 157.9905,-408.9576 152.7652,-396 134.6837,-351.1621 132.4211,-335.7854 139.7652,-288 141.1026,-279.2979 143.5855,-270.074 146.2486,-261.759"/>
<polygon fill="#000000" stroke="#000000" points="149.6058,-262.7579 149.5213,-252.1634 142.9805,-260.4982 149.6058,-262.7579"/>
</g>
<!-- select_report (utility) -->
<g id="node12" class="node">
<title>select_report (utility)</title>
<ellipse fill="none" stroke="#000000" cx="449.7652" cy="-234" rx="110.4804" ry="18"/>
<text text-anchor="middle" x="449.7652" y="-230.3" font-family="Times,serif" font-size="14.00" fill="#000000">select_report (utility)</text>
</g>
<!-- reports (utility)&#45;&gt;select_report (utility) -->
<g id="edge13" class="edge">
<title>reports (utility)&#45;&gt;select_report (utility)</title>
<path fill="none" stroke="#000000" d="M400.0973,-432.0945C414.3685,-408.424 438.1805,-364.9212 447.7652,-324 452.51,-303.7423 452.8608,-280.2156 452.1045,-262.2978"/>
<polygon fill="#000000" stroke="#000000" points="455.593,-261.9932 451.5382,-252.2051 448.604,-262.3855 455.593,-261.9932"/>
</g>
<!-- compare_transforms (utility) -->
<g id="node11" class="node">
<title>compare_transforms (utility)</title>
<ellipse fill="none" stroke="#000000" cx="293.7652" cy="-306" rx="144.8743" ry="18"/>
<text text-anchor="middle" x="293.7652" y="-302.3" font-family="Times,serif" font-size="14.00" fill="#000000">compare_transforms (utility)</text>
</g>
<!-- lta_ras2ras (freesurfer)&#45;&gt;compare_transforms (utility) -->
<g id="edge14" class="edge">
<title>lta_ras2ras (freesurfer)&#45;&gt;compare_transforms (utility)</title>
<path fill="none" stroke="#000000" d="M284.7933,-359.8314C286.0767,-352.131 287.6028,-342.9743 289.0291,-334.4166"/>
<polygon fill="#000000" stroke="#000000" points="292.5046,-334.8526 290.6963,-324.4133 285.5998,-333.7018 292.5046,-334.8526"/>
</g>
<!-- select_transform (utility)&#45;&gt;merge_ltas (utility) -->
<g id="edge15" class="edge">
<title>select_transform (utility)&#45;&gt;merge_ltas (utility)</title>
<path fill="none" stroke="#000000" d="M154.9988,-215.8314C154.2501,-208.131 153.3599,-198.9743 152.5279,-190.4166"/>
<polygon fill="#000000" stroke="#000000" points="156.0067,-190.0276 151.5553,-180.4133 149.0395,-190.7051 156.0067,-190.0276"/>
</g>
<!-- compare_transforms (utility)&#45;&gt;outputnode (utility) -->
<g id="edge16" class="edge">
<title>compare_transforms (utility)&#45;&gt;outputnode (utility)</title>
<path fill="none" stroke="#000000" d="M294.8912,-287.9843C297.9343,-239.2939 306.3404,-104.7961 310.0116,-46.0573"/>
<polygon fill="#000000" stroke="#000000" points="313.5089,-46.2078 310.6396,-36.0089 306.5226,-45.771 313.5089,-46.2078"/>
</g>
<!-- compare_transforms (utility)&#45;&gt;select_transform (utility) -->
<g id="edge17" class="edge">
<title>compare_transforms (utility)&#45;&gt;select_transform (utility)</title>
<path fill="none" stroke="#000000" d="M260.2512,-288.3868C241.787,-278.683 218.687,-266.5428 198.9986,-256.1957"/>
<polygon fill="#000000" stroke="#000000" points="200.4134,-252.9853 189.9331,-251.4313 197.1569,-259.1817 200.4134,-252.9853"/>
</g>
<!-- compare_transforms (utility)&#45;&gt;select_report (utility) -->
<g id="edge18" class="edge">
<title>compare_transforms (utility)&#45;&gt;select_report (utility)</title>
<path fill="none" stroke="#000000" d="M331.5284,-288.5708C353.2439,-278.5483 380.6892,-265.8812 403.6701,-255.2746"/>
<polygon fill="#000000" stroke="#000000" points="405.2751,-258.3887 412.888,-251.0202 402.3417,-252.033 405.2751,-258.3887"/>
</g>
<!-- select_report (utility)&#45;&gt;outputnode (utility) -->
<g id="edge19" class="edge">
<title>select_report (utility)&#45;&gt;outputnode (utility)</title>
<path fill="none" stroke="#000000" d="M438.2367,-215.9555C413.9346,-177.9173 357.3455,-89.3431 328.8316,-44.7127"/>
<polygon fill="#000000" stroke="#000000" points="331.6912,-42.6877 323.3579,-36.1451 325.7923,-46.4564 331.6912,-42.6877"/>
</g>
</g>
</svg>
