<?xml version="1.0" encoding="UTF-8" standalone="no"?>
<!DOCTYPE svg PUBLIC "-//W3C//DTD SVG 1.1//EN"
 "http://www.w3.org/Graphics/SVG/1.1/DTD/svg11.dtd">
<!-- Generated by graphviz version 2.40.1 (20161225.0304)
 -->
<!-- Title: structs Pages: 1 -->
<svg width="1050pt" height="972pt"
 viewBox="0.00 0.00 1050.07 972.00" xmlns="http://www.w3.org/2000/svg" xmlns:xlink="http://www.w3.org/1999/xlink">
<g id="graph0" class="graph" transform="scale(1 1) rotate(0) translate(4 968)">
<title>structs</title>
<polygon fill="#ffffff" stroke="transparent" points="-4,4 -4,-968 1046.0706,-968 1046.0706,4 -4,4"/>
<!-- epi_reference_wfinputnode -->
<g id="node1" class="node">
<title>epi_reference_wfinputnode</title>
<polygon fill="none" stroke="#000000" points="101.0706,-894.5 101.0706,-963.5 301.0706,-963.5 301.0706,-894.5 101.0706,-894.5"/>
<text text-anchor="middle" x="118.5706" y="-925.3" font-family="Times,serif" font-size="14.00" fill="#000000">IN</text>
<polyline fill="none" stroke="#000000" points="136.0706,-894.5 136.0706,-963.5 "/>
<text text-anchor="middle" x="180.5706" y="-948.3" font-family="Times,serif" font-size="14.00" fill="#000000">inputnode</text>
<polyline fill="none" stroke="#000000" points="136.0706,-940.5 225.0706,-940.5 "/>
<text text-anchor="middle" x="180.5706" y="-925.3" font-family="Times,serif" font-size="14.00" fill="#000000">utility</text>
<polyline fill="none" stroke="#000000" points="136.0706,-917.5 225.0706,-917.5 "/>
<text text-anchor="middle" x="180.5706" y="-902.3" font-family="Times,serif" font-size="14.00" fill="#000000"> </text>
<polyline fill="none" stroke="#000000" points="225.0706,-894.5 225.0706,-963.5 "/>
<text text-anchor="middle" x="263.0706" y="-948.3" font-family="Times,serif" font-size="14.00" fill="#000000">OUT</text>
<polyline fill="none" stroke="#000000" points="225.0706,-940.5 301.0706,-940.5 "/>
<text text-anchor="middle" x="263.0706" y="-925.3" font-family="Times,serif" font-size="14.00" fill="#000000">in_files</text>
<polyline fill="none" stroke="#000000" points="225.0706,-917.5 301.0706,-917.5 "/>
<text text-anchor="middle" x="263.0706" y="-902.3" font-family="Times,serif" font-size="14.00" fill="#000000">t_masks</text>
</g>
<!-- epi_reference_wfvalidate_nii -->
<g id="node2" class="node">
<title>epi_reference_wfvalidate_nii</title>
<polygon fill="none" stroke="#000000" points="172.5706,-788.5 172.5706,-857.5 401.5706,-857.5 401.5706,-788.5 172.5706,-788.5"/>
<text text-anchor="middle" x="202.5706" y="-836.8" font-family="Times,serif" font-size="14.00" fill="#000000">IN</text>
<polyline fill="none" stroke="#000000" points="172.5706,-823.5 232.5706,-823.5 "/>
<text text-anchor="middle" x="202.5706" y="-802.3" font-family="Times,serif" font-size="14.00" fill="#000000">in_file</text>
<polyline fill="none" stroke="#000000" points="232.5706,-788.5 232.5706,-857.5 "/>
<text text-anchor="middle" x="282.0706" y="-842.3" font-family="Times,serif" font-size="14.00" fill="#000000">validate_nii</text>
<polyline fill="none" stroke="#000000" points="232.5706,-834.5 331.5706,-834.5 "/>
<text text-anchor="middle" x="282.0706" y="-819.3" font-family="Times,serif" font-size="14.00" fill="#000000">header</text>
<polyline fill="none" stroke="#000000" points="232.5706,-811.5 331.5706,-811.5 "/>
<text text-anchor="middle" x="282.0706" y="-796.3" font-family="Times,serif" font-size="14.00" fill="#000000"> </text>
<polyline fill="none" stroke="#000000" points="331.5706,-788.5 331.5706,-857.5 "/>
<text text-anchor="middle" x="366.5706" y="-836.8" font-family="Times,serif" font-size="14.00" fill="#000000">OUT</text>
<polyline fill="none" stroke="#000000" points="331.5706,-823.5 401.5706,-823.5 "/>
<text text-anchor="middle" x="366.5706" y="-802.3" font-family="Times,serif" font-size="14.00" fill="#000000">out_file</text>
</g>
<!-- epi_reference_wfinputnode&#45;&gt;epi_reference_wfvalidate_nii -->
<g id="edge7" class="edge">
<title>epi_reference_wfinputnode:e&#45;&gt;epi_reference_wfvalidate_nii:w</title>
<path fill="none" stroke="#000000" d="M301.0706,-929C316.6262,-929 310.4763,-906.3899 301.0706,-894 265.0795,-846.5896 208.0618,-905.4104 172.0706,-858 160.7166,-843.0437 152.5559,-818.0632 162.2911,-809.2214"/>
<polygon fill="#000000" stroke="#000000" points="163.6677,-812.453 172.0706,-806 161.4776,-805.8044 163.6677,-812.453"/>
</g>
<!-- epi_reference_wfper_run_avgs -->
<g id="node3" class="node">
<title>epi_reference_wfper_run_avgs</title>
<polygon fill="none" stroke="#000000" points="416.0706,-682.5 416.0706,-751.5 676.0706,-751.5 676.0706,-682.5 416.0706,-682.5"/>
<text text-anchor="middle" x="450.0706" y="-736.3" font-family="Times,serif" font-size="14.00" fill="#000000">IN</text>
<polyline fill="none" stroke="#000000" points="416.0706,-728.5 484.0706,-728.5 "/>
<text text-anchor="middle" x="450.0706" y="-713.3" font-family="Times,serif" font-size="14.00" fill="#000000">in_file</text>
<polyline fill="none" stroke="#000000" points="416.0706,-705.5 484.0706,-705.5 "/>
<text text-anchor="middle" x="450.0706" y="-690.3" font-family="Times,serif" font-size="14.00" fill="#000000">t_mask</text>
<polyline fill="none" stroke="#000000" points="484.0706,-682.5 484.0706,-751.5 "/>
<text text-anchor="middle" x="540.5706" y="-736.3" font-family="Times,serif" font-size="14.00" fill="#000000">per_run_avgs</text>
<polyline fill="none" stroke="#000000" points="484.0706,-728.5 597.0706,-728.5 "/>
<text text-anchor="middle" x="540.5706" y="-713.3" font-family="Times,serif" font-size="14.00" fill="#000000">images</text>
<polyline fill="none" stroke="#000000" points="484.0706,-705.5 597.0706,-705.5 "/>
<text text-anchor="middle" x="540.5706" y="-690.3" font-family="Times,serif" font-size="14.00" fill="#000000"> </text>
<polyline fill="none" stroke="#000000" points="597.0706,-682.5 597.0706,-751.5 "/>
<text text-anchor="middle" x="636.5706" y="-736.3" font-family="Times,serif" font-size="14.00" fill="#000000">OUT</text>
<polyline fill="none" stroke="#000000" points="597.0706,-728.5 676.0706,-728.5 "/>
<text text-anchor="middle" x="636.5706" y="-713.3" font-family="Times,serif" font-size="14.00" fill="#000000">out_drift</text>
<polyline fill="none" stroke="#000000" points="597.0706,-705.5 676.0706,-705.5 "/>
<text text-anchor="middle" x="636.5706" y="-690.3" font-family="Times,serif" font-size="14.00" fill="#000000">out_file</text>
</g>
<!-- epi_reference_wfinputnode&#45;&gt;epi_reference_wfper_run_avgs -->
<g id="edge8" class="edge">
<title>epi_reference_wfinputnode:e&#45;&gt;epi_reference_wfper_run_avgs:w</title>
<path fill="none" stroke="#000000" d="M301.0706,-906C354.0043,-906 380.3449,-901.7991 410.0706,-858 448.8699,-800.8316 354.0987,-704.8113 405.992,-694.8432"/>
<polygon fill="#000000" stroke="#000000" points="406.3972,-698.3216 416.0706,-694 405.8136,-691.3459 406.3972,-698.3216"/>
</g>
<!-- epi_reference_wfvalidate_nii&#45;&gt;epi_reference_wfper_run_avgs -->
<g id="edge14" class="edge">
<title>epi_reference_wfvalidate_nii:e&#45;&gt;epi_reference_wfper_run_avgs:w</title>
<path fill="none" stroke="#000000" d="M402.0706,-806C437.733,-806 389.2149,-735.4041 406.4628,-719.9612"/>
<polygon fill="#000000" stroke="#000000" points="407.5451,-723.2902 416.0706,-717 405.4833,-716.6007 407.5451,-723.2902"/>
</g>
<!-- epi_reference_wfclip_avgs -->
<g id="node4" class="node">
<title>epi_reference_wfclip_avgs</title>
<polygon fill="none" stroke="#000000" points="402.5706,-576.5 402.5706,-645.5 615.5706,-645.5 615.5706,-576.5 402.5706,-576.5"/>
<text text-anchor="middle" x="432.5706" y="-624.8" font-family="Times,serif" font-size="14.00" fill="#000000">IN</text>
<polyline fill="none" stroke="#000000" points="402.5706,-611.5 462.5706,-611.5 "/>
<text text-anchor="middle" x="432.5706" y="-590.3" font-family="Times,serif" font-size="14.00" fill="#000000">in_file</text>
<polyline fill="none" stroke="#000000" points="462.5706,-576.5 462.5706,-645.5 "/>
<text text-anchor="middle" x="504.0706" y="-630.3" font-family="Times,serif" font-size="14.00" fill="#000000">clip_avgs</text>
<polyline fill="none" stroke="#000000" points="462.5706,-622.5 545.5706,-622.5 "/>
<text text-anchor="middle" x="504.0706" y="-607.3" font-family="Times,serif" font-size="14.00" fill="#000000">nibabel</text>
<polyline fill="none" stroke="#000000" points="462.5706,-599.5 545.5706,-599.5 "/>
<text text-anchor="middle" x="504.0706" y="-584.3" font-family="Times,serif" font-size="14.00" fill="#000000"> </text>
<polyline fill="none" stroke="#000000" points="545.5706,-576.5 545.5706,-645.5 "/>
<text text-anchor="middle" x="580.5706" y="-624.8" font-family="Times,serif" font-size="14.00" fill="#000000">OUT</text>
<polyline fill="none" stroke="#000000" points="545.5706,-611.5 615.5706,-611.5 "/>
<text text-anchor="middle" x="580.5706" y="-590.3" font-family="Times,serif" font-size="14.00" fill="#000000">out_file</text>
</g>
<!-- epi_reference_wfper_run_avgs&#45;&gt;epi_reference_wfclip_avgs -->
<g id="edge12" class="edge">
<title>epi_reference_wfper_run_avgs:e&#45;&gt;epi_reference_wfclip_avgs:w</title>
<path fill="none" stroke="#000000" d="M676.0706,-694C681.4039,-694 679.5876,-686.0094 676.0706,-682 595.0748,-589.6663 483.0664,-738.3337 402.0706,-646 389.5687,-631.748 382.026,-605.8867 392.4763,-597.053"/>
<polygon fill="#000000" stroke="#000000" points="393.6027,-600.3676 402.0706,-594 391.4801,-593.6971 393.6027,-600.3676"/>
</g>
<!-- epi_reference_wfoutputnode -->
<g id="node9" class="node">
<title>epi_reference_wfoutputnode</title>
<polygon fill="none" stroke="#000000" points="756.0706,-.5 756.0706,-115.5 1042.0706,-115.5 1042.0706,-.5 756.0706,-.5"/>
<text text-anchor="middle" x="825.0706" y="-100.3" font-family="Times,serif" font-size="14.00" fill="#000000">IN</text>
<polyline fill="none" stroke="#000000" points="756.0706,-92.5 894.0706,-92.5 "/>
<text text-anchor="middle" x="825.0706" y="-77.3" font-family="Times,serif" font-size="14.00" fill="#000000">drift_factors</text>
<polyline fill="none" stroke="#000000" points="756.0706,-69.5 894.0706,-69.5 "/>
<text text-anchor="middle" x="825.0706" y="-54.3" font-family="Times,serif" font-size="14.00" fill="#000000">epi_ref_file</text>
<polyline fill="none" stroke="#000000" points="756.0706,-46.5 894.0706,-46.5 "/>
<text text-anchor="middle" x="825.0706" y="-31.3" font-family="Times,serif" font-size="14.00" fill="#000000">per_run_ref_files</text>
<polyline fill="none" stroke="#000000" points="756.0706,-23.5 894.0706,-23.5 "/>
<text text-anchor="middle" x="825.0706" y="-8.3" font-family="Times,serif" font-size="14.00" fill="#000000">xfm_files</text>
<polyline fill="none" stroke="#000000" points="894.0706,-.5 894.0706,-115.5 "/>
<text text-anchor="middle" x="943.0706" y="-92.8" font-family="Times,serif" font-size="14.00" fill="#000000">outputnode</text>
<polyline fill="none" stroke="#000000" points="894.0706,-77.5 992.0706,-77.5 "/>
<text text-anchor="middle" x="943.0706" y="-54.8" font-family="Times,serif" font-size="14.00" fill="#000000">utility</text>
<polyline fill="none" stroke="#000000" points="894.0706,-39.5 992.0706,-39.5 "/>
<text text-anchor="middle" x="943.0706" y="-16.3" font-family="Times,serif" font-size="14.00" fill="#000000"> </text>
<polyline fill="none" stroke="#000000" points="992.0706,-.5 992.0706,-115.5 "/>
<text text-anchor="middle" x="1017.0706" y="-54.3" font-family="Times,serif" font-size="14.00" fill="#000000">OUT</text>
</g>
<!-- epi_reference_wfper_run_avgs&#45;&gt;epi_reference_wfoutputnode -->
<g id="edge11" class="edge">
<title>epi_reference_wfper_run_avgs:e&#45;&gt;epi_reference_wfoutputnode:w</title>
<path fill="none" stroke="#000000" d="M676.0706,-717C788.2548,-717 813.0706,-617.1842 813.0706,-505 813.0706,-505 813.0706,-505 813.0706,-293 813.0706,-227.353 790.0018,-214.2207 769.0706,-152 760.2804,-125.87 733.3055,-92.2156 746.253,-83.2671"/>
<polygon fill="#000000" stroke="#000000" points="747.1145,-86.6603 756.0706,-81 745.5395,-79.8398 747.1145,-86.6603"/>
</g>
<!-- epi_reference_wfn4_avgs -->
<g id="node5" class="node">
<title>epi_reference_wfn4_avgs</title>
<polygon fill="none" stroke="#000000" points="479.5706,-470.5 479.5706,-539.5 774.5706,-539.5 774.5706,-470.5 479.5706,-470.5"/>
<text text-anchor="middle" x="532.0706" y="-518.8" font-family="Times,serif" font-size="14.00" fill="#000000">IN</text>
<polyline fill="none" stroke="#000000" points="479.5706,-505.5 584.5706,-505.5 "/>
<text text-anchor="middle" x="532.0706" y="-484.3" font-family="Times,serif" font-size="14.00" fill="#000000">input_image</text>
<polyline fill="none" stroke="#000000" points="584.5706,-470.5 584.5706,-539.5 "/>
<text text-anchor="middle" x="622.0706" y="-524.3" font-family="Times,serif" font-size="14.00" fill="#000000">n4_avgs</text>
<polyline fill="none" stroke="#000000" points="584.5706,-516.5 659.5706,-516.5 "/>
<text text-anchor="middle" x="622.0706" y="-501.3" font-family="Times,serif" font-size="14.00" fill="#000000">ants</text>
<polyline fill="none" stroke="#000000" points="584.5706,-493.5 659.5706,-493.5 "/>
<text text-anchor="middle" x="622.0706" y="-478.3" font-family="Times,serif" font-size="14.00" fill="#000000"> </text>
<polyline fill="none" stroke="#000000" points="659.5706,-470.5 659.5706,-539.5 "/>
<text text-anchor="middle" x="717.0706" y="-518.8" font-family="Times,serif" font-size="14.00" fill="#000000">OUT</text>
<polyline fill="none" stroke="#000000" points="659.5706,-505.5 774.5706,-505.5 "/>
<text text-anchor="middle" x="717.0706" y="-484.3" font-family="Times,serif" font-size="14.00" fill="#000000">output_image</text>
</g>
<!-- epi_reference_wfclip_avgs&#45;&gt;epi_reference_wfn4_avgs -->
<g id="edge1" class="edge">
<title>epi_reference_wfclip_avgs:e&#45;&gt;epi_reference_wfn4_avgs:w</title>
<path fill="none" stroke="#000000" d="M616.0706,-594C624.0706,-594 620.956,-582.335 616.0706,-576 577.6248,-526.1465 517.5164,-589.8535 479.0706,-540 467.6034,-525.1303 459.5135,-500.0957 469.2791,-491.2305"/>
<polygon fill="#000000" stroke="#000000" points="470.6708,-494.457 479.0706,-488 468.4775,-487.8095 470.6708,-494.457"/>
</g>
<!-- epi_reference_wfclip_bg_noise -->
<g id="node6" class="node">
<title>epi_reference_wfclip_bg_noise</title>
<polygon fill="none" stroke="#000000" points="15.5706,-364.5 15.5706,-433.5 258.5706,-433.5 258.5706,-364.5 15.5706,-364.5"/>
<text text-anchor="middle" x="45.5706" y="-412.8" font-family="Times,serif" font-size="14.00" fill="#000000">IN</text>
<polyline fill="none" stroke="#000000" points="15.5706,-399.5 75.5706,-399.5 "/>
<text text-anchor="middle" x="45.5706" y="-378.3" font-family="Times,serif" font-size="14.00" fill="#000000">in_file</text>
<polyline fill="none" stroke="#000000" points="75.5706,-364.5 75.5706,-433.5 "/>
<text text-anchor="middle" x="132.0706" y="-418.3" font-family="Times,serif" font-size="14.00" fill="#000000">clip_bg_noise</text>
<polyline fill="none" stroke="#000000" points="75.5706,-410.5 188.5706,-410.5 "/>
<text text-anchor="middle" x="132.0706" y="-395.3" font-family="Times,serif" font-size="14.00" fill="#000000">nibabel</text>
<polyline fill="none" stroke="#000000" points="75.5706,-387.5 188.5706,-387.5 "/>
<text text-anchor="middle" x="132.0706" y="-372.3" font-family="Times,serif" font-size="14.00" fill="#000000"> </text>
<polyline fill="none" stroke="#000000" points="188.5706,-364.5 188.5706,-433.5 "/>
<text text-anchor="middle" x="223.5706" y="-412.8" font-family="Times,serif" font-size="14.00" fill="#000000">OUT</text>
<polyline fill="none" stroke="#000000" points="188.5706,-399.5 258.5706,-399.5 "/>
<text text-anchor="middle" x="223.5706" y="-378.3" font-family="Times,serif" font-size="14.00" fill="#000000">out_file</text>
</g>
<!-- epi_reference_wfn4_avgs&#45;&gt;epi_reference_wfclip_bg_noise -->
<g id="edge9" class="edge">
<title>epi_reference_wfn4_avgs:e&#45;&gt;epi_reference_wfclip_bg_noise:w</title>
<path fill="none" stroke="#000000" d="M775.0706,-488C783.0706,-488 780.592,-475.7891 775.0706,-470 716.7238,-408.8239 73.4174,-495.1761 15.0706,-434 1.986,-420.281 -5.1834,-394.0783 5.4198,-385.1046"/>
<polygon fill="#000000" stroke="#000000" points="6.6229,-388.3943 15.0706,-382 4.4792,-381.7306 6.6229,-388.3943"/>
</g>
<!-- epi_reference_wfn4_avgs&#45;&gt;epi_reference_wfoutputnode -->
<g id="edge10" class="edge">
<title>epi_reference_wfn4_avgs:e&#45;&gt;epi_reference_wfoutputnode:w</title>
<path fill="none" stroke="#000000" d="M775.0706,-488C822.0044,-488 721.2708,-94.8167 748.0157,-41.0612"/>
<polygon fill="#000000" stroke="#000000" points="750.1846,-43.8094 756.0706,-35 745.9757,-38.2161 750.1846,-43.8094"/>
</g>
<!-- epi_reference_wfepi_merge -->
<g id="node7" class="node">
<title>epi_reference_wfepi_merge</title>
<polygon fill="none" stroke="#000000" points="259.0706,-258.5 259.0706,-327.5 611.0706,-327.5 611.0706,-258.5 259.0706,-258.5"/>
<text text-anchor="middle" x="314.0706" y="-312.3" font-family="Times,serif" font-size="14.00" fill="#000000">IN</text>
<polyline fill="none" stroke="#000000" points="259.0706,-304.5 369.0706,-304.5 "/>
<text text-anchor="middle" x="314.0706" y="-289.3" font-family="Times,serif" font-size="14.00" fill="#000000">in_files</text>
<polyline fill="none" stroke="#000000" points="259.0706,-281.5 369.0706,-281.5 "/>
<text text-anchor="middle" x="314.0706" y="-266.3" font-family="Times,serif" font-size="14.00" fill="#000000">num_threads</text>
<polyline fill="none" stroke="#000000" points="369.0706,-258.5 369.0706,-327.5 "/>
<text text-anchor="middle" x="415.0706" y="-312.3" font-family="Times,serif" font-size="14.00" fill="#000000">epi_merge</text>
<polyline fill="none" stroke="#000000" points="369.0706,-304.5 461.0706,-304.5 "/>
<text text-anchor="middle" x="415.0706" y="-289.3" font-family="Times,serif" font-size="14.00" fill="#000000">freesurfer</text>
<polyline fill="none" stroke="#000000" points="369.0706,-281.5 461.0706,-281.5 "/>
<text text-anchor="middle" x="415.0706" y="-266.3" font-family="Times,serif" font-size="14.00" fill="#000000"> </text>
<polyline fill="none" stroke="#000000" points="461.0706,-258.5 461.0706,-327.5 "/>
<text text-anchor="middle" x="536.0706" y="-312.3" font-family="Times,serif" font-size="14.00" fill="#000000">OUT</text>
<polyline fill="none" stroke="#000000" points="461.0706,-304.5 611.0706,-304.5 "/>
<text text-anchor="middle" x="536.0706" y="-289.3" font-family="Times,serif" font-size="14.00" fill="#000000">out_file</text>
<polyline fill="none" stroke="#000000" points="461.0706,-281.5 611.0706,-281.5 "/>
<text text-anchor="middle" x="536.0706" y="-266.3" font-family="Times,serif" font-size="14.00" fill="#000000">transform_outputs</text>
</g>
<!-- epi_reference_wfclip_bg_noise&#45;&gt;epi_reference_wfepi_merge -->
<g id="edge2" class="edge">
<title>epi_reference_wfclip_bg_noise:e&#45;&gt;epi_reference_wfepi_merge:w</title>
<path fill="none" stroke="#000000" d="M259.0706,-382C293.6817,-382 237.4387,-313.8594 249.3362,-296.8242"/>
<polygon fill="#000000" stroke="#000000" points="251.0429,-299.9142 259.0706,-293 248.4833,-293.399 251.0429,-299.9142"/>
</g>
<!-- epi_reference_wfclip_bg_noise&#45;&gt;epi_reference_wfepi_merge -->
<g id="edge3" class="edge">
<title>epi_reference_wfclip_bg_noise:e&#45;&gt;epi_reference_wfepi_merge:w</title>
<path fill="none" stroke="#000000" d="M259.0706,-382C259.0706,-382 259.0706,-308.0625 259.0706,-280.3359"/>
<polygon fill="#000000" stroke="#000000" points="262.5707,-280 259.0706,-270 255.5707,-280 262.5707,-280"/>
</g>
<!-- epi_reference_wfpost_merge -->
<g id="node8" class="node">
<title>epi_reference_wfpost_merge</title>
<polygon fill="none" stroke="#000000" points="485.5706,-152.5 485.5706,-221.5 708.5706,-221.5 708.5706,-152.5 485.5706,-152.5"/>
<text text-anchor="middle" x="521.5706" y="-206.3" font-family="Times,serif" font-size="14.00" fill="#000000">IN</text>
<polyline fill="none" stroke="#000000" points="485.5706,-198.5 557.5706,-198.5 "/>
<text text-anchor="middle" x="521.5706" y="-183.3" font-family="Times,serif" font-size="14.00" fill="#000000">in_file</text>
<polyline fill="none" stroke="#000000" points="485.5706,-175.5 557.5706,-175.5 "/>
<text text-anchor="middle" x="521.5706" y="-160.3" font-family="Times,serif" font-size="14.00" fill="#000000">in_xfms</text>
<polyline fill="none" stroke="#000000" points="557.5706,-152.5 557.5706,-221.5 "/>
<text text-anchor="middle" x="608.0706" y="-206.3" font-family="Times,serif" font-size="14.00" fill="#000000">post_merge</text>
<polyline fill="none" stroke="#000000" points="557.5706,-198.5 658.5706,-198.5 "/>
<text text-anchor="middle" x="608.0706" y="-183.3" font-family="Times,serif" font-size="14.00" fill="#000000">utility</text>
<polyline fill="none" stroke="#000000" points="557.5706,-175.5 658.5706,-175.5 "/>
<text text-anchor="middle" x="608.0706" y="-160.3" font-family="Times,serif" font-size="14.00" fill="#000000"> </text>
<polyline fill="none" stroke="#000000" points="658.5706,-152.5 658.5706,-221.5 "/>
<text text-anchor="middle" x="683.5706" y="-200.8" font-family="Times,serif" font-size="14.00" fill="#000000">OUT</text>
<polyline fill="none" stroke="#000000" points="658.5706,-187.5 708.5706,-187.5 "/>
<text text-anchor="middle" x="683.5706" y="-166.3" font-family="Times,serif" font-size="14.00" fill="#000000">out</text>
</g>
<!-- epi_reference_wfepi_merge&#45;&gt;epi_reference_wfpost_merge -->
<g id="edge4" class="edge">
<title>epi_reference_wfepi_merge:e&#45;&gt;epi_reference_wfpost_merge:w</title>
<path fill="none" stroke="#000000" d="M611.0706,-293C626.6262,-293 620.4381,-270.4188 611.0706,-258 575.9982,-211.5035 520.143,-268.4965 485.0706,-222 478.6305,-213.4621 473.6931,-200.1208 476.2909,-192.6163"/>
<polygon fill="#000000" stroke="#000000" points="478.5328,-195.3371 485.0706,-187 474.7607,-189.4404 478.5328,-195.3371"/>
</g>
<!-- epi_reference_wfepi_merge&#45;&gt;epi_reference_wfpost_merge -->
<g id="edge6" class="edge">
<title>epi_reference_wfepi_merge:e&#45;&gt;epi_reference_wfpost_merge:w</title>
<path fill="none" stroke="#000000" d="M611.0706,-270C616.4039,-270 614.2823,-262.2579 611.0706,-258 575.9982,-211.5035 520.143,-268.4965 485.0706,-222 472.0941,-204.7967 462.7994,-175.8253 475.1568,-166.7821"/>
<polygon fill="#000000" stroke="#000000" points="476.3882,-170.0718 485.0706,-164 474.4968,-163.3321 476.3882,-170.0718"/>
</g>
<!-- epi_reference_wfepi_merge&#45;&gt;epi_reference_wfoutputnode -->
<g id="edge5" class="edge">
<title>epi_reference_wfepi_merge:e&#45;&gt;epi_reference_wfoutputnode:w</title>
<path fill="none" stroke="#000000" d="M611.0706,-270C662.7868,-270 685.1746,-262.7089 717.0706,-222 773.3312,-150.1945 669.8209,-22.476 745.8819,-12.6076"/>
<polygon fill="#000000" stroke="#000000" points="746.2967,-16.0891 756.0706,-12 745.88,-9.1016 746.2967,-16.0891"/>
</g>
<!-- epi_reference_wfpost_merge&#45;&gt;epi_reference_wfoutputnode -->
<g id="edge13" class="edge">
<title>epi_reference_wfpost_merge:e&#45;&gt;epi_reference_wfoutputnode:w</title>
<path fill="none" stroke="#000000" d="M709.0706,-170C720.4049,-170 736.3329,-91.0022 749.1387,-65.6982"/>
<polygon fill="#000000" stroke="#000000" points="751.98,-67.7733 756.0706,-58 746.7781,-63.0892 751.98,-67.7733"/>
</g>
</g>
</svg>
