<?xml version="1.0" encoding="UTF-8" standalone="no"?>
<!DOCTYPE svg PUBLIC "-//W3C//DTD SVG 1.1//EN"
 "http://www.w3.org/Graphics/SVG/1.1/DTD/svg11.dtd">
<!-- Generated by graphviz version 2.40.1 (20161225.0304)
 -->
<!-- Title: %3 Pages: 1 -->
<svg width="305pt" height="404pt"
 viewBox="0.00 0.00 304.96 404.00" xmlns="http://www.w3.org/2000/svg" xmlns:xlink="http://www.w3.org/1999/xlink">
<g id="graph0" class="graph" transform="scale(1 1) rotate(0) translate(4 400)">
<title>%3</title>
<polygon fill="#ffffff" stroke="transparent" points="-4,4 -4,-400 300.9618,-400 300.9618,4 -4,4"/>
<!-- inputnode (utility) -->
<g id="node1" class="node">
<title>inputnode (utility)</title>
<ellipse fill="none" stroke="#000000" cx="118.5905" cy="-378" rx="94.7833" ry="18"/>
<text text-anchor="middle" x="118.5905" y="-374.3" font-family="Times,serif" font-size="14.00" fill="#000000">inputnode (utility)</text>
</g>
<!-- sstrip_orig_vol (afni) -->
<g id="node2" class="node">
<title>sstrip_orig_vol (afni)</title>
<ellipse fill="none" stroke="#000000" cx="106.5905" cy="-162" rx="106.6812" ry="18"/>
<text text-anchor="middle" x="106.5905" y="-158.3" font-family="Times,serif" font-size="14.00" fill="#000000">sstrip_orig_vol (afni)</text>
</g>
<!-- inputnode (utility)&#45;&gt;sstrip_orig_vol (afni) -->
<g id="edge1" class="edge">
<title>inputnode (utility)&#45;&gt;sstrip_orig_vol (afni)</title>
<path fill="none" stroke="#000000" d="M108.2188,-360.0764C102.7394,-349.8278 96.3817,-336.5503 92.5905,-324 78.6508,-277.8542 72.5835,-263.1552 82.5905,-216 84.4887,-207.0557 87.9741,-197.7941 91.7115,-189.5203"/>
<polygon fill="#000000" stroke="#000000" points="94.9473,-190.8676 96.1346,-180.3395 88.641,-187.8294 94.9473,-190.8676"/>
</g>
<!-- inu_n4 (fixes) -->
<g id="node3" class="node">
<title>inu_n4 (fixes)</title>
<ellipse fill="none" stroke="#000000" cx="174.5905" cy="-306" rx="73.387" ry="18"/>
<text text-anchor="middle" x="174.5905" y="-302.3" font-family="Times,serif" font-size="14.00" fill="#000000">inu_n4 (fixes)</text>
</g>
<!-- inputnode (utility)&#45;&gt;inu_n4 (fixes) -->
<g id="edge2" class="edge">
<title>inputnode (utility)&#45;&gt;inu_n4 (fixes)</title>
<path fill="none" stroke="#000000" d="M132.7217,-359.8314C139.2708,-351.411 147.1743,-341.2495 154.342,-332.0338"/>
<polygon fill="#000000" stroke="#000000" points="157.2812,-333.9558 160.6579,-323.9134 151.7557,-329.6581 157.2812,-333.9558"/>
</g>
<!-- outputnode (utility) -->
<g id="node4" class="node">
<title>outputnode (utility)</title>
<ellipse fill="none" stroke="#000000" cx="165.5905" cy="-18" rx="101.2821" ry="18"/>
<text text-anchor="middle" x="165.5905" y="-14.3" font-family="Times,serif" font-size="14.00" fill="#000000">outputnode (utility)</text>
</g>
<!-- sstrip_orig_vol (afni)&#45;&gt;outputnode (utility) -->
<g id="edge3" class="edge">
<title>sstrip_orig_vol (afni)&#45;&gt;outputnode (utility)</title>
<path fill="none" stroke="#000000" d="M87.953,-144.1993C70.8645,-125.6361 50.2314,-95.9598 64.5905,-72 73.5621,-57.03 88.2548,-45.9773 103.6908,-37.9156"/>
<polygon fill="#000000" stroke="#000000" points="105.3418,-41.0051 112.8275,-33.5075 102.3001,-34.7005 105.3418,-41.0051"/>
</g>
<!-- binarize (nibabel) -->
<g id="node5" class="node">
<title>binarize (nibabel)</title>
<ellipse fill="none" stroke="#000000" cx="165.5905" cy="-90" rx="92.0841" ry="18"/>
<text text-anchor="middle" x="165.5905" y="-86.3" font-family="Times,serif" font-size="14.00" fill="#000000">binarize (nibabel)</text>
</g>
<!-- sstrip_orig_vol (afni)&#45;&gt;binarize (nibabel) -->
<g id="edge4" class="edge">
<title>sstrip_orig_vol (afni)&#45;&gt;binarize (nibabel)</title>
<path fill="none" stroke="#000000" d="M121.4787,-143.8314C128.4491,-135.3251 136.8756,-125.0419 144.4882,-115.752"/>
<polygon fill="#000000" stroke="#000000" points="147.2804,-117.8666 150.9115,-107.9134 141.8661,-113.4298 147.2804,-117.8666"/>
</g>
<!-- inu_n4 (fixes)&#45;&gt;outputnode (utility) -->
<g id="edge6" class="edge">
<title>inu_n4 (fixes)&#45;&gt;outputnode (utility)</title>
<path fill="none" stroke="#000000" d="M218.4238,-291.5001C236.7083,-283.0347 256.0996,-270.3223 266.5905,-252 306.3417,-182.5749 307.715,-140.6206 266.5905,-72 257.619,-57.03 242.9263,-45.9773 227.4903,-37.9156"/>
<polygon fill="#000000" stroke="#000000" points="228.881,-34.7005 218.3535,-33.5075 225.8393,-41.0051 228.881,-34.7005"/>
</g>
<!-- skullstrip (afni) -->
<g id="node6" class="node">
<title>skullstrip (afni)</title>
<ellipse fill="none" stroke="#000000" cx="174.5905" cy="-234" rx="82.5854" ry="18"/>
<text text-anchor="middle" x="174.5905" y="-230.3" font-family="Times,serif" font-size="14.00" fill="#000000">skullstrip (afni)</text>
</g>
<!-- inu_n4 (fixes)&#45;&gt;skullstrip (afni) -->
<g id="edge5" class="edge">
<title>inu_n4 (fixes)&#45;&gt;skullstrip (afni)</title>
<path fill="none" stroke="#000000" d="M174.5905,-287.8314C174.5905,-280.131 174.5905,-270.9743 174.5905,-262.4166"/>
<polygon fill="#000000" stroke="#000000" points="178.0906,-262.4132 174.5905,-252.4133 171.0906,-262.4133 178.0906,-262.4132"/>
</g>
<!-- binarize (nibabel)&#45;&gt;outputnode (utility) -->
<g id="edge7" class="edge">
<title>binarize (nibabel)&#45;&gt;outputnode (utility)</title>
<path fill="none" stroke="#000000" d="M165.5905,-71.8314C165.5905,-64.131 165.5905,-54.9743 165.5905,-46.4166"/>
<polygon fill="#000000" stroke="#000000" points="169.0906,-46.4132 165.5905,-36.4133 162.0906,-46.4133 169.0906,-46.4132"/>
</g>
<!-- skullstrip (afni)&#45;&gt;sstrip_orig_vol (afni) -->
<g id="edge8" class="edge">
<title>skullstrip (afni)&#45;&gt;sstrip_orig_vol (afni)</title>
<path fill="none" stroke="#000000" d="M157.7815,-216.2022C149.5266,-207.4617 139.437,-196.7786 130.4042,-187.2144"/>
<polygon fill="#000000" stroke="#000000" points="132.8527,-184.7095 123.4418,-179.8425 127.7635,-189.5159 132.8527,-184.7095"/>
</g>
</g>
</svg>
