<?xml version="1.0" encoding="UTF-8" standalone="no"?>
<!DOCTYPE svg PUBLIC "-//W3C//DTD SVG 1.1//EN"
 "http://www.w3.org/Graphics/SVG/1.1/DTD/svg11.dtd">
<!-- Generated by graphviz version 2.40.1 (20161225.0304)
 -->
<!-- Title: structs Pages: 1 -->
<svg width="849pt" height="631pt"
 viewBox="0.00 0.00 848.50 631.00" xmlns="http://www.w3.org/2000/svg" xmlns:xlink="http://www.w3.org/1999/xlink">
<g id="graph0" class="graph" transform="scale(1 1) rotate(0) translate(4 627)">
<title>structs</title>
<polygon fill="#ffffff" stroke="transparent" points="-4,4 -4,-627 844.5,-627 844.5,4 -4,4"/>
<!-- skullstrip_bold_wfinputnode -->
<g id="node1" class="node">
<title>skullstrip_bold_wfinputnode</title>
<polygon fill="none" stroke="#000000" points="0,-553.5 0,-622.5 184,-622.5 184,-553.5 0,-553.5"/>
<text text-anchor="middle" x="17.5" y="-584.3" font-family="Times,serif" font-size="14.00" fill="#000000">IN</text>
<polyline fill="none" stroke="#000000" points="35,-553.5 35,-622.5 "/>
<text text-anchor="middle" x="79.5" y="-607.3" font-family="Times,serif" font-size="14.00" fill="#000000">inputnode</text>
<polyline fill="none" stroke="#000000" points="35,-599.5 124,-599.5 "/>
<text text-anchor="middle" x="79.5" y="-584.3" font-family="Times,serif" font-size="14.00" fill="#000000">utility</text>
<polyline fill="none" stroke="#000000" points="35,-576.5 124,-576.5 "/>
<text text-anchor="middle" x="79.5" y="-561.3" font-family="Times,serif" font-size="14.00" fill="#000000"> </text>
<polyline fill="none" stroke="#000000" points="124,-553.5 124,-622.5 "/>
<text text-anchor="middle" x="154" y="-601.8" font-family="Times,serif" font-size="14.00" fill="#000000">OUT</text>
<polyline fill="none" stroke="#000000" points="124,-588.5 184,-588.5 "/>
<text text-anchor="middle" x="154" y="-567.3" font-family="Times,serif" font-size="14.00" fill="#000000">in_file</text>
</g>
<!-- skullstrip_bold_wfskullstrip_first_pass -->
<g id="node2" class="node">
<title>skullstrip_bold_wfskullstrip_first_pass</title>
<polygon fill="none" stroke="#000000" points="184.5,-447.5 184.5,-516.5 491.5,-516.5 491.5,-447.5 184.5,-447.5"/>
<text text-anchor="middle" x="214.5" y="-495.8" font-family="Times,serif" font-size="14.00" fill="#000000">IN</text>
<polyline fill="none" stroke="#000000" points="184.5,-482.5 244.5,-482.5 "/>
<text text-anchor="middle" x="214.5" y="-461.3" font-family="Times,serif" font-size="14.00" fill="#000000">in_file</text>
<polyline fill="none" stroke="#000000" points="244.5,-447.5 244.5,-516.5 "/>
<text text-anchor="middle" x="325.5" y="-501.3" font-family="Times,serif" font-size="14.00" fill="#000000">skullstrip_first_pass</text>
<polyline fill="none" stroke="#000000" points="244.5,-493.5 406.5,-493.5 "/>
<text text-anchor="middle" x="325.5" y="-478.3" font-family="Times,serif" font-size="14.00" fill="#000000">fsl</text>
<polyline fill="none" stroke="#000000" points="244.5,-470.5 406.5,-470.5 "/>
<text text-anchor="middle" x="325.5" y="-455.3" font-family="Times,serif" font-size="14.00" fill="#000000"> </text>
<polyline fill="none" stroke="#000000" points="406.5,-447.5 406.5,-516.5 "/>
<text text-anchor="middle" x="449" y="-501.3" font-family="Times,serif" font-size="14.00" fill="#000000">OUT</text>
<polyline fill="none" stroke="#000000" points="406.5,-493.5 491.5,-493.5 "/>
<text text-anchor="middle" x="449" y="-478.3" font-family="Times,serif" font-size="14.00" fill="#000000">mask_file</text>
<polyline fill="none" stroke="#000000" points="406.5,-470.5 491.5,-470.5 "/>
<text text-anchor="middle" x="449" y="-455.3" font-family="Times,serif" font-size="14.00" fill="#000000">out_file</text>
</g>
<!-- skullstrip_bold_wfinputnode&#45;&gt;skullstrip_bold_wfskullstrip_first_pass -->
<g id="edge7" class="edge">
<title>skullstrip_bold_wfinputnode:e&#45;&gt;skullstrip_bold_wfskullstrip_first_pass:w</title>
<path fill="none" stroke="#000000" d="M184,-571C203.691,-571 174.0007,-496.9281 177.4884,-472.6233"/>
<polygon fill="#000000" stroke="#000000" points="180.1664,-474.877 184,-465 174.8438,-470.3305 180.1664,-474.877"/>
</g>
<!-- skullstrip_bold_wfmask_reportlet -->
<g id="node5" class="node">
<title>skullstrip_bold_wfmask_reportlet</title>
<polygon fill="none" stroke="#000000" points="165,-129.5 165,-198.5 515,-198.5 515,-129.5 165,-129.5"/>
<text text-anchor="middle" x="231" y="-183.3" font-family="Times,serif" font-size="14.00" fill="#000000">IN</text>
<polyline fill="none" stroke="#000000" points="165,-175.5 297,-175.5 "/>
<text text-anchor="middle" x="231" y="-160.3" font-family="Times,serif" font-size="14.00" fill="#000000">background_file</text>
<polyline fill="none" stroke="#000000" points="165,-152.5 297,-152.5 "/>
<text text-anchor="middle" x="231" y="-137.3" font-family="Times,serif" font-size="14.00" fill="#000000">mask_file</text>
<polyline fill="none" stroke="#000000" points="297,-129.5 297,-198.5 "/>
<text text-anchor="middle" x="360" y="-183.3" font-family="Times,serif" font-size="14.00" fill="#000000">mask_reportlet</text>
<polyline fill="none" stroke="#000000" points="297,-175.5 423,-175.5 "/>
<text text-anchor="middle" x="360" y="-160.3" font-family="Times,serif" font-size="14.00" fill="#000000">reportlets</text>
<polyline fill="none" stroke="#000000" points="297,-152.5 423,-152.5 "/>
<text text-anchor="middle" x="360" y="-137.3" font-family="Times,serif" font-size="14.00" fill="#000000"> </text>
<polyline fill="none" stroke="#000000" points="423,-129.5 423,-198.5 "/>
<text text-anchor="middle" x="469" y="-177.8" font-family="Times,serif" font-size="14.00" fill="#000000">OUT</text>
<polyline fill="none" stroke="#000000" points="423,-164.5 515,-164.5 "/>
<text text-anchor="middle" x="469" y="-143.3" font-family="Times,serif" font-size="14.00" fill="#000000">out_report</text>
</g>
<!-- skullstrip_bold_wfinputnode&#45;&gt;skullstrip_bold_wfmask_reportlet -->
<g id="edge6" class="edge">
<title>skullstrip_bold_wfinputnode:e&#45;&gt;skullstrip_bold_wfmask_reportlet:w</title>
<path fill="none" stroke="#000000" d="M184,-571C192,-571 184.8729,-560.9522 184,-553 182.2115,-536.7076 178.0699,-533.2591 176,-517 156.6229,-364.789 14.6251,-172.8417 154.8801,-164.2959"/>
<polygon fill="#000000" stroke="#000000" points="155.1066,-167.7909 165,-164 154.9019,-160.7939 155.1066,-167.7909"/>
</g>
<!-- skullstrip_bold_wfapply_mask -->
<g id="node6" class="node">
<title>skullstrip_bold_wfapply_mask</title>
<polygon fill="none" stroke="#000000" points="571,-129.5 571,-198.5 827,-198.5 827,-129.5 571,-129.5"/>
<text text-anchor="middle" x="613.5" y="-183.3" font-family="Times,serif" font-size="14.00" fill="#000000">IN</text>
<polyline fill="none" stroke="#000000" points="571,-175.5 656,-175.5 "/>
<text text-anchor="middle" x="613.5" y="-160.3" font-family="Times,serif" font-size="14.00" fill="#000000">in_file</text>
<polyline fill="none" stroke="#000000" points="571,-152.5 656,-152.5 "/>
<text text-anchor="middle" x="613.5" y="-137.3" font-family="Times,serif" font-size="14.00" fill="#000000">mask_file</text>
<polyline fill="none" stroke="#000000" points="656,-129.5 656,-198.5 "/>
<text text-anchor="middle" x="706.5" y="-183.3" font-family="Times,serif" font-size="14.00" fill="#000000">apply_mask</text>
<polyline fill="none" stroke="#000000" points="656,-175.5 757,-175.5 "/>
<text text-anchor="middle" x="706.5" y="-160.3" font-family="Times,serif" font-size="14.00" fill="#000000">fsl</text>
<polyline fill="none" stroke="#000000" points="656,-152.5 757,-152.5 "/>
<text text-anchor="middle" x="706.5" y="-137.3" font-family="Times,serif" font-size="14.00" fill="#000000"> </text>
<polyline fill="none" stroke="#000000" points="757,-129.5 757,-198.5 "/>
<text text-anchor="middle" x="792" y="-177.8" font-family="Times,serif" font-size="14.00" fill="#000000">OUT</text>
<polyline fill="none" stroke="#000000" points="757,-164.5 827,-164.5 "/>
<text text-anchor="middle" x="792" y="-143.3" font-family="Times,serif" font-size="14.00" fill="#000000">out_file</text>
</g>
<!-- skullstrip_bold_wfinputnode&#45;&gt;skullstrip_bold_wfapply_mask -->
<g id="edge5" class="edge">
<title>skullstrip_bold_wfinputnode:e&#45;&gt;skullstrip_bold_wfapply_mask:w</title>
<path fill="none" stroke="#000000" d="M184,-571C255.2402,-571 441.5645,-557.7486 500,-517 544.5853,-485.9095 545.9094,-463.2182 561,-411 567.7916,-387.4989 548.6307,-209.9356 563.7621,-171.3747"/>
<polygon fill="#000000" stroke="#000000" points="566.4934,-173.5886 571,-164 561.4975,-168.6854 566.4934,-173.5886"/>
</g>
<!-- skullstrip_bold_wfskullstrip_second_pass -->
<g id="node3" class="node">
<title>skullstrip_bold_wfskullstrip_second_pass</title>
<polygon fill="none" stroke="#000000" points="240,-341.5 240,-410.5 552,-410.5 552,-341.5 240,-341.5"/>
<text text-anchor="middle" x="270" y="-389.8" font-family="Times,serif" font-size="14.00" fill="#000000">IN</text>
<polyline fill="none" stroke="#000000" points="240,-376.5 300,-376.5 "/>
<text text-anchor="middle" x="270" y="-355.3" font-family="Times,serif" font-size="14.00" fill="#000000">in_file</text>
<polyline fill="none" stroke="#000000" points="300,-341.5 300,-410.5 "/>
<text text-anchor="middle" x="391" y="-395.3" font-family="Times,serif" font-size="14.00" fill="#000000">skullstrip_second_pass</text>
<polyline fill="none" stroke="#000000" points="300,-387.5 482,-387.5 "/>
<text text-anchor="middle" x="391" y="-372.3" font-family="Times,serif" font-size="14.00" fill="#000000">afni</text>
<polyline fill="none" stroke="#000000" points="300,-364.5 482,-364.5 "/>
<text text-anchor="middle" x="391" y="-349.3" font-family="Times,serif" font-size="14.00" fill="#000000"> </text>
<polyline fill="none" stroke="#000000" points="482,-341.5 482,-410.5 "/>
<text text-anchor="middle" x="517" y="-389.8" font-family="Times,serif" font-size="14.00" fill="#000000">OUT</text>
<polyline fill="none" stroke="#000000" points="482,-376.5 552,-376.5 "/>
<text text-anchor="middle" x="517" y="-355.3" font-family="Times,serif" font-size="14.00" fill="#000000">out_file</text>
</g>
<!-- skullstrip_bold_wfskullstrip_first_pass&#45;&gt;skullstrip_bold_wfskullstrip_second_pass -->
<g id="edge10" class="edge">
<title>skullstrip_bold_wfskullstrip_first_pass:e&#45;&gt;skullstrip_bold_wfskullstrip_second_pass:w</title>
<path fill="none" stroke="#000000" d="M492,-459C497.3333,-459 495.4944,-451.0291 492,-447 417.8724,-361.5301 314.1276,-496.4699 240,-411 234.499,-404.6573 230.8916,-380.0809 233.7621,-367.1149"/>
<polygon fill="#000000" stroke="#000000" points="236.6804,-369.0614 240,-359 231.1306,-364.7953 236.6804,-369.0614"/>
</g>
<!-- skullstrip_bold_wfcombine_masks -->
<g id="node4" class="node">
<title>skullstrip_bold_wfcombine_masks</title>
<polygon fill="none" stroke="#000000" points="237,-235.5 237,-304.5 543,-304.5 543,-235.5 237,-235.5"/>
<text text-anchor="middle" x="289.5" y="-289.3" font-family="Times,serif" font-size="14.00" fill="#000000">IN</text>
<polyline fill="none" stroke="#000000" points="237,-281.5 342,-281.5 "/>
<text text-anchor="middle" x="289.5" y="-266.3" font-family="Times,serif" font-size="14.00" fill="#000000">in_file</text>
<polyline fill="none" stroke="#000000" points="237,-258.5 342,-258.5 "/>
<text text-anchor="middle" x="289.5" y="-243.3" font-family="Times,serif" font-size="14.00" fill="#000000">operand_file</text>
<polyline fill="none" stroke="#000000" points="342,-235.5 342,-304.5 "/>
<text text-anchor="middle" x="407.5" y="-289.3" font-family="Times,serif" font-size="14.00" fill="#000000">combine_masks</text>
<polyline fill="none" stroke="#000000" points="342,-281.5 473,-281.5 "/>
<text text-anchor="middle" x="407.5" y="-266.3" font-family="Times,serif" font-size="14.00" fill="#000000">fsl</text>
<polyline fill="none" stroke="#000000" points="342,-258.5 473,-258.5 "/>
<text text-anchor="middle" x="407.5" y="-243.3" font-family="Times,serif" font-size="14.00" fill="#000000"> </text>
<polyline fill="none" stroke="#000000" points="473,-235.5 473,-304.5 "/>
<text text-anchor="middle" x="508" y="-283.8" font-family="Times,serif" font-size="14.00" fill="#000000">OUT</text>
<polyline fill="none" stroke="#000000" points="473,-270.5 543,-270.5 "/>
<text text-anchor="middle" x="508" y="-249.3" font-family="Times,serif" font-size="14.00" fill="#000000">out_file</text>
</g>
<!-- skullstrip_bold_wfskullstrip_first_pass&#45;&gt;skullstrip_bold_wfcombine_masks -->
<g id="edge9" class="edge">
<title>skullstrip_bold_wfskullstrip_first_pass:e&#45;&gt;skullstrip_bold_wfcombine_masks:w</title>
<path fill="none" stroke="#000000" d="M492,-482C507.5556,-482 502.2204,-458.7269 492,-447 415.0636,-358.7232 307.9364,-499.2768 231,-411 192.2039,-366.4854 176.1827,-280.8228 226.7696,-270.937"/>
<polygon fill="#000000" stroke="#000000" points="227.361,-274.3976 237,-270 226.7224,-267.4268 227.361,-274.3976"/>
</g>
<!-- skullstrip_bold_wfskullstrip_second_pass&#45;&gt;skullstrip_bold_wfcombine_masks -->
<g id="edge11" class="edge">
<title>skullstrip_bold_wfskullstrip_second_pass:e&#45;&gt;skullstrip_bold_wfcombine_masks:w</title>
<path fill="none" stroke="#000000" d="M552,-359C560,-359 557.326,-346.9694 552,-341 458.1879,-235.8559 330.8121,-410.1441 237,-305 222.5199,-288.7707 214.1234,-258.6373 227.3371,-249.6169"/>
<polygon fill="#000000" stroke="#000000" points="228.2626,-252.9924 237,-247 226.4328,-246.2358 228.2626,-252.9924"/>
</g>
<!-- skullstrip_bold_wfcombine_masks&#45;&gt;skullstrip_bold_wfmask_reportlet -->
<g id="edge3" class="edge">
<title>skullstrip_bold_wfcombine_masks:e&#45;&gt;skullstrip_bold_wfmask_reportlet:w</title>
<path fill="none" stroke="#000000" d="M543,-253C551,-253 548.382,-240.9189 543,-235 486.2331,-172.5699 221.7669,-261.4301 165,-199 150.3676,-182.9079 142.0758,-152.6802 155.326,-143.6269"/>
<polygon fill="#000000" stroke="#000000" points="156.2667,-146.9983 165,-141 154.4322,-140.2429 156.2667,-146.9983"/>
</g>
<!-- skullstrip_bold_wfcombine_masks&#45;&gt;skullstrip_bold_wfapply_mask -->
<g id="edge2" class="edge">
<title>skullstrip_bold_wfcombine_masks:e&#45;&gt;skullstrip_bold_wfapply_mask:w</title>
<path fill="none" stroke="#000000" d="M543,-253C567.7935,-253 550.9799,-223.0515 557,-199 559.4146,-189.3533 558.6241,-161.5517 563.6716,-148.2537"/>
<polygon fill="#000000" stroke="#000000" points="566.355,-150.5223 571,-141 561.4306,-145.5473 566.355,-150.5223"/>
</g>
<!-- skullstrip_bold_wfoutputnode -->
<g id="node7" class="node">
<title>skullstrip_bold_wfoutputnode</title>
<polygon fill="none" stroke="#000000" points="543.5,-.5 543.5,-92.5 840.5,-92.5 840.5,-.5 543.5,-.5"/>
<text text-anchor="middle" x="618" y="-77.3" font-family="Times,serif" font-size="14.00" fill="#000000">IN</text>
<polyline fill="none" stroke="#000000" points="543.5,-69.5 692.5,-69.5 "/>
<text text-anchor="middle" x="618" y="-54.3" font-family="Times,serif" font-size="14.00" fill="#000000">mask_file</text>
<polyline fill="none" stroke="#000000" points="543.5,-46.5 692.5,-46.5 "/>
<text text-anchor="middle" x="618" y="-31.3" font-family="Times,serif" font-size="14.00" fill="#000000">out_report</text>
<polyline fill="none" stroke="#000000" points="543.5,-23.5 692.5,-23.5 "/>
<text text-anchor="middle" x="618" y="-8.3" font-family="Times,serif" font-size="14.00" fill="#000000">skull_stripped_file</text>
<polyline fill="none" stroke="#000000" points="692.5,-.5 692.5,-92.5 "/>
<text text-anchor="middle" x="741.5" y="-73.8" font-family="Times,serif" font-size="14.00" fill="#000000">outputnode</text>
<polyline fill="none" stroke="#000000" points="692.5,-62.5 790.5,-62.5 "/>
<text text-anchor="middle" x="741.5" y="-43.3" font-family="Times,serif" font-size="14.00" fill="#000000">utility</text>
<polyline fill="none" stroke="#000000" points="692.5,-31.5 790.5,-31.5 "/>
<text text-anchor="middle" x="741.5" y="-12.3" font-family="Times,serif" font-size="14.00" fill="#000000"> </text>
<polyline fill="none" stroke="#000000" points="790.5,-.5 790.5,-92.5 "/>
<text text-anchor="middle" x="815.5" y="-42.8" font-family="Times,serif" font-size="14.00" fill="#000000">OUT</text>
</g>
<!-- skullstrip_bold_wfcombine_masks&#45;&gt;skullstrip_bold_wfoutputnode -->
<g id="edge4" class="edge">
<title>skullstrip_bold_wfcombine_masks:e&#45;&gt;skullstrip_bold_wfoutputnode:w</title>
<path fill="none" stroke="#000000" d="M543,-253C582.1701,-253 514.8465,-93.2593 534.049,-63.3079"/>
<polygon fill="#000000" stroke="#000000" points="535.8466,-66.3153 543,-58.5 532.5342,-60.1486 535.8466,-66.3153"/>
</g>
<!-- skullstrip_bold_wfmask_reportlet&#45;&gt;skullstrip_bold_wfoutputnode -->
<g id="edge8" class="edge">
<title>skullstrip_bold_wfmask_reportlet:e&#45;&gt;skullstrip_bold_wfoutputnode:w</title>
<path fill="none" stroke="#000000" d="M515,-147C537.1398,-147 522.8791,-63.9159 534.7813,-40.5485"/>
<polygon fill="#000000" stroke="#000000" points="537.0205,-43.2462 543,-34.5 532.8714,-37.6084 537.0205,-43.2462"/>
</g>
<!-- skullstrip_bold_wfapply_mask&#45;&gt;skullstrip_bold_wfoutputnode -->
<g id="edge1" class="edge">
<title>skullstrip_bold_wfapply_mask:e&#45;&gt;skullstrip_bold_wfoutputnode:w</title>
<path fill="none" stroke="#000000" d="M827,-147C835,-147 832.2892,-135.002 827,-129 742.88,-33.5438 627.12,-188.4562 543,-93 521.5774,-68.6904 509.4966,-22.657 533.1142,-13.2173"/>
<polygon fill="#000000" stroke="#000000" points="533.7466,-16.6599 543,-11.5 532.5485,-9.7632 533.7466,-16.6599"/>
</g>
</g>
</svg>
