<?xml version="1.0" encoding="UTF-8" standalone="no"?>
<!DOCTYPE svg PUBLIC "-//W3C//DTD SVG 1.1//EN"
 "http://www.w3.org/Graphics/SVG/1.1/DTD/svg11.dtd">
<!-- Generated by graphviz version 2.40.1 (20161225.0304)
 -->
<!-- Title: %3 Pages: 1 -->
<svg width="349pt" height="620pt"
 viewBox="0.00 0.00 349.13 620.00" xmlns="http://www.w3.org/2000/svg" xmlns:xlink="http://www.w3.org/1999/xlink">
<g id="graph0" class="graph" transform="scale(1 1) rotate(0) translate(4 616)">
<title>%3</title>
<polygon fill="#ffffff" stroke="transparent" points="-4,4 -4,-616 345.1302,-616 345.1302,4 -4,4"/>
<!-- inputnode (utility) -->
<g id="node1" class="node">
<title>inputnode (utility)</title>
<ellipse fill="none" stroke="#000000" cx="224.7905" cy="-594" rx="94.7833" ry="18"/>
<text text-anchor="middle" x="224.7905" y="-590.3" font-family="Times,serif" font-size="14.00" fill="#000000">inputnode (utility)</text>
</g>
<!-- validate_nii (header) -->
<g id="node2" class="node">
<title>validate_nii (header)</title>
<ellipse fill="none" stroke="#000000" cx="157.7905" cy="-522" rx="106.6812" ry="18"/>
<text text-anchor="middle" x="157.7905" y="-518.3" font-family="Times,serif" font-size="14.00" fill="#000000">validate_nii (header)</text>
</g>
<!-- inputnode (utility)&#45;&gt;validate_nii (header) -->
<g id="edge1" class="edge">
<title>inputnode (utility)&#45;&gt;validate_nii (header)</title>
<path fill="none" stroke="#000000" d="M208.2287,-576.2022C200.0952,-567.4617 190.1539,-556.7786 181.2539,-547.2144"/>
<polygon fill="#000000" stroke="#000000" points="183.7685,-544.7789 174.394,-539.8425 178.644,-549.5476 183.7685,-544.7789"/>
</g>
<!-- per_run_avgs (images) -->
<g id="node3" class="node">
<title>per_run_avgs (images)</title>
<ellipse fill="none" stroke="#000000" cx="224.7905" cy="-450" rx="116.1796" ry="18"/>
<text text-anchor="middle" x="224.7905" y="-446.3" font-family="Times,serif" font-size="14.00" fill="#000000">per_run_avgs (images)</text>
</g>
<!-- inputnode (utility)&#45;&gt;per_run_avgs (images) -->
<g id="edge2" class="edge">
<title>inputnode (utility)&#45;&gt;per_run_avgs (images)</title>
<path fill="none" stroke="#000000" d="M246.9519,-576.4709C257.2106,-566.9227 268.3191,-554.1717 273.7905,-540 279.5531,-525.0738 279.5531,-518.9262 273.7905,-504 269.6364,-493.2402 262.2327,-483.2994 254.4186,-474.9575"/>
<polygon fill="#000000" stroke="#000000" points="256.7612,-472.3507 247.2085,-467.7684 251.8187,-477.3077 256.7612,-472.3507"/>
</g>
<!-- validate_nii (header)&#45;&gt;per_run_avgs (images) -->
<g id="edge3" class="edge">
<title>validate_nii (header)&#45;&gt;per_run_avgs (images)</title>
<path fill="none" stroke="#000000" d="M174.3523,-504.2022C182.4858,-495.4617 192.427,-484.7786 201.327,-475.2144"/>
<polygon fill="#000000" stroke="#000000" points="203.9369,-477.5476 208.187,-467.8425 198.8124,-472.7789 203.9369,-477.5476"/>
</g>
<!-- clip_avgs (nibabel) -->
<g id="node4" class="node">
<title>clip_avgs (nibabel)</title>
<ellipse fill="none" stroke="#000000" cx="161.7905" cy="-378" rx="98.2828" ry="18"/>
<text text-anchor="middle" x="161.7905" y="-374.3" font-family="Times,serif" font-size="14.00" fill="#000000">clip_avgs (nibabel)</text>
</g>
<!-- per_run_avgs (images)&#45;&gt;clip_avgs (nibabel) -->
<g id="edge4" class="edge">
<title>per_run_avgs (images)&#45;&gt;clip_avgs (nibabel)</title>
<path fill="none" stroke="#000000" d="M208.8929,-431.8314C201.3748,-423.2392 192.2702,-412.834 184.0774,-403.4708"/>
<polygon fill="#000000" stroke="#000000" points="186.6838,-401.1344 177.4647,-395.9134 181.4158,-405.744 186.6838,-401.1344"/>
</g>
<!-- outputnode (utility) -->
<g id="node5" class="node">
<title>outputnode (utility)</title>
<ellipse fill="none" stroke="#000000" cx="102.7905" cy="-18" rx="101.2821" ry="18"/>
<text text-anchor="middle" x="102.7905" y="-14.3" font-family="Times,serif" font-size="14.00" fill="#000000">outputnode (utility)</text>
</g>
<!-- per_run_avgs (images)&#45;&gt;outputnode (utility) -->
<g id="edge5" class="edge">
<title>per_run_avgs (images)&#45;&gt;outputnode (utility)</title>
<path fill="none" stroke="#000000" d="M242.0064,-432.1866C250.9489,-422.1828 261.5,-409.1039 268.7905,-396 289.359,-359.0302 299.7905,-348.3063 299.7905,-306 299.7905,-306 299.7905,-306 299.7905,-162 299.7905,-121.1184 308.4214,-102.1304 280.7905,-72 266.7975,-56.7412 222.168,-43.2209 181.1017,-33.5255"/>
<polygon fill="#000000" stroke="#000000" points="181.842,-30.1044 171.3113,-31.2685 180.2695,-36.9255 181.842,-30.1044"/>
</g>
<!-- n4_avgs (ants) -->
<g id="node6" class="node">
<title>n4_avgs (ants)</title>
<ellipse fill="none" stroke="#000000" cx="149.7905" cy="-306" rx="78.7863" ry="18"/>
<text text-anchor="middle" x="149.7905" y="-302.3" font-family="Times,serif" font-size="14.00" fill="#000000">n4_avgs (ants)</text>
</g>
<!-- clip_avgs (nibabel)&#45;&gt;n4_avgs (ants) -->
<g id="edge6" class="edge">
<title>clip_avgs (nibabel)&#45;&gt;n4_avgs (ants)</title>
<path fill="none" stroke="#000000" d="M158.7624,-359.8314C157.479,-352.131 155.9529,-342.9743 154.5266,-334.4166"/>
<polygon fill="#000000" stroke="#000000" points="157.9558,-333.7018 152.8594,-324.4133 151.051,-334.8526 157.9558,-333.7018"/>
</g>
<!-- n4_avgs (ants)&#45;&gt;outputnode (utility) -->
<g id="edge8" class="edge">
<title>n4_avgs (ants)&#45;&gt;outputnode (utility)</title>
<path fill="none" stroke="#000000" d="M87.5034,-294.8963C63.0548,-287.1612 37.3961,-274.0813 22.7905,-252 -21.8021,-184.5832 6.2955,-140.7583 48.7905,-72 55.434,-61.2505 64.616,-51.02 73.5252,-42.4122"/>
<polygon fill="#000000" stroke="#000000" points="75.9316,-44.954 80.8832,-35.5874 71.1713,-39.8218 75.9316,-44.954"/>
</g>
<!-- clip_bg_noise (nibabel) -->
<g id="node7" class="node">
<title>clip_bg_noise (nibabel)</title>
<ellipse fill="none" stroke="#000000" cx="149.7905" cy="-234" rx="117.7793" ry="18"/>
<text text-anchor="middle" x="149.7905" y="-230.3" font-family="Times,serif" font-size="14.00" fill="#000000">clip_bg_noise (nibabel)</text>
</g>
<!-- n4_avgs (ants)&#45;&gt;clip_bg_noise (nibabel) -->
<g id="edge7" class="edge">
<title>n4_avgs (ants)&#45;&gt;clip_bg_noise (nibabel)</title>
<path fill="none" stroke="#000000" d="M149.7905,-287.8314C149.7905,-280.131 149.7905,-270.9743 149.7905,-262.4166"/>
<polygon fill="#000000" stroke="#000000" points="153.2906,-262.4132 149.7905,-252.4133 146.2906,-262.4133 153.2906,-262.4132"/>
</g>
<!-- epi_merge (freesurfer) -->
<g id="node8" class="node">
<title>epi_merge (freesurfer)</title>
<ellipse fill="none" stroke="#000000" cx="149.7905" cy="-162" rx="116.1796" ry="18"/>
<text text-anchor="middle" x="149.7905" y="-158.3" font-family="Times,serif" font-size="14.00" fill="#000000">epi_merge (freesurfer)</text>
</g>
<!-- clip_bg_noise (nibabel)&#45;&gt;epi_merge (freesurfer) -->
<g id="edge9" class="edge">
<title>clip_bg_noise (nibabel)&#45;&gt;epi_merge (freesurfer)</title>
<path fill="none" stroke="#000000" d="M149.7905,-215.8314C149.7905,-208.131 149.7905,-198.9743 149.7905,-190.4166"/>
<polygon fill="#000000" stroke="#000000" points="153.2906,-190.4132 149.7905,-180.4133 146.2906,-190.4133 153.2906,-190.4132"/>
</g>
<!-- epi_merge (freesurfer)&#45;&gt;outputnode (utility) -->
<g id="edge11" class="edge">
<title>epi_merge (freesurfer)&#45;&gt;outputnode (utility)</title>
<path fill="none" stroke="#000000" d="M101.101,-145.5337C83.9741,-137.1266 66.5714,-124.9894 56.7905,-108 44.4568,-86.5764 59.6272,-61.4773 75.766,-43.2355"/>
<polygon fill="#000000" stroke="#000000" points="78.3844,-45.5599 82.6646,-35.8681 73.2747,-40.7754 78.3844,-45.5599"/>
</g>
<!-- post_merge (utility) -->
<g id="node9" class="node">
<title>post_merge (utility)</title>
<ellipse fill="none" stroke="#000000" cx="168.7905" cy="-90" rx="102.8821" ry="18"/>
<text text-anchor="middle" x="168.7905" y="-86.3" font-family="Times,serif" font-size="14.00" fill="#000000">post_merge (utility)</text>
</g>
<!-- epi_merge (freesurfer)&#45;&gt;post_merge (utility) -->
<g id="edge10" class="edge">
<title>epi_merge (freesurfer)&#45;&gt;post_merge (utility)</title>
<path fill="none" stroke="#000000" d="M154.585,-143.8314C156.6394,-136.0463 159.0865,-126.7729 161.366,-118.1347"/>
<polygon fill="#000000" stroke="#000000" points="164.764,-118.9753 163.9314,-108.4133 157.9957,-117.1892 164.764,-118.9753"/>
</g>
<!-- post_merge (utility)&#45;&gt;outputnode (utility) -->
<g id="edge12" class="edge">
<title>post_merge (utility)&#45;&gt;outputnode (utility)</title>
<path fill="none" stroke="#000000" d="M152.4759,-72.2022C144.4637,-63.4617 134.6709,-52.7786 125.9037,-43.2144"/>
<polygon fill="#000000" stroke="#000000" points="128.4835,-40.8491 119.1461,-35.8425 123.3234,-45.5792 128.4835,-40.8491"/>
</g>
</g>
</svg>
