<?xml version="1.0" encoding="UTF-8" standalone="no"?>
<!DOCTYPE svg PUBLIC "-//W3C//DTD SVG 1.1//EN"
 "http://www.w3.org/Graphics/SVG/1.1/DTD/svg11.dtd">
<!-- Generated by graphviz version 2.43.0 (0)
 -->
<!-- Title: %3 Pages: 1 -->
<svg width="510pt" height="404pt"
 viewBox="0.00 0.00 509.93 404.00" xmlns="http://www.w3.org/2000/svg" xmlns:xlink="http://www.w3.org/1999/xlink">
<g id="graph0" class="graph" transform="scale(1 1) rotate(0) translate(4 400)">
<title>%3</title>
<polygon fill="white" stroke="transparent" points="-4,4 -4,-400 505.93,-400 505.93,4 -4,4"/>
<!-- inputnode (utility) -->
<g id="node1" class="node">
<title>inputnode (utility)</title>
<ellipse fill="none" stroke="black" cx="205.79" cy="-378" rx="94.78" ry="18"/>
<text text-anchor="middle" x="205.79" y="-374.3" font-family="Times,serif" font-size="14.00">inputnode (utility)</text>
</g>
<!-- skullstrip_first_pass (fsl) -->
<g id="node2" class="node">
<title>skullstrip_first_pass (fsl)</title>
<ellipse fill="none" stroke="black" cx="205.79" cy="-306" rx="124.28" ry="18"/>
<text text-anchor="middle" x="205.79" y="-302.3" font-family="Times,serif" font-size="14.00">skullstrip_first_pass (fsl)</text>
</g>
<!-- inputnode (utility)&#45;&gt;skullstrip_first_pass (fsl) -->
<g id="edge1" class="edge">
<title>inputnode (utility)&#45;&gt;skullstrip_first_pass (fsl)</title>
<path fill="none" stroke="black" d="M205.79,-359.7C205.79,-351.98 205.79,-342.71 205.79,-334.11"/>
<polygon fill="black" stroke="black" points="209.29,-334.1 205.79,-324.1 202.29,-334.1 209.29,-334.1"/>
</g>
<!-- apply_mask (fsl) -->
<g id="node3" class="node">
<title>apply_mask (fsl)</title>
<ellipse fill="none" stroke="black" cx="85.79" cy="-90" rx="85.59" ry="18"/>
<text text-anchor="middle" x="85.79" y="-86.3" font-family="Times,serif" font-size="14.00">apply_mask (fsl)</text>
</g>
<!-- inputnode (utility)&#45;&gt;apply_mask (fsl) -->
<g id="edge2" class="edge">
<title>inputnode (utility)&#45;&gt;apply_mask (fsl)</title>
<path fill="none" stroke="black" d="M150.8,-363.19C125.2,-354.84 95.47,-342.2 72.79,-324 42.6,-299.77 35.19,-288.99 23.79,-252 8.72,-203.07 41.42,-147.7 64.81,-116.31"/>
<polygon fill="black" stroke="black" points="67.79,-118.18 71.11,-108.12 62.24,-113.91 67.79,-118.18"/>
</g>
<!-- mask_reportlet (reportlets) -->
<g id="node4" class="node">
<title>mask_reportlet (reportlets)</title>
<ellipse fill="none" stroke="black" cx="364.79" cy="-90" rx="137.28" ry="18"/>
<text text-anchor="middle" x="364.79" y="-86.3" font-family="Times,serif" font-size="14.00">mask_reportlet (reportlets)</text>
</g>
<!-- inputnode (utility)&#45;&gt;mask_reportlet (reportlets) -->
<g id="edge3" class="edge">
<title>inputnode (utility)&#45;&gt;mask_reportlet (reportlets)</title>
<path fill="none" stroke="black" d="M273.16,-365.21C297.51,-357.52 322.89,-344.85 338.79,-324 385.38,-262.89 377.39,-165.19 369.99,-118.11"/>
<polygon fill="black" stroke="black" points="373.41,-117.35 368.3,-108.07 366.51,-118.51 373.41,-117.35"/>
</g>
<!-- skullstrip_second_pass (afni) -->
<g id="node5" class="node">
<title>skullstrip_second_pass (afni)</title>
<ellipse fill="none" stroke="black" cx="176.79" cy="-234" rx="143.77" ry="18"/>
<text text-anchor="middle" x="176.79" y="-230.3" font-family="Times,serif" font-size="14.00">skullstrip_second_pass (afni)</text>
</g>
<!-- skullstrip_first_pass (fsl)&#45;&gt;skullstrip_second_pass (afni) -->
<g id="edge4" class="edge">
<title>skullstrip_first_pass (fsl)&#45;&gt;skullstrip_second_pass (afni)</title>
<path fill="none" stroke="black" d="M198.62,-287.7C195.36,-279.81 191.42,-270.3 187.79,-261.55"/>
<polygon fill="black" stroke="black" points="190.94,-260 183.88,-252.1 184.47,-262.68 190.94,-260"/>
</g>
<!-- combine_masks (fsl) -->
<g id="node6" class="node">
<title>combine_masks (fsl)</title>
<ellipse fill="none" stroke="black" cx="199.79" cy="-162" rx="104.78" ry="18"/>
<text text-anchor="middle" x="199.79" y="-158.3" font-family="Times,serif" font-size="14.00">combine_masks (fsl)</text>
</g>
<!-- skullstrip_first_pass (fsl)&#45;&gt;combine_masks (fsl) -->
<g id="edge5" class="edge">
<title>skullstrip_first_pass (fsl)&#45;&gt;combine_masks (fsl)</title>
<path fill="none" stroke="black" d="M275.4,-290.99C296.45,-283.15 317.28,-270.95 329.79,-252 338.61,-238.65 338.72,-229.28 329.79,-216 318.05,-198.53 299.43,-186.82 279.92,-178.96"/>
<polygon fill="black" stroke="black" points="280.88,-175.59 270.29,-175.41 278.46,-182.15 280.88,-175.59"/>
</g>
<!-- outputnode (utility) -->
<g id="node7" class="node">
<title>outputnode (utility)</title>
<ellipse fill="none" stroke="black" cx="199.79" cy="-18" rx="101.28" ry="18"/>
<text text-anchor="middle" x="199.79" y="-14.3" font-family="Times,serif" font-size="14.00">outputnode (utility)</text>
</g>
<!-- apply_mask (fsl)&#45;&gt;outputnode (utility) -->
<g id="edge6" class="edge">
<title>apply_mask (fsl)&#45;&gt;outputnode (utility)</title>
<path fill="none" stroke="black" d="M112.23,-72.76C127.66,-63.29 147.33,-51.21 164.12,-40.91"/>
<polygon fill="black" stroke="black" points="166.41,-43.61 173.1,-35.39 162.75,-37.64 166.41,-43.61"/>
</g>
<!-- mask_reportlet (reportlets)&#45;&gt;outputnode (utility) -->
<g id="edge7" class="edge">
<title>mask_reportlet (reportlets)&#45;&gt;outputnode (utility)</title>
<path fill="none" stroke="black" d="M326.11,-72.59C302.29,-62.48 271.61,-49.47 246.45,-38.79"/>
<polygon fill="black" stroke="black" points="247.67,-35.51 237.1,-34.83 244.94,-41.95 247.67,-35.51"/>
</g>
<!-- skullstrip_second_pass (afni)&#45;&gt;combine_masks (fsl) -->
<g id="edge8" class="edge">
<title>skullstrip_second_pass (afni)&#45;&gt;combine_masks (fsl)</title>
<path fill="none" stroke="black" d="M182.48,-215.7C185.04,-207.9 188.13,-198.51 190.98,-189.83"/>
<polygon fill="black" stroke="black" points="194.38,-190.7 194.17,-180.1 187.73,-188.51 194.38,-190.7"/>
</g>
<!-- combine_masks (fsl)&#45;&gt;apply_mask (fsl) -->
<g id="edge10" class="edge">
<title>combine_masks (fsl)&#45;&gt;apply_mask (fsl)</title>
<path fill="none" stroke="black" d="M173.06,-144.59C157.63,-135.11 138.02,-123.07 121.3,-112.8"/>
<polygon fill="black" stroke="black" points="122.71,-109.56 112.35,-107.31 119.04,-115.52 122.71,-109.56"/>
</g>
<!-- combine_masks (fsl)&#45;&gt;mask_reportlet (reportlets) -->
<g id="edge11" class="edge">
<title>combine_masks (fsl)&#45;&gt;mask_reportlet (reportlets)</title>
<path fill="none" stroke="black" d="M237.23,-145.12C260.84,-135.1 291.55,-122.07 316.92,-111.31"/>
<polygon fill="black" stroke="black" points="318.52,-114.43 326.35,-107.31 315.78,-107.99 318.52,-114.43"/>
</g>
<!-- combine_masks (fsl)&#45;&gt;outputnode (utility) -->
<g id="edge9" class="edge">
<title>combine_masks (fsl)&#45;&gt;outputnode (utility)</title>
<path fill="none" stroke="black" d="M199.79,-143.87C199.79,-119.67 199.79,-75.21 199.79,-46.39"/>
<polygon fill="black" stroke="black" points="203.29,-46.19 199.79,-36.19 196.29,-46.19 203.29,-46.19"/>
</g>
</g>
</svg>
