<?xml version="1.0" encoding="UTF-8" standalone="no"?>
<!DOCTYPE svg PUBLIC "-//W3C//DTD SVG 1.1//EN"
 "http://www.w3.org/Graphics/SVG/1.1/DTD/svg11.dtd">
<!-- Generated by graphviz version 2.43.0 (0)
 -->
<!-- Title: %3 Pages: 1 -->
<svg width="556pt" height="404pt"
 viewBox="0.00 0.00 555.68 404.00" xmlns="http://www.w3.org/2000/svg" xmlns:xlink="http://www.w3.org/1999/xlink">
<g id="graph0" class="graph" transform="scale(1 1) rotate(0) translate(4 400)">
<title>%3</title>
<polygon fill="white" stroke="transparent" points="-4,4 -4,-400 551.68,-400 551.68,4 -4,4"/>
<!-- inputnode (utility) -->
<g id="node1" class="node">
<title>inputnode (utility)</title>
<ellipse fill="none" stroke="black" cx="251.54" cy="-378" rx="94.78" ry="18"/>
<text text-anchor="middle" x="251.54" y="-374.3" font-family="Times,serif" font-size="14.00">inputnode (utility)</text>
</g>
<!-- skullstrip_first_pass (fsl) -->
<g id="node2" class="node">
<title>skullstrip_first_pass (fsl)</title>
<ellipse fill="none" stroke="black" cx="251.54" cy="-306" rx="124.28" ry="18"/>
<text text-anchor="middle" x="251.54" y="-302.3" font-family="Times,serif" font-size="14.00">skullstrip_first_pass (fsl)</text>
</g>
<!-- inputnode (utility)&#45;&gt;skullstrip_first_pass (fsl) -->
<g id="edge1" class="edge">
<title>inputnode (utility)&#45;&gt;skullstrip_first_pass (fsl)</title>
<path fill="none" stroke="black" d="M251.54,-359.7C251.54,-351.98 251.54,-342.71 251.54,-334.11"/>
<polygon fill="black" stroke="black" points="255.04,-334.1 251.54,-324.1 248.04,-334.1 255.04,-334.1"/>
</g>
<!-- apply_mask (nibabel) -->
<g id="node3" class="node">
<title>apply_mask (nibabel)</title>
<ellipse fill="none" stroke="black" cx="108.54" cy="-90" rx="108.58" ry="18"/>
<text text-anchor="middle" x="108.54" y="-86.3" font-family="Times,serif" font-size="14.00">apply_mask (nibabel)</text>
</g>
<!-- inputnode (utility)&#45;&gt;apply_mask (nibabel) -->
<g id="edge2" class="edge">
<title>inputnode (utility)&#45;&gt;apply_mask (nibabel)</title>
<path fill="none" stroke="black" d="M196.55,-363.19C170.95,-354.84 141.22,-342.2 118.54,-324 88.35,-299.77 80.93,-288.99 69.54,-252 55.12,-205.17 77.17,-149.36 93.53,-117.27"/>
<polygon fill="black" stroke="black" points="96.79,-118.58 98.38,-108.11 90.61,-115.31 96.79,-118.58"/>
</g>
<!-- mask_reportlet (reportlets) -->
<g id="node4" class="node">
<title>mask_reportlet (reportlets)</title>
<ellipse fill="none" stroke="black" cx="410.54" cy="-90" rx="137.28" ry="18"/>
<text text-anchor="middle" x="410.54" y="-86.3" font-family="Times,serif" font-size="14.00">mask_reportlet (reportlets)</text>
</g>
<!-- inputnode (utility)&#45;&gt;mask_reportlet (reportlets) -->
<g id="edge3" class="edge">
<title>inputnode (utility)&#45;&gt;mask_reportlet (reportlets)</title>
<path fill="none" stroke="black" d="M318.91,-365.21C343.26,-357.52 368.64,-344.85 384.54,-324 431.13,-262.89 423.14,-165.19 415.74,-118.11"/>
<polygon fill="black" stroke="black" points="419.16,-117.35 414.04,-108.07 412.26,-118.51 419.16,-117.35"/>
</g>
<!-- skullstrip_second_pass (afni) -->
<g id="node5" class="node">
<title>skullstrip_second_pass (afni)</title>
<ellipse fill="none" stroke="black" cx="222.54" cy="-234" rx="143.77" ry="18"/>
<text text-anchor="middle" x="222.54" y="-230.3" font-family="Times,serif" font-size="14.00">skullstrip_second_pass (afni)</text>
</g>
<!-- skullstrip_first_pass (fsl)&#45;&gt;skullstrip_second_pass (afni) -->
<g id="edge4" class="edge">
<title>skullstrip_first_pass (fsl)&#45;&gt;skullstrip_second_pass (afni)</title>
<path fill="none" stroke="black" d="M244.37,-287.7C241.11,-279.81 237.17,-270.3 233.54,-261.55"/>
<polygon fill="black" stroke="black" points="236.69,-260 229.63,-252.1 230.22,-262.68 236.69,-260"/>
</g>
<!-- combine_masks (fsl) -->
<g id="node6" class="node">
<title>combine_masks (fsl)</title>
<ellipse fill="none" stroke="black" cx="245.54" cy="-162" rx="104.78" ry="18"/>
<text text-anchor="middle" x="245.54" y="-158.3" font-family="Times,serif" font-size="14.00">combine_masks (fsl)</text>
</g>
<!-- skullstrip_first_pass (fsl)&#45;&gt;combine_masks (fsl) -->
<g id="edge5" class="edge">
<title>skullstrip_first_pass (fsl)&#45;&gt;combine_masks (fsl)</title>
<path fill="none" stroke="black" d="M321.15,-290.99C342.2,-283.15 363.03,-270.95 375.54,-252 384.35,-238.65 384.47,-229.28 375.54,-216 363.8,-198.53 345.18,-186.82 325.67,-178.96"/>
<polygon fill="black" stroke="black" points="326.63,-175.59 316.04,-175.41 324.21,-182.15 326.63,-175.59"/>
</g>
<!-- outputnode (utility) -->
<g id="node7" class="node">
<title>outputnode (utility)</title>
<ellipse fill="none" stroke="black" cx="245.54" cy="-18" rx="101.28" ry="18"/>
<text text-anchor="middle" x="245.54" y="-14.3" font-family="Times,serif" font-size="14.00">outputnode (utility)</text>
</g>
<!-- apply_mask (nibabel)&#45;&gt;outputnode (utility) -->
<g id="edge6" class="edge">
<title>apply_mask (nibabel)&#45;&gt;outputnode (utility)</title>
<path fill="none" stroke="black" d="M140.32,-72.76C159.51,-62.96 184.16,-50.36 204.78,-39.83"/>
<polygon fill="black" stroke="black" points="206.63,-42.81 213.94,-35.15 203.44,-36.58 206.63,-42.81"/>
</g>
<!-- mask_reportlet (reportlets)&#45;&gt;outputnode (utility) -->
<g id="edge7" class="edge">
<title>mask_reportlet (reportlets)&#45;&gt;outputnode (utility)</title>
<path fill="none" stroke="black" d="M371.86,-72.59C348.04,-62.48 317.35,-49.47 292.19,-38.79"/>
<polygon fill="black" stroke="black" points="293.42,-35.51 282.85,-34.83 290.69,-41.95 293.42,-35.51"/>
</g>
<!-- skullstrip_second_pass (afni)&#45;&gt;combine_masks (fsl) -->
<g id="edge8" class="edge">
<title>skullstrip_second_pass (afni)&#45;&gt;combine_masks (fsl)</title>
<path fill="none" stroke="black" d="M228.23,-215.7C230.79,-207.9 233.87,-198.51 236.73,-189.83"/>
<polygon fill="black" stroke="black" points="240.12,-190.7 239.92,-180.1 233.47,-188.51 240.12,-190.7"/>
</g>
<!-- combine_masks (fsl)&#45;&gt;apply_mask (nibabel) -->
<g id="edge10" class="edge">
<title>combine_masks (fsl)&#45;&gt;apply_mask (nibabel)</title>
<path fill="none" stroke="black" d="M213.77,-144.76C194.71,-135.03 170.27,-122.54 149.74,-112.05"/>
<polygon fill="black" stroke="black" points="151.11,-108.82 140.62,-107.39 147.93,-115.06 151.11,-108.82"/>
</g>
<!-- combine_masks (fsl)&#45;&gt;mask_reportlet (reportlets) -->
<g id="edge11" class="edge">
<title>combine_masks (fsl)&#45;&gt;mask_reportlet (reportlets)</title>
<path fill="none" stroke="black" d="M282.98,-145.12C306.59,-135.1 337.3,-122.07 362.67,-111.31"/>
<polygon fill="black" stroke="black" points="364.26,-114.43 372.1,-107.31 361.53,-107.99 364.26,-114.43"/>
</g>
<!-- combine_masks (fsl)&#45;&gt;outputnode (utility) -->
<g id="edge9" class="edge">
<title>combine_masks (fsl)&#45;&gt;outputnode (utility)</title>
<path fill="none" stroke="black" d="M245.54,-143.87C245.54,-119.67 245.54,-75.21 245.54,-46.39"/>
<polygon fill="black" stroke="black" points="249.04,-46.19 245.54,-36.19 242.04,-46.19 249.04,-46.19"/>
</g>
</g>
</svg>
