<?xml version="1.0" encoding="UTF-8" standalone="no"?>
<!DOCTYPE svg PUBLIC "-//W3C//DTD SVG 1.1//EN"
 "http://www.w3.org/Graphics/SVG/1.1/DTD/svg11.dtd">
<!-- Generated by graphviz version 2.43.0 (0)
 -->
<!-- Title: %3 Pages: 1 -->
<svg width="564pt" height="692pt"
 viewBox="0.00 0.00 563.91 692.00" xmlns="http://www.w3.org/2000/svg" xmlns:xlink="http://www.w3.org/1999/xlink">
<g id="graph0" class="graph" transform="scale(1 1) rotate(0) translate(4 688)">
<title>%3</title>
<polygon fill="white" stroke="transparent" points="-4,4 -4,-688 559.91,-688 559.91,4 -4,4"/>
<!-- inputnode (utility) -->
<g id="node1" class="node">
<title>inputnode (utility)</title>
<ellipse fill="none" stroke="black" cx="225.72" cy="-666" rx="94.78" ry="18"/>
<text text-anchor="middle" x="225.72" y="-662.3" font-family="Times,serif" font-size="14.00">inputnode (utility)</text>
</g>
<!-- merge_ltas (utility) -->
<g id="node2" class="node">
<title>merge_ltas (utility)</title>
<ellipse fill="none" stroke="black" cx="148.72" cy="-162" rx="99.38" ry="18"/>
<text text-anchor="middle" x="148.72" y="-158.3" font-family="Times,serif" font-size="14.00">merge_ltas (utility)</text>
</g>
<!-- inputnode (utility)&#45;&gt;merge_ltas (utility) -->
<g id="edge1" class="edge">
<title>inputnode (utility)&#45;&gt;merge_ltas (utility)</title>
<path fill="none" stroke="black" d="M160.93,-652.73C94.77,-636 1.72,-598.97 1.72,-523 1.72,-523 1.72,-523 1.72,-305 1.72,-264.55 -5.16,-247.08 20.72,-216 34.93,-198.93 55.55,-187.28 76.1,-179.36"/>
<polygon fill="black" stroke="black" points="77.29,-182.65 85.51,-175.97 74.92,-176.06 77.29,-182.65"/>
</g>
<!-- mri_coreg (freesurfer) -->
<g id="node3" class="node">
<title>mri_coreg (freesurfer)</title>
<ellipse fill="none" stroke="black" cx="225.72" cy="-594" rx="113.98" ry="18"/>
<text text-anchor="middle" x="225.72" y="-590.3" font-family="Times,serif" font-size="14.00">mri_coreg (freesurfer)</text>
</g>
<!-- inputnode (utility)&#45;&gt;mri_coreg (freesurfer) -->
<g id="edge2" class="edge">
<title>inputnode (utility)&#45;&gt;mri_coreg (freesurfer)</title>
<path fill="none" stroke="black" d="M225.72,-647.7C225.72,-639.98 225.72,-630.71 225.72,-622.11"/>
<polygon fill="black" stroke="black" points="229.22,-622.1 225.72,-612.1 222.22,-622.1 229.22,-622.1"/>
</g>
<!-- bbregister (freesurfer) -->
<g id="node4" class="node">
<title>bbregister (freesurfer)</title>
<ellipse fill="none" stroke="black" cx="369.72" cy="-522" rx="116.18" ry="18"/>
<text text-anchor="middle" x="369.72" y="-518.3" font-family="Times,serif" font-size="14.00">bbregister (freesurfer)</text>
</g>
<!-- inputnode (utility)&#45;&gt;bbregister (freesurfer) -->
<g id="edge3" class="edge">
<title>inputnode (utility)&#45;&gt;bbregister (freesurfer)</title>
<path fill="none" stroke="black" d="M284.7,-651.85C307.72,-643.91 332.43,-631.42 348.72,-612 363.11,-594.84 368.02,-569.56 369.52,-550.32"/>
<polygon fill="black" stroke="black" points="373.03,-550.24 370.06,-540.08 366.04,-549.88 373.03,-550.24"/>
</g>
<!-- concat_xfm (nitransforms) -->
<g id="node5" class="node">
<title>concat_xfm (nitransforms)</title>
<ellipse fill="none" stroke="black" cx="148.72" cy="-90" rx="132.68" ry="18"/>
<text text-anchor="middle" x="148.72" y="-86.3" font-family="Times,serif" font-size="14.00">concat_xfm (nitransforms)</text>
</g>
<!-- merge_ltas (utility)&#45;&gt;concat_xfm (nitransforms) -->
<g id="edge4" class="edge">
<title>merge_ltas (utility)&#45;&gt;concat_xfm (nitransforms)</title>
<path fill="none" stroke="black" d="M148.72,-143.7C148.72,-135.98 148.72,-126.71 148.72,-118.11"/>
<polygon fill="black" stroke="black" points="152.22,-118.1 148.72,-108.1 145.22,-118.1 152.22,-118.1"/>
</g>
<!-- mri_coreg (freesurfer)&#45;&gt;bbregister (freesurfer) -->
<g id="edge5" class="edge">
<title>mri_coreg (freesurfer)&#45;&gt;bbregister (freesurfer)</title>
<path fill="none" stroke="black" d="M259.12,-576.76C279.4,-566.9 305.49,-554.22 327.23,-543.65"/>
<polygon fill="black" stroke="black" points="328.79,-546.79 336.25,-539.27 325.73,-540.49 328.79,-546.79"/>
</g>
<!-- transforms (utility) -->
<g id="node7" class="node">
<title>transforms (utility)</title>
<ellipse fill="none" stroke="black" cx="187.72" cy="-450" rx="99.38" ry="18"/>
<text text-anchor="middle" x="187.72" y="-446.3" font-family="Times,serif" font-size="14.00">transforms (utility)</text>
</g>
<!-- mri_coreg (freesurfer)&#45;&gt;transforms (utility) -->
<g id="edge6" class="edge">
<title>mri_coreg (freesurfer)&#45;&gt;transforms (utility)</title>
<path fill="none" stroke="black" d="M221.14,-575.87C214.63,-551.56 202.66,-506.82 194.95,-478.01"/>
<polygon fill="black" stroke="black" points="198.29,-476.94 192.32,-468.19 191.52,-478.75 198.29,-476.94"/>
</g>
<!-- reports (utility) -->
<g id="node8" class="node">
<title>reports (utility)</title>
<ellipse fill="none" stroke="black" cx="387.72" cy="-450" rx="82.59" ry="18"/>
<text text-anchor="middle" x="387.72" y="-446.3" font-family="Times,serif" font-size="14.00">reports (utility)</text>
</g>
<!-- mri_coreg (freesurfer)&#45;&gt;reports (utility) -->
<g id="edge7" class="edge">
<title>mri_coreg (freesurfer)&#45;&gt;reports (utility)</title>
<path fill="none" stroke="black" d="M224.76,-575.8C224.6,-556.13 227.36,-524.08 244.72,-504 262,-484.02 287.53,-471.57 312.25,-463.8"/>
<polygon fill="black" stroke="black" points="313.41,-467.11 322.03,-460.95 311.45,-460.39 313.41,-467.11"/>
</g>
<!-- bbregister (freesurfer)&#45;&gt;transforms (utility) -->
<g id="edge8" class="edge">
<title>bbregister (freesurfer)&#45;&gt;transforms (utility)</title>
<path fill="none" stroke="black" d="M328.42,-505.12C301.47,-494.75 266.13,-481.16 237.62,-470.19"/>
<polygon fill="black" stroke="black" points="238.82,-466.9 228.23,-466.58 236.31,-473.44 238.82,-466.9"/>
</g>
<!-- bbregister (freesurfer)&#45;&gt;reports (utility) -->
<g id="edge9" class="edge">
<title>bbregister (freesurfer)&#45;&gt;reports (utility)</title>
<path fill="none" stroke="black" d="M374.17,-503.7C376.17,-495.9 378.59,-486.51 380.82,-477.83"/>
<polygon fill="black" stroke="black" points="384.22,-478.66 383.32,-468.1 377.44,-476.92 384.22,-478.66"/>
</g>
<!-- outputnode (utility) -->
<g id="node6" class="node">
<title>outputnode (utility)</title>
<ellipse fill="none" stroke="black" cx="309.72" cy="-18" rx="101.28" ry="18"/>
<text text-anchor="middle" x="309.72" y="-14.3" font-family="Times,serif" font-size="14.00">outputnode (utility)</text>
</g>
<!-- concat_xfm (nitransforms)&#45;&gt;outputnode (utility) -->
<g id="edge10" class="edge">
<title>concat_xfm (nitransforms)&#45;&gt;outputnode (utility)</title>
<path fill="none" stroke="black" d="M186.47,-72.59C209.61,-62.53 239.38,-49.58 263.87,-38.93"/>
<polygon fill="black" stroke="black" points="265.54,-42.02 273.32,-34.83 262.75,-35.6 265.54,-42.02"/>
</g>
<!-- lta_ras2ras (freesurfer) -->
<g id="node9" class="node">
<title>lta_ras2ras (freesurfer)</title>
<ellipse fill="none" stroke="black" cx="279.72" cy="-378" rx="118.88" ry="18"/>
<text text-anchor="middle" x="279.72" y="-374.3" font-family="Times,serif" font-size="14.00">lta_ras2ras (freesurfer)</text>
</g>
<!-- transforms (utility)&#45;&gt;lta_ras2ras (freesurfer) -->
<g id="edge11" class="edge">
<title>transforms (utility)&#45;&gt;lta_ras2ras (freesurfer)</title>
<path fill="none" stroke="black" d="M209.52,-432.41C221.47,-423.32 236.45,-411.92 249.51,-401.99"/>
<polygon fill="black" stroke="black" points="251.92,-404.55 257.75,-395.71 247.68,-398.98 251.92,-404.55"/>
</g>
<!-- select_transform (utility) -->
<g id="node10" class="node">
<title>select_transform (utility)</title>
<ellipse fill="none" stroke="black" cx="155.72" cy="-234" rx="126.18" ry="18"/>
<text text-anchor="middle" x="155.72" y="-230.3" font-family="Times,serif" font-size="14.00">select_transform (utility)</text>
</g>
<!-- transforms (utility)&#45;&gt;select_transform (utility) -->
<g id="edge12" class="edge">
<title>transforms (utility)&#45;&gt;select_transform (utility)</title>
<path fill="none" stroke="black" d="M173.4,-431.92C165.82,-422.02 157.02,-408.98 151.72,-396 133.44,-351.24 131.25,-335.77 138.72,-288 140.08,-279.31 142.62,-270.1 145.33,-261.84"/>
<polygon fill="black" stroke="black" points="148.66,-262.93 148.65,-252.33 142.05,-260.62 148.66,-262.93"/>
</g>
<!-- select_report (utility) -->
<g id="node12" class="node">
<title>select_report (utility)</title>
<ellipse fill="none" stroke="black" cx="446.72" cy="-234" rx="109.38" ry="18"/>
<text text-anchor="middle" x="446.72" y="-230.3" font-family="Times,serif" font-size="14.00">select_report (utility)</text>
</g>
<!-- reports (utility)&#45;&gt;select_report (utility) -->
<g id="edge13" class="edge">
<title>reports (utility)&#45;&gt;select_report (utility)</title>
<path fill="none" stroke="black" d="M398.19,-432C411.92,-408.66 435.35,-364.92 444.72,-324 449.37,-303.69 449.68,-280.1 448.93,-262.31"/>
<polygon fill="black" stroke="black" points="452.42,-262.1 448.37,-252.31 445.43,-262.49 452.42,-262.1"/>
</g>
<!-- compare_transforms (utility) -->
<g id="node11" class="node">
<title>compare_transforms (utility)</title>
<ellipse fill="none" stroke="black" cx="291.72" cy="-306" rx="143.77" ry="18"/>
<text text-anchor="middle" x="291.72" y="-302.3" font-family="Times,serif" font-size="14.00">compare_transforms (utility)</text>
</g>
<!-- lta_ras2ras (freesurfer)&#45;&gt;compare_transforms (utility) -->
<g id="edge14" class="edge">
<title>lta_ras2ras (freesurfer)&#45;&gt;compare_transforms (utility)</title>
<path fill="none" stroke="black" d="M282.69,-359.7C284.01,-351.98 285.6,-342.71 287.07,-334.11"/>
<polygon fill="black" stroke="black" points="290.55,-334.55 288.79,-324.1 283.65,-333.37 290.55,-334.55"/>
</g>
<!-- select_transform (utility)&#45;&gt;merge_ltas (utility) -->
<g id="edge15" class="edge">
<title>select_transform (utility)&#45;&gt;merge_ltas (utility)</title>
<path fill="none" stroke="black" d="M153.99,-215.7C153.22,-207.98 152.29,-198.71 151.43,-190.11"/>
<polygon fill="black" stroke="black" points="154.91,-189.71 150.43,-180.1 147.94,-190.4 154.91,-189.71"/>
</g>
<!-- compare_transforms (utility)&#45;&gt;outputnode (utility) -->
<g id="edge16" class="edge">
<title>compare_transforms (utility)&#45;&gt;outputnode (utility)</title>
<path fill="none" stroke="black" d="M292.79,-287.97C295.79,-240.29 304.3,-105.18 307.98,-46.63"/>
<polygon fill="black" stroke="black" points="311.5,-46.51 308.63,-36.31 304.51,-46.07 311.5,-46.51"/>
</g>
<!-- compare_transforms (utility)&#45;&gt;select_transform (utility) -->
<g id="edge17" class="edge">
<title>compare_transforms (utility)&#45;&gt;select_transform (utility)</title>
<path fill="none" stroke="black" d="M259.49,-288.41C240.69,-278.73 216.79,-266.43 196.67,-256.08"/>
<polygon fill="black" stroke="black" points="198.21,-252.93 187.72,-251.47 195.01,-259.16 198.21,-252.93"/>
</g>
<!-- compare_transforms (utility)&#45;&gt;select_report (utility) -->
<g id="edge18" class="edge">
<title>compare_transforms (utility)&#45;&gt;select_report (utility)</title>
<path fill="none" stroke="black" d="M328.45,-288.41C350.4,-278.5 378.46,-265.83 401.73,-255.32"/>
<polygon fill="black" stroke="black" points="403.38,-258.41 411.05,-251.11 400.5,-252.03 403.38,-258.41"/>
</g>
<!-- select_report (utility)&#45;&gt;outputnode (utility) -->
<g id="edge19" class="edge">
<title>select_report (utility)&#45;&gt;outputnode (utility)</title>
<path fill="none" stroke="black" d="M435.74,-215.85C411.68,-178.27 354.22,-88.51 325.96,-44.37"/>
<polygon fill="black" stroke="black" points="328.9,-42.47 320.56,-35.94 323.01,-46.24 328.9,-42.47"/>
</g>
</g>
</svg>
