<?xml version="1.0" encoding="UTF-8" standalone="no"?>
<!DOCTYPE svg PUBLIC "-//W3C//DTD SVG 1.1//EN"
 "http://www.w3.org/Graphics/SVG/1.1/DTD/svg11.dtd">
<!-- Generated by graphviz version 2.43.0 (0)
 -->
<!-- Title: %3 Pages: 1 -->
<svg width="621pt" height="1124pt"
 viewBox="0.00 0.00 620.61 1124.00" xmlns="http://www.w3.org/2000/svg" xmlns:xlink="http://www.w3.org/1999/xlink">
<g id="graph0" class="graph" transform="scale(1 1) rotate(0) translate(4 1120)">
<title>%3</title>
<polygon fill="white" stroke="transparent" points="-4,4 -4,-1120 616.61,-1120 616.61,4 -4,4"/>
<!-- inputnode (utility) -->
<g id="node1" class="node">
<title>inputnode (utility)</title>
<ellipse fill="none" stroke="black" cx="346.61" cy="-1098" rx="94.78" ry="18"/>
<text text-anchor="middle" x="346.61" y="-1094.3" font-family="Times,serif" font-size="14.00">inputnode (utility)</text>
</g>
<!-- check_hdr (header) -->
<g id="node2" class="node">
<title>check_hdr (header)</title>
<ellipse fill="none" stroke="black" cx="441.61" cy="-810" rx="99.38" ry="18"/>
<text text-anchor="middle" x="441.61" y="-806.3" font-family="Times,serif" font-size="14.00">check_hdr (header)</text>
</g>
<!-- inputnode (utility)&#45;&gt;check_hdr (header) -->
<g id="edge1" class="edge">
<title>inputnode (utility)&#45;&gt;check_hdr (header)</title>
<path fill="none" stroke="black" d="M343.33,-1079.76C336.54,-1039.06 324.76,-935.08 365.61,-864 373.09,-850.97 385.24,-840.39 397.65,-832.21"/>
<polygon fill="black" stroke="black" points="399.54,-835.15 406.22,-826.93 395.87,-829.19 399.54,-835.15"/>
</g>
<!-- init_aff (ants) -->
<g id="node3" class="node">
<title>init_aff (ants)</title>
<ellipse fill="none" stroke="black" cx="484.61" cy="-1026" rx="72.29" ry="18"/>
<text text-anchor="middle" x="484.61" y="-1022.3" font-family="Times,serif" font-size="14.00">init_aff (ants)</text>
</g>
<!-- inputnode (utility)&#45;&gt;init_aff (ants) -->
<g id="edge2" class="edge">
<title>inputnode (utility)&#45;&gt;init_aff (ants)</title>
<path fill="none" stroke="black" d="M378.27,-1080.94C398.09,-1070.88 423.8,-1057.84 444.97,-1047.1"/>
<polygon fill="black" stroke="black" points="446.71,-1050.15 454.04,-1042.5 443.54,-1043.91 446.71,-1050.15"/>
</g>
<!-- map_brainmask (fixes) -->
<g id="node4" class="node">
<title>map_brainmask (fixes)</title>
<ellipse fill="none" stroke="black" cx="489.61" cy="-882" rx="115.08" ry="18"/>
<text text-anchor="middle" x="489.61" y="-878.3" font-family="Times,serif" font-size="14.00">map_brainmask (fixes)</text>
</g>
<!-- inputnode (utility)&#45;&gt;map_brainmask (fixes) -->
<g id="edge3" class="edge">
<title>inputnode (utility)&#45;&gt;map_brainmask (fixes)</title>
<path fill="none" stroke="black" d="M425.97,-1088.11C481.31,-1080.09 548.22,-1066.1 565.61,-1044 576.22,-1030.51 571.58,-957.76 559.61,-936 552.75,-923.53 541.58,-913.11 530.17,-904.9"/>
<polygon fill="black" stroke="black" points="532.12,-901.99 521.87,-899.32 528.21,-907.8 532.12,-901.99"/>
</g>
<!-- norm (fixes) -->
<g id="node5" class="node">
<title>norm (fixes)</title>
<ellipse fill="none" stroke="black" cx="484.61" cy="-954" rx="66.09" ry="18"/>
<text text-anchor="middle" x="484.61" y="-950.3" font-family="Times,serif" font-size="14.00">norm (fixes)</text>
</g>
<!-- inputnode (utility)&#45;&gt;norm (fixes) -->
<g id="edge4" class="edge">
<title>inputnode (utility)&#45;&gt;norm (fixes)</title>
<path fill="none" stroke="black" d="M354.84,-1079.76C364.57,-1060.64 382.17,-1029.64 403.61,-1008 416.04,-995.44 431.93,-984.26 446.34,-975.44"/>
<polygon fill="black" stroke="black" points="448.25,-978.37 455.07,-970.26 444.68,-972.35 448.25,-978.37"/>
</g>
<!-- n4_correct (fixes) -->
<g id="node6" class="node">
<title>n4_correct (fixes)</title>
<ellipse fill="none" stroke="black" cx="441.61" cy="-738" rx="90.98" ry="18"/>
<text text-anchor="middle" x="441.61" y="-734.3" font-family="Times,serif" font-size="14.00">n4_correct (fixes)</text>
</g>
<!-- inputnode (utility)&#45;&gt;n4_correct (fixes) -->
<g id="edge5" class="edge">
<title>inputnode (utility)&#45;&gt;n4_correct (fixes)</title>
<path fill="none" stroke="black" d="M338.92,-1079.91C327.81,-1053.62 308.61,-1001.45 308.61,-955 308.61,-955 308.61,-955 308.61,-881 308.61,-839.91 307.32,-823.58 333.61,-792 346.46,-776.55 364.91,-765.23 382.94,-757.11"/>
<polygon fill="black" stroke="black" points="384.44,-760.28 392.29,-753.16 381.72,-753.83 384.44,-760.28"/>
</g>
<!-- fixhdr_unifize (header) -->
<g id="node7" class="node">
<title>fixhdr_unifize (header)</title>
<ellipse fill="none" stroke="black" cx="173.61" cy="-378" rx="115.08" ry="18"/>
<text text-anchor="middle" x="173.61" y="-374.3" font-family="Times,serif" font-size="14.00">fixhdr_unifize (header)</text>
</g>
<!-- inputnode (utility)&#45;&gt;fixhdr_unifize (header) -->
<g id="edge6" class="edge">
<title>inputnode (utility)&#45;&gt;fixhdr_unifize (header)</title>
<path fill="none" stroke="black" d="M309.49,-1081.29C291.78,-1072.37 271.3,-1059.81 256.61,-1044 226.56,-1011.68 212.61,-999.13 212.61,-955 212.61,-955 212.61,-955 212.61,-521 212.61,-479.56 196.97,-433.67 185.5,-405.58"/>
<polygon fill="black" stroke="black" points="188.6,-403.93 181.5,-396.07 182.15,-406.65 188.6,-403.93"/>
</g>
<!-- fixhdr_skullstrip2 (header) -->
<g id="node8" class="node">
<title>fixhdr_skullstrip2 (header)</title>
<ellipse fill="none" stroke="black" cx="331.61" cy="-234" rx="133.78" ry="18"/>
<text text-anchor="middle" x="331.61" y="-230.3" font-family="Times,serif" font-size="14.00">fixhdr_skullstrip2 (header)</text>
</g>
<!-- inputnode (utility)&#45;&gt;fixhdr_skullstrip2 (header) -->
<g id="edge7" class="edge">
<title>inputnode (utility)&#45;&gt;fixhdr_skullstrip2 (header)</title>
<path fill="none" stroke="black" d="M330.49,-1080.19C308.18,-1055.09 270.61,-1005.33 270.61,-955 270.61,-955 270.61,-955 270.61,-593 270.61,-527.78 310.44,-334.18 325.73,-262.28"/>
<polygon fill="black" stroke="black" points="329.22,-262.71 327.88,-252.2 322.37,-261.25 329.22,-262.71"/>
</g>
<!-- check_hdr (header)&#45;&gt;n4_correct (fixes) -->
<g id="edge8" class="edge">
<title>check_hdr (header)&#45;&gt;n4_correct (fixes)</title>
<path fill="none" stroke="black" d="M441.61,-791.7C441.61,-783.98 441.61,-774.71 441.61,-766.11"/>
<polygon fill="black" stroke="black" points="445.11,-766.1 441.61,-756.1 438.11,-766.1 445.11,-766.1"/>
</g>
<!-- init_aff (ants)&#45;&gt;norm (fixes) -->
<g id="edge9" class="edge">
<title>init_aff (ants)&#45;&gt;norm (fixes)</title>
<path fill="none" stroke="black" d="M484.61,-1007.7C484.61,-999.98 484.61,-990.71 484.61,-982.11"/>
<polygon fill="black" stroke="black" points="488.11,-982.1 484.61,-972.1 481.11,-982.1 488.11,-982.1"/>
</g>
<!-- map_brainmask (fixes)&#45;&gt;check_hdr (header) -->
<g id="edge10" class="edge">
<title>map_brainmask (fixes)&#45;&gt;check_hdr (header)</title>
<path fill="none" stroke="black" d="M477.99,-864.05C472.35,-855.84 465.46,-845.79 459.2,-836.66"/>
<polygon fill="black" stroke="black" points="461.99,-834.54 453.45,-828.28 456.22,-838.5 461.99,-834.54"/>
</g>
<!-- norm (fixes)&#45;&gt;map_brainmask (fixes) -->
<g id="edge11" class="edge">
<title>norm (fixes)&#45;&gt;map_brainmask (fixes)</title>
<path fill="none" stroke="black" d="M485.84,-935.7C486.39,-927.98 487.05,-918.71 487.67,-910.11"/>
<polygon fill="black" stroke="black" points="491.16,-910.33 488.38,-900.1 484.18,-909.83 491.16,-910.33"/>
</g>
<!-- skullstrip_first_pass (fsl) -->
<g id="node9" class="node">
<title>skullstrip_first_pass (fsl)</title>
<ellipse fill="none" stroke="black" cx="441.61" cy="-666" rx="124.28" ry="18"/>
<text text-anchor="middle" x="441.61" y="-662.3" font-family="Times,serif" font-size="14.00">skullstrip_first_pass (fsl)</text>
</g>
<!-- n4_correct (fixes)&#45;&gt;skullstrip_first_pass (fsl) -->
<g id="edge12" class="edge">
<title>n4_correct (fixes)&#45;&gt;skullstrip_first_pass (fsl)</title>
<path fill="none" stroke="black" d="M441.61,-719.7C441.61,-711.98 441.61,-702.71 441.61,-694.11"/>
<polygon fill="black" stroke="black" points="445.11,-694.1 441.61,-684.1 438.11,-694.1 445.11,-694.1"/>
</g>
<!-- outputnode (utility) -->
<g id="node10" class="node">
<title>outputnode (utility)</title>
<ellipse fill="none" stroke="black" cx="474.61" cy="-18" rx="101.28" ry="18"/>
<text text-anchor="middle" x="474.61" y="-14.3" font-family="Times,serif" font-size="14.00">outputnode (utility)</text>
</g>
<!-- n4_correct (fixes)&#45;&gt;outputnode (utility) -->
<g id="edge13" class="edge">
<title>n4_correct (fixes)&#45;&gt;outputnode (utility)</title>
<path fill="none" stroke="black" d="M500.92,-724.23C526.23,-716.24 554.5,-703.62 574.61,-684 605.39,-653.96 612.61,-638.01 612.61,-595 612.61,-595 612.61,-595 612.61,-161 612.61,-105.55 557.82,-63.6 517.29,-40.15"/>
<polygon fill="black" stroke="black" points="518.8,-36.99 508.36,-35.15 515.38,-43.1 518.8,-36.99"/>
</g>
<!-- skullstrip_second_pass (afni) -->
<g id="node11" class="node">
<title>skullstrip_second_pass (afni)</title>
<ellipse fill="none" stroke="black" cx="159.61" cy="-306" rx="143.77" ry="18"/>
<text text-anchor="middle" x="159.61" y="-302.3" font-family="Times,serif" font-size="14.00">skullstrip_second_pass (afni)</text>
</g>
<!-- fixhdr_unifize (header)&#45;&gt;skullstrip_second_pass (afni) -->
<g id="edge14" class="edge">
<title>fixhdr_unifize (header)&#45;&gt;skullstrip_second_pass (afni)</title>
<path fill="none" stroke="black" d="M170.14,-359.7C168.6,-351.98 166.75,-342.71 165.03,-334.11"/>
<polygon fill="black" stroke="black" points="168.42,-333.22 163.03,-324.1 161.56,-334.6 168.42,-333.22"/>
</g>
<!-- apply_mask (nibabel) -->
<g id="node12" class="node">
<title>apply_mask (nibabel)</title>
<ellipse fill="none" stroke="black" cx="337.61" cy="-90" rx="108.58" ry="18"/>
<text text-anchor="middle" x="337.61" y="-86.3" font-family="Times,serif" font-size="14.00">apply_mask (nibabel)</text>
</g>
<!-- fixhdr_unifize (header)&#45;&gt;apply_mask (nibabel) -->
<g id="edge15" class="edge">
<title>fixhdr_unifize (header)&#45;&gt;apply_mask (nibabel)</title>
<path fill="none" stroke="black" d="M77.9,-367.91C50.49,-360.35 23.49,-347.07 6.61,-324 -2.84,-311.09 -1.3,-301.91 6.61,-288 63.34,-188.21 192.82,-133.67 271.97,-108.56"/>
<polygon fill="black" stroke="black" points="273.33,-111.81 281.84,-105.5 271.25,-105.12 273.33,-111.81"/>
</g>
<!-- combine_masks (fsl) -->
<g id="node13" class="node">
<title>combine_masks (fsl)</title>
<ellipse fill="none" stroke="black" cx="405.61" cy="-162" rx="104.78" ry="18"/>
<text text-anchor="middle" x="405.61" y="-158.3" font-family="Times,serif" font-size="14.00">combine_masks (fsl)</text>
</g>
<!-- fixhdr_skullstrip2 (header)&#45;&gt;combine_masks (fsl) -->
<g id="edge16" class="edge">
<title>fixhdr_skullstrip2 (header)&#45;&gt;combine_masks (fsl)</title>
<path fill="none" stroke="black" d="M349.52,-216.05C358.79,-207.28 370.26,-196.43 380.41,-186.83"/>
<polygon fill="black" stroke="black" points="383,-189.2 387.86,-179.79 378.19,-184.12 383,-189.2"/>
</g>
<!-- skullstrip_first_pass (fsl)&#45;&gt;combine_masks (fsl) -->
<g id="edge19" class="edge">
<title>skullstrip_first_pass (fsl)&#45;&gt;combine_masks (fsl)</title>
<path fill="none" stroke="black" d="M499.19,-650.02C519.78,-641.94 541.39,-629.84 555.61,-612 580.82,-580.37 574.61,-563.45 574.61,-523 574.61,-523 574.61,-523 574.61,-305 574.61,-243.98 509.22,-203.93 459.79,-182.37"/>
<polygon fill="black" stroke="black" points="461.02,-179.09 450.45,-178.43 458.3,-185.54 461.02,-179.09"/>
</g>
<!-- first_dilate (nibabel) -->
<g id="node14" class="node">
<title>first_dilate (nibabel)</title>
<ellipse fill="none" stroke="black" cx="441.61" cy="-594" rx="104.78" ry="18"/>
<text text-anchor="middle" x="441.61" y="-590.3" font-family="Times,serif" font-size="14.00">first_dilate (nibabel)</text>
</g>
<!-- skullstrip_first_pass (fsl)&#45;&gt;first_dilate (nibabel) -->
<g id="edge17" class="edge">
<title>skullstrip_first_pass (fsl)&#45;&gt;first_dilate (nibabel)</title>
<path fill="none" stroke="black" d="M441.61,-647.7C441.61,-639.98 441.61,-630.71 441.61,-622.11"/>
<polygon fill="black" stroke="black" points="445.11,-622.1 441.61,-612.1 438.11,-622.1 445.11,-622.1"/>
</g>
<!-- first_mask (nibabel) -->
<g id="node15" class="node">
<title>first_mask (nibabel)</title>
<ellipse fill="none" stroke="black" cx="401.61" cy="-522" rx="102.88" ry="18"/>
<text text-anchor="middle" x="401.61" y="-518.3" font-family="Times,serif" font-size="14.00">first_mask (nibabel)</text>
</g>
<!-- skullstrip_first_pass (fsl)&#45;&gt;first_mask (nibabel) -->
<g id="edge18" class="edge">
<title>skullstrip_first_pass (fsl)&#45;&gt;first_mask (nibabel)</title>
<path fill="none" stroke="black" d="M378.98,-650.32C359.11,-642.39 339.28,-630.31 327.61,-612 319,-598.51 320.29,-590.23 327.61,-576 334.23,-563.11 345.61,-552.65 357.48,-544.53"/>
<polygon fill="black" stroke="black" points="359.58,-547.35 366.16,-539.04 355.84,-541.43 359.58,-547.35"/>
</g>
<!-- skullstrip_second_pass (afni)&#45;&gt;fixhdr_skullstrip2 (header) -->
<g id="edge20" class="edge">
<title>skullstrip_second_pass (afni)&#45;&gt;fixhdr_skullstrip2 (header)</title>
<path fill="none" stroke="black" d="M199.93,-288.59C224.6,-278.55 256.34,-265.63 282.48,-254.99"/>
<polygon fill="black" stroke="black" points="283.89,-258.2 291.83,-251.19 281.25,-251.72 283.89,-258.2"/>
</g>
<!-- apply_mask (nibabel)&#45;&gt;outputnode (utility) -->
<g id="edge21" class="edge">
<title>apply_mask (nibabel)&#45;&gt;outputnode (utility)</title>
<path fill="none" stroke="black" d="M369.38,-72.76C388.57,-62.96 413.23,-50.36 433.85,-39.83"/>
<polygon fill="black" stroke="black" points="435.69,-42.81 443,-35.15 432.51,-36.58 435.69,-42.81"/>
</g>
<!-- combine_masks (fsl)&#45;&gt;outputnode (utility) -->
<g id="edge23" class="edge">
<title>combine_masks (fsl)&#45;&gt;outputnode (utility)</title>
<path fill="none" stroke="black" d="M425.96,-144.34C436.36,-134.76 448.32,-121.89 455.61,-108 465.67,-88.82 470.4,-64.66 472.63,-46.35"/>
<polygon fill="black" stroke="black" points="476.12,-46.64 473.67,-36.33 469.16,-45.92 476.12,-46.64"/>
</g>
<!-- combine_masks (fsl)&#45;&gt;apply_mask (nibabel) -->
<g id="edge22" class="edge">
<title>combine_masks (fsl)&#45;&gt;apply_mask (nibabel)</title>
<path fill="none" stroke="black" d="M389.14,-144.05C380.83,-135.5 370.59,-124.96 361.44,-115.54"/>
<polygon fill="black" stroke="black" points="363.87,-113.01 354.39,-108.28 358.84,-117.89 363.87,-113.01"/>
</g>
<!-- first_dilate (nibabel)&#45;&gt;first_mask (nibabel) -->
<g id="edge24" class="edge">
<title>first_dilate (nibabel)&#45;&gt;first_mask (nibabel)</title>
<path fill="none" stroke="black" d="M431.92,-576.05C427.32,-568.01 421.72,-558.2 416.59,-549.23"/>
<polygon fill="black" stroke="black" points="419.48,-547.22 411.48,-540.28 413.4,-550.69 419.48,-547.22"/>
</g>
<!-- unifize (afni) -->
<g id="node16" class="node">
<title>unifize (afni)</title>
<ellipse fill="none" stroke="black" cx="384.61" cy="-450" rx="68.79" ry="18"/>
<text text-anchor="middle" x="384.61" y="-446.3" font-family="Times,serif" font-size="14.00">unifize (afni)</text>
</g>
<!-- first_mask (nibabel)&#45;&gt;unifize (afni) -->
<g id="edge25" class="edge">
<title>first_mask (nibabel)&#45;&gt;unifize (afni)</title>
<path fill="none" stroke="black" d="M397.4,-503.7C395.51,-495.9 393.23,-486.51 391.12,-477.83"/>
<polygon fill="black" stroke="black" points="394.52,-477 388.76,-468.1 387.72,-478.65 394.52,-477"/>
</g>
<!-- unifize (afni)&#45;&gt;fixhdr_unifize (header) -->
<g id="edge26" class="edge">
<title>unifize (afni)&#45;&gt;fixhdr_unifize (header)</title>
<path fill="none" stroke="black" d="M343.67,-435.42C311.36,-424.7 265.91,-409.62 230.12,-397.75"/>
<polygon fill="black" stroke="black" points="230.9,-394.32 220.31,-394.49 228.69,-400.96 230.9,-394.32"/>
</g>
</g>
</svg>
