<?xml version="1.0" encoding="UTF-8" standalone="no"?>
<!DOCTYPE svg PUBLIC "-//W3C//DTD SVG 1.1//EN"
 "http://www.w3.org/Graphics/SVG/1.1/DTD/svg11.dtd">
<!-- Generated by graphviz version 2.40.1 (20161225.0304)
 -->
<!-- Title: %3 Pages: 1 -->
<svg width="679pt" height="1268pt"
 viewBox="0.00 0.00 679.35 1268.00" xmlns="http://www.w3.org/2000/svg" xmlns:xlink="http://www.w3.org/1999/xlink">
<g id="graph0" class="graph" transform="scale(1 1) rotate(0) translate(4 1264)">
<title>%3</title>
<polygon fill="#ffffff" stroke="transparent" points="-4,4 -4,-1264 675.3545,-1264 675.3545,4 -4,4"/>
<!-- inputnode (utility) -->
<g id="node1" class="node">
<title>inputnode (utility)</title>
<ellipse fill="none" stroke="#000000" cx="335.9635" cy="-1242" rx="94.7833" ry="18"/>
<text text-anchor="middle" x="335.9635" y="-1238.3" font-family="Times,serif" font-size="14.00" fill="#000000">inputnode (utility)</text>
</g>
<!-- init_aff (ants) -->
<g id="node2" class="node">
<title>init_aff (ants)</title>
<ellipse fill="none" stroke="#000000" cx="474.9635" cy="-1170" rx="73.387" ry="18"/>
<text text-anchor="middle" x="474.9635" y="-1166.3" font-family="Times,serif" font-size="14.00" fill="#000000">init_aff (ants)</text>
</g>
<!-- inputnode (utility)&#45;&gt;init_aff (ants) -->
<g id="edge1" class="edge">
<title>inputnode (utility)&#45;&gt;init_aff (ants)</title>
<path fill="none" stroke="#000000" d="M368.9046,-1224.937C388.4858,-1214.7942 413.4795,-1201.8478 434.2853,-1191.0707"/>
<polygon fill="#000000" stroke="#000000" points="435.946,-1194.1522 443.2157,-1186.4449 432.7264,-1187.9366 435.946,-1194.1522"/>
</g>
<!-- map_brainmask (fixes) -->
<g id="node3" class="node">
<title>map_brainmask (fixes)</title>
<ellipse fill="none" stroke="#000000" cx="485.9635" cy="-1026" rx="116.1796" ry="18"/>
<text text-anchor="middle" x="485.9635" y="-1022.3" font-family="Times,serif" font-size="14.00" fill="#000000">map_brainmask (fixes)</text>
</g>
<!-- inputnode (utility)&#45;&gt;map_brainmask (fixes) -->
<g id="edge2" class="edge">
<title>inputnode (utility)&#45;&gt;map_brainmask (fixes)</title>
<path fill="none" stroke="#000000" d="M417.2275,-1232.6648C472.8443,-1224.4093 539.5554,-1210.1739 556.9635,-1188 567.378,-1174.7344 562.536,-1102.2093 550.9635,-1080 544.8118,-1068.1939 534.8543,-1057.9727 524.5621,-1049.6962"/>
<polygon fill="#000000" stroke="#000000" points="526.3977,-1046.6973 516.3024,-1043.4823 522.1894,-1052.2911 526.3977,-1046.6973"/>
</g>
<!-- norm (fixes) -->
<g id="node4" class="node">
<title>norm (fixes)</title>
<ellipse fill="none" stroke="#000000" cx="474.9635" cy="-1098" rx="66.8882" ry="18"/>
<text text-anchor="middle" x="474.9635" y="-1094.3" font-family="Times,serif" font-size="14.00" fill="#000000">norm (fixes)</text>
</g>
<!-- inputnode (utility)&#45;&gt;norm (fixes) -->
<g id="edge3" class="edge">
<title>inputnode (utility)&#45;&gt;norm (fixes)</title>
<path fill="none" stroke="#000000" d="M344.5213,-1223.8674C354.2927,-1204.4882 371.7072,-1173.6378 392.9635,-1152 405.329,-1139.4126 421.1017,-1128.1756 435.5044,-1119.2549"/>
<polygon fill="#000000" stroke="#000000" points="437.4766,-1122.1534 444.2524,-1114.0085 433.8763,-1116.1502 437.4766,-1122.1534"/>
</g>
<!-- check_hdr (header) -->
<g id="node5" class="node">
<title>check_hdr (header)</title>
<ellipse fill="none" stroke="#000000" cx="457.9635" cy="-810" rx="101.2821" ry="18"/>
<text text-anchor="middle" x="457.9635" y="-806.3" font-family="Times,serif" font-size="14.00" fill="#000000">check_hdr (header)</text>
</g>
<!-- inputnode (utility)&#45;&gt;check_hdr (header) -->
<g id="edge4" class="edge">
<title>inputnode (utility)&#45;&gt;check_hdr (header)</title>
<path fill="none" stroke="#000000" d="M335.9635,-1223.8146C335.9635,-1196.4983 335.9635,-1143.25 335.9635,-1098 335.9635,-1098 335.9635,-1098 335.9635,-954 335.9635,-912.4855 335.2851,-896.6201 360.9635,-864 372.0256,-849.9475 387.812,-838.9876 403.4447,-830.7246"/>
<polygon fill="#000000" stroke="#000000" points="405.2032,-833.7589 412.5944,-826.1681 402.0827,-827.4929 405.2032,-833.7589"/>
</g>
<!-- n4_correct (fixes) -->
<g id="node6" class="node">
<title>n4_correct (fixes)</title>
<ellipse fill="none" stroke="#000000" cx="457.9635" cy="-738" rx="92.8835" ry="18"/>
<text text-anchor="middle" x="457.9635" y="-734.3" font-family="Times,serif" font-size="14.00" fill="#000000">n4_correct (fixes)</text>
</g>
<!-- inputnode (utility)&#45;&gt;n4_correct (fixes) -->
<g id="edge5" class="edge">
<title>inputnode (utility)&#45;&gt;n4_correct (fixes)</title>
<path fill="none" stroke="#000000" d="M327.9047,-1223.7668C316.7501,-1196.8248 297.9635,-1144.5405 297.9635,-1098 297.9635,-1098 297.9635,-1098 297.9635,-882 297.9635,-836.2416 314.7969,-823.5247 347.9635,-792 363.1995,-777.5182 383.0609,-766.1711 401.7075,-757.6962"/>
<polygon fill="#000000" stroke="#000000" points="403.2507,-760.8418 411.0264,-753.6453 400.46,-754.4221 403.2507,-760.8418"/>
</g>
<!-- fixhdr_unifize (header) -->
<g id="node7" class="node">
<title>fixhdr_unifize (header)</title>
<ellipse fill="none" stroke="#000000" cx="176.9635" cy="-378" rx="116.1796" ry="18"/>
<text text-anchor="middle" x="176.9635" y="-374.3" font-family="Times,serif" font-size="14.00" fill="#000000">fixhdr_unifize (header)</text>
</g>
<!-- inputnode (utility)&#45;&gt;fixhdr_unifize (header) -->
<g id="edge6" class="edge">
<title>inputnode (utility)&#45;&gt;fixhdr_unifize (header)</title>
<path fill="none" stroke="#000000" d="M297.1538,-1225.4765C279.6805,-1216.4737 259.8954,-1203.8961 245.9635,-1188 217.23,-1155.2154 206.9635,-1141.5941 206.9635,-1098 206.9635,-1098 206.9635,-1098 206.9635,-522 206.9635,-481.0614 195.1989,-434.926 186.4042,-406.1567"/>
<polygon fill="#000000" stroke="#000000" points="189.6689,-404.8712 183.3257,-396.385 182.9924,-406.9746 189.6689,-404.8712"/>
</g>
<!-- fixhdr_skullstrip2 (header) -->
<g id="node8" class="node">
<title>fixhdr_skullstrip2 (header)</title>
<ellipse fill="none" stroke="#000000" cx="335.9635" cy="-234" rx="135.6761" ry="18"/>
<text text-anchor="middle" x="335.9635" y="-230.3" font-family="Times,serif" font-size="14.00" fill="#000000">fixhdr_skullstrip2 (header)</text>
</g>
<!-- inputnode (utility)&#45;&gt;fixhdr_skullstrip2 (header) -->
<g id="edge7" class="edge">
<title>inputnode (utility)&#45;&gt;fixhdr_skullstrip2 (header)</title>
<path fill="none" stroke="#000000" d="M319.0967,-1224.0553C296.7064,-1198.2804 259.9635,-1148.3175 259.9635,-1098 259.9635,-1098 259.9635,-1098 259.9635,-594 259.9635,-592.636 298.5649,-412.0751 301.9635,-396 311.8436,-349.2677 323.2266,-294.9288 329.996,-262.5602"/>
<polygon fill="#000000" stroke="#000000" points="333.4854,-262.9727 332.106,-252.468 326.6335,-261.5401 333.4854,-262.9727"/>
</g>
<!-- init_aff (ants)&#45;&gt;norm (fixes) -->
<g id="edge8" class="edge">
<title>init_aff (ants)&#45;&gt;norm (fixes)</title>
<path fill="none" stroke="#000000" d="M474.9635,-1151.8314C474.9635,-1144.131 474.9635,-1134.9743 474.9635,-1126.4166"/>
<polygon fill="#000000" stroke="#000000" points="478.4636,-1126.4132 474.9635,-1116.4133 471.4636,-1126.4133 478.4636,-1126.4132"/>
</g>
<!-- binarize_mask (nibabel) -->
<g id="node9" class="node">
<title>binarize_mask (nibabel)</title>
<ellipse fill="none" stroke="#000000" cx="485.9635" cy="-954" rx="122.3786" ry="18"/>
<text text-anchor="middle" x="485.9635" y="-950.3" font-family="Times,serif" font-size="14.00" fill="#000000">binarize_mask (nibabel)</text>
</g>
<!-- map_brainmask (fixes)&#45;&gt;binarize_mask (nibabel) -->
<g id="edge9" class="edge">
<title>map_brainmask (fixes)&#45;&gt;binarize_mask (nibabel)</title>
<path fill="none" stroke="#000000" d="M485.9635,-1007.8314C485.9635,-1000.131 485.9635,-990.9743 485.9635,-982.4166"/>
<polygon fill="#000000" stroke="#000000" points="489.4636,-982.4132 485.9635,-972.4133 482.4636,-982.4133 489.4636,-982.4132"/>
</g>
<!-- norm (fixes)&#45;&gt;map_brainmask (fixes) -->
<g id="edge10" class="edge">
<title>norm (fixes)&#45;&gt;map_brainmask (fixes)</title>
<path fill="none" stroke="#000000" d="M477.7393,-1079.8314C478.9157,-1072.131 480.3147,-1062.9743 481.6221,-1054.4166"/>
<polygon fill="#000000" stroke="#000000" points="485.0999,-1054.8272 483.1504,-1044.4133 478.1802,-1053.7699 485.0999,-1054.8272"/>
</g>
<!-- check_hdr (header)&#45;&gt;n4_correct (fixes) -->
<g id="edge11" class="edge">
<title>check_hdr (header)&#45;&gt;n4_correct (fixes)</title>
<path fill="none" stroke="#000000" d="M457.9635,-791.8314C457.9635,-784.131 457.9635,-774.9743 457.9635,-766.4166"/>
<polygon fill="#000000" stroke="#000000" points="461.4636,-766.4132 457.9635,-756.4133 454.4636,-766.4133 461.4636,-766.4132"/>
</g>
<!-- skullstrip_first_pass (fsl) -->
<g id="node11" class="node">
<title>skullstrip_first_pass (fsl)</title>
<ellipse fill="none" stroke="#000000" cx="457.9635" cy="-666" rx="126.1777" ry="18"/>
<text text-anchor="middle" x="457.9635" y="-662.3" font-family="Times,serif" font-size="14.00" fill="#000000">skullstrip_first_pass (fsl)</text>
</g>
<!-- n4_correct (fixes)&#45;&gt;skullstrip_first_pass (fsl) -->
<g id="edge12" class="edge">
<title>n4_correct (fixes)&#45;&gt;skullstrip_first_pass (fsl)</title>
<path fill="none" stroke="#000000" d="M457.9635,-719.8314C457.9635,-712.131 457.9635,-702.9743 457.9635,-694.4166"/>
<polygon fill="#000000" stroke="#000000" points="461.4636,-694.4132 457.9635,-684.4133 454.4636,-694.4133 461.4636,-694.4132"/>
</g>
<!-- outputnode (utility) -->
<g id="node12" class="node">
<title>outputnode (utility)</title>
<ellipse fill="none" stroke="#000000" cx="569.9635" cy="-18" rx="101.2821" ry="18"/>
<text text-anchor="middle" x="569.9635" y="-14.3" font-family="Times,serif" font-size="14.00" fill="#000000">outputnode (utility)</text>
</g>
<!-- n4_correct (fixes)&#45;&gt;outputnode (utility) -->
<g id="edge13" class="edge">
<title>n4_correct (fixes)&#45;&gt;outputnode (utility)</title>
<path fill="none" stroke="#000000" d="M513.3808,-723.5405C571.9562,-704.5159 655.9635,-664.8764 655.9635,-594 655.9635,-594 655.9635,-594 655.9635,-162 655.9635,-115.0898 621.9073,-70.1952 596.6571,-43.356"/>
<polygon fill="#000000" stroke="#000000" points="598.9519,-40.6947 589.4782,-35.9511 593.926,-45.5672 598.9519,-40.6947"/>
</g>
<!-- skullstrip_second_pass (afni) -->
<g id="node13" class="node">
<title>skullstrip_second_pass (afni)</title>
<ellipse fill="none" stroke="#000000" cx="161.9635" cy="-306" rx="145.6742" ry="18"/>
<text text-anchor="middle" x="161.9635" y="-302.3" font-family="Times,serif" font-size="14.00" fill="#000000">skullstrip_second_pass (afni)</text>
</g>
<!-- fixhdr_unifize (header)&#45;&gt;skullstrip_second_pass (afni) -->
<g id="edge14" class="edge">
<title>fixhdr_unifize (header)&#45;&gt;skullstrip_second_pass (afni)</title>
<path fill="none" stroke="#000000" d="M173.1784,-359.8314C171.5741,-352.131 169.6665,-342.9743 167.8836,-334.4166"/>
<polygon fill="#000000" stroke="#000000" points="171.2657,-333.4892 165.7996,-324.4133 164.4128,-334.9169 171.2657,-333.4892"/>
</g>
<!-- apply_mask (fsl) -->
<g id="node14" class="node">
<title>apply_mask (fsl)</title>
<ellipse fill="none" stroke="#000000" cx="454.9635" cy="-90" rx="87.1846" ry="18"/>
<text text-anchor="middle" x="454.9635" y="-86.3" font-family="Times,serif" font-size="14.00" fill="#000000">apply_mask (fsl)</text>
</g>
<!-- fixhdr_unifize (header)&#45;&gt;apply_mask (fsl) -->
<g id="edge15" class="edge">
<title>fixhdr_unifize (header)&#45;&gt;apply_mask (fsl)</title>
<path fill="none" stroke="#000000" d="M95.3215,-365.1236C39.5912,-352.4627 -19.6924,-328.9242 6.9635,-288 86.8808,-165.3049 261.9812,-118.0851 368.0593,-100.3178"/>
<polygon fill="#000000" stroke="#000000" points="368.7932,-103.7446 378.1039,-98.6888 367.6725,-96.8349 368.7932,-103.7446"/>
</g>
<!-- combine_masks (fsl) -->
<g id="node15" class="node">
<title>combine_masks (fsl)</title>
<ellipse fill="none" stroke="#000000" cx="488.9635" cy="-162" rx="105.8812" ry="18"/>
<text text-anchor="middle" x="488.9635" y="-158.3" font-family="Times,serif" font-size="14.00" fill="#000000">combine_masks (fsl)</text>
</g>
<!-- fixhdr_skullstrip2 (header)&#45;&gt;combine_masks (fsl) -->
<g id="edge16" class="edge">
<title>fixhdr_skullstrip2 (header)&#45;&gt;combine_masks (fsl)</title>
<path fill="none" stroke="#000000" d="M373.0005,-216.5708C394.2038,-206.5928 420.9768,-193.9937 443.4541,-183.4162"/>
<polygon fill="#000000" stroke="#000000" points="445.2376,-186.4451 452.7955,-179.0202 442.257,-180.1114 445.2376,-186.4451"/>
</g>
<!-- pre_mask_dilate (fsl) -->
<g id="node10" class="node">
<title>pre_mask_dilate (fsl)</title>
<ellipse fill="none" stroke="#000000" cx="478.9635" cy="-882" rx="108.5808" ry="18"/>
<text text-anchor="middle" x="478.9635" y="-878.3" font-family="Times,serif" font-size="14.00" fill="#000000">pre_mask_dilate (fsl)</text>
</g>
<!-- binarize_mask (nibabel)&#45;&gt;pre_mask_dilate (fsl) -->
<g id="edge17" class="edge">
<title>binarize_mask (nibabel)&#45;&gt;pre_mask_dilate (fsl)</title>
<path fill="none" stroke="#000000" d="M484.1971,-935.8314C483.4485,-928.131 482.5582,-918.9743 481.7262,-910.4166"/>
<polygon fill="#000000" stroke="#000000" points="485.205,-910.0276 480.7537,-900.4133 478.2379,-910.7051 485.205,-910.0276"/>
</g>
<!-- pre_mask_dilate (fsl)&#45;&gt;check_hdr (header) -->
<g id="edge18" class="edge">
<title>pre_mask_dilate (fsl)&#45;&gt;check_hdr (header)</title>
<path fill="none" stroke="#000000" d="M473.6643,-863.8314C471.3937,-856.0463 468.689,-846.7729 466.1695,-838.1347"/>
<polygon fill="#000000" stroke="#000000" points="469.4941,-837.0332 463.3341,-828.4133 462.7741,-838.9933 469.4941,-837.0332"/>
</g>
<!-- skullstrip_first_pass (fsl)&#45;&gt;combine_masks (fsl) -->
<g id="edge21" class="edge">
<title>skullstrip_first_pass (fsl)&#45;&gt;combine_masks (fsl)</title>
<path fill="none" stroke="#000000" d="M534.8378,-651.6405C558.4646,-643.6478 582.5413,-631.2399 598.9635,-612 625.5045,-580.9052 617.9635,-562.8816 617.9635,-522 617.9635,-522 617.9635,-522 617.9635,-306 617.9635,-252.2431 567.472,-209.3869 529.6665,-184.8328"/>
<polygon fill="#000000" stroke="#000000" points="531.1787,-181.649 520.8512,-179.284 527.4498,-187.5732 531.1787,-181.649"/>
</g>
<!-- skullstrip_first_dilate (fsl) -->
<g id="node16" class="node">
<title>skullstrip_first_dilate (fsl)</title>
<ellipse fill="none" stroke="#000000" cx="457.9635" cy="-594" rx="131.8766" ry="18"/>
<text text-anchor="middle" x="457.9635" y="-590.3" font-family="Times,serif" font-size="14.00" fill="#000000">skullstrip_first_dilate (fsl)</text>
</g>
<!-- skullstrip_first_pass (fsl)&#45;&gt;skullstrip_first_dilate (fsl) -->
<g id="edge19" class="edge">
<title>skullstrip_first_pass (fsl)&#45;&gt;skullstrip_first_dilate (fsl)</title>
<path fill="none" stroke="#000000" d="M457.9635,-647.8314C457.9635,-640.131 457.9635,-630.9743 457.9635,-622.4166"/>
<polygon fill="#000000" stroke="#000000" points="461.4636,-622.4132 457.9635,-612.4133 454.4636,-622.4133 461.4636,-622.4132"/>
</g>
<!-- skullstrip_first_mask (fsl) -->
<g id="node17" class="node">
<title>skullstrip_first_mask (fsl)</title>
<ellipse fill="none" stroke="#000000" cx="417.9635" cy="-522" rx="129.9769" ry="18"/>
<text text-anchor="middle" x="417.9635" y="-518.3" font-family="Times,serif" font-size="14.00" fill="#000000">skullstrip_first_mask (fsl)</text>
</g>
<!-- skullstrip_first_pass (fsl)&#45;&gt;skullstrip_first_mask (fsl) -->
<g id="edge20" class="edge">
<title>skullstrip_first_pass (fsl)&#45;&gt;skullstrip_first_mask (fsl)</title>
<path fill="none" stroke="#000000" d="M397.2849,-650.1827C363.668,-640.0602 326.731,-626.2001 316.9635,-612 307.8959,-598.8175 308.7386,-589.7241 316.9635,-576 325.555,-561.6642 339.393,-550.9209 354.1062,-542.9564"/>
<polygon fill="#000000" stroke="#000000" points="355.9554,-545.9453 363.3412,-538.3492 352.8305,-539.6815 355.9554,-545.9453"/>
</g>
<!-- skullstrip_second_pass (afni)&#45;&gt;fixhdr_skullstrip2 (header) -->
<g id="edge22" class="edge">
<title>skullstrip_second_pass (afni)&#45;&gt;fixhdr_skullstrip2 (header)</title>
<path fill="none" stroke="#000000" d="M204.0841,-288.5708C228.5386,-278.4517 259.5078,-265.6369 285.2893,-254.9686"/>
<polygon fill="#000000" stroke="#000000" points="286.6295,-258.202 294.5314,-251.1443 283.953,-251.7338 286.6295,-258.202"/>
</g>
<!-- apply_mask (fsl)&#45;&gt;outputnode (utility) -->
<g id="edge23" class="edge">
<title>apply_mask (fsl)&#45;&gt;outputnode (utility)</title>
<path fill="none" stroke="#000000" d="M482.5089,-72.7542C497.7589,-63.2064 516.9089,-51.2168 533.3987,-40.8927"/>
<polygon fill="#000000" stroke="#000000" points="535.6258,-43.6278 542.2443,-35.3546 531.9112,-37.6947 535.6258,-43.6278"/>
</g>
<!-- combine_masks (fsl)&#45;&gt;outputnode (utility) -->
<g id="edge25" class="edge">
<title>combine_masks (fsl)&#45;&gt;outputnode (utility)</title>
<path fill="none" stroke="#000000" d="M516.1513,-144.5029C528.5925,-135.1305 542.4318,-122.5229 550.9635,-108 561.9854,-89.2384 566.657,-64.952 568.6158,-46.3372"/>
<polygon fill="#000000" stroke="#000000" points="572.1249,-46.3772 569.4831,-36.117 565.1499,-45.7852 572.1249,-46.3772"/>
</g>
<!-- combine_masks (fsl)&#45;&gt;apply_mask (fsl) -->
<g id="edge24" class="edge">
<title>combine_masks (fsl)&#45;&gt;apply_mask (fsl)</title>
<path fill="none" stroke="#000000" d="M480.3839,-143.8314C476.6277,-135.8771 472.1378,-126.369 467.9838,-117.5723"/>
<polygon fill="#000000" stroke="#000000" points="471.0937,-115.9612 463.6587,-108.4133 464.7639,-118.9503 471.0937,-115.9612"/>
</g>
<!-- skullstrip_first_dilate (fsl)&#45;&gt;skullstrip_first_mask (fsl) -->
<g id="edge26" class="edge">
<title>skullstrip_first_dilate (fsl)&#45;&gt;skullstrip_first_mask (fsl)</title>
<path fill="none" stroke="#000000" d="M447.8698,-575.8314C443.4038,-567.7925 438.056,-558.1666 433.1256,-549.2918"/>
<polygon fill="#000000" stroke="#000000" points="436.1091,-547.4551 428.1931,-540.4133 429.99,-550.8546 436.1091,-547.4551"/>
</g>
<!-- unifize (afni) -->
<g id="node18" class="node">
<title>unifize (afni)</title>
<ellipse fill="none" stroke="#000000" cx="387.9635" cy="-450" rx="69.5877" ry="18"/>
<text text-anchor="middle" x="387.9635" y="-446.3" font-family="Times,serif" font-size="14.00" fill="#000000">unifize (afni)</text>
</g>
<!-- skullstrip_first_mask (fsl)&#45;&gt;unifize (afni) -->
<g id="edge27" class="edge">
<title>skullstrip_first_mask (fsl)&#45;&gt;unifize (afni)</title>
<path fill="none" stroke="#000000" d="M410.3932,-503.8314C407.028,-495.7547 402.9952,-486.0761 399.283,-477.1668"/>
<polygon fill="#000000" stroke="#000000" points="402.5044,-475.798 395.4274,-467.9134 396.0429,-478.4904 402.5044,-475.798"/>
</g>
<!-- unifize (afni)&#45;&gt;fixhdr_unifize (header) -->
<g id="edge28" class="edge">
<title>unifize (afni)&#45;&gt;fixhdr_unifize (header)</title>
<path fill="none" stroke="#000000" d="M345.7716,-435.6028C314.0022,-424.762 270.0787,-409.7739 234.9998,-397.8038"/>
<polygon fill="#000000" stroke="#000000" points="235.9522,-394.4308 225.3577,-394.5137 233.6916,-401.0557 235.9522,-394.4308"/>
</g>
</g>
</svg>
