<?xml version="1.0" encoding="UTF-8" standalone="no"?>
<!DOCTYPE svg PUBLIC "-//W3C//DTD SVG 1.1//EN"
 "http://www.w3.org/Graphics/SVG/1.1/DTD/svg11.dtd">
<!-- Generated by graphviz version 2.40.1 (20161225.0304)
 -->
<!-- Title: %3 Pages: 1 -->
<svg width="514pt" height="404pt"
 viewBox="0.00 0.00 513.88 404.00" xmlns="http://www.w3.org/2000/svg" xmlns:xlink="http://www.w3.org/1999/xlink">
<g id="graph0" class="graph" transform="scale(1 1) rotate(0) translate(4 400)">
<title>%3</title>
<polygon fill="#ffffff" stroke="transparent" points="-4,4 -4,-400 509.88,-400 509.88,4 -4,4"/>
<!-- inputnode (utility) -->
<g id="node1" class="node">
<title>inputnode (utility)</title>
<ellipse fill="none" stroke="#000000" cx="208.0923" cy="-378" rx="94.7833" ry="18"/>
<text text-anchor="middle" x="208.0923" y="-374.3" font-family="Times,serif" font-size="14.00" fill="#000000">inputnode (utility)</text>
</g>
<!-- skullstrip_first_pass (fsl) -->
<g id="node2" class="node">
<title>skullstrip_first_pass (fsl)</title>
<ellipse fill="none" stroke="#000000" cx="208.0923" cy="-306" rx="126.1777" ry="18"/>
<text text-anchor="middle" x="208.0923" y="-302.3" font-family="Times,serif" font-size="14.00" fill="#000000">skullstrip_first_pass (fsl)</text>
</g>
<!-- inputnode (utility)&#45;&gt;skullstrip_first_pass (fsl) -->
<g id="edge1" class="edge">
<title>inputnode (utility)&#45;&gt;skullstrip_first_pass (fsl)</title>
<path fill="none" stroke="#000000" d="M208.0923,-359.8314C208.0923,-352.131 208.0923,-342.9743 208.0923,-334.4166"/>
<polygon fill="#000000" stroke="#000000" points="211.5924,-334.4132 208.0923,-324.4133 204.5924,-334.4133 211.5924,-334.4132"/>
</g>
<!-- apply_mask (fsl) -->
<g id="node3" class="node">
<title>apply_mask (fsl)</title>
<ellipse fill="none" stroke="#000000" cx="87.0923" cy="-90" rx="87.1846" ry="18"/>
<text text-anchor="middle" x="87.0923" y="-86.3" font-family="Times,serif" font-size="14.00" fill="#000000">apply_mask (fsl)</text>
</g>
<!-- inputnode (utility)&#45;&gt;apply_mask (fsl) -->
<g id="edge2" class="edge">
<title>inputnode (utility)&#45;&gt;apply_mask (fsl)</title>
<path fill="none" stroke="#000000" d="M151.2737,-363.5596C125.5197,-355.0373 95.8201,-342.2619 73.0923,-324 42.9184,-299.7552 35.4859,-288.9926 24.0923,-252 9.0716,-203.2312 41.3836,-148.2056 65.0508,-116.4685"/>
<polygon fill="#000000" stroke="#000000" points="68.1216,-118.2174 71.4504,-108.1591 62.5757,-113.9461 68.1216,-118.2174"/>
</g>
<!-- mask_reportlet (reportlets) -->
<g id="node4" class="node">
<title>mask_reportlet (reportlets)</title>
<ellipse fill="none" stroke="#000000" cx="368.0923" cy="-90" rx="137.5759" ry="18"/>
<text text-anchor="middle" x="368.0923" y="-86.3" font-family="Times,serif" font-size="14.00" fill="#000000">mask_reportlet (reportlets)</text>
</g>
<!-- inputnode (utility)&#45;&gt;mask_reportlet (reportlets) -->
<g id="edge3" class="edge">
<title>inputnode (utility)&#45;&gt;mask_reportlet (reportlets)</title>
<path fill="none" stroke="#000000" d="M277.5405,-365.5908C301.9335,-357.7211 327.1946,-344.8918 343.0923,-324 389.5551,-262.9411 381.3029,-165.5404 373.608,-117.9756"/>
<polygon fill="#000000" stroke="#000000" points="377.0489,-117.333 371.8956,-108.076 370.1514,-118.5263 377.0489,-117.333"/>
</g>
<!-- skullstrip_second_pass (afni) -->
<g id="node5" class="node">
<title>skullstrip_second_pass (afni)</title>
<ellipse fill="none" stroke="#000000" cx="179.0923" cy="-234" rx="145.6742" ry="18"/>
<text text-anchor="middle" x="179.0923" y="-230.3" font-family="Times,serif" font-size="14.00" fill="#000000">skullstrip_second_pass (afni)</text>
</g>
<!-- skullstrip_first_pass (fsl)&#45;&gt;skullstrip_second_pass (afni) -->
<g id="edge4" class="edge">
<title>skullstrip_first_pass (fsl)&#45;&gt;skullstrip_second_pass (afni)</title>
<path fill="none" stroke="#000000" d="M200.7743,-287.8314C197.6046,-279.9617 193.8223,-270.5712 190.311,-261.8533"/>
<polygon fill="#000000" stroke="#000000" points="193.4914,-260.3815 186.5087,-252.4133 186.9983,-262.9968 193.4914,-260.3815"/>
</g>
<!-- combine_masks (fsl) -->
<g id="node6" class="node">
<title>combine_masks (fsl)</title>
<ellipse fill="none" stroke="#000000" cx="202.0923" cy="-162" rx="105.8812" ry="18"/>
<text text-anchor="middle" x="202.0923" y="-158.3" font-family="Times,serif" font-size="14.00" fill="#000000">combine_masks (fsl)</text>
</g>
<!-- skullstrip_first_pass (fsl)&#45;&gt;combine_masks (fsl) -->
<g id="edge5" class="edge">
<title>skullstrip_first_pass (fsl)&#45;&gt;combine_masks (fsl)</title>
<path fill="none" stroke="#000000" d="M280.1475,-291.1867C301.0857,-283.1778 321.646,-270.8752 334.0923,-252 342.9001,-238.6425 343.0105,-229.284 334.0923,-216 322.4099,-198.5987 304.0211,-186.8011 284.6382,-178.8039"/>
<polygon fill="#000000" stroke="#000000" points="285.6595,-175.4481 275.0681,-175.1754 283.1778,-181.9934 285.6595,-175.4481"/>
</g>
<!-- outputnode (utility) -->
<g id="node7" class="node">
<title>outputnode (utility)</title>
<ellipse fill="none" stroke="#000000" cx="202.0923" cy="-18" rx="101.2821" ry="18"/>
<text text-anchor="middle" x="202.0923" y="-14.3" font-family="Times,serif" font-size="14.00" fill="#000000">outputnode (utility)</text>
</g>
<!-- apply_mask (fsl)&#45;&gt;outputnode (utility) -->
<g id="edge6" class="edge">
<title>apply_mask (fsl)&#45;&gt;outputnode (utility)</title>
<path fill="none" stroke="#000000" d="M114.6376,-72.7542C129.8876,-63.2064 149.0377,-51.2168 165.5275,-40.8927"/>
<polygon fill="#000000" stroke="#000000" points="167.7546,-43.6278 174.3731,-35.3546 164.0399,-37.6947 167.7546,-43.6278"/>
</g>
<!-- mask_reportlet (reportlets)&#45;&gt;outputnode (utility) -->
<g id="edge7" class="edge">
<title>mask_reportlet (reportlets)&#45;&gt;outputnode (utility)</title>
<path fill="none" stroke="#000000" d="M328.3311,-72.7542C304.7718,-62.5357 274.7641,-49.5203 249.9169,-38.7432"/>
<polygon fill="#000000" stroke="#000000" points="251.2378,-35.5011 240.6708,-34.7329 248.4523,-41.9231 251.2378,-35.5011"/>
</g>
<!-- skullstrip_second_pass (afni)&#45;&gt;combine_masks (fsl) -->
<g id="edge8" class="edge">
<title>skullstrip_second_pass (afni)&#45;&gt;combine_masks (fsl)</title>
<path fill="none" stroke="#000000" d="M184.8961,-215.8314C187.383,-208.0463 190.3454,-198.7729 193.1048,-190.1347"/>
<polygon fill="#000000" stroke="#000000" points="196.5013,-191.0041 196.2103,-180.4133 189.8332,-188.874 196.5013,-191.0041"/>
</g>
<!-- combine_masks (fsl)&#45;&gt;apply_mask (fsl) -->
<g id="edge10" class="edge">
<title>combine_masks (fsl)&#45;&gt;apply_mask (fsl)</title>
<path fill="none" stroke="#000000" d="M174.254,-144.5708C158.9982,-135.0194 139.9064,-123.0662 123.4827,-112.7836"/>
<polygon fill="#000000" stroke="#000000" points="125.0074,-109.6088 114.6742,-107.2687 121.2927,-115.5419 125.0074,-109.6088"/>
</g>
<!-- combine_masks (fsl)&#45;&gt;mask_reportlet (reportlets) -->
<g id="edge11" class="edge">
<title>combine_masks (fsl)&#45;&gt;mask_reportlet (reportlets)</title>
<path fill="none" stroke="#000000" d="M241.0119,-145.1192C264.2947,-135.0206 294.0967,-122.0945 318.988,-111.2983"/>
<polygon fill="#000000" stroke="#000000" points="320.482,-114.4653 328.2635,-107.2751 317.6966,-108.0434 320.482,-114.4653"/>
</g>
<!-- combine_masks (fsl)&#45;&gt;outputnode (utility) -->
<g id="edge9" class="edge">
<title>combine_masks (fsl)&#45;&gt;outputnode (utility)</title>
<path fill="none" stroke="#000000" d="M202.0923,-143.7623C202.0923,-119.201 202.0923,-75.2474 202.0923,-46.3541"/>
<polygon fill="#000000" stroke="#000000" points="205.5924,-46.0896 202.0923,-36.0896 198.5924,-46.0897 205.5924,-46.0896"/>
</g>
</g>
</svg>
