<?xml version="1.0" encoding="UTF-8" standalone="no"?>
<!DOCTYPE svg PUBLIC "-//W3C//DTD SVG 1.1//EN"
 "http://www.w3.org/Graphics/SVG/1.1/DTD/svg11.dtd">
<!-- Generated by graphviz version 2.40.1 (20161225.0304)
 -->
<!-- Title: %3 Pages: 1 -->
<svg width="696pt" height="332pt"
 viewBox="0.00 0.00 696.37 332.00" xmlns="http://www.w3.org/2000/svg" xmlns:xlink="http://www.w3.org/1999/xlink">
<g id="graph0" class="graph" transform="scale(1 1) rotate(0) translate(4 328)">
<title>%3</title>
<polygon fill="#ffffff" stroke="transparent" points="-4,4 -4,-328 692.366,-328 692.366,4 -4,4"/>
<!-- inputnode (utility) -->
<g id="node1" class="node">
<title>inputnode (utility)</title>
<ellipse fill="none" stroke="#000000" cx="322.5783" cy="-306" rx="94.7833" ry="18"/>
<text text-anchor="middle" x="322.5783" y="-302.3" font-family="Times,serif" font-size="14.00" fill="#000000">inputnode (utility)</text>
</g>
<!-- val_bold (header) -->
<g id="node2" class="node">
<title>val_bold (header)</title>
<ellipse fill="none" stroke="#000000" cx="141.5783" cy="-234" rx="90.9839" ry="18"/>
<text text-anchor="middle" x="141.5783" y="-230.3" font-family="Times,serif" font-size="14.00" fill="#000000">val_bold (header)</text>
</g>
<!-- inputnode (utility)&#45;&gt;val_bold (header) -->
<g id="edge1" class="edge">
<title>inputnode (utility)&#45;&gt;val_bold (header)</title>
<path fill="none" stroke="#000000" d="M281.5066,-289.6621C254.7996,-279.0383 219.8082,-265.1191 191.4983,-253.8577"/>
<polygon fill="#000000" stroke="#000000" points="192.7608,-250.5932 182.1753,-250.1491 190.1734,-257.0975 192.7608,-250.5932"/>
</g>
<!-- get_dummy (bold) -->
<g id="node3" class="node">
<title>get_dummy (bold)</title>
<ellipse fill="none" stroke="#000000" cx="384.5783" cy="-234" rx="94.7833" ry="18"/>
<text text-anchor="middle" x="384.5783" y="-230.3" font-family="Times,serif" font-size="14.00" fill="#000000">get_dummy (bold)</text>
</g>
<!-- inputnode (utility)&#45;&gt;get_dummy (bold) -->
<g id="edge2" class="edge">
<title>inputnode (utility)&#45;&gt;get_dummy (bold)</title>
<path fill="none" stroke="#000000" d="M337.9041,-288.2022C345.3561,-279.5483 354.448,-268.99 362.6209,-259.4988"/>
<polygon fill="#000000" stroke="#000000" points="365.3408,-261.7041 369.2138,-251.8425 360.0364,-257.1364 365.3408,-261.7041"/>
</g>
<!-- enhance_and_skullstrip_bold_wf -->
<g id="node4" class="node">
<title>enhance_and_skullstrip_bold_wf</title>
<ellipse fill="none" stroke="#000000" cx="194.5783" cy="-90" rx="161.6714" ry="18"/>
<text text-anchor="middle" x="194.5783" y="-86.3" font-family="Times,serif" font-size="14.00" fill="#000000">enhance_and_skullstrip_bold_wf</text>
</g>
<!-- inputnode (utility)&#45;&gt;enhance_and_skullstrip_bold_wf -->
<g id="edge3" class="edge">
<title>inputnode (utility)&#45;&gt;enhance_and_skullstrip_bold_wf</title>
<path fill="none" stroke="#000000" d="M306.2225,-288.0452C297.7093,-278 287.6348,-264.9266 280.5783,-252 256.1971,-207.3369 268.411,-187.8395 242.5783,-144 236.6302,-133.9059 228.6325,-123.9888 220.8727,-115.4635"/>
<polygon fill="#000000" stroke="#000000" points="223.2903,-112.9259 213.8788,-108.0602 218.2018,-117.733 223.2903,-112.9259"/>
</g>
<!-- calc_dummy_scans (utility) -->
<g id="node5" class="node">
<title>calc_dummy_scans (utility)</title>
<ellipse fill="none" stroke="#000000" cx="550.5783" cy="-162" rx="137.5759" ry="18"/>
<text text-anchor="middle" x="550.5783" y="-158.3" font-family="Times,serif" font-size="14.00" fill="#000000">calc_dummy_scans (utility)</text>
</g>
<!-- inputnode (utility)&#45;&gt;calc_dummy_scans (utility) -->
<g id="edge4" class="edge">
<title>inputnode (utility)&#45;&gt;calc_dummy_scans (utility)</title>
<path fill="none" stroke="#000000" d="M392.7581,-293.869C424.31,-285.8562 460.6453,-272.8423 488.5783,-252 510.5019,-235.6416 527.3956,-209.1648 537.9718,-189.1541"/>
<polygon fill="#000000" stroke="#000000" points="541.1118,-190.7005 542.5161,-180.1992 534.8696,-187.5328 541.1118,-190.7005"/>
</g>
<!-- outputnode (utility) -->
<g id="node6" class="node">
<title>outputnode (utility)</title>
<ellipse fill="none" stroke="#000000" cx="194.5783" cy="-18" rx="101.2821" ry="18"/>
<text text-anchor="middle" x="194.5783" y="-14.3" font-family="Times,serif" font-size="14.00" fill="#000000">outputnode (utility)</text>
</g>
<!-- val_bold (header)&#45;&gt;outputnode (utility) -->
<g id="edge5" class="edge">
<title>val_bold (header)&#45;&gt;outputnode (utility)</title>
<path fill="none" stroke="#000000" d="M96.6111,-218.3276C77.1747,-209.6254 55.5126,-197.052 40.5783,-180 7.9801,-142.7796 -15.9864,-111.6728 13.5783,-72 25.9591,-55.3862 70.2211,-42.0163 111.8725,-32.7361"/>
<polygon fill="#000000" stroke="#000000" points="112.7881,-36.119 121.8218,-30.5834 111.3078,-29.2773 112.7881,-36.119"/>
</g>
<!-- gen_avg (images) -->
<g id="node7" class="node">
<title>gen_avg (images)</title>
<ellipse fill="none" stroke="#000000" cx="141.5783" cy="-162" rx="92.0841" ry="18"/>
<text text-anchor="middle" x="141.5783" y="-158.3" font-family="Times,serif" font-size="14.00" fill="#000000">gen_avg (images)</text>
</g>
<!-- val_bold (header)&#45;&gt;gen_avg (images) -->
<g id="edge6" class="edge">
<title>val_bold (header)&#45;&gt;gen_avg (images)</title>
<path fill="none" stroke="#000000" d="M141.5783,-215.8314C141.5783,-208.131 141.5783,-198.9743 141.5783,-190.4166"/>
<polygon fill="#000000" stroke="#000000" points="145.0784,-190.4132 141.5783,-180.4133 138.0784,-190.4133 145.0784,-190.4132"/>
</g>
<!-- get_dummy (bold)&#45;&gt;calc_dummy_scans (utility) -->
<g id="edge7" class="edge">
<title>get_dummy (bold)&#45;&gt;calc_dummy_scans (utility)</title>
<path fill="none" stroke="#000000" d="M422.662,-217.4817C446.0032,-207.3578 476.1263,-194.2924 501.2768,-183.3838"/>
<polygon fill="#000000" stroke="#000000" points="502.8665,-186.5094 510.648,-179.3192 500.081,-180.0874 502.8665,-186.5094"/>
</g>
<!-- get_dummy (bold)&#45;&gt;outputnode (utility) -->
<g id="edge8" class="edge">
<title>get_dummy (bold)&#45;&gt;outputnode (utility)</title>
<path fill="none" stroke="#000000" d="M388.2339,-215.7766C393.6887,-182.9822 399.9512,-113.5765 365.5783,-72 353.0515,-56.8479 311.2648,-43.5032 272.1378,-33.8704"/>
<polygon fill="#000000" stroke="#000000" points="272.8076,-30.4318 262.267,-31.5025 271.1747,-37.2387 272.8076,-30.4318"/>
</g>
<!-- get_dummy (bold)&#45;&gt;gen_avg (images) -->
<g id="edge9" class="edge">
<title>get_dummy (bold)&#45;&gt;gen_avg (images)</title>
<path fill="none" stroke="#000000" d="M333.3411,-218.8186C295.0069,-207.4603 242.455,-191.8894 202.0581,-179.9199"/>
<polygon fill="#000000" stroke="#000000" points="202.9106,-176.5222 192.3283,-177.0371 200.922,-183.2338 202.9106,-176.5222"/>
</g>
<!-- enhance_and_skullstrip_bold_wf&#45;&gt;outputnode (utility) -->
<g id="edge10" class="edge">
<title>enhance_and_skullstrip_bold_wf&#45;&gt;outputnode (utility)</title>
<path fill="none" stroke="#000000" d="M194.5783,-71.8314C194.5783,-64.131 194.5783,-54.9743 194.5783,-46.4166"/>
<polygon fill="#000000" stroke="#000000" points="198.0784,-46.4132 194.5783,-36.4133 191.0784,-46.4133 198.0784,-46.4132"/>
</g>
<!-- calc_dummy_scans (utility)&#45;&gt;outputnode (utility) -->
<g id="edge11" class="edge">
<title>calc_dummy_scans (utility)&#45;&gt;outputnode (utility)</title>
<path fill="none" stroke="#000000" d="M525.6284,-144.2846C496.4087,-124.2516 445.9579,-91.8468 398.5783,-72 358.7181,-55.303 312.2788,-42.5282 273.7864,-33.606"/>
<polygon fill="#000000" stroke="#000000" points="274.1949,-30.1097 263.6679,-31.3064 272.6435,-36.9356 274.1949,-30.1097"/>
</g>
<!-- gen_avg (images)&#45;&gt;enhance_and_skullstrip_bold_wf -->
<g id="edge12" class="edge">
<title>gen_avg (images)&#45;&gt;enhance_and_skullstrip_bold_wf</title>
<path fill="none" stroke="#000000" d="M154.9524,-143.8314C160.9945,-135.6232 168.2545,-125.7606 174.9003,-116.7323"/>
<polygon fill="#000000" stroke="#000000" points="177.9145,-118.5415 181.024,-108.4133 172.2771,-114.3918 177.9145,-118.5415"/>
</g>
<!-- gen_avg (images)&#45;&gt;outputnode (utility) -->
<g id="edge13" class="edge">
<title>gen_avg (images)&#45;&gt;outputnode (utility)</title>
<path fill="none" stroke="#000000" d="M79.878,-148.4625C58.2967,-140.4459 36.2989,-127.8107 23.5783,-108 14.9333,-94.5366 14.1202,-84.9052 23.5783,-72 35.1149,-56.2587 76.366,-42.9839 115.4595,-33.5352"/>
<polygon fill="#000000" stroke="#000000" points="116.3978,-36.9102 125.3326,-31.2163 114.7972,-30.0956 116.3978,-36.9102"/>
</g>
</g>
</svg>
