<?xml version="1.0" encoding="UTF-8" standalone="no"?>
<!DOCTYPE svg PUBLIC "-//W3C//DTD SVG 1.1//EN"
 "http://www.w3.org/Graphics/SVG/1.1/DTD/svg11.dtd">
<!-- Generated by graphviz version 2.40.1 (20161225.0304)
 -->
<!-- Title: structs Pages: 1 -->
<svg width="1140pt" height="958pt"
 viewBox="0.00 0.00 1140.22 958.00" xmlns="http://www.w3.org/2000/svg" xmlns:xlink="http://www.w3.org/1999/xlink">
<g id="graph0" class="graph" transform="scale(1 1) rotate(0) translate(4 954)">
<title>structs</title>
<polygon fill="#ffffff" stroke="transparent" points="-4,4 -4,-954 1136.2196,-954 1136.2196,4 -4,4"/>
<!-- gifti_surface_wfinputnode -->
<g id="node1" class="node">
<title>gifti_surface_wfinputnode</title>
<polygon fill="none" stroke="#000000" points="0,-880.5 0,-949.5 214,-949.5 214,-880.5 0,-880.5"/>
<text text-anchor="middle" x="17.5" y="-911.3" font-family="Times,serif" font-size="14.00" fill="#000000">IN</text>
<polyline fill="none" stroke="#000000" points="35,-880.5 35,-949.5 "/>
<text text-anchor="middle" x="79.5" y="-934.3" font-family="Times,serif" font-size="14.00" fill="#000000">inputnode</text>
<polyline fill="none" stroke="#000000" points="35,-926.5 124,-926.5 "/>
<text text-anchor="middle" x="79.5" y="-911.3" font-family="Times,serif" font-size="14.00" fill="#000000">utility</text>
<polyline fill="none" stroke="#000000" points="35,-903.5 124,-903.5 "/>
<text text-anchor="middle" x="79.5" y="-888.3" font-family="Times,serif" font-size="14.00" fill="#000000"> </text>
<polyline fill="none" stroke="#000000" points="124,-880.5 124,-949.5 "/>
<text text-anchor="middle" x="169" y="-934.3" font-family="Times,serif" font-size="14.00" fill="#000000">OUT</text>
<polyline fill="none" stroke="#000000" points="124,-926.5 214,-926.5 "/>
<text text-anchor="middle" x="169" y="-911.3" font-family="Times,serif" font-size="14.00" fill="#000000">in_t1w</text>
<polyline fill="none" stroke="#000000" points="124,-903.5 214,-903.5 "/>
<text text-anchor="middle" x="169" y="-888.3" font-family="Times,serif" font-size="14.00" fill="#000000">subject_id</text>
</g>
<!-- gifti_surface_wffssource -->
<g id="node2" class="node">
<title>gifti_surface_wffssource</title>
<polygon fill="none" stroke="#000000" points="214,-705.5 214,-843.5 476,-843.5 476,-705.5 214,-705.5"/>
<text text-anchor="middle" x="259" y="-805.3" font-family="Times,serif" font-size="14.00" fill="#000000">IN</text>
<polyline fill="none" stroke="#000000" points="214,-774.5 304,-774.5 "/>
<text text-anchor="middle" x="259" y="-736.3" font-family="Times,serif" font-size="14.00" fill="#000000">subject_id</text>
<polyline fill="none" stroke="#000000" points="304,-705.5 304,-843.5 "/>
<text text-anchor="middle" x="342.5" y="-816.8" font-family="Times,serif" font-size="14.00" fill="#000000">fssource</text>
<polyline fill="none" stroke="#000000" points="304,-797.5 381,-797.5 "/>
<text text-anchor="middle" x="342.5" y="-770.8" font-family="Times,serif" font-size="14.00" fill="#000000">io</text>
<polyline fill="none" stroke="#000000" points="304,-751.5 381,-751.5 "/>
<text text-anchor="middle" x="342.5" y="-724.8" font-family="Times,serif" font-size="14.00" fill="#000000"> </text>
<polyline fill="none" stroke="#000000" points="381,-705.5 381,-843.5 "/>
<text text-anchor="middle" x="428.5" y="-828.3" font-family="Times,serif" font-size="14.00" fill="#000000">OUT</text>
<polyline fill="none" stroke="#000000" points="381,-820.5 476,-820.5 "/>
<text text-anchor="middle" x="428.5" y="-805.3" font-family="Times,serif" font-size="14.00" fill="#000000">graymid</text>
<polyline fill="none" stroke="#000000" points="381,-797.5 476,-797.5 "/>
<text text-anchor="middle" x="428.5" y="-782.3" font-family="Times,serif" font-size="14.00" fill="#000000">inflated</text>
<polyline fill="none" stroke="#000000" points="381,-774.5 476,-774.5 "/>
<text text-anchor="middle" x="428.5" y="-759.3" font-family="Times,serif" font-size="14.00" fill="#000000">orig</text>
<polyline fill="none" stroke="#000000" points="381,-751.5 476,-751.5 "/>
<text text-anchor="middle" x="428.5" y="-736.3" font-family="Times,serif" font-size="14.00" fill="#000000">pial</text>
<polyline fill="none" stroke="#000000" points="381,-728.5 476,-728.5 "/>
<text text-anchor="middle" x="428.5" y="-713.3" font-family="Times,serif" font-size="14.00" fill="#000000">smoothwm</text>
</g>
<!-- gifti_surface_wfinputnode&#45;&gt;gifti_surface_wffssource -->
<g id="edge13" class="edge">
<title>gifti_surface_wfinputnode:e&#45;&gt;gifti_surface_wffssource:w</title>
<path fill="none" stroke="#000000" d="M214,-892C214,-892 214,-783.4331 214,-749.506"/>
<polygon fill="#000000" stroke="#000000" points="217.5001,-749.5 214,-739.5 210.5001,-749.5 217.5001,-749.5"/>
</g>
<!-- gifti_surface_wfsave_midthickness -->
<g id="node4" class="node">
<title>gifti_surface_wfsave_midthickness</title>
<polygon fill="none" stroke="#000000" points="783,-493.5 783,-562.5 1127,-562.5 1127,-493.5 783,-493.5"/>
<text text-anchor="middle" x="844" y="-547.3" font-family="Times,serif" font-size="14.00" fill="#000000">IN</text>
<polyline fill="none" stroke="#000000" points="783,-539.5 905,-539.5 "/>
<text text-anchor="middle" x="844" y="-524.3" font-family="Times,serif" font-size="14.00" fill="#000000">container</text>
<polyline fill="none" stroke="#000000" points="783,-516.5 905,-516.5 "/>
<text text-anchor="middle" x="844" y="-501.3" font-family="Times,serif" font-size="14.00" fill="#000000">surf.@graymid</text>
<polyline fill="none" stroke="#000000" points="905,-493.5 905,-562.5 "/>
<text text-anchor="middle" x="981" y="-547.3" font-family="Times,serif" font-size="14.00" fill="#000000">save_midthickness</text>
<polyline fill="none" stroke="#000000" points="905,-539.5 1057,-539.5 "/>
<text text-anchor="middle" x="981" y="-524.3" font-family="Times,serif" font-size="14.00" fill="#000000">io</text>
<polyline fill="none" stroke="#000000" points="905,-516.5 1057,-516.5 "/>
<text text-anchor="middle" x="981" y="-501.3" font-family="Times,serif" font-size="14.00" fill="#000000"> </text>
<polyline fill="none" stroke="#000000" points="1057,-493.5 1057,-562.5 "/>
<text text-anchor="middle" x="1092" y="-541.8" font-family="Times,serif" font-size="14.00" fill="#000000">OUT</text>
<polyline fill="none" stroke="#000000" points="1057,-528.5 1127,-528.5 "/>
<text text-anchor="middle" x="1092" y="-507.3" font-family="Times,serif" font-size="14.00" fill="#000000">out_file</text>
</g>
<!-- gifti_surface_wfinputnode&#45;&gt;gifti_surface_wfsave_midthickness -->
<g id="edge14" class="edge">
<title>gifti_surface_wfinputnode:e&#45;&gt;gifti_surface_wfsave_midthickness:w</title>
<path fill="none" stroke="#000000" d="M214,-892C336.3192,-892 369.9881,-885.6442 485,-844 632.3103,-790.661 712.3871,-804.519 791,-669 814.7064,-628.1331 788.1552,-609.963 783,-563 781.9391,-553.3358 776.128,-542.08 775.7165,-534.9971"/>
<polygon fill="#000000" stroke="#000000" points="778.2133,-537.4519 783,-528 773.3638,-532.4039 778.2133,-537.4519"/>
</g>
<!-- gifti_surface_wffsnative_2_t1_xfm -->
<g id="node7" class="node">
<title>gifti_surface_wffsnative_2_t1_xfm</title>
<polygon fill="none" stroke="#000000" points="48.5,-493.5 48.5,-562.5 391.5,-562.5 391.5,-493.5 48.5,-493.5"/>
<text text-anchor="middle" x="96" y="-547.3" font-family="Times,serif" font-size="14.00" fill="#000000">IN</text>
<polyline fill="none" stroke="#000000" points="48.5,-539.5 143.5,-539.5 "/>
<text text-anchor="middle" x="96" y="-524.3" font-family="Times,serif" font-size="14.00" fill="#000000">source_file</text>
<polyline fill="none" stroke="#000000" points="48.5,-516.5 143.5,-516.5 "/>
<text text-anchor="middle" x="96" y="-501.3" font-family="Times,serif" font-size="14.00" fill="#000000">target_file</text>
<polyline fill="none" stroke="#000000" points="143.5,-493.5 143.5,-562.5 "/>
<text text-anchor="middle" x="217" y="-547.3" font-family="Times,serif" font-size="14.00" fill="#000000">fsnative_2_t1_xfm</text>
<polyline fill="none" stroke="#000000" points="143.5,-539.5 290.5,-539.5 "/>
<text text-anchor="middle" x="217" y="-524.3" font-family="Times,serif" font-size="14.00" fill="#000000">freesurfer</text>
<polyline fill="none" stroke="#000000" points="143.5,-516.5 290.5,-516.5 "/>
<text text-anchor="middle" x="217" y="-501.3" font-family="Times,serif" font-size="14.00" fill="#000000"> </text>
<polyline fill="none" stroke="#000000" points="290.5,-493.5 290.5,-562.5 "/>
<text text-anchor="middle" x="341" y="-541.8" font-family="Times,serif" font-size="14.00" fill="#000000">OUT</text>
<polyline fill="none" stroke="#000000" points="290.5,-528.5 391.5,-528.5 "/>
<text text-anchor="middle" x="341" y="-507.3" font-family="Times,serif" font-size="14.00" fill="#000000">out_reg_file</text>
</g>
<!-- gifti_surface_wfinputnode&#45;&gt;gifti_surface_wffsnative_2_t1_xfm -->
<g id="edge12" class="edge">
<title>gifti_surface_wfinputnode:e&#45;&gt;gifti_surface_wffsnative_2_t1_xfm:w</title>
<path fill="none" stroke="#000000" d="M214,-915C229.5556,-915 217.7157,-895.1053 214,-880 176.0114,-725.5665 85.9886,-717.4335 48,-563 42.949,-542.4663 28.8386,-516.5918 38.1601,-507.9561"/>
<polygon fill="#000000" stroke="#000000" points="39.4299,-511.2292 48,-505 37.4158,-504.5252 39.4299,-511.2292"/>
</g>
<!-- gifti_surface_wfmidthickness -->
<g id="node3" class="node">
<title>gifti_surface_wfmidthickness</title>
<polygon fill="none" stroke="#000000" points="523.5,-599.5 523.5,-668.5 782.5,-668.5 782.5,-599.5 523.5,-599.5"/>
<text text-anchor="middle" x="561.5" y="-653.3" font-family="Times,serif" font-size="14.00" fill="#000000">IN</text>
<polyline fill="none" stroke="#000000" points="523.5,-645.5 599.5,-645.5 "/>
<text text-anchor="middle" x="561.5" y="-630.3" font-family="Times,serif" font-size="14.00" fill="#000000">graymid</text>
<polyline fill="none" stroke="#000000" points="523.5,-622.5 599.5,-622.5 "/>
<text text-anchor="middle" x="561.5" y="-607.3" font-family="Times,serif" font-size="14.00" fill="#000000">in_file</text>
<polyline fill="none" stroke="#000000" points="599.5,-599.5 599.5,-668.5 "/>
<text text-anchor="middle" x="656" y="-653.3" font-family="Times,serif" font-size="14.00" fill="#000000">midthickness</text>
<polyline fill="none" stroke="#000000" points="599.5,-645.5 712.5,-645.5 "/>
<text text-anchor="middle" x="656" y="-630.3" font-family="Times,serif" font-size="14.00" fill="#000000">freesurfer</text>
<polyline fill="none" stroke="#000000" points="599.5,-622.5 712.5,-622.5 "/>
<text text-anchor="middle" x="656" y="-607.3" font-family="Times,serif" font-size="14.00" fill="#000000"> </text>
<polyline fill="none" stroke="#000000" points="712.5,-599.5 712.5,-668.5 "/>
<text text-anchor="middle" x="747.5" y="-647.8" font-family="Times,serif" font-size="14.00" fill="#000000">OUT</text>
<polyline fill="none" stroke="#000000" points="712.5,-634.5 782.5,-634.5 "/>
<text text-anchor="middle" x="747.5" y="-613.3" font-family="Times,serif" font-size="14.00" fill="#000000">out_file</text>
</g>
<!-- gifti_surface_wffssource&#45;&gt;gifti_surface_wfmidthickness -->
<g id="edge6" class="edge">
<title>gifti_surface_wffssource:e&#45;&gt;gifti_surface_wfmidthickness:w</title>
<path fill="none" stroke="#000000" d="M476,-809.5C484.7136,-809.5 505.8873,-678.7078 518.008,-642.9443"/>
<polygon fill="#000000" stroke="#000000" points="521.1826,-644.4378 523,-634 515.0702,-641.0263 521.1826,-644.4378"/>
</g>
<!-- gifti_surface_wffssource&#45;&gt;gifti_surface_wfmidthickness -->
<g id="edge10" class="edge">
<title>gifti_surface_wffssource:e&#45;&gt;gifti_surface_wfmidthickness:w</title>
<path fill="none" stroke="#000000" d="M476,-716.5C501.7058,-716.5 498.4709,-692.4505 509,-669 517.995,-648.9664 503.5072,-622.3376 513.3215,-613.7757"/>
<polygon fill="#000000" stroke="#000000" points="514.3524,-617.1212 523,-611 512.4226,-610.3925 514.3524,-617.1212"/>
</g>
<!-- gifti_surface_wfsurface_list -->
<g id="node5" class="node">
<title>gifti_surface_wfsurface_list</title>
<polygon fill="none" stroke="#000000" points="458.5,-341.5 458.5,-456.5 647.5,-456.5 647.5,-341.5 458.5,-341.5"/>
<text text-anchor="middle" x="478" y="-441.3" font-family="Times,serif" font-size="14.00" fill="#000000">IN</text>
<polyline fill="none" stroke="#000000" points="458.5,-433.5 497.5,-433.5 "/>
<text text-anchor="middle" x="478" y="-418.3" font-family="Times,serif" font-size="14.00" fill="#000000">in1</text>
<polyline fill="none" stroke="#000000" points="458.5,-410.5 497.5,-410.5 "/>
<text text-anchor="middle" x="478" y="-395.3" font-family="Times,serif" font-size="14.00" fill="#000000">in2</text>
<polyline fill="none" stroke="#000000" points="458.5,-387.5 497.5,-387.5 "/>
<text text-anchor="middle" x="478" y="-372.3" font-family="Times,serif" font-size="14.00" fill="#000000">in3</text>
<polyline fill="none" stroke="#000000" points="458.5,-364.5 497.5,-364.5 "/>
<text text-anchor="middle" x="478" y="-349.3" font-family="Times,serif" font-size="14.00" fill="#000000">in4</text>
<polyline fill="none" stroke="#000000" points="497.5,-341.5 497.5,-456.5 "/>
<text text-anchor="middle" x="547.5" y="-433.8" font-family="Times,serif" font-size="14.00" fill="#000000">surface_list</text>
<polyline fill="none" stroke="#000000" points="497.5,-418.5 597.5,-418.5 "/>
<text text-anchor="middle" x="547.5" y="-395.8" font-family="Times,serif" font-size="14.00" fill="#000000">utility</text>
<polyline fill="none" stroke="#000000" points="497.5,-380.5 597.5,-380.5 "/>
<text text-anchor="middle" x="547.5" y="-357.3" font-family="Times,serif" font-size="14.00" fill="#000000"> </text>
<polyline fill="none" stroke="#000000" points="597.5,-341.5 597.5,-456.5 "/>
<text text-anchor="middle" x="622.5" y="-424.3" font-family="Times,serif" font-size="14.00" fill="#000000">OUT</text>
<polyline fill="none" stroke="#000000" points="597.5,-399.5 647.5,-399.5 "/>
<text text-anchor="middle" x="622.5" y="-366.8" font-family="Times,serif" font-size="14.00" fill="#000000">out</text>
</g>
<!-- gifti_surface_wffssource&#45;&gt;gifti_surface_wfsurface_list -->
<g id="edge7" class="edge">
<title>gifti_surface_wffssource:e&#45;&gt;gifti_surface_wfsurface_list:w</title>
<path fill="none" stroke="#000000" d="M476,-786.5C512.2222,-786.5 476.4271,-741.2197 476,-705 474.8888,-610.7581 488.3422,-585.6392 471,-493 467.8698,-476.2792 460.9328,-473.7565 458,-457 455.5271,-442.871 445.5652,-399.8243 450.7286,-382.9195"/>
<polygon fill="#000000" stroke="#000000" points="453.1686,-385.4291 458,-376 448.343,-380.3582 453.1686,-385.4291"/>
</g>
<!-- gifti_surface_wffssource&#45;&gt;gifti_surface_wfsurface_list -->
<g id="edge9" class="edge">
<title>gifti_surface_wffssource:e&#45;&gt;gifti_surface_wfsurface_list:w</title>
<path fill="none" stroke="#000000" d="M476,-739.5C481.1611,-739.5 473.1308,-670.6976 473,-669 470.931,-642.1436 436.3687,-446.4451 450.8834,-406.2172"/>
<polygon fill="#000000" stroke="#000000" points="453.4709,-408.578 458,-399 448.4865,-403.6631 453.4709,-408.578"/>
</g>
<!-- gifti_surface_wffssource&#45;&gt;gifti_surface_wfsurface_list -->
<g id="edge11" class="edge">
<title>gifti_surface_wffssource:e&#45;&gt;gifti_surface_wfsurface_list:w</title>
<path fill="none" stroke="#000000" d="M476,-716.5C481.1111,-716.5 477.061,-709.9998 476,-705 472.3653,-687.8723 464.6724,-685.8741 460,-669 439.0691,-593.409 440.9779,-571.2038 447,-493 447.9577,-480.5634 444.388,-444.224 450.3936,-428.9207"/>
<polygon fill="#000000" stroke="#000000" points="452.9588,-431.3186 458,-422 448.2479,-426.141 452.9588,-431.3186"/>
</g>
<!-- gifti_surface_wffssource&#45;&gt;gifti_surface_wffsnative_2_t1_xfm -->
<g id="edge8" class="edge">
<title>gifti_surface_wffssource:e&#45;&gt;gifti_surface_wffsnative_2_t1_xfm:w</title>
<path fill="none" stroke="#000000" d="M476,-762.5C501.5556,-762.5 490.9571,-725.7213 476,-705 446.6748,-664.3736 77.3252,-603.6264 48,-563 41.7408,-554.3286 36.7355,-541.0374 39.2733,-533.5772"/>
<polygon fill="#000000" stroke="#000000" points="41.4587,-536.3344 48,-528 37.689,-530.4361 41.4587,-536.3344"/>
</g>
<!-- gifti_surface_wfmidthickness&#45;&gt;gifti_surface_wfsave_midthickness -->
<g id="edge15" class="edge">
<title>gifti_surface_wfmidthickness:e&#45;&gt;gifti_surface_wfsave_midthickness:w</title>
<path fill="none" stroke="#000000" d="M783,-617C783,-617 783,-543.0625 783,-515.3359"/>
<polygon fill="#000000" stroke="#000000" points="786.5001,-515 783,-505 779.5001,-515 786.5001,-515"/>
</g>
<!-- gifti_surface_wfsave_midthickness&#45;&gt;gifti_surface_wfsurface_list -->
<g id="edge16" class="edge">
<title>gifti_surface_wfsave_midthickness:e&#45;&gt;gifti_surface_wfsurface_list:w</title>
<path fill="none" stroke="#000000" d="M1127,-511C1135,-511 1132.5028,-498.8068 1127,-493 1075.7961,-438.9666 509.2039,-511.0334 458,-457 451.5419,-450.185 447.9497,-385.7881 453.0279,-361.8789"/>
<polygon fill="#000000" stroke="#000000" points="456.1677,-363.4352 458,-353 450.0602,-360.015 456.1677,-363.4352"/>
</g>
<!-- gifti_surface_wffs_2_gii -->
<g id="node6" class="node">
<title>gifti_surface_wffs_2_gii</title>
<polygon fill="none" stroke="#000000" points="486,-235.5 486,-304.5 724,-304.5 724,-235.5 486,-235.5"/>
<text text-anchor="middle" x="516" y="-283.8" font-family="Times,serif" font-size="14.00" fill="#000000">IN</text>
<polyline fill="none" stroke="#000000" points="486,-270.5 546,-270.5 "/>
<text text-anchor="middle" x="516" y="-249.3" font-family="Times,serif" font-size="14.00" fill="#000000">in_file</text>
<polyline fill="none" stroke="#000000" points="546,-235.5 546,-304.5 "/>
<text text-anchor="middle" x="590.5" y="-289.3" font-family="Times,serif" font-size="14.00" fill="#000000">fs_2_gii</text>
<polyline fill="none" stroke="#000000" points="546,-281.5 635,-281.5 "/>
<text text-anchor="middle" x="590.5" y="-266.3" font-family="Times,serif" font-size="14.00" fill="#000000">freesurfer</text>
<polyline fill="none" stroke="#000000" points="546,-258.5 635,-258.5 "/>
<text text-anchor="middle" x="590.5" y="-243.3" font-family="Times,serif" font-size="14.00" fill="#000000"> </text>
<polyline fill="none" stroke="#000000" points="635,-235.5 635,-304.5 "/>
<text text-anchor="middle" x="679.5" y="-283.8" font-family="Times,serif" font-size="14.00" fill="#000000">OUT</text>
<polyline fill="none" stroke="#000000" points="635,-270.5 724,-270.5 "/>
<text text-anchor="middle" x="679.5" y="-249.3" font-family="Times,serif" font-size="14.00" fill="#000000">converted</text>
</g>
<!-- gifti_surface_wfsurface_list&#45;&gt;gifti_surface_wffs_2_gii -->
<g id="edge17" class="edge">
<title>gifti_surface_wfsurface_list:e&#45;&gt;gifti_surface_wffs_2_gii:w</title>
<path fill="none" stroke="#000000" d="M648,-370C660.8889,-370 656.0649,-351.0539 648,-341 601.8486,-283.467 532.1514,-362.533 486,-305 474.2502,-290.3525 466.3369,-265.1791 476.1787,-256.254"/>
<polygon fill="#000000" stroke="#000000" points="477.6082,-259.4675 486,-253 475.4066,-252.8227 477.6082,-259.4675"/>
</g>
<!-- gifti_surface_wffix_surfs -->
<g id="node8" class="node">
<title>gifti_surface_wffix_surfs</title>
<polygon fill="none" stroke="#000000" points="430,-129.5 430,-198.5 696,-198.5 696,-129.5 430,-129.5"/>
<text text-anchor="middle" x="489" y="-183.3" font-family="Times,serif" font-size="14.00" fill="#000000">IN</text>
<polyline fill="none" stroke="#000000" points="430,-175.5 548,-175.5 "/>
<text text-anchor="middle" x="489" y="-160.3" font-family="Times,serif" font-size="14.00" fill="#000000">in_file</text>
<polyline fill="none" stroke="#000000" points="430,-152.5 548,-152.5 "/>
<text text-anchor="middle" x="489" y="-137.3" font-family="Times,serif" font-size="14.00" fill="#000000">transform_file</text>
<polyline fill="none" stroke="#000000" points="548,-129.5 548,-198.5 "/>
<text text-anchor="middle" x="587" y="-183.3" font-family="Times,serif" font-size="14.00" fill="#000000">fix_surfs</text>
<polyline fill="none" stroke="#000000" points="548,-175.5 626,-175.5 "/>
<text text-anchor="middle" x="587" y="-160.3" font-family="Times,serif" font-size="14.00" fill="#000000">surf</text>
<polyline fill="none" stroke="#000000" points="548,-152.5 626,-152.5 "/>
<text text-anchor="middle" x="587" y="-137.3" font-family="Times,serif" font-size="14.00" fill="#000000"> </text>
<polyline fill="none" stroke="#000000" points="626,-129.5 626,-198.5 "/>
<text text-anchor="middle" x="661" y="-177.8" font-family="Times,serif" font-size="14.00" fill="#000000">OUT</text>
<polyline fill="none" stroke="#000000" points="626,-164.5 696,-164.5 "/>
<text text-anchor="middle" x="661" y="-143.3" font-family="Times,serif" font-size="14.00" fill="#000000">out_file</text>
</g>
<!-- gifti_surface_wffs_2_gii&#45;&gt;gifti_surface_wffix_surfs -->
<g id="edge2" class="edge">
<title>gifti_surface_wffs_2_gii:e&#45;&gt;gifti_surface_wffix_surfs:w</title>
<path fill="none" stroke="#000000" d="M724,-253C732,-253 729.302,-240.9908 724,-235 636.7547,-136.4199 517.2453,-297.5801 430,-199 422.7512,-190.8095 418.0056,-176.8334 421.2341,-169.257"/>
<polygon fill="#000000" stroke="#000000" points="423.2241,-172.1448 430,-164 419.6238,-166.1416 423.2241,-172.1448"/>
</g>
<!-- gifti_surface_wfoutputnode -->
<g id="node9" class="node">
<title>gifti_surface_wfoutputnode</title>
<polygon fill="none" stroke="#000000" points="696,-.5 696,-92.5 1008,-92.5 1008,-.5 696,-.5"/>
<text text-anchor="middle" x="778" y="-77.3" font-family="Times,serif" font-size="14.00" fill="#000000">IN</text>
<polyline fill="none" stroke="#000000" points="696,-69.5 860,-69.5 "/>
<text text-anchor="middle" x="778" y="-54.3" font-family="Times,serif" font-size="14.00" fill="#000000">fsnative_to_t1w_xfm</text>
<polyline fill="none" stroke="#000000" points="696,-46.5 860,-46.5 "/>
<text text-anchor="middle" x="778" y="-31.3" font-family="Times,serif" font-size="14.00" fill="#000000">surf_norm</text>
<polyline fill="none" stroke="#000000" points="696,-23.5 860,-23.5 "/>
<text text-anchor="middle" x="778" y="-8.3" font-family="Times,serif" font-size="14.00" fill="#000000">surfaces</text>
<polyline fill="none" stroke="#000000" points="860,-.5 860,-92.5 "/>
<text text-anchor="middle" x="909" y="-73.8" font-family="Times,serif" font-size="14.00" fill="#000000">outputnode</text>
<polyline fill="none" stroke="#000000" points="860,-62.5 958,-62.5 "/>
<text text-anchor="middle" x="909" y="-43.3" font-family="Times,serif" font-size="14.00" fill="#000000">utility</text>
<polyline fill="none" stroke="#000000" points="860,-31.5 958,-31.5 "/>
<text text-anchor="middle" x="909" y="-12.3" font-family="Times,serif" font-size="14.00" fill="#000000"> </text>
<polyline fill="none" stroke="#000000" points="958,-.5 958,-92.5 "/>
<text text-anchor="middle" x="983" y="-42.8" font-family="Times,serif" font-size="14.00" fill="#000000">OUT</text>
</g>
<!-- gifti_surface_wffs_2_gii&#45;&gt;gifti_surface_wfoutputnode -->
<g id="edge3" class="edge">
<title>gifti_surface_wffs_2_gii:e&#45;&gt;gifti_surface_wfoutputnode:w</title>
<path fill="none" stroke="#000000" d="M724,-253C828.2536,-253 604.676,-28.182 685.879,-12.3745"/>
<polygon fill="#000000" stroke="#000000" points="686.3384,-15.8479 696,-11.5 685.7358,-8.8739 686.3384,-15.8479"/>
</g>
<!-- gifti_surface_wffsnative_2_t1_xfm&#45;&gt;gifti_surface_wffix_surfs -->
<g id="edge4" class="edge">
<title>gifti_surface_wffsnative_2_t1_xfm:e&#45;&gt;gifti_surface_wffix_surfs:w</title>
<path fill="none" stroke="#000000" d="M392,-511C430.1794,-511 394.9766,-195.2204 421.9767,-147.1133"/>
<polygon fill="#000000" stroke="#000000" points="424.1671,-149.8446 430,-141 419.9246,-144.2767 424.1671,-149.8446"/>
</g>
<!-- gifti_surface_wffsnative_2_t1_xfm&#45;&gt;gifti_surface_wfoutputnode -->
<g id="edge5" class="edge">
<title>gifti_surface_wffsnative_2_t1_xfm:e&#45;&gt;gifti_surface_wfoutputnode:w</title>
<path fill="none" stroke="#000000" d="M392,-511C407.356,-511 405.5769,-250.2899 407,-235 411.4038,-187.6843 389.4672,-164.5507 421,-129 460.7368,-84.2 615.9725,-60.9284 685.5923,-58.6804"/>
<polygon fill="#000000" stroke="#000000" points="686.0622,-62.1728 696,-58.5 685.9408,-55.1739 686.0622,-62.1728"/>
</g>
<!-- gifti_surface_wffix_surfs&#45;&gt;gifti_surface_wfoutputnode -->
<g id="edge1" class="edge">
<title>gifti_surface_wffix_surfs:e&#45;&gt;gifti_surface_wfoutputnode:w</title>
<path fill="none" stroke="#000000" d="M696,-147C696,-147 696,-72.7324 696,-44.8821"/>
<polygon fill="#000000" stroke="#000000" points="699.5001,-44.5 696,-34.5 692.5001,-44.5 699.5001,-44.5"/>
</g>
</g>
</svg>
