<?xml version="1.0" encoding="UTF-8" standalone="no"?>
<!DOCTYPE svg PUBLIC "-//W3C//DTD SVG 1.1//EN"
 "http://www.w3.org/Graphics/SVG/1.1/DTD/svg11.dtd">
<!-- Generated by graphviz version 2.43.0 (0)
 -->
<!-- Title: %3 Pages: 1 -->
<svg width="302pt" height="404pt"
 viewBox="0.00 0.00 302.46 404.00" xmlns="http://www.w3.org/2000/svg" xmlns:xlink="http://www.w3.org/1999/xlink">
<g id="graph0" class="graph" transform="scale(1 1) rotate(0) translate(4 400)">
<title>%3</title>
<polygon fill="white" stroke="transparent" points="-4,4 -4,-400 298.46,-400 298.46,4 -4,4"/>
<!-- inputnode (utility) -->
<g id="node1" class="node">
<title>inputnode (utility)</title>
<ellipse fill="none" stroke="black" cx="117.94" cy="-378" rx="94.78" ry="18"/>
<text text-anchor="middle" x="117.94" y="-374.3" font-family="Times,serif" font-size="14.00">inputnode (utility)</text>
</g>
<!-- sstrip_orig_vol (afni) -->
<g id="node2" class="node">
<title>sstrip_orig_vol (afni)</title>
<ellipse fill="none" stroke="black" cx="105.94" cy="-162" rx="105.88" ry="18"/>
<text text-anchor="middle" x="105.94" y="-158.3" font-family="Times,serif" font-size="14.00">sstrip_orig_vol (afni)</text>
</g>
<!-- inputnode (utility)&#45;&gt;sstrip_orig_vol (afni) -->
<g id="edge1" class="edge">
<title>inputnode (utility)&#45;&gt;sstrip_orig_vol (afni)</title>
<path fill="none" stroke="black" d="M107.35,-359.98C101.57,-349.89 94.82,-336.64 90.94,-324 76.81,-277.95 71.78,-263.08 81.94,-216 83.9,-206.92 87.55,-197.52 91.43,-189.2"/>
<polygon fill="black" stroke="black" points="94.67,-190.53 95.99,-180.02 88.4,-187.42 94.67,-190.53"/>
</g>
<!-- inu_n4 (fixes) -->
<g id="node3" class="node">
<title>inu_n4 (fixes)</title>
<ellipse fill="none" stroke="black" cx="172.94" cy="-306" rx="72.59" ry="18"/>
<text text-anchor="middle" x="172.94" y="-302.3" font-family="Times,serif" font-size="14.00">inu_n4 (fixes)</text>
</g>
<!-- inputnode (utility)&#45;&gt;inu_n4 (fixes) -->
<g id="edge2" class="edge">
<title>inputnode (utility)&#45;&gt;inu_n4 (fixes)</title>
<path fill="none" stroke="black" d="M131.25,-360.05C137.94,-351.54 146.17,-341.07 153.55,-331.68"/>
<polygon fill="black" stroke="black" points="156.32,-333.81 159.75,-323.79 150.82,-329.49 156.32,-333.81"/>
</g>
<!-- outputnode (utility) -->
<g id="node4" class="node">
<title>outputnode (utility)</title>
<ellipse fill="none" stroke="black" cx="162.94" cy="-18" rx="101.28" ry="18"/>
<text text-anchor="middle" x="162.94" y="-14.3" font-family="Times,serif" font-size="14.00">outputnode (utility)</text>
</g>
<!-- sstrip_orig_vol (afni)&#45;&gt;outputnode (utility) -->
<g id="edge3" class="edge">
<title>sstrip_orig_vol (afni)&#45;&gt;outputnode (utility)</title>
<path fill="none" stroke="black" d="M87.31,-144.15C69.49,-125.91 47.32,-96.19 61.94,-72 71.1,-56.84 86.19,-45.81 101.95,-37.86"/>
<polygon fill="black" stroke="black" points="103.67,-40.92 111.27,-33.54 100.72,-34.57 103.67,-40.92"/>
</g>
<!-- binarize (nibabel) -->
<g id="node5" class="node">
<title>binarize (nibabel)</title>
<ellipse fill="none" stroke="black" cx="162.94" cy="-90" rx="92.08" ry="18"/>
<text text-anchor="middle" x="162.94" y="-86.3" font-family="Times,serif" font-size="14.00">binarize (nibabel)</text>
</g>
<!-- sstrip_orig_vol (afni)&#45;&gt;binarize (nibabel) -->
<g id="edge4" class="edge">
<title>sstrip_orig_vol (afni)&#45;&gt;binarize (nibabel)</title>
<path fill="none" stroke="black" d="M119.74,-144.05C126.57,-135.67 134.95,-125.38 142.51,-116.1"/>
<polygon fill="black" stroke="black" points="145.27,-118.24 148.87,-108.28 139.85,-113.82 145.27,-118.24"/>
</g>
<!-- inu_n4 (fixes)&#45;&gt;outputnode (utility) -->
<g id="edge6" class="edge">
<title>inu_n4 (fixes)&#45;&gt;outputnode (utility)</title>
<path fill="none" stroke="black" d="M215.34,-291.28C233.7,-282.99 253.37,-270.39 263.94,-252 303.81,-182.64 305.33,-140.46 263.94,-72 254.78,-56.84 239.69,-45.81 223.93,-37.86"/>
<polygon fill="black" stroke="black" points="225.16,-34.57 214.62,-33.54 222.21,-40.92 225.16,-34.57"/>
</g>
<!-- skullstrip (afni) -->
<g id="node6" class="node">
<title>skullstrip (afni)</title>
<ellipse fill="none" stroke="black" cx="172.94" cy="-234" rx="81.79" ry="18"/>
<text text-anchor="middle" x="172.94" y="-230.3" font-family="Times,serif" font-size="14.00">skullstrip (afni)</text>
</g>
<!-- inu_n4 (fixes)&#45;&gt;skullstrip (afni) -->
<g id="edge5" class="edge">
<title>inu_n4 (fixes)&#45;&gt;skullstrip (afni)</title>
<path fill="none" stroke="black" d="M172.94,-287.7C172.94,-279.98 172.94,-270.71 172.94,-262.11"/>
<polygon fill="black" stroke="black" points="176.44,-262.1 172.94,-252.1 169.44,-262.1 176.44,-262.1"/>
</g>
<!-- binarize (nibabel)&#45;&gt;outputnode (utility) -->
<g id="edge7" class="edge">
<title>binarize (nibabel)&#45;&gt;outputnode (utility)</title>
<path fill="none" stroke="black" d="M162.94,-71.7C162.94,-63.98 162.94,-54.71 162.94,-46.11"/>
<polygon fill="black" stroke="black" points="166.44,-46.1 162.94,-36.1 159.44,-46.1 166.44,-46.1"/>
</g>
<!-- skullstrip (afni)&#45;&gt;sstrip_orig_vol (afni) -->
<g id="edge8" class="edge">
<title>skullstrip (afni)&#45;&gt;sstrip_orig_vol (afni)</title>
<path fill="none" stroke="black" d="M156.72,-216.05C148.53,-207.5 138.44,-196.96 129.42,-187.54"/>
<polygon fill="black" stroke="black" points="131.92,-185.08 122.48,-180.28 126.86,-189.92 131.92,-185.08"/>
</g>
</g>
</svg>
