<?xml version="1.0" encoding="UTF-8" standalone="no"?>
<!DOCTYPE svg PUBLIC "-//W3C//DTD SVG 1.1//EN"
 "http://www.w3.org/Graphics/SVG/1.1/DTD/svg11.dtd">
<!-- Generated by graphviz version 2.43.0 (0)
 -->
<!-- Title: %3 Pages: 1 -->
<svg width="687pt" height="332pt"
 viewBox="0.00 0.00 687.45 332.00" xmlns="http://www.w3.org/2000/svg" xmlns:xlink="http://www.w3.org/1999/xlink">
<g id="graph0" class="graph" transform="scale(1 1) rotate(0) translate(4 328)">
<title>%3</title>
<polygon fill="white" stroke="transparent" points="-4,4 -4,-328 683.45,-328 683.45,4 -4,4"/>
<!-- inputnode (utility) -->
<g id="node1" class="node">
<title>inputnode (utility)</title>
<ellipse fill="none" stroke="black" cx="317.61" cy="-306" rx="94.78" ry="18"/>
<text text-anchor="middle" x="317.61" y="-302.3" font-family="Times,serif" font-size="14.00">inputnode (utility)</text>
</g>
<!-- val_bold (header) -->
<g id="node2" class="node">
<title>val_bold (header)</title>
<ellipse fill="none" stroke="black" cx="136.61" cy="-234" rx="90.98" ry="18"/>
<text text-anchor="middle" x="136.61" y="-230.3" font-family="Times,serif" font-size="14.00">val_bold (header)</text>
</g>
<!-- inputnode (utility)&#45;&gt;val_bold (header) -->
<g id="edge1" class="edge">
<title>inputnode (utility)&#45;&gt;val_bold (header)</title>
<path fill="none" stroke="black" d="M277.89,-289.64C250.78,-279.15 214.67,-265.19 185.75,-254"/>
<polygon fill="black" stroke="black" points="186.83,-250.67 176.24,-250.33 184.3,-257.2 186.83,-250.67"/>
</g>
<!-- get_dummy (bold) -->
<g id="node3" class="node">
<title>get_dummy (bold)</title>
<ellipse fill="none" stroke="black" cx="379.61" cy="-234" rx="94.78" ry="18"/>
<text text-anchor="middle" x="379.61" y="-230.3" font-family="Times,serif" font-size="14.00">get_dummy (bold)</text>
</g>
<!-- inputnode (utility)&#45;&gt;get_dummy (bold) -->
<g id="edge2" class="edge">
<title>inputnode (utility)&#45;&gt;get_dummy (bold)</title>
<path fill="none" stroke="black" d="M332.62,-288.05C340.23,-279.46 349.62,-268.86 358,-259.4"/>
<polygon fill="black" stroke="black" points="360.73,-261.6 364.74,-251.79 355.49,-256.95 360.73,-261.6"/>
</g>
<!-- enhance_and_skullstrip_bold_wf -->
<g id="node4" class="node">
<title>enhance_and_skullstrip_bold_wf</title>
<ellipse fill="none" stroke="black" cx="192.61" cy="-90" rx="159.47" ry="18"/>
<text text-anchor="middle" x="192.61" y="-86.3" font-family="Times,serif" font-size="14.00">enhance_and_skullstrip_bold_wf</text>
</g>
<!-- inputnode (utility)&#45;&gt;enhance_and_skullstrip_bold_wf -->
<g id="edge3" class="edge">
<title>inputnode (utility)&#45;&gt;enhance_and_skullstrip_bold_wf</title>
<path fill="none" stroke="black" d="M301.65,-287.9C293.04,-277.99 282.76,-264.95 275.61,-252 251.03,-207.45 262.94,-188.13 237.61,-144 231.81,-133.9 223.99,-123.89 216.5,-115.33"/>
<polygon fill="black" stroke="black" points="219.09,-112.97 209.78,-107.92 213.91,-117.68 219.09,-112.97"/>
</g>
<!-- calc_dummy_scans (utility) -->
<g id="node5" class="node">
<title>calc_dummy_scans (utility)</title>
<ellipse fill="none" stroke="black" cx="543.61" cy="-162" rx="135.68" ry="18"/>
<text text-anchor="middle" x="543.61" y="-158.3" font-family="Times,serif" font-size="14.00">calc_dummy_scans (utility)</text>
</g>
<!-- inputnode (utility)&#45;&gt;calc_dummy_scans (utility) -->
<g id="edge4" class="edge">
<title>inputnode (utility)&#45;&gt;calc_dummy_scans (utility)</title>
<path fill="none" stroke="black" d="M387.06,-293.67C418.82,-285.91 455.53,-273.05 483.61,-252 505.26,-235.77 521.66,-209.31 531.79,-189.45"/>
<polygon fill="black" stroke="black" points="535.02,-190.83 536.26,-180.3 528.73,-187.75 535.02,-190.83"/>
</g>
<!-- outputnode (utility) -->
<g id="node6" class="node">
<title>outputnode (utility)</title>
<ellipse fill="none" stroke="black" cx="192.61" cy="-18" rx="101.28" ry="18"/>
<text text-anchor="middle" x="192.61" y="-14.3" font-family="Times,serif" font-size="14.00">outputnode (utility)</text>
</g>
<!-- val_bold (header)&#45;&gt;outputnode (utility) -->
<g id="edge5" class="edge">
<title>val_bold (header)&#45;&gt;outputnode (utility)</title>
<path fill="none" stroke="black" d="M91.05,-218.3C71.5,-209.89 49.9,-197.47 35.61,-180 4.65,-142.15 -14.62,-111.2 14.61,-72 26.92,-55.49 71.28,-42.26 112.63,-33.14"/>
<polygon fill="black" stroke="black" points="113.45,-36.55 122.5,-31.03 111.98,-29.7 113.45,-36.55"/>
</g>
<!-- gen_avg (images) -->
<g id="node7" class="node">
<title>gen_avg (images)</title>
<ellipse fill="none" stroke="black" cx="136.61" cy="-162" rx="91.78" ry="18"/>
<text text-anchor="middle" x="136.61" y="-158.3" font-family="Times,serif" font-size="14.00">gen_avg (images)</text>
</g>
<!-- val_bold (header)&#45;&gt;gen_avg (images) -->
<g id="edge6" class="edge">
<title>val_bold (header)&#45;&gt;gen_avg (images)</title>
<path fill="none" stroke="black" d="M136.61,-215.7C136.61,-207.98 136.61,-198.71 136.61,-190.11"/>
<polygon fill="black" stroke="black" points="140.11,-190.1 136.61,-180.1 133.11,-190.1 140.11,-190.1"/>
</g>
<!-- get_dummy (bold)&#45;&gt;calc_dummy_scans (utility) -->
<g id="edge7" class="edge">
<title>get_dummy (bold)&#45;&gt;calc_dummy_scans (utility)</title>
<path fill="none" stroke="black" d="M416.42,-217.29C439.86,-207.28 470.48,-194.21 495.8,-183.41"/>
<polygon fill="black" stroke="black" points="497.39,-186.53 505.22,-179.39 494.65,-180.09 497.39,-186.53"/>
</g>
<!-- get_dummy (bold)&#45;&gt;outputnode (utility) -->
<g id="edge8" class="edge">
<title>get_dummy (bold)&#45;&gt;outputnode (utility)</title>
<path fill="none" stroke="black" d="M383.1,-215.65C388.52,-183.38 395.06,-113.63 360.61,-72 342.81,-50.49 316.34,-37.58 289.65,-29.88"/>
<polygon fill="black" stroke="black" points="290.39,-26.45 279.82,-27.27 288.59,-33.22 290.39,-26.45"/>
</g>
<!-- get_dummy (bold)&#45;&gt;gen_avg (images) -->
<g id="edge9" class="edge">
<title>get_dummy (bold)&#45;&gt;gen_avg (images)</title>
<path fill="none" stroke="black" d="M329.85,-218.67C290.9,-207.45 236.63,-191.81 195.51,-179.97"/>
<polygon fill="black" stroke="black" points="196.47,-176.6 185.89,-177.2 194.53,-183.33 196.47,-176.6"/>
</g>
<!-- enhance_and_skullstrip_bold_wf&#45;&gt;outputnode (utility) -->
<g id="edge10" class="edge">
<title>enhance_and_skullstrip_bold_wf&#45;&gt;outputnode (utility)</title>
<path fill="none" stroke="black" d="M192.61,-71.7C192.61,-63.98 192.61,-54.71 192.61,-46.11"/>
<polygon fill="black" stroke="black" points="196.11,-46.1 192.61,-36.1 189.11,-46.1 196.11,-46.1"/>
</g>
<!-- calc_dummy_scans (utility)&#45;&gt;outputnode (utility) -->
<g id="edge11" class="edge">
<title>calc_dummy_scans (utility)&#45;&gt;outputnode (utility)</title>
<path fill="none" stroke="black" d="M520.02,-144.17C491.36,-124.42 440.95,-91.83 393.61,-72 353.89,-55.36 307.52,-42.72 269.34,-33.96"/>
<polygon fill="black" stroke="black" points="269.83,-30.49 259.31,-31.71 268.3,-37.31 269.83,-30.49"/>
</g>
<!-- gen_avg (images)&#45;&gt;enhance_and_skullstrip_bold_wf -->
<g id="edge12" class="edge">
<title>gen_avg (images)&#45;&gt;enhance_and_skullstrip_bold_wf</title>
<path fill="none" stroke="black" d="M150.17,-144.05C156.88,-135.67 165.11,-125.38 172.53,-116.1"/>
<polygon fill="black" stroke="black" points="175.28,-118.27 178.79,-108.28 169.81,-113.9 175.28,-118.27"/>
</g>
<!-- gen_avg (images)&#45;&gt;outputnode (utility) -->
<g id="edge13" class="edge">
<title>gen_avg (images)&#45;&gt;outputnode (utility)</title>
<path fill="none" stroke="black" d="M79.47,-147.8C58.51,-139.9 36.92,-127.45 24.61,-108 16.05,-94.48 15.15,-84.9 24.61,-72 40.88,-49.81 66.45,-36.67 92.79,-28.96"/>
<polygon fill="black" stroke="black" points="93.76,-32.33 102.51,-26.36 91.95,-25.57 93.76,-32.33"/>
</g>
</g>
</svg>
