<?xml version="1.0" encoding="UTF-8" standalone="no"?>
<!DOCTYPE svg PUBLIC "-//W3C//DTD SVG 1.1//EN"
 "http://www.w3.org/Graphics/SVG/1.1/DTD/svg11.dtd">
<!-- Generated by graphviz version 2.40.1 (20161225.0304)
 -->
<!-- Title: %3 Pages: 1 -->
<svg width="644pt" height="548pt"
 viewBox="0.00 0.00 643.80 548.00" xmlns="http://www.w3.org/2000/svg" xmlns:xlink="http://www.w3.org/1999/xlink">
<g id="graph0" class="graph" transform="scale(1 1) rotate(0) translate(4 544)">
<title>%3</title>
<polygon fill="#ffffff" stroke="transparent" points="-4,4 -4,-544 639.7998,-544 639.7998,4 -4,4"/>
<!-- inputnode (utility) -->
<g id="node1" class="node">
<title>inputnode (utility)</title>
<ellipse fill="none" stroke="#000000" cx="332.0865" cy="-522" rx="94.7833" ry="18"/>
<text text-anchor="middle" x="332.0865" y="-518.3" font-family="Times,serif" font-size="14.00" fill="#000000">inputnode (utility)</text>
</g>
<!-- fssource (io) -->
<g id="node2" class="node">
<title>fssource (io)</title>
<ellipse fill="none" stroke="#000000" cx="332.0865" cy="-450" rx="68.4888" ry="18"/>
<text text-anchor="middle" x="332.0865" y="-446.3" font-family="Times,serif" font-size="14.00" fill="#000000">fssource (io)</text>
</g>
<!-- inputnode (utility)&#45;&gt;fssource (io) -->
<g id="edge1" class="edge">
<title>inputnode (utility)&#45;&gt;fssource (io)</title>
<path fill="none" stroke="#000000" d="M332.0865,-503.8314C332.0865,-496.131 332.0865,-486.9743 332.0865,-478.4166"/>
<polygon fill="#000000" stroke="#000000" points="335.5866,-478.4132 332.0865,-468.4133 328.5866,-478.4133 335.5866,-478.4132"/>
</g>
<!-- save_midthickness (io) -->
<g id="node3" class="node">
<title>save_midthickness (io)</title>
<ellipse fill="none" stroke="#000000" cx="490.0865" cy="-306" rx="116.9792" ry="18"/>
<text text-anchor="middle" x="490.0865" y="-302.3" font-family="Times,serif" font-size="14.00" fill="#000000">save_midthickness (io)</text>
</g>
<!-- inputnode (utility)&#45;&gt;save_midthickness (io) -->
<g id="edge2" class="edge">
<title>inputnode (utility)&#45;&gt;save_midthickness (io)</title>
<path fill="none" stroke="#000000" d="M412.6009,-512.3141C483.0298,-499.1114 581.3166,-468.157 629.0865,-396 637.9188,-382.6587 638.1225,-373.2042 629.0865,-360 620.3132,-347.1796 589.2177,-334.5119 558.6572,-324.6713"/>
<polygon fill="#000000" stroke="#000000" points="559.3718,-321.2276 548.7828,-321.5791 557.2798,-327.9077 559.3718,-321.2276"/>
</g>
<!-- fsnative_2_t1_xfm (freesurfer) -->
<g id="node4" class="node">
<title>fsnative_2_t1_xfm (freesurfer)</title>
<ellipse fill="none" stroke="#000000" cx="152.0865" cy="-306" rx="152.1731" ry="18"/>
<text text-anchor="middle" x="152.0865" y="-302.3" font-family="Times,serif" font-size="14.00" fill="#000000">fsnative_2_t1_xfm (freesurfer)</text>
</g>
<!-- inputnode (utility)&#45;&gt;fsnative_2_t1_xfm (freesurfer) -->
<g id="edge3" class="edge">
<title>inputnode (utility)&#45;&gt;fsnative_2_t1_xfm (freesurfer)</title>
<path fill="none" stroke="#000000" d="M301.8195,-504.703C286.6854,-495.1275 268.7368,-482.2826 255.0865,-468 215.475,-426.5536 182.5911,-367.6611 165.2789,-333.4822"/>
<polygon fill="#000000" stroke="#000000" points="168.2082,-331.5131 160.6158,-324.1235 161.9429,-334.6349 168.2082,-331.5131"/>
</g>
<!-- fssource (io)&#45;&gt;fsnative_2_t1_xfm (freesurfer) -->
<g id="edge4" class="edge">
<title>fssource (io)&#45;&gt;fsnative_2_t1_xfm (freesurfer)</title>
<path fill="none" stroke="#000000" d="M310.3743,-432.6302C278.5183,-407.1455 218.9725,-359.5088 182.6914,-330.4839"/>
<polygon fill="#000000" stroke="#000000" points="184.4355,-327.397 174.4404,-323.8831 180.0626,-332.8631 184.4355,-327.397"/>
</g>
<!-- midthickness (freesurfer) -->
<g id="node5" class="node">
<title>midthickness (freesurfer)</title>
<ellipse fill="none" stroke="#000000" cx="490.0865" cy="-378" rx="129.9769" ry="18"/>
<text text-anchor="middle" x="490.0865" y="-374.3" font-family="Times,serif" font-size="14.00" fill="#000000">midthickness (freesurfer)</text>
</g>
<!-- fssource (io)&#45;&gt;midthickness (freesurfer) -->
<g id="edge5" class="edge">
<title>fssource (io)&#45;&gt;midthickness (freesurfer)</title>
<path fill="none" stroke="#000000" d="M366.3702,-434.3771C388.8237,-424.1451 418.4631,-410.6385 443.1018,-399.4108"/>
<polygon fill="#000000" stroke="#000000" points="444.6262,-402.5624 452.2745,-395.2308 441.7234,-396.1926 444.6262,-402.5624"/>
</g>
<!-- surface_list (utility) -->
<g id="node6" class="node">
<title>surface_list (utility)</title>
<ellipse fill="none" stroke="#000000" cx="340.0865" cy="-234" rx="102.8821" ry="18"/>
<text text-anchor="middle" x="340.0865" y="-230.3" font-family="Times,serif" font-size="14.00" fill="#000000">surface_list (utility)</text>
</g>
<!-- fssource (io)&#45;&gt;surface_list (utility) -->
<g id="edge6" class="edge">
<title>fssource (io)&#45;&gt;surface_list (utility)</title>
<path fill="none" stroke="#000000" d="M332.7548,-431.9555C334.146,-394.3938 337.3623,-307.5541 339.0343,-262.4103"/>
<polygon fill="#000000" stroke="#000000" points="342.5419,-262.2678 339.4145,-252.1451 335.5467,-262.0086 342.5419,-262.2678"/>
</g>
<!-- save_midthickness (io)&#45;&gt;surface_list (utility) -->
<g id="edge7" class="edge">
<title>save_midthickness (io)&#45;&gt;surface_list (utility)</title>
<path fill="none" stroke="#000000" d="M454.1578,-288.7542C433.3023,-278.7436 406.8545,-266.0486 384.6773,-255.4036"/>
<polygon fill="#000000" stroke="#000000" points="385.9928,-252.1528 375.463,-250.9807 382.9637,-258.4634 385.9928,-252.1528"/>
</g>
<!-- fix_surfs (surf) -->
<g id="node7" class="node">
<title>fix_surfs (surf)</title>
<ellipse fill="none" stroke="#000000" cx="242.0865" cy="-90" rx="79.0865" ry="18"/>
<text text-anchor="middle" x="242.0865" y="-86.3" font-family="Times,serif" font-size="14.00" fill="#000000">fix_surfs (surf)</text>
</g>
<!-- fsnative_2_t1_xfm (freesurfer)&#45;&gt;fix_surfs (surf) -->
<g id="edge8" class="edge">
<title>fsnative_2_t1_xfm (freesurfer)&#45;&gt;fix_surfs (surf)</title>
<path fill="none" stroke="#000000" d="M159.6051,-287.9555C175.355,-250.1556 211.8988,-162.4506 230.6047,-117.5564"/>
<polygon fill="#000000" stroke="#000000" points="233.9106,-118.722 234.5261,-108.1451 227.4491,-116.0297 233.9106,-118.722"/>
</g>
<!-- outputnode (utility) -->
<g id="node8" class="node">
<title>outputnode (utility)</title>
<ellipse fill="none" stroke="#000000" cx="242.0865" cy="-18" rx="101.2821" ry="18"/>
<text text-anchor="middle" x="242.0865" y="-14.3" font-family="Times,serif" font-size="14.00" fill="#000000">outputnode (utility)</text>
</g>
<!-- fsnative_2_t1_xfm (freesurfer)&#45;&gt;outputnode (utility) -->
<g id="edge9" class="edge">
<title>fsnative_2_t1_xfm (freesurfer)&#45;&gt;outputnode (utility)</title>
<path fill="none" stroke="#000000" d="M146.6759,-287.7729C135.48,-246.2841 114.0035,-142.9116 154.0865,-72 161.9009,-58.1754 174.8459,-47.4521 188.4345,-39.3392"/>
<polygon fill="#000000" stroke="#000000" points="190.3506,-42.2792 197.4096,-34.3785 186.9644,-36.1528 190.3506,-42.2792"/>
</g>
<!-- midthickness (freesurfer)&#45;&gt;save_midthickness (io) -->
<g id="edge10" class="edge">
<title>midthickness (freesurfer)&#45;&gt;save_midthickness (io)</title>
<path fill="none" stroke="#000000" d="M490.0865,-359.8314C490.0865,-352.131 490.0865,-342.9743 490.0865,-334.4166"/>
<polygon fill="#000000" stroke="#000000" points="493.5866,-334.4132 490.0865,-324.4133 486.5866,-334.4133 493.5866,-334.4132"/>
</g>
<!-- fs_2_gii (freesurfer) -->
<g id="node9" class="node">
<title>fs_2_gii (freesurfer)</title>
<ellipse fill="none" stroke="#000000" cx="340.0865" cy="-162" rx="102.8821" ry="18"/>
<text text-anchor="middle" x="340.0865" y="-158.3" font-family="Times,serif" font-size="14.00" fill="#000000">fs_2_gii (freesurfer)</text>
</g>
<!-- surface_list (utility)&#45;&gt;fs_2_gii (freesurfer) -->
<g id="edge11" class="edge">
<title>surface_list (utility)&#45;&gt;fs_2_gii (freesurfer)</title>
<path fill="none" stroke="#000000" d="M340.0865,-215.8314C340.0865,-208.131 340.0865,-198.9743 340.0865,-190.4166"/>
<polygon fill="#000000" stroke="#000000" points="343.5866,-190.4132 340.0865,-180.4133 336.5866,-190.4133 343.5866,-190.4132"/>
</g>
<!-- fix_surfs (surf)&#45;&gt;outputnode (utility) -->
<g id="edge12" class="edge">
<title>fix_surfs (surf)&#45;&gt;outputnode (utility)</title>
<path fill="none" stroke="#000000" d="M242.0865,-71.8314C242.0865,-64.131 242.0865,-54.9743 242.0865,-46.4166"/>
<polygon fill="#000000" stroke="#000000" points="245.5866,-46.4132 242.0865,-36.4133 238.5866,-46.4133 245.5866,-46.4132"/>
</g>
<!-- fs_2_gii (freesurfer)&#45;&gt;fix_surfs (surf) -->
<g id="edge13" class="edge">
<title>fs_2_gii (freesurfer)&#45;&gt;fix_surfs (surf)</title>
<path fill="none" stroke="#000000" d="M316.113,-144.3868C303.4429,-135.0782 287.7213,-123.5276 274.0297,-113.4685"/>
<polygon fill="#000000" stroke="#000000" points="275.9436,-110.5316 265.8125,-107.4313 271.7991,-116.1727 275.9436,-110.5316"/>
</g>
<!-- fs_2_gii (freesurfer)&#45;&gt;outputnode (utility) -->
<g id="edge14" class="edge">
<title>fs_2_gii (freesurfer)&#45;&gt;outputnode (utility)</title>
<path fill="none" stroke="#000000" d="M342.4933,-143.918C344.1208,-124.5821 343.9026,-93.7684 330.0865,-72 321.4192,-58.3439 307.9288,-47.6058 294.0921,-39.4252"/>
<polygon fill="#000000" stroke="#000000" points="295.4443,-36.1741 284.9967,-34.4137 292.0662,-42.3051 295.4443,-36.1741"/>
</g>
</g>
</svg>
