<?xml version="1.0" encoding="UTF-8" standalone="no"?>
<!DOCTYPE svg PUBLIC "-//W3C//DTD SVG 1.1//EN"
 "http://www.w3.org/Graphics/SVG/1.1/DTD/svg11.dtd">
<!-- Generated by graphviz version 2.40.1 (20161225.0304)
 -->
<!-- Title: %3 Pages: 1 -->
<svg width="971pt" height="1844pt"
 viewBox="0.00 0.00 971.19 1844.00" xmlns="http://www.w3.org/2000/svg" xmlns:xlink="http://www.w3.org/1999/xlink">
<g id="graph0" class="graph" transform="scale(1 1) rotate(0) translate(4 1840)">
<title>%3</title>
<polygon fill="#ffffff" stroke="transparent" points="-4,4 -4,-1840 967.1872,-1840 967.1872,4 -4,4"/>
<!-- inputnode (utility) -->
<g id="node1" class="node">
<title>inputnode (utility)</title>
<ellipse fill="none" stroke="#000000" cx="377" cy="-1818" rx="94.7833" ry="18"/>
<text text-anchor="middle" x="377" y="-1814.3" font-family="Times,serif" font-size="14.00" fill="#000000">inputnode (utility)</text>
</g>
<!-- dil_brainmask (ants) -->
<g id="node2" class="node">
<title>dil_brainmask (ants)</title>
<ellipse fill="none" stroke="#000000" cx="377" cy="-1746" rx="106.6812" ry="18"/>
<text text-anchor="middle" x="377" y="-1742.3" font-family="Times,serif" font-size="14.00" fill="#000000">dil_brainmask (ants)</text>
</g>
<!-- inputnode (utility)&#45;&gt;dil_brainmask (ants) -->
<g id="edge1" class="edge">
<title>inputnode (utility)&#45;&gt;dil_brainmask (ants)</title>
<path fill="none" stroke="#000000" d="M377,-1799.8314C377,-1792.131 377,-1782.9743 377,-1774.4166"/>
<polygon fill="#000000" stroke="#000000" points="380.5001,-1774.4132 377,-1764.4133 373.5001,-1774.4133 380.5001,-1774.4132"/>
</g>
<!-- copy_xform (header) -->
<g id="node3" class="node">
<title>copy_xform (header)</title>
<ellipse fill="none" stroke="#000000" cx="314" cy="-162" rx="106.6812" ry="18"/>
<text text-anchor="middle" x="314" y="-158.3" font-family="Times,serif" font-size="14.00" fill="#000000">copy_xform (header)</text>
</g>
<!-- inputnode (utility)&#45;&gt;copy_xform (header) -->
<g id="edge2" class="edge">
<title>inputnode (utility)&#45;&gt;copy_xform (header)</title>
<path fill="none" stroke="#000000" d="M306.0892,-1805.8699C196.8815,-1785.15 0,-1738.8087 0,-1674 0,-1674 0,-1674 0,-306 0,-252.9092 150.1882,-204.3772 242.8252,-179.4919"/>
<polygon fill="#000000" stroke="#000000" points="243.9453,-182.8158 252.7122,-176.8668 242.1489,-176.0503 243.9453,-182.8158"/>
</g>
<!-- copy_xform_wm (header) -->
<g id="node4" class="node">
<title>copy_xform_wm (header)</title>
<ellipse fill="none" stroke="#000000" cx="281" cy="-1458" rx="128.0773" ry="18"/>
<text text-anchor="middle" x="281" y="-1454.3" font-family="Times,serif" font-size="14.00" fill="#000000">copy_xform_wm (header)</text>
</g>
<!-- inputnode (utility)&#45;&gt;copy_xform_wm (header) -->
<g id="edge3" class="edge">
<title>inputnode (utility)&#45;&gt;copy_xform_wm (header)</title>
<path fill="none" stroke="#000000" d="M321.0804,-1803.43C299.4612,-1795.1661 276.2941,-1782.6282 261,-1764 234.8706,-1732.1745 239,-1715.1777 239,-1674 239,-1674 239,-1674 239,-1602 239,-1560.0688 255.6152,-1513.918 267.9448,-1485.4435"/>
<polygon fill="#000000" stroke="#000000" points="271.2152,-1486.7032 272.0929,-1476.1447 264.8225,-1483.8513 271.2152,-1486.7032"/>
</g>
<!-- 03_pad_mask (ants) -->
<g id="node5" class="node">
<title>03_pad_mask (ants)</title>
<ellipse fill="none" stroke="#000000" cx="757" cy="-1674" rx="103.9815" ry="18"/>
<text text-anchor="middle" x="757" y="-1670.3" font-family="Times,serif" font-size="14.00" fill="#000000">03_pad_mask (ants)</text>
</g>
<!-- inputnode (utility)&#45;&gt;03_pad_mask (ants) -->
<g id="edge4" class="edge">
<title>inputnode (utility)&#45;&gt;03_pad_mask (ants)</title>
<path fill="none" stroke="#000000" d="M422.7105,-1802.2238C452.9665,-1791.6678 493.4682,-1777.3199 529,-1764 590.3827,-1740.9894 660.4478,-1713.084 706.521,-1694.5062"/>
<polygon fill="#000000" stroke="#000000" points="708.0142,-1697.6779 715.9766,-1690.6885 705.3935,-1691.1869 708.0142,-1697.6779"/>
</g>
<!-- 01_atropos (ants) -->
<g id="node6" class="node">
<title>01_atropos (ants)</title>
<ellipse fill="none" stroke="#000000" cx="446" cy="-1602" rx="92.0841" ry="18"/>
<text text-anchor="middle" x="446" y="-1598.3" font-family="Times,serif" font-size="14.00" fill="#000000">01_atropos (ants)</text>
</g>
<!-- inputnode (utility)&#45;&gt;01_atropos (ants) -->
<g id="edge5" class="edge">
<title>inputnode (utility)&#45;&gt;01_atropos (ants)</title>
<path fill="none" stroke="#000000" d="M437.2565,-1803.9366C458.4216,-1795.8534 480.1161,-1783.3101 493,-1764 519.6509,-1724.0562 513.5198,-1700.7083 496,-1656 491.7528,-1645.1617 484.1956,-1635.1983 476.2225,-1626.8598"/>
<polygon fill="#000000" stroke="#000000" points="478.4674,-1624.1602 468.8662,-1619.6804 473.5782,-1629.1698 478.4674,-1624.1602"/>
</g>
<!-- inu_n4_final (ants) -->
<g id="node7" class="node">
<title>inu_n4_final (ants)</title>
<ellipse fill="none" stroke="#000000" cx="125" cy="-1386" rx="96.6831" ry="18"/>
<text text-anchor="middle" x="125" y="-1382.3" font-family="Times,serif" font-size="14.00" fill="#000000">inu_n4_final (ants)</text>
</g>
<!-- inputnode (utility)&#45;&gt;inu_n4_final (ants) -->
<g id="edge6" class="edge">
<title>inputnode (utility)&#45;&gt;inu_n4_final (ants)</title>
<path fill="none" stroke="#000000" d="M300.7078,-1807.1728C226.5377,-1791.834 125,-1755.8823 125,-1674 125,-1674 125,-1674 125,-1530 125,-1489.876 125,-1443.4631 125,-1414.4177"/>
<polygon fill="#000000" stroke="#000000" points="128.5001,-1414.1853 125,-1404.1854 121.5001,-1414.1854 128.5001,-1414.1853"/>
</g>
<!-- msk_conform (utility) -->
<g id="node8" class="node">
<title>msk_conform (utility)</title>
<ellipse fill="none" stroke="#000000" cx="815" cy="-234" rx="111.2805" ry="18"/>
<text text-anchor="middle" x="815" y="-230.3" font-family="Times,serif" font-size="14.00" fill="#000000">msk_conform (utility)</text>
</g>
<!-- inputnode (utility)&#45;&gt;msk_conform (utility) -->
<g id="edge7" class="edge">
<title>inputnode (utility)&#45;&gt;msk_conform (utility)</title>
<path fill="none" stroke="#000000" d="M469.8534,-1814.286C635.0896,-1805.1257 963,-1774.3103 963,-1674 963,-1674 963,-1674 963,-378 963,-336.6022 965.9952,-319.3853 939,-288 925.3154,-272.0899 906.0721,-260.7071 886.8195,-252.6296"/>
<polygon fill="#000000" stroke="#000000" points="887.979,-249.3248 877.3917,-248.9245 885.4186,-255.8397 887.979,-249.3248"/>
</g>
<!-- get_brainmask (ants) -->
<g id="node9" class="node">
<title>get_brainmask (ants)</title>
<ellipse fill="none" stroke="#000000" cx="377" cy="-1674" rx="109.6807" ry="18"/>
<text text-anchor="middle" x="377" y="-1670.3" font-family="Times,serif" font-size="14.00" fill="#000000">get_brainmask (ants)</text>
</g>
<!-- dil_brainmask (ants)&#45;&gt;get_brainmask (ants) -->
<g id="edge8" class="edge">
<title>dil_brainmask (ants)&#45;&gt;get_brainmask (ants)</title>
<path fill="none" stroke="#000000" d="M377,-1727.8314C377,-1720.131 377,-1710.9743 377,-1702.4166"/>
<polygon fill="#000000" stroke="#000000" points="380.5001,-1702.4132 377,-1692.4133 373.5001,-1702.4133 380.5001,-1702.4132"/>
</g>
<!-- apply_mask (nibabel) -->
<g id="node10" class="node">
<title>apply_mask (nibabel)</title>
<ellipse fill="none" stroke="#000000" cx="383" cy="-90" rx="109.6807" ry="18"/>
<text text-anchor="middle" x="383" y="-86.3" font-family="Times,serif" font-size="14.00" fill="#000000">apply_mask (nibabel)</text>
</g>
<!-- copy_xform (header)&#45;&gt;apply_mask (nibabel) -->
<g id="edge9" class="edge">
<title>copy_xform (header)&#45;&gt;apply_mask (nibabel)</title>
<path fill="none" stroke="#000000" d="M331.0562,-144.2022C339.4325,-135.4617 349.6705,-124.7786 358.8362,-115.2144"/>
<polygon fill="#000000" stroke="#000000" points="361.5088,-117.4841 365.9009,-107.8425 356.4548,-112.6408 361.5088,-117.4841"/>
</g>
<!-- outputnode (utility) -->
<g id="node11" class="node">
<title>outputnode (utility)</title>
<ellipse fill="none" stroke="#000000" cx="314" cy="-18" rx="101.2821" ry="18"/>
<text text-anchor="middle" x="314" y="-14.3" font-family="Times,serif" font-size="14.00" fill="#000000">outputnode (utility)</text>
</g>
<!-- copy_xform (header)&#45;&gt;outputnode (utility) -->
<g id="edge10" class="edge">
<title>copy_xform (header)&#45;&gt;outputnode (utility)</title>
<path fill="none" stroke="#000000" d="M291.1338,-144.3196C280.7414,-134.8197 269.5473,-122.1561 264,-108 258.1623,-93.103 258.1623,-86.897 264,-72 268.2472,-61.1617 275.8044,-51.1983 283.7775,-42.8598"/>
<polygon fill="#000000" stroke="#000000" points="286.4218,-45.1698 291.1338,-35.6804 281.5326,-40.1602 286.4218,-45.1698"/>
</g>
<!-- copy_xform_wm (header)&#45;&gt;inu_n4_final (ants) -->
<g id="edge11" class="edge">
<title>copy_xform_wm (header)&#45;&gt;inu_n4_final (ants)</title>
<path fill="none" stroke="#000000" d="M243.6341,-1440.7542C221.6891,-1430.6257 193.7905,-1417.7494 170.5619,-1407.0286"/>
<polygon fill="#000000" stroke="#000000" points="171.8009,-1403.7456 161.2545,-1402.7329 168.8674,-1410.1014 171.8009,-1403.7456"/>
</g>
<!-- 20_add_7_2 (ants) -->
<g id="node12" class="node">
<title>20_add_7_2 (ants)</title>
<ellipse fill="none" stroke="#000000" cx="815" cy="-522" rx="95.5831" ry="18"/>
<text text-anchor="middle" x="815" y="-518.3" font-family="Times,serif" font-size="14.00" fill="#000000">20_add_7_2 (ants)</text>
</g>
<!-- 03_pad_mask (ants)&#45;&gt;20_add_7_2 (ants) -->
<g id="edge12" class="edge">
<title>03_pad_mask (ants)&#45;&gt;20_add_7_2 (ants)</title>
<path fill="none" stroke="#000000" d="M802.4632,-1657.7174C852.2171,-1636.6336 925,-1594.7289 925,-1530 925,-1530 925,-1530 925,-666 925,-624.4855 924.7219,-609.3509 900,-576 890.2639,-562.8656 876.2985,-552.1213 862.4928,-543.7735"/>
<polygon fill="#000000" stroke="#000000" points="863.9092,-540.552 853.4896,-538.6329 860.4383,-546.6308 863.9092,-540.552"/>
</g>
<!-- 02_pad_segm (ants) -->
<g id="node13" class="node">
<title>02_pad_segm (ants)</title>
<ellipse fill="none" stroke="#000000" cx="555" cy="-1530" rx="103.9815" ry="18"/>
<text text-anchor="middle" x="555" y="-1526.3" font-family="Times,serif" font-size="14.00" fill="#000000">02_pad_segm (ants)</text>
</g>
<!-- 01_atropos (ants)&#45;&gt;02_pad_segm (ants) -->
<g id="edge13" class="edge">
<title>01_atropos (ants)&#45;&gt;02_pad_segm (ants)</title>
<path fill="none" stroke="#000000" d="M472.3859,-1584.5708C486.6064,-1575.1774 504.3436,-1563.4611 519.7335,-1553.2953"/>
<polygon fill="#000000" stroke="#000000" points="522.0644,-1555.9503 528.4793,-1547.5182 518.2063,-1550.1095 522.0644,-1555.9503"/>
</g>
<!-- sel_wm (utility) -->
<g id="node14" class="node">
<title>sel_wm (utility)</title>
<ellipse fill="none" stroke="#000000" cx="350" cy="-1530" rx="83.3857" ry="18"/>
<text text-anchor="middle" x="350" y="-1526.3" font-family="Times,serif" font-size="14.00" fill="#000000">sel_wm (utility)</text>
</g>
<!-- 01_atropos (ants)&#45;&gt;sel_wm (utility) -->
<g id="edge14" class="edge">
<title>01_atropos (ants)&#45;&gt;sel_wm (utility)</title>
<path fill="none" stroke="#000000" d="M422.7611,-1584.5708C410.3536,-1575.2652 394.9065,-1563.6799 381.4409,-1553.5807"/>
<polygon fill="#000000" stroke="#000000" points="383.4577,-1550.7183 373.3577,-1547.5182 379.2577,-1556.3183 383.4577,-1550.7183"/>
</g>
<!-- inu_n4_final (ants)&#45;&gt;copy_xform (header) -->
<g id="edge15" class="edge">
<title>inu_n4_final (ants)&#45;&gt;copy_xform (header)</title>
<path fill="none" stroke="#000000" d="M123.5496,-1367.8284C121.4993,-1340.5296 118,-1287.3034 118,-1242 118,-1242 118,-1242 118,-306 118,-240.2398 190.54,-201.1967 247.3592,-180.7014"/>
<polygon fill="#000000" stroke="#000000" points="248.7522,-183.9225 257.0454,-177.329 246.4506,-177.3117 248.7522,-183.9225"/>
</g>
<!-- msk_conform (utility)&#45;&gt;copy_xform (header) -->
<g id="edge16" class="edge">
<title>msk_conform (utility)&#45;&gt;copy_xform (header)</title>
<path fill="none" stroke="#000000" d="M731.7076,-222.0298C641.6383,-209.0857 498.4919,-188.5138 405.3857,-175.1333"/>
<polygon fill="#000000" stroke="#000000" points="405.8086,-171.6582 395.4124,-173.7 404.8128,-178.587 405.8086,-171.6582"/>
</g>
<!-- get_brainmask (ants)&#45;&gt;01_atropos (ants) -->
<g id="edge17" class="edge">
<title>get_brainmask (ants)&#45;&gt;01_atropos (ants)</title>
<path fill="none" stroke="#000000" d="M394.0562,-1656.2022C402.4325,-1647.4617 412.6705,-1636.7786 421.8362,-1627.2144"/>
<polygon fill="#000000" stroke="#000000" points="424.5088,-1629.4841 428.9009,-1619.8425 419.4548,-1624.6408 424.5088,-1629.4841"/>
</g>
<!-- apply_mask (nibabel)&#45;&gt;outputnode (utility) -->
<g id="edge18" class="edge">
<title>apply_mask (nibabel)&#45;&gt;outputnode (utility)</title>
<path fill="none" stroke="#000000" d="M365.9438,-72.2022C357.5675,-63.4617 347.3295,-52.7786 338.1638,-43.2144"/>
<polygon fill="#000000" stroke="#000000" points="340.5452,-40.6408 331.0991,-35.8425 335.4912,-45.4841 340.5452,-40.6408"/>
</g>
<!-- 21_md_7_2 (ants) -->
<g id="node35" class="node">
<title>21_md_7_2 (ants)</title>
<ellipse fill="none" stroke="#000000" cx="815" cy="-450" rx="92.8835" ry="18"/>
<text text-anchor="middle" x="815" y="-446.3" font-family="Times,serif" font-size="14.00" fill="#000000">21_md_7_2 (ants)</text>
</g>
<!-- 20_add_7_2 (ants)&#45;&gt;21_md_7_2 (ants) -->
<g id="edge19" class="edge">
<title>20_add_7_2 (ants)&#45;&gt;21_md_7_2 (ants)</title>
<path fill="none" stroke="#000000" d="M815,-503.8314C815,-496.131 815,-486.9743 815,-478.4166"/>
<polygon fill="#000000" stroke="#000000" points="818.5001,-478.4132 815,-468.4133 811.5001,-478.4133 818.5001,-478.4132"/>
</g>
<!-- 04_sel_labels (utility) -->
<g id="node15" class="node">
<title>04_sel_labels (utility)</title>
<ellipse fill="none" stroke="#000000" cx="555" cy="-1458" rx="110.4804" ry="18"/>
<text text-anchor="middle" x="555" y="-1454.3" font-family="Times,serif" font-size="14.00" fill="#000000">04_sel_labels (utility)</text>
</g>
<!-- 02_pad_segm (ants)&#45;&gt;04_sel_labels (utility) -->
<g id="edge20" class="edge">
<title>02_pad_segm (ants)&#45;&gt;04_sel_labels (utility)</title>
<path fill="none" stroke="#000000" d="M555,-1511.8314C555,-1504.131 555,-1494.9743 555,-1486.4166"/>
<polygon fill="#000000" stroke="#000000" points="558.5001,-1486.4132 555,-1476.4133 551.5001,-1486.4133 558.5001,-1486.4132"/>
</g>
<!-- sel_wm (utility)&#45;&gt;copy_xform_wm (header) -->
<g id="edge21" class="edge">
<title>sel_wm (utility)&#45;&gt;copy_xform_wm (header)</title>
<path fill="none" stroke="#000000" d="M332.9438,-1512.2022C324.5675,-1503.4617 314.3295,-1492.7786 305.1638,-1483.2144"/>
<polygon fill="#000000" stroke="#000000" points="307.5452,-1480.6408 298.0991,-1475.8425 302.4912,-1485.4841 307.5452,-1480.6408"/>
</g>
<!-- 05_get_wm (ants) -->
<g id="node16" class="node">
<title>05_get_wm (ants)</title>
<ellipse fill="none" stroke="#000000" cx="372" cy="-1314" rx="93.6835" ry="18"/>
<text text-anchor="middle" x="372" y="-1310.3" font-family="Times,serif" font-size="14.00" fill="#000000">05_get_wm (ants)</text>
</g>
<!-- 04_sel_labels (utility)&#45;&gt;05_get_wm (ants) -->
<g id="edge22" class="edge">
<title>04_sel_labels (utility)&#45;&gt;05_get_wm (ants)</title>
<path fill="none" stroke="#000000" d="M532.5606,-1440.3428C499.8188,-1414.5787 438.8711,-1366.6199 402.214,-1337.775"/>
<polygon fill="#000000" stroke="#000000" points="404.3595,-1335.0096 394.3364,-1331.5762 400.0308,-1340.5107 404.3595,-1335.0096"/>
</g>
<!-- 06_get_gm (ants) -->
<g id="node17" class="node">
<title>06_get_gm (ants)</title>
<ellipse fill="none" stroke="#000000" cx="770" cy="-1386" rx="91.784" ry="18"/>
<text text-anchor="middle" x="770" y="-1382.3" font-family="Times,serif" font-size="14.00" fill="#000000">06_get_gm (ants)</text>
</g>
<!-- 04_sel_labels (utility)&#45;&gt;06_get_gm (ants) -->
<g id="edge23" class="edge">
<title>04_sel_labels (utility)&#45;&gt;06_get_gm (ants)</title>
<path fill="none" stroke="#000000" d="M603.5183,-1441.752C636.2083,-1430.8047 679.4378,-1416.3278 713.6524,-1404.8699"/>
<polygon fill="#000000" stroke="#000000" points="715.1314,-1408.0657 723.5023,-1401.5713 712.9085,-1401.428 715.1314,-1408.0657"/>
</g>
<!-- 10_me_csf (ants) -->
<g id="node18" class="node">
<title>10_me_csf (ants)</title>
<ellipse fill="none" stroke="#000000" cx="573" cy="-1314" rx="89.8845" ry="18"/>
<text text-anchor="middle" x="573" y="-1310.3" font-family="Times,serif" font-size="14.00" fill="#000000">10_me_csf (ants)</text>
</g>
<!-- 04_sel_labels (utility)&#45;&gt;10_me_csf (ants) -->
<g id="edge24" class="edge">
<title>04_sel_labels (utility)&#45;&gt;10_me_csf (ants)</title>
<path fill="none" stroke="#000000" d="M557.2797,-1439.7623C560.3499,-1415.201 565.8441,-1371.2474 569.4557,-1342.3541"/>
<polygon fill="#000000" stroke="#000000" points="572.9713,-1342.4465 570.7388,-1332.0896 566.0254,-1341.5782 572.9713,-1342.4465"/>
</g>
<!-- 27_depad_csf (ants) -->
<g id="node19" class="node">
<title>27_depad_csf (ants)</title>
<ellipse fill="none" stroke="#000000" cx="250" cy="-1242" rx="103.9815" ry="18"/>
<text text-anchor="middle" x="250" y="-1238.3" font-family="Times,serif" font-size="14.00" fill="#000000">27_depad_csf (ants)</text>
</g>
<!-- 04_sel_labels (utility)&#45;&gt;27_depad_csf (ants) -->
<g id="edge25" class="edge">
<title>04_sel_labels (utility)&#45;&gt;27_depad_csf (ants)</title>
<path fill="none" stroke="#000000" d="M479.734,-1444.7502C414.1639,-1429.1843 321.5805,-1396.7644 269,-1332 254.9869,-1314.7398 250.596,-1289.6357 249.506,-1270.3236"/>
<polygon fill="#000000" stroke="#000000" points="253.0029,-1270.1659 249.1999,-1260.2772 246.0062,-1270.3792 253.0029,-1270.1659"/>
</g>
<!-- 09_relabel_wm (ants) -->
<g id="node20" class="node">
<title>09_relabel_wm (ants)</title>
<ellipse fill="none" stroke="#000000" cx="382" cy="-1098" rx="110.4804" ry="18"/>
<text text-anchor="middle" x="382" y="-1094.3" font-family="Times,serif" font-size="14.00" fill="#000000">09_relabel_wm (ants)</text>
</g>
<!-- 05_get_wm (ants)&#45;&gt;09_relabel_wm (ants) -->
<g id="edge26" class="edge">
<title>05_get_wm (ants)&#45;&gt;09_relabel_wm (ants)</title>
<path fill="none" stroke="#000000" d="M372.8354,-1295.9555C374.5744,-1258.3938 378.5947,-1171.5541 380.6847,-1126.4103"/>
<polygon fill="#000000" stroke="#000000" points="384.1936,-1126.2963 381.16,-1116.1451 377.2011,-1125.9725 384.1936,-1126.2963"/>
</g>
<!-- 07_fill_gm (ants) -->
<g id="node21" class="node">
<title>07_fill_gm (ants)</title>
<ellipse fill="none" stroke="#000000" cx="770" cy="-1314" rx="89.0842" ry="18"/>
<text text-anchor="middle" x="770" y="-1310.3" font-family="Times,serif" font-size="14.00" fill="#000000">07_fill_gm (ants)</text>
</g>
<!-- 06_get_gm (ants)&#45;&gt;07_fill_gm (ants) -->
<g id="edge27" class="edge">
<title>06_get_gm (ants)&#45;&gt;07_fill_gm (ants)</title>
<path fill="none" stroke="#000000" d="M770,-1367.8314C770,-1360.131 770,-1350.9743 770,-1342.4166"/>
<polygon fill="#000000" stroke="#000000" points="773.5001,-1342.4132 770,-1332.4133 766.5001,-1342.4133 773.5001,-1342.4132"/>
</g>
<!-- 08_mult_gm (ants) -->
<g id="node22" class="node">
<title>08_mult_gm (ants)</title>
<ellipse fill="none" stroke="#000000" cx="770" cy="-1242" rx="98.2828" ry="18"/>
<text text-anchor="middle" x="770" y="-1238.3" font-family="Times,serif" font-size="14.00" fill="#000000">08_mult_gm (ants)</text>
</g>
<!-- 06_get_gm (ants)&#45;&gt;08_mult_gm (ants) -->
<g id="edge28" class="edge">
<title>06_get_gm (ants)&#45;&gt;08_mult_gm (ants)</title>
<path fill="none" stroke="#000000" d="M819.6914,-1370.8354C838.2199,-1362.4967 857.3291,-1350.0635 868,-1332 876.138,-1318.2242 876.138,-1309.7758 868,-1296 859.2037,-1281.1098 844.6734,-1270.0454 829.4611,-1261.9467"/>
<polygon fill="#000000" stroke="#000000" points="830.981,-1258.7938 820.4637,-1257.5145 827.8877,-1265.0733 830.981,-1258.7938"/>
</g>
<!-- 11_add_gm (ants) -->
<g id="node23" class="node">
<title>11_add_gm (ants)</title>
<ellipse fill="none" stroke="#000000" cx="695" cy="-1170" rx="93.6835" ry="18"/>
<text text-anchor="middle" x="695" y="-1166.3" font-family="Times,serif" font-size="14.00" fill="#000000">11_add_gm (ants)</text>
</g>
<!-- 10_me_csf (ants)&#45;&gt;11_add_gm (ants) -->
<g id="edge29" class="edge">
<title>10_me_csf (ants)&#45;&gt;11_add_gm (ants)</title>
<path fill="none" stroke="#000000" d="M588.2047,-1296.0535C609.5741,-1270.8306 648.6134,-1224.7514 673.1075,-1195.8403"/>
<polygon fill="#000000" stroke="#000000" points="675.8099,-1198.0651 679.6037,-1188.1727 670.469,-1193.5401 675.8099,-1198.0651"/>
</g>
<!-- merge_tpms (utility) -->
<g id="node38" class="node">
<title>merge_tpms (utility)</title>
<ellipse fill="none" stroke="#000000" cx="314" cy="-954" rx="106.6812" ry="18"/>
<text text-anchor="middle" x="314" y="-950.3" font-family="Times,serif" font-size="14.00" fill="#000000">merge_tpms (utility)</text>
</g>
<!-- 27_depad_csf (ants)&#45;&gt;merge_tpms (utility) -->
<g id="edge30" class="edge">
<title>27_depad_csf (ants)&#45;&gt;merge_tpms (utility)</title>
<path fill="none" stroke="#000000" d="M237.604,-1224.0053C210.7347,-1182.5614 153.033,-1078.5335 198,-1008 208.1766,-992.0374 224.4322,-980.7184 241.5919,-972.7202"/>
<polygon fill="#000000" stroke="#000000" points="243.3717,-975.7654 251.1852,-968.61 240.6149,-969.3311 243.3717,-975.7654"/>
</g>
<!-- 13_add_gm_wm (ants) -->
<g id="node24" class="node">
<title>13_add_gm_wm (ants)</title>
<ellipse fill="none" stroke="#000000" cx="781" cy="-1026" rx="115.0796" ry="18"/>
<text text-anchor="middle" x="781" y="-1022.3" font-family="Times,serif" font-size="14.00" fill="#000000">13_add_gm_wm (ants)</text>
</g>
<!-- 09_relabel_wm (ants)&#45;&gt;13_add_gm_wm (ants) -->
<g id="edge31" class="edge">
<title>09_relabel_wm (ants)&#45;&gt;13_add_gm_wm (ants)</title>
<path fill="none" stroke="#000000" d="M456.1137,-1084.6261C524.0229,-1072.3718 624.5289,-1054.2354 695.7418,-1041.3849"/>
<polygon fill="#000000" stroke="#000000" points="696.3699,-1044.8282 705.5894,-1039.6079 695.1267,-1037.9395 696.3699,-1044.8282"/>
</g>
<!-- 26_depad_wm (ants) -->
<g id="node25" class="node">
<title>26_depad_wm (ants)</title>
<ellipse fill="none" stroke="#000000" cx="314" cy="-1026" rx="106.6812" ry="18"/>
<text text-anchor="middle" x="314" y="-1022.3" font-family="Times,serif" font-size="14.00" fill="#000000">26_depad_wm (ants)</text>
</g>
<!-- 09_relabel_wm (ants)&#45;&gt;26_depad_wm (ants) -->
<g id="edge32" class="edge">
<title>09_relabel_wm (ants)&#45;&gt;26_depad_wm (ants)</title>
<path fill="none" stroke="#000000" d="M365.191,-1080.2022C356.9361,-1071.4617 346.8465,-1060.7786 337.8136,-1051.2144"/>
<polygon fill="#000000" stroke="#000000" points="340.2621,-1048.7095 330.8513,-1043.8425 335.173,-1053.5159 340.2621,-1048.7095"/>
</g>
<!-- 07_fill_gm (ants)&#45;&gt;08_mult_gm (ants) -->
<g id="edge33" class="edge">
<title>07_fill_gm (ants)&#45;&gt;08_mult_gm (ants)</title>
<path fill="none" stroke="#000000" d="M770,-1295.8314C770,-1288.131 770,-1278.9743 770,-1270.4166"/>
<polygon fill="#000000" stroke="#000000" points="773.5001,-1270.4132 770,-1260.4133 766.5001,-1270.4133 773.5001,-1270.4132"/>
</g>
<!-- 08_mult_gm (ants)&#45;&gt;11_add_gm (ants) -->
<g id="edge34" class="edge">
<title>08_mult_gm (ants)&#45;&gt;11_add_gm (ants)</title>
<path fill="none" stroke="#000000" d="M751.4607,-1224.2022C742.2658,-1215.3752 731.0072,-1204.5669 720.9695,-1194.9307"/>
<polygon fill="#000000" stroke="#000000" points="723.2238,-1192.243 713.586,-1187.8425 718.376,-1197.2928 723.2238,-1192.243"/>
</g>
<!-- 12_relabel_gm (ants) -->
<g id="node26" class="node">
<title>12_relabel_gm (ants)</title>
<ellipse fill="none" stroke="#000000" cx="695" cy="-1098" rx="108.5808" ry="18"/>
<text text-anchor="middle" x="695" y="-1094.3" font-family="Times,serif" font-size="14.00" fill="#000000">12_relabel_gm (ants)</text>
</g>
<!-- 11_add_gm (ants)&#45;&gt;12_relabel_gm (ants) -->
<g id="edge35" class="edge">
<title>11_add_gm (ants)&#45;&gt;12_relabel_gm (ants)</title>
<path fill="none" stroke="#000000" d="M695,-1151.8314C695,-1144.131 695,-1134.9743 695,-1126.4166"/>
<polygon fill="#000000" stroke="#000000" points="698.5001,-1126.4132 695,-1116.4133 691.5001,-1126.4133 698.5001,-1126.4132"/>
</g>
<!-- 14_sel_labels2 (utility) -->
<g id="node28" class="node">
<title>14_sel_labels2 (utility)</title>
<ellipse fill="none" stroke="#000000" cx="781" cy="-954" rx="116.1796" ry="18"/>
<text text-anchor="middle" x="781" y="-950.3" font-family="Times,serif" font-size="14.00" fill="#000000">14_sel_labels2 (utility)</text>
</g>
<!-- 13_add_gm_wm (ants)&#45;&gt;14_sel_labels2 (utility) -->
<g id="edge36" class="edge">
<title>13_add_gm_wm (ants)&#45;&gt;14_sel_labels2 (utility)</title>
<path fill="none" stroke="#000000" d="M781,-1007.8314C781,-1000.131 781,-990.9743 781,-982.4166"/>
<polygon fill="#000000" stroke="#000000" points="784.5001,-982.4132 781,-972.4133 777.5001,-982.4133 784.5001,-982.4132"/>
</g>
<!-- 24_depad_segm (ants) -->
<g id="node29" class="node">
<title>24_depad_segm (ants)</title>
<ellipse fill="none" stroke="#000000" cx="502" cy="-882" rx="115.0796" ry="18"/>
<text text-anchor="middle" x="502" y="-878.3" font-family="Times,serif" font-size="14.00" fill="#000000">24_depad_segm (ants)</text>
</g>
<!-- 13_add_gm_wm (ants)&#45;&gt;24_depad_segm (ants) -->
<g id="edge37" class="edge">
<title>13_add_gm_wm (ants)&#45;&gt;24_depad_segm (ants)</title>
<path fill="none" stroke="#000000" d="M738.7506,-1009.2442C714.2507,-999.1589 683.0007,-985.6589 656,-972 614.754,-951.1349 569.2513,-924.0041 538.4781,-905.0078"/>
<polygon fill="#000000" stroke="#000000" points="540.1568,-901.9305 529.8138,-899.634 536.4672,-907.8792 540.1568,-901.9305"/>
</g>
<!-- 26_depad_wm (ants)&#45;&gt;merge_tpms (utility) -->
<g id="edge38" class="edge">
<title>26_depad_wm (ants)&#45;&gt;merge_tpms (utility)</title>
<path fill="none" stroke="#000000" d="M314,-1007.8314C314,-1000.131 314,-990.9743 314,-982.4166"/>
<polygon fill="#000000" stroke="#000000" points="317.5001,-982.4132 314,-972.4133 310.5001,-982.4133 317.5001,-982.4132"/>
</g>
<!-- 12_relabel_gm (ants)&#45;&gt;13_add_gm_wm (ants) -->
<g id="edge39" class="edge">
<title>12_relabel_gm (ants)&#45;&gt;13_add_gm_wm (ants)</title>
<path fill="none" stroke="#000000" d="M716.2584,-1080.2022C727.0086,-1071.2021 740.219,-1060.1423 751.8971,-1050.3652"/>
<polygon fill="#000000" stroke="#000000" points="754.2673,-1052.9456 759.6881,-1043.8425 749.7737,-1047.5783 754.2673,-1052.9456"/>
</g>
<!-- 25_depad_gm (ants) -->
<g id="node27" class="node">
<title>25_depad_gm (ants)</title>
<ellipse fill="none" stroke="#000000" cx="543" cy="-1026" rx="104.7816" ry="18"/>
<text text-anchor="middle" x="543" y="-1022.3" font-family="Times,serif" font-size="14.00" fill="#000000">25_depad_gm (ants)</text>
</g>
<!-- 12_relabel_gm (ants)&#45;&gt;25_depad_gm (ants) -->
<g id="edge40" class="edge">
<title>12_relabel_gm (ants)&#45;&gt;25_depad_gm (ants)</title>
<path fill="none" stroke="#000000" d="M658.9781,-1080.937C637.6822,-1070.8495 610.5318,-1057.9887 587.8547,-1047.247"/>
<polygon fill="#000000" stroke="#000000" points="589.299,-1044.0584 578.7633,-1042.9405 586.3024,-1050.3845 589.299,-1044.0584"/>
</g>
<!-- 25_depad_gm (ants)&#45;&gt;merge_tpms (utility) -->
<g id="edge41" class="edge">
<title>25_depad_gm (ants)&#45;&gt;merge_tpms (utility)</title>
<path fill="none" stroke="#000000" d="M492.745,-1010.1993C457.8165,-999.2174 411.095,-984.5277 374.1792,-972.921"/>
<polygon fill="#000000" stroke="#000000" points="375.1224,-969.5487 364.533,-969.8881 373.0228,-976.2264 375.1224,-969.5487"/>
</g>
<!-- 15_add_7 (ants) -->
<g id="node30" class="node">
<title>15_add_7 (ants)</title>
<ellipse fill="none" stroke="#000000" cx="784" cy="-882" rx="85.2851" ry="18"/>
<text text-anchor="middle" x="784" y="-878.3" font-family="Times,serif" font-size="14.00" fill="#000000">15_add_7 (ants)</text>
</g>
<!-- 14_sel_labels2 (utility)&#45;&gt;15_add_7 (ants) -->
<g id="edge42" class="edge">
<title>14_sel_labels2 (utility)&#45;&gt;15_add_7 (ants)</title>
<path fill="none" stroke="#000000" d="M781.757,-935.8314C782.0779,-928.131 782.4594,-918.9743 782.816,-910.4166"/>
<polygon fill="#000000" stroke="#000000" points="786.3133,-910.5503 783.2328,-900.4133 779.3194,-910.2589 786.3133,-910.5503"/>
</g>
<!-- 24_depad_segm (ants)&#45;&gt;copy_xform (header) -->
<g id="edge43" class="edge">
<title>24_depad_segm (ants)&#45;&gt;copy_xform (header)</title>
<path fill="none" stroke="#000000" d="M485.1331,-864.0553C462.7429,-838.2804 426,-788.3175 426,-738 426,-738 426,-738 426,-306 426,-254.9049 381.5207,-211.0211 348.6227,-185.5514"/>
<polygon fill="#000000" stroke="#000000" points="350.6395,-182.689 340.5424,-179.4797 346.4344,-188.2851 350.6395,-182.689"/>
</g>
<!-- 16_me_7 (ants) -->
<g id="node31" class="node">
<title>16_me_7 (ants)</title>
<ellipse fill="none" stroke="#000000" cx="787" cy="-810" rx="81.7856" ry="18"/>
<text text-anchor="middle" x="787" y="-806.3" font-family="Times,serif" font-size="14.00" fill="#000000">16_me_7 (ants)</text>
</g>
<!-- 15_add_7 (ants)&#45;&gt;16_me_7 (ants) -->
<g id="edge44" class="edge">
<title>15_add_7 (ants)&#45;&gt;16_me_7 (ants)</title>
<path fill="none" stroke="#000000" d="M784.757,-863.8314C785.0779,-856.131 785.4594,-846.9743 785.816,-838.4166"/>
<polygon fill="#000000" stroke="#000000" points="789.3133,-838.5503 786.2328,-828.4133 782.3194,-838.2589 789.3133,-838.5503"/>
</g>
<!-- 17_comp_7 (ants) -->
<g id="node32" class="node">
<title>17_comp_7 (ants)</title>
<ellipse fill="none" stroke="#000000" cx="798" cy="-738" rx="92.8835" ry="18"/>
<text text-anchor="middle" x="798" y="-734.3" font-family="Times,serif" font-size="14.00" fill="#000000">17_comp_7 (ants)</text>
</g>
<!-- 16_me_7 (ants)&#45;&gt;17_comp_7 (ants) -->
<g id="edge45" class="edge">
<title>16_me_7 (ants)&#45;&gt;17_comp_7 (ants)</title>
<path fill="none" stroke="#000000" d="M789.7758,-791.8314C790.9522,-784.131 792.3511,-774.9743 793.6586,-766.4166"/>
<polygon fill="#000000" stroke="#000000" points="797.1364,-766.8272 795.1869,-756.4133 790.2167,-765.7699 797.1364,-766.8272"/>
</g>
<!-- 18_md_7 (ants) -->
<g id="node33" class="node">
<title>18_md_7 (ants)</title>
<ellipse fill="none" stroke="#000000" cx="806" cy="-666" rx="82.5854" ry="18"/>
<text text-anchor="middle" x="806" y="-662.3" font-family="Times,serif" font-size="14.00" fill="#000000">18_md_7 (ants)</text>
</g>
<!-- 17_comp_7 (ants)&#45;&gt;18_md_7 (ants) -->
<g id="edge46" class="edge">
<title>17_comp_7 (ants)&#45;&gt;18_md_7 (ants)</title>
<path fill="none" stroke="#000000" d="M800.0187,-719.8314C800.8743,-712.131 801.8917,-702.9743 802.8426,-694.4166"/>
<polygon fill="#000000" stroke="#000000" points="806.3283,-694.7386 803.9541,-684.4133 799.3711,-693.9656 806.3283,-694.7386"/>
</g>
<!-- 19_fill_7 (ants) -->
<g id="node34" class="node">
<title>19_fill_7 (ants)</title>
<ellipse fill="none" stroke="#000000" cx="811" cy="-594" rx="79.8859" ry="18"/>
<text text-anchor="middle" x="811" y="-590.3" font-family="Times,serif" font-size="14.00" fill="#000000">19_fill_7 (ants)</text>
</g>
<!-- 18_md_7 (ants)&#45;&gt;19_fill_7 (ants) -->
<g id="edge47" class="edge">
<title>18_md_7 (ants)&#45;&gt;19_fill_7 (ants)</title>
<path fill="none" stroke="#000000" d="M807.2617,-647.8314C807.7965,-640.131 808.4323,-630.9743 809.0266,-622.4166"/>
<polygon fill="#000000" stroke="#000000" points="812.52,-622.6317 809.7213,-612.4133 805.5368,-622.1467 812.52,-622.6317"/>
</g>
<!-- 19_fill_7 (ants)&#45;&gt;20_add_7_2 (ants) -->
<g id="edge48" class="edge">
<title>19_fill_7 (ants)&#45;&gt;20_add_7_2 (ants)</title>
<path fill="none" stroke="#000000" d="M812.0094,-575.8314C812.4372,-568.131 812.9459,-558.9743 813.4213,-550.4166"/>
<polygon fill="#000000" stroke="#000000" points="816.9169,-550.592 813.977,-540.4133 809.9276,-550.2037 816.9169,-550.592"/>
</g>
<!-- 22_me_7_2 (ants) -->
<g id="node36" class="node">
<title>22_me_7_2 (ants)</title>
<ellipse fill="none" stroke="#000000" cx="815" cy="-378" rx="92.8835" ry="18"/>
<text text-anchor="middle" x="815" y="-374.3" font-family="Times,serif" font-size="14.00" fill="#000000">22_me_7_2 (ants)</text>
</g>
<!-- 21_md_7_2 (ants)&#45;&gt;22_me_7_2 (ants) -->
<g id="edge49" class="edge">
<title>21_md_7_2 (ants)&#45;&gt;22_me_7_2 (ants)</title>
<path fill="none" stroke="#000000" d="M815,-431.8314C815,-424.131 815,-414.9743 815,-406.4166"/>
<polygon fill="#000000" stroke="#000000" points="818.5001,-406.4132 815,-396.4133 811.5001,-406.4133 818.5001,-406.4132"/>
</g>
<!-- 23_depad_mask (ants) -->
<g id="node37" class="node">
<title>23_depad_mask (ants)</title>
<ellipse fill="none" stroke="#000000" cx="815" cy="-306" rx="115.0796" ry="18"/>
<text text-anchor="middle" x="815" y="-302.3" font-family="Times,serif" font-size="14.00" fill="#000000">23_depad_mask (ants)</text>
</g>
<!-- 22_me_7_2 (ants)&#45;&gt;23_depad_mask (ants) -->
<g id="edge50" class="edge">
<title>22_me_7_2 (ants)&#45;&gt;23_depad_mask (ants)</title>
<path fill="none" stroke="#000000" d="M815,-359.8314C815,-352.131 815,-342.9743 815,-334.4166"/>
<polygon fill="#000000" stroke="#000000" points="818.5001,-334.4132 815,-324.4133 811.5001,-334.4133 818.5001,-334.4132"/>
</g>
<!-- 23_depad_mask (ants)&#45;&gt;msk_conform (utility) -->
<g id="edge51" class="edge">
<title>23_depad_mask (ants)&#45;&gt;msk_conform (utility)</title>
<path fill="none" stroke="#000000" d="M815,-287.8314C815,-280.131 815,-270.9743 815,-262.4166"/>
<polygon fill="#000000" stroke="#000000" points="818.5001,-262.4132 815,-252.4133 811.5001,-262.4133 818.5001,-262.4132"/>
</g>
<!-- merge_tpms (utility)&#45;&gt;copy_xform (header) -->
<g id="edge52" class="edge">
<title>merge_tpms (utility)&#45;&gt;copy_xform (header)</title>
<path fill="none" stroke="#000000" d="M314,-935.8146C314,-908.4983 314,-855.25 314,-810 314,-810 314,-810 314,-306 314,-265.876 314,-219.4631 314,-190.4177"/>
<polygon fill="#000000" stroke="#000000" points="317.5001,-190.1853 314,-180.1854 310.5001,-190.1854 317.5001,-190.1853"/>
</g>
</g>
</svg>
