<?xml version="1.0" encoding="UTF-8" standalone="no"?>
<!DOCTYPE svg PUBLIC "-//W3C//DTD SVG 1.1//EN"
 "http://www.w3.org/Graphics/SVG/1.1/DTD/svg11.dtd">
<!-- Generated by graphviz version 2.40.1 (20161225.0304)
 -->
<!-- Title: structs Pages: 1 -->
<svg width="719pt" height="654pt"
 viewBox="0.00 0.00 719.32 654.00" xmlns="http://www.w3.org/2000/svg" xmlns:xlink="http://www.w3.org/1999/xlink">
<g id="graph0" class="graph" transform="scale(1 1) rotate(0) translate(4 650)">
<title>structs</title>
<polygon fill="#ffffff" stroke="transparent" points="-4,4 -4,-650 715.3162,-650 715.3162,4 -4,4"/>
<!-- AFNISkullStripWorkflowinputnode -->
<g id="node1" class="node">
<title>AFNISkullStripWorkflowinputnode</title>
<polygon fill="none" stroke="#000000" points="95.8162,-576.5 95.8162,-645.5 279.8162,-645.5 279.8162,-576.5 95.8162,-576.5"/>
<text text-anchor="middle" x="113.3162" y="-607.3" font-family="Times,serif" font-size="14.00" fill="#000000">IN</text>
<polyline fill="none" stroke="#000000" points="130.8162,-576.5 130.8162,-645.5 "/>
<text text-anchor="middle" x="175.3162" y="-630.3" font-family="Times,serif" font-size="14.00" fill="#000000">inputnode</text>
<polyline fill="none" stroke="#000000" points="130.8162,-622.5 219.8162,-622.5 "/>
<text text-anchor="middle" x="175.3162" y="-607.3" font-family="Times,serif" font-size="14.00" fill="#000000">utility</text>
<polyline fill="none" stroke="#000000" points="130.8162,-599.5 219.8162,-599.5 "/>
<text text-anchor="middle" x="175.3162" y="-584.3" font-family="Times,serif" font-size="14.00" fill="#000000"> </text>
<polyline fill="none" stroke="#000000" points="219.8162,-576.5 219.8162,-645.5 "/>
<text text-anchor="middle" x="249.8162" y="-624.8" font-family="Times,serif" font-size="14.00" fill="#000000">OUT</text>
<polyline fill="none" stroke="#000000" points="219.8162,-611.5 279.8162,-611.5 "/>
<text text-anchor="middle" x="249.8162" y="-590.3" font-family="Times,serif" font-size="14.00" fill="#000000">in_file</text>
</g>
<!-- AFNISkullStripWorkflowinu_n4 -->
<g id="node2" class="node">
<title>AFNISkullStripWorkflowinu_n4</title>
<polygon fill="none" stroke="#000000" points="15.3162,-470.5 15.3162,-539.5 300.3162,-539.5 300.3162,-470.5 15.3162,-470.5"/>
<text text-anchor="middle" x="67.8162" y="-518.8" font-family="Times,serif" font-size="14.00" fill="#000000">IN</text>
<polyline fill="none" stroke="#000000" points="15.3162,-505.5 120.3162,-505.5 "/>
<text text-anchor="middle" x="67.8162" y="-484.3" font-family="Times,serif" font-size="14.00" fill="#000000">input_image</text>
<polyline fill="none" stroke="#000000" points="120.3162,-470.5 120.3162,-539.5 "/>
<text text-anchor="middle" x="152.8162" y="-524.3" font-family="Times,serif" font-size="14.00" fill="#000000">inu_n4</text>
<polyline fill="none" stroke="#000000" points="120.3162,-516.5 185.3162,-516.5 "/>
<text text-anchor="middle" x="152.8162" y="-501.3" font-family="Times,serif" font-size="14.00" fill="#000000">fixes</text>
<polyline fill="none" stroke="#000000" points="120.3162,-493.5 185.3162,-493.5 "/>
<text text-anchor="middle" x="152.8162" y="-478.3" font-family="Times,serif" font-size="14.00" fill="#000000"> </text>
<polyline fill="none" stroke="#000000" points="185.3162,-470.5 185.3162,-539.5 "/>
<text text-anchor="middle" x="242.8162" y="-524.3" font-family="Times,serif" font-size="14.00" fill="#000000">OUT</text>
<polyline fill="none" stroke="#000000" points="185.3162,-516.5 300.3162,-516.5 "/>
<text text-anchor="middle" x="242.8162" y="-501.3" font-family="Times,serif" font-size="14.00" fill="#000000">bias_image</text>
<polyline fill="none" stroke="#000000" points="185.3162,-493.5 300.3162,-493.5 "/>
<text text-anchor="middle" x="242.8162" y="-478.3" font-family="Times,serif" font-size="14.00" fill="#000000">output_image</text>
</g>
<!-- AFNISkullStripWorkflowinputnode&#45;&gt;AFNISkullStripWorkflowinu_n4 -->
<g id="edge2" class="edge">
<title>AFNISkullStripWorkflowinputnode:e&#45;&gt;AFNISkullStripWorkflowinu_n4:w</title>
<path fill="none" stroke="#000000" d="M279.8162,-594C287.8162,-594 285.0785,-582.0256 279.8162,-576 201.631,-486.4753 93.0014,-629.5247 14.8162,-540 2.3455,-525.7206 -5.2172,-499.8769 5.2249,-491.0504"/>
<polygon fill="#000000" stroke="#000000" points="6.3473,-494.3662 14.8162,-488 4.2257,-487.6954 6.3473,-494.3662"/>
</g>
<!-- AFNISkullStripWorkflowsstrip_orig_vol -->
<g id="node4" class="node">
<title>AFNISkullStripWorkflowsstrip_orig_vol</title>
<polygon fill="none" stroke="#000000" points="423.3162,-258.5 423.3162,-327.5 692.3162,-327.5 692.3162,-258.5 423.3162,-258.5"/>
<text text-anchor="middle" x="461.8162" y="-312.3" font-family="Times,serif" font-size="14.00" fill="#000000">IN</text>
<polyline fill="none" stroke="#000000" points="423.3162,-304.5 500.3162,-304.5 "/>
<text text-anchor="middle" x="461.8162" y="-289.3" font-family="Times,serif" font-size="14.00" fill="#000000">in_file_a</text>
<polyline fill="none" stroke="#000000" points="423.3162,-281.5 500.3162,-281.5 "/>
<text text-anchor="middle" x="461.8162" y="-266.3" font-family="Times,serif" font-size="14.00" fill="#000000">in_file_b</text>
<polyline fill="none" stroke="#000000" points="500.3162,-258.5 500.3162,-327.5 "/>
<text text-anchor="middle" x="561.3162" y="-312.3" font-family="Times,serif" font-size="14.00" fill="#000000">sstrip_orig_vol</text>
<polyline fill="none" stroke="#000000" points="500.3162,-304.5 622.3162,-304.5 "/>
<text text-anchor="middle" x="561.3162" y="-289.3" font-family="Times,serif" font-size="14.00" fill="#000000">afni</text>
<polyline fill="none" stroke="#000000" points="500.3162,-281.5 622.3162,-281.5 "/>
<text text-anchor="middle" x="561.3162" y="-266.3" font-family="Times,serif" font-size="14.00" fill="#000000"> </text>
<polyline fill="none" stroke="#000000" points="622.3162,-258.5 622.3162,-327.5 "/>
<text text-anchor="middle" x="657.3162" y="-306.8" font-family="Times,serif" font-size="14.00" fill="#000000">OUT</text>
<polyline fill="none" stroke="#000000" points="622.3162,-293.5 692.3162,-293.5 "/>
<text text-anchor="middle" x="657.3162" y="-272.3" font-family="Times,serif" font-size="14.00" fill="#000000">out_file</text>
</g>
<!-- AFNISkullStripWorkflowinputnode&#45;&gt;AFNISkullStripWorkflowsstrip_orig_vol -->
<g id="edge3" class="edge">
<title>AFNISkullStripWorkflowinputnode:e&#45;&gt;AFNISkullStripWorkflowsstrip_orig_vol:w</title>
<path fill="none" stroke="#000000" d="M279.8162,-594C415.4992,-594 473.6297,-552.445 539.8162,-434 554.9923,-406.8414 558.2994,-389.0255 539.8162,-364 507.4935,-320.2365 455.1388,-371.7635 422.8162,-328 416.4626,-319.3975 411.4928,-306.0805 414.0619,-298.5974"/>
<polygon fill="#000000" stroke="#000000" points="416.2765,-301.3357 422.8162,-293 412.5057,-295.4382 416.2765,-301.3357"/>
</g>
<!-- AFNISkullStripWorkflowskullstrip -->
<g id="node3" class="node">
<title>AFNISkullStripWorkflowskullstrip</title>
<polygon fill="none" stroke="#000000" points="315.3162,-364.5 315.3162,-433.5 530.3162,-433.5 530.3162,-364.5 315.3162,-364.5"/>
<text text-anchor="middle" x="345.3162" y="-412.8" font-family="Times,serif" font-size="14.00" fill="#000000">IN</text>
<polyline fill="none" stroke="#000000" points="315.3162,-399.5 375.3162,-399.5 "/>
<text text-anchor="middle" x="345.3162" y="-378.3" font-family="Times,serif" font-size="14.00" fill="#000000">in_file</text>
<polyline fill="none" stroke="#000000" points="375.3162,-364.5 375.3162,-433.5 "/>
<text text-anchor="middle" x="417.8162" y="-418.3" font-family="Times,serif" font-size="14.00" fill="#000000">skullstrip</text>
<polyline fill="none" stroke="#000000" points="375.3162,-410.5 460.3162,-410.5 "/>
<text text-anchor="middle" x="417.8162" y="-395.3" font-family="Times,serif" font-size="14.00" fill="#000000">afni</text>
<polyline fill="none" stroke="#000000" points="375.3162,-387.5 460.3162,-387.5 "/>
<text text-anchor="middle" x="417.8162" y="-372.3" font-family="Times,serif" font-size="14.00" fill="#000000"> </text>
<polyline fill="none" stroke="#000000" points="460.3162,-364.5 460.3162,-433.5 "/>
<text text-anchor="middle" x="495.3162" y="-412.8" font-family="Times,serif" font-size="14.00" fill="#000000">OUT</text>
<polyline fill="none" stroke="#000000" points="460.3162,-399.5 530.3162,-399.5 "/>
<text text-anchor="middle" x="495.3162" y="-378.3" font-family="Times,serif" font-size="14.00" fill="#000000">out_file</text>
</g>
<!-- AFNISkullStripWorkflowinu_n4&#45;&gt;AFNISkullStripWorkflowskullstrip -->
<g id="edge6" class="edge">
<title>AFNISkullStripWorkflowinu_n4:e&#45;&gt;AFNISkullStripWorkflowskullstrip:w</title>
<path fill="none" stroke="#000000" d="M300.8162,-482C319.5737,-482 301.0739,-412.1208 307.6064,-389.1918"/>
<polygon fill="#000000" stroke="#000000" points="310.208,-391.5402 314.8162,-382 305.2645,-386.5843 310.208,-391.5402"/>
</g>
<!-- AFNISkullStripWorkflowoutputnode -->
<g id="node6" class="node">
<title>AFNISkullStripWorkflowoutputnode</title>
<polygon fill="none" stroke="#000000" points="440.3162,-.5 440.3162,-115.5 711.3162,-115.5 711.3162,-.5 440.3162,-.5"/>
<text text-anchor="middle" x="501.8162" y="-100.3" font-family="Times,serif" font-size="14.00" fill="#000000">IN</text>
<polyline fill="none" stroke="#000000" points="440.3162,-92.5 563.3162,-92.5 "/>
<text text-anchor="middle" x="501.8162" y="-77.3" font-family="Times,serif" font-size="14.00" fill="#000000">bias_corrected</text>
<polyline fill="none" stroke="#000000" points="440.3162,-69.5 563.3162,-69.5 "/>
<text text-anchor="middle" x="501.8162" y="-54.3" font-family="Times,serif" font-size="14.00" fill="#000000">bias_image</text>
<polyline fill="none" stroke="#000000" points="440.3162,-46.5 563.3162,-46.5 "/>
<text text-anchor="middle" x="501.8162" y="-31.3" font-family="Times,serif" font-size="14.00" fill="#000000">out_file</text>
<polyline fill="none" stroke="#000000" points="440.3162,-23.5 563.3162,-23.5 "/>
<text text-anchor="middle" x="501.8162" y="-8.3" font-family="Times,serif" font-size="14.00" fill="#000000">out_mask</text>
<polyline fill="none" stroke="#000000" points="563.3162,-.5 563.3162,-115.5 "/>
<text text-anchor="middle" x="612.3162" y="-92.8" font-family="Times,serif" font-size="14.00" fill="#000000">outputnode</text>
<polyline fill="none" stroke="#000000" points="563.3162,-77.5 661.3162,-77.5 "/>
<text text-anchor="middle" x="612.3162" y="-54.8" font-family="Times,serif" font-size="14.00" fill="#000000">utility</text>
<polyline fill="none" stroke="#000000" points="563.3162,-39.5 661.3162,-39.5 "/>
<text text-anchor="middle" x="612.3162" y="-16.3" font-family="Times,serif" font-size="14.00" fill="#000000"> </text>
<polyline fill="none" stroke="#000000" points="661.3162,-.5 661.3162,-115.5 "/>
<text text-anchor="middle" x="686.3162" y="-54.3" font-family="Times,serif" font-size="14.00" fill="#000000">OUT</text>
</g>
<!-- AFNISkullStripWorkflowinu_n4&#45;&gt;AFNISkullStripWorkflowoutputnode -->
<g id="edge4" class="edge">
<title>AFNISkullStripWorkflowinu_n4:e&#45;&gt;AFNISkullStripWorkflowoutputnode:w</title>
<path fill="none" stroke="#000000" d="M300.8162,-505C304.7353,-505 305.2172,-367.8731 305.8162,-364 327.976,-220.7148 293.0568,-65.4592 429.6797,-58.2603"/>
<polygon fill="#000000" stroke="#000000" points="429.9093,-61.7556 439.8162,-58 429.7296,-54.7579 429.9093,-61.7556"/>
</g>
<!-- AFNISkullStripWorkflowinu_n4&#45;&gt;AFNISkullStripWorkflowoutputnode -->
<g id="edge5" class="edge">
<title>AFNISkullStripWorkflowinu_n4:e&#45;&gt;AFNISkullStripWorkflowoutputnode:w</title>
<path fill="none" stroke="#000000" d="M300.8162,-482C300.8162,-482 300.8162,-364 300.8162,-364 303.4839,-269.6647 262.7837,-232.0189 312.8162,-152 345.2246,-100.168 372.0632,-82.8842 429.5284,-81.1488"/>
<polygon fill="#000000" stroke="#000000" points="429.8679,-84.6443 439.8162,-81 429.7666,-77.645 429.8679,-84.6443"/>
</g>
<!-- AFNISkullStripWorkflowskullstrip&#45;&gt;AFNISkullStripWorkflowsstrip_orig_vol -->
<g id="edge7" class="edge">
<title>AFNISkullStripWorkflowskullstrip:e&#45;&gt;AFNISkullStripWorkflowsstrip_orig_vol:w</title>
<path fill="none" stroke="#000000" d="M530.8162,-382C538.8162,-382 535.4939,-370.4899 530.8162,-364 501.2319,-322.954 452.4004,-369.046 422.8162,-328 410.2165,-310.5189 400.6686,-281.7341 412.9328,-272.7596"/>
<polygon fill="#000000" stroke="#000000" points="414.1259,-276.0605 422.8162,-270 412.2433,-269.3183 414.1259,-276.0605"/>
</g>
<!-- AFNISkullStripWorkflowbinarize -->
<g id="node5" class="node">
<title>AFNISkullStripWorkflowbinarize</title>
<polygon fill="none" stroke="#000000" points="373.8162,-152.5 373.8162,-221.5 593.8162,-221.5 593.8162,-152.5 373.8162,-152.5"/>
<text text-anchor="middle" x="403.8162" y="-200.8" font-family="Times,serif" font-size="14.00" fill="#000000">IN</text>
<polyline fill="none" stroke="#000000" points="373.8162,-187.5 433.8162,-187.5 "/>
<text text-anchor="middle" x="403.8162" y="-166.3" font-family="Times,serif" font-size="14.00" fill="#000000">in_file</text>
<polyline fill="none" stroke="#000000" points="433.8162,-152.5 433.8162,-221.5 "/>
<text text-anchor="middle" x="470.8162" y="-206.3" font-family="Times,serif" font-size="14.00" fill="#000000">binarize</text>
<polyline fill="none" stroke="#000000" points="433.8162,-198.5 507.8162,-198.5 "/>
<text text-anchor="middle" x="470.8162" y="-183.3" font-family="Times,serif" font-size="14.00" fill="#000000">nibabel</text>
<polyline fill="none" stroke="#000000" points="433.8162,-175.5 507.8162,-175.5 "/>
<text text-anchor="middle" x="470.8162" y="-160.3" font-family="Times,serif" font-size="14.00" fill="#000000"> </text>
<polyline fill="none" stroke="#000000" points="507.8162,-152.5 507.8162,-221.5 "/>
<text text-anchor="middle" x="550.8162" y="-200.8" font-family="Times,serif" font-size="14.00" fill="#000000">OUT</text>
<polyline fill="none" stroke="#000000" points="507.8162,-187.5 593.8162,-187.5 "/>
<text text-anchor="middle" x="550.8162" y="-166.3" font-family="Times,serif" font-size="14.00" fill="#000000">out_mask</text>
</g>
<!-- AFNISkullStripWorkflowsstrip_orig_vol&#45;&gt;AFNISkullStripWorkflowbinarize -->
<g id="edge8" class="edge">
<title>AFNISkullStripWorkflowsstrip_orig_vol:e&#45;&gt;AFNISkullStripWorkflowbinarize:w</title>
<path fill="none" stroke="#000000" d="M692.8162,-276C700.8162,-276 698.1464,-263.9656 692.8162,-258 597.7528,-151.605 468.8796,-328.395 373.8162,-222 361.1846,-207.8627 353.725,-181.928 364.2093,-173.0641"/>
<polygon fill="#000000" stroke="#000000" points="365.3526,-176.3732 373.8162,-170 363.2255,-169.7042 365.3526,-176.3732"/>
</g>
<!-- AFNISkullStripWorkflowsstrip_orig_vol&#45;&gt;AFNISkullStripWorkflowoutputnode -->
<g id="edge9" class="edge">
<title>AFNISkullStripWorkflowsstrip_orig_vol:e&#45;&gt;AFNISkullStripWorkflowoutputnode:w</title>
<path fill="none" stroke="#000000" d="M692.8162,-276C708.688,-276 709.7821,-216.4257 602.8162,-152 539.2632,-113.7219 486.2767,-173.8413 439.8162,-116 419.7376,-91.003 406.8683,-46.2817 429.7258,-36.7979"/>
<polygon fill="#000000" stroke="#000000" points="430.5852,-40.2 439.8162,-35 429.3573,-33.3085 430.5852,-40.2"/>
</g>
<!-- AFNISkullStripWorkflowbinarize&#45;&gt;AFNISkullStripWorkflowoutputnode -->
<g id="edge1" class="edge">
<title>AFNISkullStripWorkflowbinarize:e&#45;&gt;AFNISkullStripWorkflowoutputnode:w</title>
<path fill="none" stroke="#000000" d="M593.8162,-170C601.8162,-170 598.7877,-158.2677 593.8162,-152 550.1355,-96.9306 483.4969,-171.0694 439.8162,-116 413.4482,-82.7572 396.5403,-22.9088 429.6985,-13.3136"/>
<polygon fill="#000000" stroke="#000000" points="430.3501,-16.7585 439.8162,-12 429.4488,-9.8167 430.3501,-16.7585"/>
</g>
</g>
</svg>
