<?xml version="1.0" encoding="UTF-8" standalone="no"?>
<!DOCTYPE svg PUBLIC "-//W3C//DTD SVG 1.1//EN"
 "http://www.w3.org/Graphics/SVG/1.1/DTD/svg11.dtd">
<!-- Generated by graphviz version 2.43.0 (0)
 -->
<!-- Title: %3 Pages: 1 -->
<svg width="1182pt" height="692pt"
 viewBox="0.00 0.00 1182.04 692.00" xmlns="http://www.w3.org/2000/svg" xmlns:xlink="http://www.w3.org/1999/xlink">
<g id="graph0" class="graph" transform="scale(1 1) rotate(0) translate(4 688)">
<title>%3</title>
<polygon fill="white" stroke="transparent" points="-4,4 -4,-688 1178.04,-688 1178.04,4 -4,4"/>
<!-- inputnode (utility) -->
<g id="node1" class="node">
<title>inputnode (utility)</title>
<ellipse fill="none" stroke="black" cx="95" cy="-666" rx="94.78" ry="18"/>
<text text-anchor="middle" x="95" y="-662.3" font-family="Times,serif" font-size="14.00">inputnode (utility)</text>
</g>
<!-- truncate_images (ants) -->
<g id="node2" class="node">
<title>truncate_images (ants)</title>
<ellipse fill="none" stroke="black" cx="422" cy="-594" rx="117.78" ry="18"/>
<text text-anchor="middle" x="422" y="-590.3" font-family="Times,serif" font-size="14.00">truncate_images (ants)</text>
</g>
<!-- inputnode (utility)&#45;&gt;truncate_images (ants) -->
<g id="edge1" class="edge">
<title>inputnode (utility)&#45;&gt;truncate_images (ants)</title>
<path fill="none" stroke="black" d="M155.36,-652.08C209.35,-640.52 288.7,-623.53 346.81,-611.1"/>
<polygon fill="black" stroke="black" points="347.62,-614.5 356.67,-608.99 346.16,-607.66 347.62,-614.5"/>
</g>
<!-- init_aff (ants) -->
<g id="node3" class="node">
<title>init_aff (ants)</title>
<ellipse fill="none" stroke="black" cx="319" cy="-378" rx="72.29" ry="18"/>
<text text-anchor="middle" x="319" y="-374.3" font-family="Times,serif" font-size="14.00">init_aff (ants)</text>
</g>
<!-- inputnode (utility)&#45;&gt;init_aff (ants) -->
<g id="edge2" class="edge">
<title>inputnode (utility)&#45;&gt;init_aff (ants)</title>
<path fill="none" stroke="black" d="M95.48,-647.9C97.18,-599.69 104.45,-464.07 133,-432 159.22,-402.54 200.54,-388.96 237.58,-382.89"/>
<polygon fill="black" stroke="black" points="238.51,-386.29 247.9,-381.36 237.49,-379.36 238.51,-386.29"/>
</g>
<!-- norm (fixes) -->
<g id="node4" class="node">
<title>norm (fixes)</title>
<ellipse fill="none" stroke="black" cx="603" cy="-306" rx="66.09" ry="18"/>
<text text-anchor="middle" x="603" y="-302.3" font-family="Times,serif" font-size="14.00">norm (fixes)</text>
</g>
<!-- inputnode (utility)&#45;&gt;norm (fixes) -->
<g id="edge3" class="edge">
<title>inputnode (utility)&#45;&gt;norm (fixes)</title>
<path fill="none" stroke="black" d="M91.16,-647.61C85.6,-620.94 76,-568.27 76,-523 76,-523 76,-523 76,-449 76,-310.68 474.78,-333.07 527,-324 532.8,-322.99 538.83,-321.83 544.84,-320.61"/>
<polygon fill="black" stroke="black" points="545.83,-323.98 554.89,-318.49 544.39,-317.13 545.83,-323.98"/>
</g>
<!-- map_brainmask (fixes) -->
<g id="node5" class="node">
<title>map_brainmask (fixes)</title>
<ellipse fill="none" stroke="black" cx="1059" cy="-234" rx="115.08" ry="18"/>
<text text-anchor="middle" x="1059" y="-230.3" font-family="Times,serif" font-size="14.00">map_brainmask (fixes)</text>
</g>
<!-- inputnode (utility)&#45;&gt;map_brainmask (fixes) -->
<g id="edge4" class="edge">
<title>inputnode (utility)&#45;&gt;map_brainmask (fixes)</title>
<path fill="none" stroke="black" d="M185.79,-660.71C421.19,-648.37 1033,-608.13 1033,-523 1033,-523 1033,-523 1033,-377 1033,-336.55 1043.33,-290.67 1050.97,-262.28"/>
<polygon fill="black" stroke="black" points="1054.44,-262.87 1053.74,-252.3 1047.69,-261 1054.44,-262.87"/>
</g>
<!-- map_wmmask (fixes) -->
<g id="node6" class="node">
<title>map_wmmask (fixes)</title>
<ellipse fill="none" stroke="black" cx="518" cy="-234" rx="107.48" ry="18"/>
<text text-anchor="middle" x="518" y="-230.3" font-family="Times,serif" font-size="14.00">map_wmmask (fixes)</text>
</g>
<!-- inputnode (utility)&#45;&gt;map_wmmask (fixes) -->
<g id="edge5" class="edge">
<title>inputnode (utility)&#45;&gt;map_wmmask (fixes)</title>
<path fill="none" stroke="black" d="M83.19,-647.96C66.49,-622.16 38,-571.08 38,-523 38,-523 38,-523 38,-377 38,-298.82 275.12,-260.39 416.04,-244.45"/>
<polygon fill="black" stroke="black" points="416.47,-247.93 426.02,-243.34 415.69,-240.97 416.47,-247.93"/>
</g>
<!-- atropos_wf -->
<g id="node7" class="node">
<title>atropos_wf</title>
<ellipse fill="none" stroke="black" cx="832" cy="-90" rx="61.99" ry="18"/>
<text text-anchor="middle" x="832" y="-86.3" font-family="Times,serif" font-size="14.00">atropos_wf</text>
</g>
<!-- inputnode (utility)&#45;&gt;atropos_wf -->
<g id="edge6" class="edge">
<title>inputnode (utility)&#45;&gt;atropos_wf</title>
<path fill="none" stroke="black" d="M73.92,-648.19C45.93,-623.82 0,-575.8 0,-523 0,-523 0,-523 0,-233 0,-155.9 562.35,-109.59 762.4,-95.56"/>
<polygon fill="black" stroke="black" points="762.77,-99.04 772.5,-94.86 762.28,-92.06 762.77,-99.04"/>
</g>
<!-- inu_n4 (ants) -->
<g id="node8" class="node">
<title>inu_n4 (ants)</title>
<ellipse fill="none" stroke="black" cx="584" cy="-522" rx="71.49" ry="18"/>
<text text-anchor="middle" x="584" y="-518.3" font-family="Times,serif" font-size="14.00">inu_n4 (ants)</text>
</g>
<!-- truncate_images (ants)&#45;&gt;inu_n4 (ants) -->
<g id="edge7" class="edge">
<title>truncate_images (ants)&#45;&gt;inu_n4 (ants)</title>
<path fill="none" stroke="black" d="M459.57,-576.76C483.69,-566.34 515.1,-552.77 540.33,-541.87"/>
<polygon fill="black" stroke="black" points="541.88,-545.01 549.67,-537.83 539.1,-538.59 541.88,-545.01"/>
</g>
<!-- init_aff (ants)&#45;&gt;norm (fixes) -->
<g id="edge8" class="edge">
<title>init_aff (ants)&#45;&gt;norm (fixes)</title>
<path fill="none" stroke="black" d="M368.47,-364.81C417.89,-352.63 493.79,-333.92 545.77,-321.1"/>
<polygon fill="black" stroke="black" points="546.64,-324.5 555.51,-318.7 544.97,-317.7 546.64,-324.5"/>
</g>
<!-- norm (fixes)&#45;&gt;map_brainmask (fixes) -->
<g id="edge9" class="edge">
<title>norm (fixes)&#45;&gt;map_brainmask (fixes)</title>
<path fill="none" stroke="black" d="M659.37,-296.35C737,-284.43 877.64,-262.84 969.67,-248.71"/>
<polygon fill="black" stroke="black" points="970.46,-252.13 979.81,-247.16 969.4,-245.21 970.46,-252.13"/>
</g>
<!-- norm (fixes)&#45;&gt;map_wmmask (fixes) -->
<g id="edge10" class="edge">
<title>norm (fixes)&#45;&gt;map_wmmask (fixes)</title>
<path fill="none" stroke="black" d="M583.29,-288.76C572.37,-279.77 558.6,-268.44 546.53,-258.49"/>
<polygon fill="black" stroke="black" points="548.44,-255.53 538.49,-251.88 543.99,-260.94 548.44,-255.53"/>
</g>
<!-- thr_brainmask (ants) -->
<g id="node9" class="node">
<title>thr_brainmask (ants)</title>
<ellipse fill="none" stroke="black" cx="1055" cy="-162" rx="107.78" ry="18"/>
<text text-anchor="middle" x="1055" y="-158.3" font-family="Times,serif" font-size="14.00">thr_brainmask (ants)</text>
</g>
<!-- map_brainmask (fixes)&#45;&gt;thr_brainmask (ants) -->
<g id="edge11" class="edge">
<title>map_brainmask (fixes)&#45;&gt;thr_brainmask (ants)</title>
<path fill="none" stroke="black" d="M1058.01,-215.7C1057.57,-207.98 1057.04,-198.71 1056.55,-190.11"/>
<polygon fill="black" stroke="black" points="1060.04,-189.89 1055.98,-180.1 1053.05,-190.29 1060.04,-189.89"/>
</g>
<!-- map_wmmask (fixes)&#45;&gt;atropos_wf -->
<g id="edge12" class="edge">
<title>map_wmmask (fixes)&#45;&gt;atropos_wf</title>
<path fill="none" stroke="black" d="M553.41,-216.99C611.99,-190.49 728.77,-137.68 790.9,-109.59"/>
<polygon fill="black" stroke="black" points="792.35,-112.77 800.02,-105.46 789.46,-106.39 792.35,-112.77"/>
</g>
<!-- outputnode (utility) -->
<g id="node17" class="node">
<title>outputnode (utility)</title>
<ellipse fill="none" stroke="black" cx="832" cy="-18" rx="101.28" ry="18"/>
<text text-anchor="middle" x="832" y="-14.3" font-family="Times,serif" font-size="14.00">outputnode (utility)</text>
</g>
<!-- atropos_wf&#45;&gt;outputnode (utility) -->
<g id="edge13" class="edge">
<title>atropos_wf&#45;&gt;outputnode (utility)</title>
<path fill="none" stroke="black" d="M832,-71.7C832,-63.98 832,-54.71 832,-46.11"/>
<polygon fill="black" stroke="black" points="835.5,-46.1 832,-36.1 828.5,-46.1 835.5,-46.1"/>
</g>
<!-- inu_n4 (ants)&#45;&gt;atropos_wf -->
<g id="edge17" class="edge">
<title>inu_n4 (ants)&#45;&gt;atropos_wf</title>
<path fill="none" stroke="black" d="M652.48,-516.58C759.16,-508.99 955.07,-491.95 976,-468 1024.63,-412.35 895.3,-192.37 848.31,-116.72"/>
<polygon fill="black" stroke="black" points="851.02,-114.45 842.75,-107.83 845.08,-118.16 851.02,-114.45"/>
</g>
<!-- mrg_target (utility) -->
<g id="node10" class="node">
<title>mrg_target (utility)</title>
<ellipse fill="none" stroke="black" cx="603" cy="-378" rx="100.98" ry="18"/>
<text text-anchor="middle" x="603" y="-374.3" font-family="Times,serif" font-size="14.00">mrg_target (utility)</text>
</g>
<!-- inu_n4 (ants)&#45;&gt;mrg_target (utility) -->
<g id="edge14" class="edge">
<title>inu_n4 (ants)&#45;&gt;mrg_target (utility)</title>
<path fill="none" stroke="black" d="M586.29,-503.87C589.53,-479.67 595.48,-435.21 599.33,-406.39"/>
<polygon fill="black" stroke="black" points="602.84,-406.57 600.7,-396.19 595.9,-405.64 602.84,-406.57"/>
</g>
<!-- res_target (nibabel) -->
<g id="node11" class="node">
<title>res_target (nibabel)</title>
<ellipse fill="none" stroke="black" cx="245" cy="-450" rx="102.88" ry="18"/>
<text text-anchor="middle" x="245" y="-446.3" font-family="Times,serif" font-size="14.00">res_target (nibabel)</text>
</g>
<!-- inu_n4 (ants)&#45;&gt;res_target (nibabel) -->
<g id="edge15" class="edge">
<title>inu_n4 (ants)&#45;&gt;res_target (nibabel)</title>
<path fill="none" stroke="black" d="M530.66,-509.99C473.58,-498.2 382.64,-479.42 318.73,-466.22"/>
<polygon fill="black" stroke="black" points="319.22,-462.75 308.72,-464.16 317.8,-469.61 319.22,-462.75"/>
</g>
<!-- lap_target (ants) -->
<g id="node12" class="node">
<title>lap_target (ants)</title>
<ellipse fill="none" stroke="black" cx="700" cy="-450" rx="87.99" ry="18"/>
<text text-anchor="middle" x="700" y="-446.3" font-family="Times,serif" font-size="14.00">lap_target (ants)</text>
</g>
<!-- inu_n4 (ants)&#45;&gt;lap_target (ants) -->
<g id="edge16" class="edge">
<title>inu_n4 (ants)&#45;&gt;lap_target (ants)</title>
<path fill="none" stroke="black" d="M610.32,-505.12C626.26,-495.5 646.8,-483.1 664.2,-472.6"/>
<polygon fill="black" stroke="black" points="666.22,-475.47 672.98,-467.31 662.61,-469.48 666.22,-475.47"/>
</g>
<!-- thr_brainmask (ants)&#45;&gt;atropos_wf -->
<g id="edge18" class="edge">
<title>thr_brainmask (ants)&#45;&gt;atropos_wf</title>
<path fill="none" stroke="black" d="M1006.61,-145.81C969.81,-134.26 919.32,-118.41 882.1,-106.73"/>
<polygon fill="black" stroke="black" points="883.05,-103.36 872.46,-103.7 880.95,-110.03 883.05,-103.36"/>
</g>
<!-- mrg_target (utility)&#45;&gt;norm (fixes) -->
<g id="edge19" class="edge">
<title>mrg_target (utility)&#45;&gt;norm (fixes)</title>
<path fill="none" stroke="black" d="M603,-359.7C603,-351.98 603,-342.71 603,-334.11"/>
<polygon fill="black" stroke="black" points="606.5,-334.1 603,-324.1 599.5,-334.1 606.5,-334.1"/>
</g>
<!-- res_target (nibabel)&#45;&gt;init_aff (ants) -->
<g id="edge20" class="edge">
<title>res_target (nibabel)&#45;&gt;init_aff (ants)</title>
<path fill="none" stroke="black" d="M262.91,-432.05C272.25,-423.22 283.83,-412.27 294.03,-402.62"/>
<polygon fill="black" stroke="black" points="296.65,-404.96 301.51,-395.55 291.84,-399.88 296.65,-404.96"/>
</g>
<!-- lap_target (ants)&#45;&gt;mrg_target (utility) -->
<g id="edge21" class="edge">
<title>lap_target (ants)&#45;&gt;mrg_target (utility)</title>
<path fill="none" stroke="black" d="M677.01,-432.41C664.3,-423.24 648.32,-411.7 634.46,-401.71"/>
<polygon fill="black" stroke="black" points="636.32,-398.73 626.16,-395.71 632.22,-404.4 636.32,-398.73"/>
</g>
<!-- mrg_tmpl (utility) -->
<g id="node13" class="node">
<title>mrg_tmpl (utility)</title>
<ellipse fill="none" stroke="black" cx="835" cy="-378" rx="92.88" ry="18"/>
<text text-anchor="middle" x="835" y="-374.3" font-family="Times,serif" font-size="14.00">mrg_tmpl (utility)</text>
</g>
<!-- mrg_tmpl (utility)&#45;&gt;norm (fixes) -->
<g id="edge22" class="edge">
<title>mrg_tmpl (utility)&#45;&gt;norm (fixes)</title>
<path fill="none" stroke="black" d="M786.93,-362.5C748.51,-350.9 694.74,-334.68 655.26,-322.77"/>
<polygon fill="black" stroke="black" points="656.13,-319.38 645.55,-319.84 654.11,-326.08 656.13,-319.38"/>
</g>
<!-- res_tmpl (nibabel) -->
<g id="node14" class="node">
<title>res_tmpl (nibabel)</title>
<ellipse fill="none" stroke="black" cx="461" cy="-450" rx="94.78" ry="18"/>
<text text-anchor="middle" x="461" y="-446.3" font-family="Times,serif" font-size="14.00">res_tmpl (nibabel)</text>
</g>
<!-- res_tmpl (nibabel)&#45;&gt;init_aff (ants) -->
<g id="edge23" class="edge">
<title>res_tmpl (nibabel)&#45;&gt;init_aff (ants)</title>
<path fill="none" stroke="black" d="M428.42,-432.94C407.79,-422.77 380.96,-409.54 359.03,-398.73"/>
<polygon fill="black" stroke="black" points="360.48,-395.55 349.97,-394.26 357.39,-401.83 360.48,-395.55"/>
</g>
<!-- full_wm (utility) -->
<g id="node15" class="node">
<title>full_wm (utility)</title>
<ellipse fill="none" stroke="black" cx="434" cy="-306" rx="84.49" ry="18"/>
<text text-anchor="middle" x="434" y="-302.3" font-family="Times,serif" font-size="14.00">full_wm (utility)</text>
</g>
<!-- full_wm (utility)&#45;&gt;map_wmmask (fixes) -->
<g id="edge24" class="edge">
<title>full_wm (utility)&#45;&gt;map_wmmask (fixes)</title>
<path fill="none" stroke="black" d="M453.91,-288.41C464.71,-279.41 478.23,-268.14 490.07,-258.27"/>
<polygon fill="black" stroke="black" points="492.5,-260.8 497.94,-251.71 488.02,-255.43 492.5,-260.8"/>
</g>
<!-- lap_tmpl (ants) -->
<g id="node16" class="node">
<title>lap_tmpl (ants)</title>
<ellipse fill="none" stroke="black" cx="886" cy="-450" rx="80.69" ry="18"/>
<text text-anchor="middle" x="886" y="-446.3" font-family="Times,serif" font-size="14.00">lap_tmpl (ants)</text>
</g>
<!-- lap_tmpl (ants)&#45;&gt;mrg_tmpl (utility) -->
<g id="edge25" class="edge">
<title>lap_tmpl (ants)&#45;&gt;mrg_tmpl (utility)</title>
<path fill="none" stroke="black" d="M873.65,-432.05C867.61,-423.75 860.2,-413.58 853.49,-404.38"/>
<polygon fill="black" stroke="black" points="856.3,-402.3 847.59,-396.28 850.65,-406.42 856.3,-402.3"/>
</g>
</g>
</svg>
