<?xml version="1.0" encoding="UTF-8" standalone="no"?>
<!DOCTYPE svg PUBLIC "-//W3C//DTD SVG 1.1//EN"
 "http://www.w3.org/Graphics/SVG/1.1/DTD/svg11.dtd">
<!-- Generated by graphviz version 2.43.0 (0)
 -->
<!-- Title: %3 Pages: 1 -->
<svg width="391pt" height="260pt"
 viewBox="0.00 0.00 390.79 260.00" xmlns="http://www.w3.org/2000/svg" xmlns:xlink="http://www.w3.org/1999/xlink">
<g id="graph0" class="graph" transform="scale(1 1) rotate(0) translate(4 256)">
<title>%3</title>
<polygon fill="white" stroke="transparent" points="-4,4 -4,-256 386.79,-256 386.79,4 -4,4"/>
<!-- inputnode (utility) -->
<g id="node1" class="node">
<title>inputnode (utility)</title>
<ellipse fill="none" stroke="black" cx="170.49" cy="-234" rx="94.78" ry="18"/>
<text text-anchor="middle" x="170.49" y="-230.3" font-family="Times,serif" font-size="14.00">inputnode (utility)</text>
</g>
<!-- inu_n4 (ants) -->
<g id="node2" class="node">
<title>inu_n4 (ants)</title>
<ellipse fill="none" stroke="black" cx="71.49" cy="-162" rx="71.49" ry="18"/>
<text text-anchor="middle" x="71.49" y="-158.3" font-family="Times,serif" font-size="14.00">inu_n4 (ants)</text>
</g>
<!-- inputnode (utility)&#45;&gt;inu_n4 (ants) -->
<g id="edge1" class="edge">
<title>inputnode (utility)&#45;&gt;inu_n4 (ants)</title>
<path fill="none" stroke="black" d="M147.03,-216.41C133.87,-207.1 117.27,-195.37 102.99,-185.27"/>
<polygon fill="black" stroke="black" points="104.63,-182.14 94.45,-179.23 100.59,-187.86 104.63,-182.14"/>
</g>
<!-- binarize (nibabel) -->
<g id="node3" class="node">
<title>binarize (nibabel)</title>
<ellipse fill="none" stroke="black" cx="290.49" cy="-162" rx="92.08" ry="18"/>
<text text-anchor="middle" x="290.49" y="-158.3" font-family="Times,serif" font-size="14.00">binarize (nibabel)</text>
</g>
<!-- inputnode (utility)&#45;&gt;binarize (nibabel) -->
<g id="edge2" class="edge">
<title>inputnode (utility)&#45;&gt;binarize (nibabel)</title>
<path fill="none" stroke="black" d="M198.33,-216.76C214.72,-207.2 235.65,-194.99 253.43,-184.62"/>
<polygon fill="black" stroke="black" points="255.52,-187.45 262.4,-179.39 252,-181.41 255.52,-187.45"/>
</g>
<!-- atropos_wf -->
<g id="node4" class="node">
<title>atropos_wf</title>
<ellipse fill="none" stroke="black" cx="185.49" cy="-90" rx="61.99" ry="18"/>
<text text-anchor="middle" x="185.49" y="-86.3" font-family="Times,serif" font-size="14.00">atropos_wf</text>
</g>
<!-- inputnode (utility)&#45;&gt;atropos_wf -->
<g id="edge3" class="edge">
<title>inputnode (utility)&#45;&gt;atropos_wf</title>
<path fill="none" stroke="black" d="M172.3,-215.87C174.86,-191.67 179.56,-147.21 182.6,-118.39"/>
<polygon fill="black" stroke="black" points="186.11,-118.5 183.68,-108.19 179.15,-117.77 186.11,-118.5"/>
</g>
<!-- inu_n4 (ants)&#45;&gt;atropos_wf -->
<g id="edge4" class="edge">
<title>inu_n4 (ants)&#45;&gt;atropos_wf</title>
<path fill="none" stroke="black" d="M97.36,-145.12C113.36,-135.29 134.08,-122.57 151.41,-111.93"/>
<polygon fill="black" stroke="black" points="153.43,-114.8 160.12,-106.58 149.77,-108.83 153.43,-114.8"/>
</g>
<!-- binarize (nibabel)&#45;&gt;atropos_wf -->
<g id="edge6" class="edge">
<title>binarize (nibabel)&#45;&gt;atropos_wf</title>
<path fill="none" stroke="black" d="M265.88,-144.59C251.59,-135.06 233.42,-122.95 217.97,-112.65"/>
<polygon fill="black" stroke="black" points="219.5,-109.46 209.23,-106.83 215.61,-115.29 219.5,-109.46"/>
</g>
<!-- outputnode (utility) -->
<g id="node5" class="node">
<title>outputnode (utility)</title>
<ellipse fill="none" stroke="black" cx="230.49" cy="-18" rx="101.28" ry="18"/>
<text text-anchor="middle" x="230.49" y="-14.3" font-family="Times,serif" font-size="14.00">outputnode (utility)</text>
</g>
<!-- binarize (nibabel)&#45;&gt;outputnode (utility) -->
<g id="edge5" class="edge">
<title>binarize (nibabel)&#45;&gt;outputnode (utility)</title>
<path fill="none" stroke="black" d="M284.43,-143.75C277.96,-125.68 267.19,-96.57 256.49,-72 252.63,-63.12 248.08,-53.58 243.87,-45.08"/>
<polygon fill="black" stroke="black" points="246.93,-43.37 239.32,-36 240.68,-46.51 246.93,-43.37"/>
</g>
<!-- atropos_wf&#45;&gt;outputnode (utility) -->
<g id="edge7" class="edge">
<title>atropos_wf&#45;&gt;outputnode (utility)</title>
<path fill="none" stroke="black" d="M196.39,-72.05C201.62,-63.92 207.99,-54 213.82,-44.94"/>
<polygon fill="black" stroke="black" points="216.92,-46.58 219.39,-36.28 211.04,-42.79 216.92,-46.58"/>
</g>
</g>
</svg>
