<?xml version="1.0" encoding="UTF-8" standalone="no"?>
<!DOCTYPE svg PUBLIC "-//W3C//DTD SVG 1.1//EN"
 "http://www.w3.org/Graphics/SVG/1.1/DTD/svg11.dtd">
<!-- Generated by graphviz version 2.40.1 (20161225.0304)
 -->
<!-- Title: %3 Pages: 1 -->
<svg width="442pt" height="260pt"
 viewBox="0.00 0.00 442.13 260.00" xmlns="http://www.w3.org/2000/svg" xmlns:xlink="http://www.w3.org/1999/xlink">
<g id="graph0" class="graph" transform="scale(1 1) rotate(0) translate(4 256)">
<title>%3</title>
<polygon fill="#ffffff" stroke="transparent" points="-4,4 -4,-256 438.1332,-256 438.1332,4 -4,4"/>
<!-- inputnode (utility) -->
<g id="node1" class="node">
<title>inputnode (utility)</title>
<ellipse fill="none" stroke="#000000" cx="221.8414" cy="-234" rx="94.7833" ry="18"/>
<text text-anchor="middle" x="221.8414" y="-230.3" font-family="Times,serif" font-size="14.00" fill="#000000">inputnode (utility)</text>
</g>
<!-- inu_n4_final (ants) -->
<g id="node2" class="node">
<title>inu_n4_final (ants)</title>
<ellipse fill="none" stroke="#000000" cx="96.8414" cy="-162" rx="96.6831" ry="18"/>
<text text-anchor="middle" x="96.8414" y="-158.3" font-family="Times,serif" font-size="14.00" fill="#000000">inu_n4_final (ants)</text>
</g>
<!-- inputnode (utility)&#45;&gt;inu_n4_final (ants) -->
<g id="edge1" class="edge">
<title>inputnode (utility)&#45;&gt;inu_n4_final (ants)</title>
<path fill="none" stroke="#000000" d="M191.9008,-216.7542C175.1713,-207.118 154.1236,-194.9945 136.0886,-184.6064"/>
<polygon fill="#000000" stroke="#000000" points="137.3832,-181.313 126.9709,-179.3546 133.8893,-187.3787 137.3832,-181.313"/>
</g>
<!-- binarize (nibabel) -->
<g id="node3" class="node">
<title>binarize (nibabel)</title>
<ellipse fill="none" stroke="#000000" cx="341.8414" cy="-162" rx="92.0841" ry="18"/>
<text text-anchor="middle" x="341.8414" y="-158.3" font-family="Times,serif" font-size="14.00" fill="#000000">binarize (nibabel)</text>
</g>
<!-- inputnode (utility)&#45;&gt;binarize (nibabel) -->
<g id="edge2" class="edge">
<title>inputnode (utility)&#45;&gt;binarize (nibabel)</title>
<path fill="none" stroke="#000000" d="M250.5844,-216.7542C266.6448,-207.118 286.8505,-194.9945 304.1641,-184.6064"/>
<polygon fill="#000000" stroke="#000000" points="306.1429,-187.5008 312.917,-179.3546 302.5414,-181.4984 306.1429,-187.5008"/>
</g>
<!-- atropos_wf -->
<g id="node4" class="node">
<title>atropos_wf</title>
<ellipse fill="none" stroke="#000000" cx="236.8414" cy="-90" rx="61.99" ry="18"/>
<text text-anchor="middle" x="236.8414" y="-86.3" font-family="Times,serif" font-size="14.00" fill="#000000">atropos_wf</text>
</g>
<!-- inputnode (utility)&#45;&gt;atropos_wf -->
<g id="edge3" class="edge">
<title>inputnode (utility)&#45;&gt;atropos_wf</title>
<path fill="none" stroke="#000000" d="M223.7412,-215.7623C226.2996,-191.201 230.8781,-147.2474 233.8879,-118.3541"/>
<polygon fill="#000000" stroke="#000000" points="237.4021,-118.3985 234.9571,-108.0896 230.4398,-117.6731 237.4021,-118.3985"/>
</g>
<!-- inu_n4_final (ants)&#45;&gt;atropos_wf -->
<g id="edge4" class="edge">
<title>inu_n4_final (ants)&#45;&gt;atropos_wf</title>
<path fill="none" stroke="#000000" d="M130.0195,-144.937C150.1641,-134.5769 175.9965,-121.2917 197.2118,-110.381"/>
<polygon fill="#000000" stroke="#000000" points="199.0014,-113.3964 206.2935,-105.7103 195.7999,-107.1714 199.0014,-113.3964"/>
</g>
<!-- binarize (nibabel)&#45;&gt;atropos_wf -->
<g id="edge6" class="edge">
<title>binarize (nibabel)&#45;&gt;atropos_wf</title>
<path fill="none" stroke="#000000" d="M316.4238,-144.5708C302.4207,-134.9687 284.8778,-122.9392 269.8287,-112.6199"/>
<polygon fill="#000000" stroke="#000000" points="271.5286,-109.5417 261.3019,-106.7729 267.5698,-115.3148 271.5286,-109.5417"/>
</g>
<!-- outputnode (utility) -->
<g id="node5" class="node">
<title>outputnode (utility)</title>
<ellipse fill="none" stroke="#000000" cx="281.8414" cy="-18" rx="101.2821" ry="18"/>
<text text-anchor="middle" x="281.8414" y="-14.3" font-family="Times,serif" font-size="14.00" fill="#000000">outputnode (utility)</text>
</g>
<!-- binarize (nibabel)&#45;&gt;outputnode (utility) -->
<g id="edge5" class="edge">
<title>binarize (nibabel)&#45;&gt;outputnode (utility)</title>
<path fill="none" stroke="#000000" d="M335.5255,-143.8859C329.0194,-125.5784 318.3705,-96.5629 307.8414,-72 304.0885,-63.2449 299.6948,-53.846 295.5985,-45.3833"/>
<polygon fill="#000000" stroke="#000000" points="298.6951,-43.7486 291.1501,-36.3106 292.41,-46.8303 298.6951,-43.7486"/>
</g>
<!-- atropos_wf&#45;&gt;outputnode (utility) -->
<g id="edge7" class="edge">
<title>atropos_wf&#45;&gt;outputnode (utility)</title>
<path fill="none" stroke="#000000" d="M247.965,-72.2022C253.1183,-63.9569 259.3522,-53.9828 265.0601,-44.8501"/>
<polygon fill="#000000" stroke="#000000" points="268.2012,-46.4281 270.5332,-36.0931 262.2652,-42.7181 268.2012,-46.4281"/>
</g>
</g>
</svg>
