<?xml version="1.0" encoding="UTF-8" standalone="no"?>
<!DOCTYPE svg PUBLIC "-//W3C//DTD SVG 1.1//EN"
 "http://www.w3.org/Graphics/SVG/1.1/DTD/svg11.dtd">
<!-- Generated by graphviz version 2.40.1 (20161225.0304)
 -->
<!-- Title: %3 Pages: 1 -->
<svg width="1046pt" height="692pt"
 viewBox="0.00 0.00 1045.89 692.00" xmlns="http://www.w3.org/2000/svg" xmlns:xlink="http://www.w3.org/1999/xlink">
<g id="graph0" class="graph" transform="scale(1 1) rotate(0) translate(4 688)">
<title>%3</title>
<polygon fill="#ffffff" stroke="transparent" points="-4,4 -4,-688 1041.8944,-688 1041.8944,4 -4,4"/>
<!-- inputnode (utility) -->
<g id="node1" class="node">
<title>inputnode (utility)</title>
<ellipse fill="none" stroke="#000000" cx="115.8944" cy="-666" rx="94.7833" ry="18"/>
<text text-anchor="middle" x="115.8944" y="-662.3" font-family="Times,serif" font-size="14.00" fill="#000000">inputnode (utility)</text>
</g>
<!-- truncate_images (ants) -->
<g id="node2" class="node">
<title>truncate_images (ants)</title>
<ellipse fill="none" stroke="#000000" cx="461.8944" cy="-594" rx="118.0794" ry="18"/>
<text text-anchor="middle" x="461.8944" y="-590.3" font-family="Times,serif" font-size="14.00" fill="#000000">truncate_images (ants)</text>
</g>
<!-- inputnode (utility)&#45;&gt;truncate_images (ants) -->
<g id="edge1" class="edge">
<title>inputnode (utility)&#45;&gt;truncate_images (ants)</title>
<path fill="none" stroke="#000000" d="M180.1635,-652.6261C237.1819,-640.761 320.7005,-623.3814 382.0027,-610.6249"/>
<polygon fill="#000000" stroke="#000000" points="382.9486,-614.0031 392.0258,-608.5391 381.5225,-607.1499 382.9486,-614.0031"/>
</g>
<!-- inu_n4_final (ants) -->
<g id="node3" class="node">
<title>inu_n4_final (ants)</title>
<ellipse fill="none" stroke="#000000" cx="126.8944" cy="-162" rx="96.6831" ry="18"/>
<text text-anchor="middle" x="126.8944" y="-158.3" font-family="Times,serif" font-size="14.00" fill="#000000">inu_n4_final (ants)</text>
</g>
<!-- inputnode (utility)&#45;&gt;inu_n4_final (ants) -->
<g id="edge2" class="edge">
<title>inputnode (utility)&#45;&gt;inu_n4_final (ants)</title>
<path fill="none" stroke="#000000" d="M99.0275,-648.0553C76.6373,-622.2804 39.8944,-572.3175 39.8944,-522 39.8944,-522 39.8944,-522 39.8944,-306 39.8944,-264.3643 43.6473,-251.1937 65.8944,-216 73.0503,-204.6798 83.2578,-194.3461 93.2806,-185.8179"/>
<polygon fill="#000000" stroke="#000000" points="95.655,-188.3985 101.2172,-179.3811 91.2457,-182.9618 95.655,-188.3985"/>
</g>
<!-- init_aff (ants) -->
<g id="node4" class="node">
<title>init_aff (ants)</title>
<ellipse fill="none" stroke="#000000" cx="337.8944" cy="-378" rx="73.387" ry="18"/>
<text text-anchor="middle" x="337.8944" y="-374.3" font-family="Times,serif" font-size="14.00" fill="#000000">init_aff (ants)</text>
</g>
<!-- inputnode (utility)&#45;&gt;init_aff (ants) -->
<g id="edge3" class="edge">
<title>inputnode (utility)&#45;&gt;init_aff (ants)</title>
<path fill="none" stroke="#000000" d="M120.6475,-648.022C123.3985,-637.5293 126.8985,-624.0293 129.8944,-612 149.7718,-532.187 117.1606,-492.4895 172.8944,-432 186.8567,-416.8463 232.9711,-402.4759 272.9107,-392.3747"/>
<polygon fill="#000000" stroke="#000000" points="273.7769,-395.766 282.6426,-389.9652 272.0945,-388.9712 273.7769,-395.766"/>
</g>
<!-- norm (fixes) -->
<g id="node5" class="node">
<title>norm (fixes)</title>
<ellipse fill="none" stroke="#000000" cx="397.8944" cy="-306" rx="66.8882" ry="18"/>
<text text-anchor="middle" x="397.8944" y="-302.3" font-family="Times,serif" font-size="14.00" fill="#000000">norm (fixes)</text>
</g>
<!-- inputnode (utility)&#45;&gt;norm (fixes) -->
<g id="edge4" class="edge">
<title>inputnode (utility)&#45;&gt;norm (fixes)</title>
<path fill="none" stroke="#000000" d="M115.8944,-647.8146C115.8944,-620.4983 115.8944,-567.25 115.8944,-522 115.8944,-522 115.8944,-522 115.8944,-450 115.8944,-399.6845 260.0891,-347.6961 342.2592,-322.1551"/>
<polygon fill="#000000" stroke="#000000" points="343.4285,-325.4573 351.9586,-319.1733 341.3716,-318.7664 343.4285,-325.4573"/>
</g>
<!-- map_brainmask (fixes) -->
<g id="node6" class="node">
<title>map_brainmask (fixes)</title>
<ellipse fill="none" stroke="#000000" cx="426.8944" cy="-234" rx="116.1796" ry="18"/>
<text text-anchor="middle" x="426.8944" y="-230.3" font-family="Times,serif" font-size="14.00" fill="#000000">map_brainmask (fixes)</text>
</g>
<!-- inputnode (utility)&#45;&gt;map_brainmask (fixes) -->
<g id="edge5" class="edge">
<title>inputnode (utility)&#45;&gt;map_brainmask (fixes)</title>
<path fill="none" stroke="#000000" d="M207.6701,-661.2147C440.8791,-647.835 1037.8944,-605.4351 1037.8944,-522 1037.8944,-522 1037.8944,-522 1037.8944,-378 1037.8944,-278.9104 729.6015,-247.9355 550.9961,-238.305"/>
<polygon fill="#000000" stroke="#000000" points="550.9137,-234.796 540.7443,-237.768 550.5474,-241.7864 550.9137,-234.796"/>
</g>
<!-- map_wmmask (fixes) -->
<g id="node7" class="node">
<title>map_wmmask (fixes)</title>
<ellipse fill="none" stroke="#000000" cx="183.8944" cy="-234" rx="108.5808" ry="18"/>
<text text-anchor="middle" x="183.8944" y="-230.3" font-family="Times,serif" font-size="14.00" fill="#000000">map_wmmask (fixes)</text>
</g>
<!-- inputnode (utility)&#45;&gt;map_wmmask (fixes) -->
<g id="edge6" class="edge">
<title>inputnode (utility)&#45;&gt;map_wmmask (fixes)</title>
<path fill="none" stroke="#000000" d="M107.8356,-647.7668C96.681,-620.8248 77.8944,-568.5405 77.8944,-522 77.8944,-522 77.8944,-522 77.8944,-378 77.8944,-337.1184 73.4184,-321.4692 96.8944,-288 106.1896,-274.748 119.8789,-264.0915 133.6606,-255.8606"/>
<polygon fill="#000000" stroke="#000000" points="135.6754,-258.7436 142.6851,-250.7991 132.2511,-252.6382 135.6754,-258.7436"/>
</g>
<!-- atropos_wf -->
<g id="node8" class="node">
<title>atropos_wf</title>
<ellipse fill="none" stroke="#000000" cx="162.8944" cy="-90" rx="61.99" ry="18"/>
<text text-anchor="middle" x="162.8944" y="-86.3" font-family="Times,serif" font-size="14.00" fill="#000000">atropos_wf</text>
</g>
<!-- inputnode (utility)&#45;&gt;atropos_wf -->
<g id="edge7" class="edge">
<title>inputnode (utility)&#45;&gt;atropos_wf</title>
<path fill="none" stroke="#000000" d="M88.878,-648.633C55.1666,-624.6024 1.8944,-577.8003 1.8944,-522 1.8944,-522 1.8944,-522 1.8944,-234 1.8944,-193.1184 -5.6832,-175.0635 20.8944,-144 40.2127,-121.4211 70.0302,-108.257 97.364,-100.5941"/>
<polygon fill="#000000" stroke="#000000" points="98.4997,-103.9153 107.2979,-98.0125 96.7391,-97.1403 98.4997,-103.9153"/>
</g>
<!-- inu_n4 (ants) -->
<g id="node9" class="node">
<title>inu_n4 (ants)</title>
<ellipse fill="none" stroke="#000000" cx="558.8944" cy="-522" rx="71.4873" ry="18"/>
<text text-anchor="middle" x="558.8944" y="-518.3" font-family="Times,serif" font-size="14.00" fill="#000000">inu_n4 (ants)</text>
</g>
<!-- truncate_images (ants)&#45;&gt;inu_n4 (ants) -->
<g id="edge8" class="edge">
<title>truncate_images (ants)&#45;&gt;inu_n4 (ants)</title>
<path fill="none" stroke="#000000" d="M485.8719,-576.2022C498.509,-566.8221 514.1603,-555.2047 527.7278,-545.134"/>
<polygon fill="#000000" stroke="#000000" points="529.917,-547.8679 535.8606,-539.0972 525.7448,-542.2471 529.917,-547.8679"/>
</g>
<!-- inu_n4_final (ants)&#45;&gt;atropos_wf -->
<g id="edge10" class="edge">
<title>inu_n4_final (ants)&#45;&gt;atropos_wf</title>
<path fill="none" stroke="#000000" d="M135.9787,-143.8314C140.06,-135.6688 144.9594,-125.87 149.453,-116.8827"/>
<polygon fill="#000000" stroke="#000000" points="152.596,-118.423 153.9377,-107.9134 146.335,-115.2924 152.596,-118.423"/>
</g>
<!-- apply_mask (nibabel) -->
<g id="node10" class="node">
<title>apply_mask (nibabel)</title>
<ellipse fill="none" stroke="#000000" cx="370.8944" cy="-90" rx="109.6807" ry="18"/>
<text text-anchor="middle" x="370.8944" y="-86.3" font-family="Times,serif" font-size="14.00" fill="#000000">apply_mask (nibabel)</text>
</g>
<!-- inu_n4_final (ants)&#45;&gt;apply_mask (nibabel) -->
<g id="edge9" class="edge">
<title>inu_n4_final (ants)&#45;&gt;apply_mask (nibabel)</title>
<path fill="none" stroke="#000000" d="M178.6405,-146.7307C216.3771,-135.5953 267.7174,-120.4457 307.8512,-108.6029"/>
<polygon fill="#000000" stroke="#000000" points="308.9355,-111.9322 317.5361,-105.7451 306.9543,-105.2184 308.9355,-111.9322"/>
</g>
<!-- init_aff (ants)&#45;&gt;norm (fixes) -->
<g id="edge11" class="edge">
<title>init_aff (ants)&#45;&gt;norm (fixes)</title>
<path fill="none" stroke="#000000" d="M352.7259,-360.2022C359.9917,-351.4832 368.8685,-340.8311 376.8236,-331.2849"/>
<polygon fill="#000000" stroke="#000000" points="379.5204,-333.5159 383.2335,-323.593 374.1429,-329.0346 379.5204,-333.5159"/>
</g>
<!-- norm (fixes)&#45;&gt;map_brainmask (fixes) -->
<g id="edge12" class="edge">
<title>norm (fixes)&#45;&gt;map_brainmask (fixes)</title>
<path fill="none" stroke="#000000" d="M405.2123,-287.8314C408.382,-279.9617 412.1643,-270.5712 415.6757,-261.8533"/>
<polygon fill="#000000" stroke="#000000" points="418.9883,-262.9968 419.4779,-252.4133 412.4952,-260.3815 418.9883,-262.9968"/>
</g>
<!-- norm (fixes)&#45;&gt;map_wmmask (fixes) -->
<g id="edge13" class="edge">
<title>norm (fixes)&#45;&gt;map_wmmask (fixes)</title>
<path fill="none" stroke="#000000" d="M355.8702,-291.861C323.3814,-280.9302 278.0302,-265.6719 242.056,-253.5684"/>
<polygon fill="#000000" stroke="#000000" points="242.7706,-250.1161 232.1766,-250.2445 240.5384,-256.7507 242.7706,-250.1161"/>
</g>
<!-- thr_brainmask (ants) -->
<g id="node11" class="node">
<title>thr_brainmask (ants)</title>
<ellipse fill="none" stroke="#000000" cx="388.8944" cy="-162" rx="108.5808" ry="18"/>
<text text-anchor="middle" x="388.8944" y="-158.3" font-family="Times,serif" font-size="14.00" fill="#000000">thr_brainmask (ants)</text>
</g>
<!-- map_brainmask (fixes)&#45;&gt;thr_brainmask (ants) -->
<g id="edge14" class="edge">
<title>map_brainmask (fixes)&#45;&gt;thr_brainmask (ants)</title>
<path fill="none" stroke="#000000" d="M417.3054,-215.8314C413.0626,-207.7925 407.9823,-198.1666 403.2984,-189.2918"/>
<polygon fill="#000000" stroke="#000000" points="406.3755,-187.6235 398.6125,-180.4133 400.1848,-190.8908 406.3755,-187.6235"/>
</g>
<!-- map_wmmask (fixes)&#45;&gt;inu_n4_final (ants) -->
<g id="edge15" class="edge">
<title>map_wmmask (fixes)&#45;&gt;inu_n4_final (ants)</title>
<path fill="none" stroke="#000000" d="M169.5109,-215.8314C162.8448,-207.411 154.8002,-197.2495 147.5045,-188.0338"/>
<polygon fill="#000000" stroke="#000000" points="150.0271,-185.5814 141.0758,-179.9134 144.5387,-189.9264 150.0271,-185.5814"/>
</g>
<!-- map_wmmask (fixes)&#45;&gt;atropos_wf -->
<g id="edge16" class="edge">
<title>map_wmmask (fixes)&#45;&gt;atropos_wf</title>
<path fill="none" stroke="#000000" d="M206.3124,-216.2316C216.4992,-206.71 227.4686,-194.0536 232.8944,-180 238.6571,-165.0738 239.9525,-158.3591 232.8944,-144 226.3564,-130.699 214.7911,-119.7492 202.9214,-111.2693"/>
<polygon fill="#000000" stroke="#000000" points="204.5576,-108.1542 194.2921,-105.5328 200.6823,-113.9837 204.5576,-108.1542"/>
</g>
<!-- outputnode (utility) -->
<g id="node19" class="node">
<title>outputnode (utility)</title>
<ellipse fill="none" stroke="#000000" cx="162.8944" cy="-18" rx="101.2821" ry="18"/>
<text text-anchor="middle" x="162.8944" y="-14.3" font-family="Times,serif" font-size="14.00" fill="#000000">outputnode (utility)</text>
</g>
<!-- atropos_wf&#45;&gt;outputnode (utility) -->
<g id="edge17" class="edge">
<title>atropos_wf&#45;&gt;outputnode (utility)</title>
<path fill="none" stroke="#000000" d="M162.8944,-71.8314C162.8944,-64.131 162.8944,-54.9743 162.8944,-46.4166"/>
<polygon fill="#000000" stroke="#000000" points="166.3945,-46.4132 162.8944,-36.4133 159.3945,-46.4133 166.3945,-46.4132"/>
</g>
<!-- res_target (nibabel) -->
<g id="node12" class="node">
<title>res_target (nibabel)</title>
<ellipse fill="none" stroke="#000000" cx="493.8944" cy="-450" rx="102.8821" ry="18"/>
<text text-anchor="middle" x="493.8944" y="-446.3" font-family="Times,serif" font-size="14.00" fill="#000000">res_target (nibabel)</text>
</g>
<!-- inu_n4 (ants)&#45;&gt;res_target (nibabel) -->
<g id="edge18" class="edge">
<title>inu_n4 (ants)&#45;&gt;res_target (nibabel)</title>
<path fill="none" stroke="#000000" d="M542.827,-504.2022C535.0144,-495.5483 525.4826,-484.99 516.9142,-475.4988"/>
<polygon fill="#000000" stroke="#000000" points="519.3013,-472.9199 510.0022,-467.8425 514.1054,-477.6106 519.3013,-472.9199"/>
</g>
<!-- lap_target (ants) -->
<g id="node13" class="node">
<title>lap_target (ants)</title>
<ellipse fill="none" stroke="#000000" cx="740.8944" cy="-450" rx="88.2844" ry="18"/>
<text text-anchor="middle" x="740.8944" y="-446.3" font-family="Times,serif" font-size="14.00" fill="#000000">lap_target (ants)</text>
</g>
<!-- inu_n4 (ants)&#45;&gt;lap_target (ants) -->
<g id="edge19" class="edge">
<title>inu_n4 (ants)&#45;&gt;lap_target (ants)</title>
<path fill="none" stroke="#000000" d="M597.4919,-506.7307C624.5848,-496.0126 661.0785,-481.5755 690.4705,-469.9479"/>
<polygon fill="#000000" stroke="#000000" points="692.1309,-473.0551 700.1421,-466.1218 689.5558,-466.5459 692.1309,-473.0551"/>
</g>
<!-- mrg_target (utility) -->
<g id="node14" class="node">
<title>mrg_target (utility)</title>
<ellipse fill="none" stroke="#000000" cx="624.8944" cy="-378" rx="100.9827" ry="18"/>
<text text-anchor="middle" x="624.8944" y="-374.3" font-family="Times,serif" font-size="14.00" fill="#000000">mrg_target (utility)</text>
</g>
<!-- inu_n4 (ants)&#45;&gt;mrg_target (utility) -->
<g id="edge20" class="edge">
<title>inu_n4 (ants)&#45;&gt;mrg_target (utility)</title>
<path fill="none" stroke="#000000" d="M578.4887,-504.259C588.1428,-494.4727 599.1339,-481.5725 605.8944,-468 615.5365,-448.6424 620.2942,-424.5799 622.637,-406.2071"/>
<polygon fill="#000000" stroke="#000000" points="626.1314,-406.4507 623.756,-396.1256 619.1741,-405.6784 626.1314,-406.4507"/>
</g>
<!-- thr_brainmask (ants)&#45;&gt;atropos_wf -->
<g id="edge22" class="edge">
<title>thr_brainmask (ants)&#45;&gt;atropos_wf</title>
<path fill="none" stroke="#000000" d="M338.7377,-146.0209C301.7316,-134.2313 251.5409,-118.2414 214.2534,-106.3622"/>
<polygon fill="#000000" stroke="#000000" points="215.1755,-102.9827 204.5849,-103.2819 213.0506,-109.6524 215.1755,-102.9827"/>
</g>
<!-- thr_brainmask (ants)&#45;&gt;apply_mask (nibabel) -->
<g id="edge21" class="edge">
<title>thr_brainmask (ants)&#45;&gt;apply_mask (nibabel)</title>
<path fill="none" stroke="#000000" d="M384.3522,-143.8314C382.406,-136.0463 380.0876,-126.7729 377.9281,-118.1347"/>
<polygon fill="#000000" stroke="#000000" points="381.3186,-117.2658 375.4977,-108.4133 374.5276,-118.9636 381.3186,-117.2658"/>
</g>
<!-- res_target (nibabel)&#45;&gt;init_aff (ants) -->
<g id="edge23" class="edge">
<title>res_target (nibabel)&#45;&gt;init_aff (ants)</title>
<path fill="none" stroke="#000000" d="M457.3193,-433.1192C434.661,-422.6615 405.4326,-409.1715 381.5629,-398.1547"/>
<polygon fill="#000000" stroke="#000000" points="382.9148,-394.9239 372.3684,-393.9111 379.9813,-401.2796 382.9148,-394.9239"/>
</g>
<!-- lap_target (ants)&#45;&gt;mrg_target (utility) -->
<g id="edge24" class="edge">
<title>lap_target (ants)&#45;&gt;mrg_target (utility)</title>
<path fill="none" stroke="#000000" d="M713.1095,-432.7542C697.7269,-423.2064 678.4103,-411.2168 661.7772,-400.8927"/>
<polygon fill="#000000" stroke="#000000" points="663.1968,-397.6545 652.8546,-395.3546 659.5052,-403.602 663.1968,-397.6545"/>
</g>
<!-- mrg_target (utility)&#45;&gt;norm (fixes) -->
<g id="edge25" class="edge">
<title>mrg_target (utility)&#45;&gt;norm (fixes)</title>
<path fill="none" stroke="#000000" d="M575.3588,-362.2883C538.5948,-350.6274 488.5367,-334.75 450.9575,-322.8306"/>
<polygon fill="#000000" stroke="#000000" points="451.7907,-319.4231 441.2005,-319.7358 449.6743,-326.0955 451.7907,-319.4231"/>
</g>
<!-- res_tmpl (nibabel) -->
<g id="node15" class="node">
<title>res_tmpl (nibabel)</title>
<ellipse fill="none" stroke="#000000" cx="277.8944" cy="-450" rx="95.5831" ry="18"/>
<text text-anchor="middle" x="277.8944" y="-446.3" font-family="Times,serif" font-size="14.00" fill="#000000">res_tmpl (nibabel)</text>
</g>
<!-- res_tmpl (nibabel)&#45;&gt;init_aff (ants) -->
<g id="edge26" class="edge">
<title>res_tmpl (nibabel)&#45;&gt;init_aff (ants)</title>
<path fill="none" stroke="#000000" d="M292.7259,-432.2022C299.8654,-423.6348 308.5603,-413.2009 316.4078,-403.7839"/>
<polygon fill="#000000" stroke="#000000" points="319.3125,-405.7654 323.0256,-395.8425 313.9349,-401.2841 319.3125,-405.7654"/>
</g>
<!-- full_wm (utility) -->
<g id="node16" class="node">
<title>full_wm (utility)</title>
<ellipse fill="none" stroke="#000000" cx="190.8944" cy="-306" rx="85.2851" ry="18"/>
<text text-anchor="middle" x="190.8944" y="-302.3" font-family="Times,serif" font-size="14.00" fill="#000000">full_wm (utility)</text>
</g>
<!-- full_wm (utility)&#45;&gt;map_wmmask (fixes) -->
<g id="edge27" class="edge">
<title>full_wm (utility)&#45;&gt;map_wmmask (fixes)</title>
<path fill="none" stroke="#000000" d="M189.128,-287.8314C188.3793,-280.131 187.4891,-270.9743 186.6571,-262.4166"/>
<polygon fill="#000000" stroke="#000000" points="190.1359,-262.0276 185.6846,-252.4133 183.1687,-262.7051 190.1359,-262.0276"/>
</g>
<!-- lap_tmpl (ants) -->
<g id="node17" class="node">
<title>lap_tmpl (ants)</title>
<ellipse fill="none" stroke="#000000" cx="928.8944" cy="-450" rx="81.4863" ry="18"/>
<text text-anchor="middle" x="928.8944" y="-446.3" font-family="Times,serif" font-size="14.00" fill="#000000">lap_tmpl (ants)</text>
</g>
<!-- mrg_tmpl (utility) -->
<g id="node18" class="node">
<title>mrg_tmpl (utility)</title>
<ellipse fill="none" stroke="#000000" cx="876.8944" cy="-378" rx="93.6835" ry="18"/>
<text text-anchor="middle" x="876.8944" y="-374.3" font-family="Times,serif" font-size="14.00" fill="#000000">mrg_tmpl (utility)</text>
</g>
<!-- lap_tmpl (ants)&#45;&gt;mrg_tmpl (utility) -->
<g id="edge28" class="edge">
<title>lap_tmpl (ants)&#45;&gt;mrg_tmpl (utility)</title>
<path fill="none" stroke="#000000" d="M916.0405,-432.2022C909.9154,-423.7214 902.4694,-413.4115 895.7224,-404.0696"/>
<polygon fill="#000000" stroke="#000000" points="898.473,-401.9001 889.7807,-395.8425 892.7982,-405.9986 898.473,-401.9001"/>
</g>
<!-- mrg_tmpl (utility)&#45;&gt;norm (fixes) -->
<g id="edge29" class="edge">
<title>mrg_tmpl (utility)&#45;&gt;norm (fixes)</title>
<path fill="none" stroke="#000000" d="M803.1004,-366.9078C711.374,-353.1201 556.0421,-329.7717 466.6971,-316.3419"/>
<polygon fill="#000000" stroke="#000000" points="467.0777,-312.8599 456.6685,-314.8345 466.0372,-319.7822 467.0777,-312.8599"/>
</g>
</g>
</svg>
