<?xml version="1.0" encoding="UTF-8" standalone="no"?>
<!DOCTYPE svg PUBLIC "-//W3C//DTD SVG 1.1//EN"
 "http://www.w3.org/Graphics/SVG/1.1/DTD/svg11.dtd">
<!-- Generated by graphviz version 2.40.1 (20161225.0304)
 -->
<!-- Title: structs Pages: 1 -->
<svg width="1120pt" height="557pt"
 viewBox="0.00 0.00 1120.41 557.00" xmlns="http://www.w3.org/2000/svg" xmlns:xlink="http://www.w3.org/1999/xlink">
<g id="graph0" class="graph" transform="scale(1 1) rotate(0) translate(4 553)">
<title>structs</title>
<polygon fill="#ffffff" stroke="transparent" points="-4,4 -4,-553 1116.4134,-553 1116.4134,4 -4,4"/>
<!-- n4_only_wfinputnode -->
<g id="node1" class="node">
<title>n4_only_wfinputnode</title>
<polygon fill="none" stroke="#000000" points="174.9134,-479.5 174.9134,-548.5 366.9134,-548.5 366.9134,-479.5 174.9134,-479.5"/>
<text text-anchor="middle" x="192.4134" y="-510.3" font-family="Times,serif" font-size="14.00" fill="#000000">IN</text>
<polyline fill="none" stroke="#000000" points="209.9134,-479.5 209.9134,-548.5 "/>
<text text-anchor="middle" x="254.4134" y="-533.3" font-family="Times,serif" font-size="14.00" fill="#000000">inputnode</text>
<polyline fill="none" stroke="#000000" points="209.9134,-525.5 298.9134,-525.5 "/>
<text text-anchor="middle" x="254.4134" y="-510.3" font-family="Times,serif" font-size="14.00" fill="#000000">utility</text>
<polyline fill="none" stroke="#000000" points="209.9134,-502.5 298.9134,-502.5 "/>
<text text-anchor="middle" x="254.4134" y="-487.3" font-family="Times,serif" font-size="14.00" fill="#000000"> </text>
<polyline fill="none" stroke="#000000" points="298.9134,-479.5 298.9134,-548.5 "/>
<text text-anchor="middle" x="332.9134" y="-527.8" font-family="Times,serif" font-size="14.00" fill="#000000">OUT</text>
<polyline fill="none" stroke="#000000" points="298.9134,-514.5 366.9134,-514.5 "/>
<text text-anchor="middle" x="332.9134" y="-493.3" font-family="Times,serif" font-size="14.00" fill="#000000">in_files</text>
</g>
<!-- n4_only_wfbinarize -->
<g id="node2" class="node">
<title>n4_only_wfbinarize</title>
<polygon fill="none" stroke="#000000" points="394.9134,-373.5 394.9134,-442.5 614.9134,-442.5 614.9134,-373.5 394.9134,-373.5"/>
<text text-anchor="middle" x="424.9134" y="-421.8" font-family="Times,serif" font-size="14.00" fill="#000000">IN</text>
<polyline fill="none" stroke="#000000" points="394.9134,-408.5 454.9134,-408.5 "/>
<text text-anchor="middle" x="424.9134" y="-387.3" font-family="Times,serif" font-size="14.00" fill="#000000">in_file</text>
<polyline fill="none" stroke="#000000" points="454.9134,-373.5 454.9134,-442.5 "/>
<text text-anchor="middle" x="491.9134" y="-427.3" font-family="Times,serif" font-size="14.00" fill="#000000">binarize</text>
<polyline fill="none" stroke="#000000" points="454.9134,-419.5 528.9134,-419.5 "/>
<text text-anchor="middle" x="491.9134" y="-404.3" font-family="Times,serif" font-size="14.00" fill="#000000">nibabel</text>
<polyline fill="none" stroke="#000000" points="454.9134,-396.5 528.9134,-396.5 "/>
<text text-anchor="middle" x="491.9134" y="-381.3" font-family="Times,serif" font-size="14.00" fill="#000000"> </text>
<polyline fill="none" stroke="#000000" points="528.9134,-373.5 528.9134,-442.5 "/>
<text text-anchor="middle" x="571.9134" y="-421.8" font-family="Times,serif" font-size="14.00" fill="#000000">OUT</text>
<polyline fill="none" stroke="#000000" points="528.9134,-408.5 614.9134,-408.5 "/>
<text text-anchor="middle" x="571.9134" y="-387.3" font-family="Times,serif" font-size="14.00" fill="#000000">out_mask</text>
</g>
<!-- n4_only_wfinputnode&#45;&gt;n4_only_wfbinarize -->
<g id="edge9" class="edge">
<title>n4_only_wfinputnode:e&#45;&gt;n4_only_wfbinarize:w</title>
<path fill="none" stroke="#000000" d="M366.9134,-497C387.7556,-497 375.5994,-419.4264 386.903,-397.0027"/>
<polygon fill="#000000" stroke="#000000" points="389.0099,-399.7977 394.9134,-391 384.8121,-394.1959 389.0099,-399.7977"/>
</g>
<!-- n4_only_wfinu_n4_final -->
<g id="node3" class="node">
<title>n4_only_wfinu_n4_final</title>
<polygon fill="none" stroke="#000000" points="14.9134,-373.5 14.9134,-442.5 338.9134,-442.5 338.9134,-373.5 14.9134,-373.5"/>
<text text-anchor="middle" x="67.4134" y="-421.8" font-family="Times,serif" font-size="14.00" fill="#000000">IN</text>
<polyline fill="none" stroke="#000000" points="14.9134,-408.5 119.9134,-408.5 "/>
<text text-anchor="middle" x="67.4134" y="-387.3" font-family="Times,serif" font-size="14.00" fill="#000000">input_image</text>
<polyline fill="none" stroke="#000000" points="119.9134,-373.5 119.9134,-442.5 "/>
<text text-anchor="middle" x="171.9134" y="-427.3" font-family="Times,serif" font-size="14.00" fill="#000000">inu_n4_final</text>
<polyline fill="none" stroke="#000000" points="119.9134,-419.5 223.9134,-419.5 "/>
<text text-anchor="middle" x="171.9134" y="-404.3" font-family="Times,serif" font-size="14.00" fill="#000000">ants</text>
<polyline fill="none" stroke="#000000" points="119.9134,-396.5 223.9134,-396.5 "/>
<text text-anchor="middle" x="171.9134" y="-381.3" font-family="Times,serif" font-size="14.00" fill="#000000"> </text>
<polyline fill="none" stroke="#000000" points="223.9134,-373.5 223.9134,-442.5 "/>
<text text-anchor="middle" x="281.4134" y="-421.8" font-family="Times,serif" font-size="14.00" fill="#000000">OUT</text>
<polyline fill="none" stroke="#000000" points="223.9134,-408.5 338.9134,-408.5 "/>
<text text-anchor="middle" x="281.4134" y="-387.3" font-family="Times,serif" font-size="14.00" fill="#000000">output_image</text>
</g>
<!-- n4_only_wfinputnode&#45;&gt;n4_only_wfinu_n4_final -->
<g id="edge10" class="edge">
<title>n4_only_wfinputnode:e&#45;&gt;n4_only_wfinu_n4_final:w</title>
<path fill="none" stroke="#000000" d="M366.9134,-497C374.9134,-497 372.2748,-484.9377 366.9134,-479 314.2177,-420.6401 67.6091,-501.3599 14.9134,-443 2.2081,-428.929 -5.2043,-402.9518 5.2994,-394.0705"/>
<polygon fill="#000000" stroke="#000000" points="6.4523,-397.3766 14.9134,-391 4.3226,-390.7084 6.4523,-397.3766"/>
</g>
<!-- n4_only_wfatropos_wf -->
<g id="node4" class="node">
<title>n4_only_wfatropos_wf</title>
<polygon fill="none" stroke="#000000" points="352.9134,-198.5 352.9134,-336.5 840.9134,-336.5 840.9134,-198.5 352.9134,-198.5"/>
<text text-anchor="middle" x="444.9134" y="-315.8" font-family="Times,serif" font-size="14.00" fill="#000000">IN</text>
<polyline fill="none" stroke="#000000" points="352.9134,-302.5 536.9134,-302.5 "/>
<text text-anchor="middle" x="444.9134" y="-281.3" font-family="Times,serif" font-size="14.00" fill="#000000">inputnode.in_corrected</text>
<polyline fill="none" stroke="#000000" points="352.9134,-267.5 536.9134,-267.5 "/>
<text text-anchor="middle" x="444.9134" y="-246.8" font-family="Times,serif" font-size="14.00" fill="#000000">inputnode.in_files</text>
<polyline fill="none" stroke="#000000" points="352.9134,-233.5 536.9134,-233.5 "/>
<text text-anchor="middle" x="444.9134" y="-212.3" font-family="Times,serif" font-size="14.00" fill="#000000">inputnode.in_mask</text>
<polyline fill="none" stroke="#000000" points="536.9134,-198.5 536.9134,-336.5 "/>
<text text-anchor="middle" x="584.4134" y="-309.8" font-family="Times,serif" font-size="14.00" fill="#000000">atropos_wf</text>
<polyline fill="none" stroke="#000000" points="536.9134,-290.5 631.9134,-290.5 "/>
<text text-anchor="middle" x="584.4134" y="-263.8" font-family="Times,serif" font-size="14.00" fill="#000000"> </text>
<polyline fill="none" stroke="#000000" points="536.9134,-244.5 631.9134,-244.5 "/>
<text text-anchor="middle" x="584.4134" y="-217.8" font-family="Times,serif" font-size="14.00" fill="#000000"> </text>
<polyline fill="none" stroke="#000000" points="631.9134,-198.5 631.9134,-336.5 "/>
<text text-anchor="middle" x="736.4134" y="-321.3" font-family="Times,serif" font-size="14.00" fill="#000000">OUT</text>
<polyline fill="none" stroke="#000000" points="631.9134,-313.5 840.9134,-313.5 "/>
<text text-anchor="middle" x="736.4134" y="-298.3" font-family="Times,serif" font-size="14.00" fill="#000000">outputnode.bias_corrected</text>
<polyline fill="none" stroke="#000000" points="631.9134,-290.5 840.9134,-290.5 "/>
<text text-anchor="middle" x="736.4134" y="-275.3" font-family="Times,serif" font-size="14.00" fill="#000000">outputnode.bias_image</text>
<polyline fill="none" stroke="#000000" points="631.9134,-267.5 840.9134,-267.5 "/>
<text text-anchor="middle" x="736.4134" y="-252.3" font-family="Times,serif" font-size="14.00" fill="#000000">outputnode.out_file</text>
<polyline fill="none" stroke="#000000" points="631.9134,-244.5 840.9134,-244.5 "/>
<text text-anchor="middle" x="736.4134" y="-229.3" font-family="Times,serif" font-size="14.00" fill="#000000">outputnode.out_segm</text>
<polyline fill="none" stroke="#000000" points="631.9134,-221.5 840.9134,-221.5 "/>
<text text-anchor="middle" x="736.4134" y="-206.3" font-family="Times,serif" font-size="14.00" fill="#000000">outputnode.out_tpms</text>
</g>
<!-- n4_only_wfinputnode&#45;&gt;n4_only_wfatropos_wf -->
<g id="edge8" class="edge">
<title>n4_only_wfinputnode:e&#45;&gt;n4_only_wfatropos_wf:w</title>
<path fill="none" stroke="#000000" d="M366.9134,-497C417.7074,-497 315.4301,-285.732 343.5025,-254.3719"/>
<polygon fill="#000000" stroke="#000000" points="344.9973,-257.5417 352.9134,-250.5 342.3338,-251.0681 344.9973,-257.5417"/>
</g>
<!-- n4_only_wfbinarize&#45;&gt;n4_only_wfatropos_wf -->
<g id="edge6" class="edge">
<title>n4_only_wfbinarize:e&#45;&gt;n4_only_wfatropos_wf:w</title>
<path fill="none" stroke="#000000" d="M614.9134,-391C622.9134,-391 620.1712,-379.0296 614.9134,-373 537.6648,-284.4113 430.162,-425.5887 352.9134,-337 319.8496,-299.0824 301.5235,-226.3595 342.838,-216.5941"/>
<polygon fill="#000000" stroke="#000000" points="343.3498,-220.0592 352.9134,-215.5 342.594,-213.1001 343.3498,-220.0592"/>
</g>
<!-- n4_only_wfoutputnode -->
<g id="node5" class="node">
<title>n4_only_wfoutputnode</title>
<polygon fill="none" stroke="#000000" points="841.4134,-.5 841.4134,-161.5 1112.4134,-161.5 1112.4134,-.5 841.4134,-.5"/>
<text text-anchor="middle" x="902.9134" y="-146.3" font-family="Times,serif" font-size="14.00" fill="#000000">IN</text>
<polyline fill="none" stroke="#000000" points="841.4134,-138.5 964.4134,-138.5 "/>
<text text-anchor="middle" x="902.9134" y="-123.3" font-family="Times,serif" font-size="14.00" fill="#000000">bias_corrected</text>
<polyline fill="none" stroke="#000000" points="841.4134,-115.5 964.4134,-115.5 "/>
<text text-anchor="middle" x="902.9134" y="-100.3" font-family="Times,serif" font-size="14.00" fill="#000000">bias_image</text>
<polyline fill="none" stroke="#000000" points="841.4134,-92.5 964.4134,-92.5 "/>
<text text-anchor="middle" x="902.9134" y="-77.3" font-family="Times,serif" font-size="14.00" fill="#000000">out_file</text>
<polyline fill="none" stroke="#000000" points="841.4134,-69.5 964.4134,-69.5 "/>
<text text-anchor="middle" x="902.9134" y="-54.3" font-family="Times,serif" font-size="14.00" fill="#000000">out_mask</text>
<polyline fill="none" stroke="#000000" points="841.4134,-46.5 964.4134,-46.5 "/>
<text text-anchor="middle" x="902.9134" y="-31.3" font-family="Times,serif" font-size="14.00" fill="#000000">out_segm</text>
<polyline fill="none" stroke="#000000" points="841.4134,-23.5 964.4134,-23.5 "/>
<text text-anchor="middle" x="902.9134" y="-8.3" font-family="Times,serif" font-size="14.00" fill="#000000">out_tpms</text>
<polyline fill="none" stroke="#000000" points="964.4134,-.5 964.4134,-161.5 "/>
<text text-anchor="middle" x="1013.4134" y="-131.3" font-family="Times,serif" font-size="14.00" fill="#000000">outputnode</text>
<polyline fill="none" stroke="#000000" points="964.4134,-108.5 1062.4134,-108.5 "/>
<text text-anchor="middle" x="1013.4134" y="-77.8" font-family="Times,serif" font-size="14.00" fill="#000000">utility</text>
<polyline fill="none" stroke="#000000" points="964.4134,-54.5 1062.4134,-54.5 "/>
<text text-anchor="middle" x="1013.4134" y="-23.8" font-family="Times,serif" font-size="14.00" fill="#000000"> </text>
<polyline fill="none" stroke="#000000" points="1062.4134,-.5 1062.4134,-161.5 "/>
<text text-anchor="middle" x="1087.4134" y="-77.3" font-family="Times,serif" font-size="14.00" fill="#000000">OUT</text>
</g>
<!-- n4_only_wfbinarize&#45;&gt;n4_only_wfoutputnode -->
<g id="edge7" class="edge">
<title>n4_only_wfbinarize:e&#45;&gt;n4_only_wfoutputnode:w</title>
<path fill="none" stroke="#000000" d="M614.9134,-391C668.4966,-391 816.5356,-378.9175 849.9134,-337 888.3958,-288.672 857.4616,-259.3149 849.9134,-198 847.8983,-181.6311 842.9285,-178.3689 840.9134,-162 835.7512,-120.0666 801.407,-67.8996 830.8426,-59.2431"/>
<polygon fill="#000000" stroke="#000000" points="831.4176,-62.6988 840.9134,-58 830.5599,-55.7515 831.4176,-62.6988"/>
</g>
<!-- n4_only_wfinu_n4_final&#45;&gt;n4_only_wfatropos_wf -->
<g id="edge11" class="edge">
<title>n4_only_wfinu_n4_final:e&#45;&gt;n4_only_wfatropos_wf:w</title>
<path fill="none" stroke="#000000" d="M338.9134,-391C358.8681,-391 338.2793,-315.8931 345.5641,-292.4221"/>
<polygon fill="#000000" stroke="#000000" points="348.0337,-294.9042 352.9134,-285.5 343.2342,-289.8086 348.0337,-294.9042"/>
</g>
<!-- n4_only_wfatropos_wf&#45;&gt;n4_only_wfoutputnode -->
<g id="edge1" class="edge">
<title>n4_only_wfatropos_wf:e&#45;&gt;n4_only_wfoutputnode:w</title>
<path fill="none" stroke="#000000" d="M840.9134,-302.5C840.9134,-302.5 840.9134,-174.6502 840.9134,-137.1942"/>
<polygon fill="#000000" stroke="#000000" points="844.4135,-137 840.9134,-127 837.4135,-137 844.4135,-137"/>
</g>
<!-- n4_only_wfatropos_wf&#45;&gt;n4_only_wfoutputnode -->
<g id="edge2" class="edge">
<title>n4_only_wfatropos_wf:e&#45;&gt;n4_only_wfoutputnode:w</title>
<path fill="none" stroke="#000000" d="M840.9134,-279.5C875.8001,-279.5 817.0651,-139.0673 832.2035,-109.4448"/>
<polygon fill="#000000" stroke="#000000" points="834.2892,-112.2686 840.9134,-104 830.5786,-106.333 834.2892,-112.2686"/>
</g>
<!-- n4_only_wfatropos_wf&#45;&gt;n4_only_wfoutputnode -->
<g id="edge3" class="edge">
<title>n4_only_wfatropos_wf:e&#45;&gt;n4_only_wfoutputnode:w</title>
<path fill="none" stroke="#000000" d="M840.9134,-255.5C875.6014,-255.5 817.201,-115.8675 832.2531,-86.4138"/>
<polygon fill="#000000" stroke="#000000" points="834.2892,-89.2686 840.9134,-81 830.5786,-83.333 834.2892,-89.2686"/>
</g>
<!-- n4_only_wfatropos_wf&#45;&gt;n4_only_wfoutputnode -->
<g id="edge4" class="edge">
<title>n4_only_wfatropos_wf:e&#45;&gt;n4_only_wfoutputnode:w</title>
<path fill="none" stroke="#000000" d="M840.9134,-232.5C840.9134,-232.5 840.9134,-85.3122 840.9134,-45.0656"/>
<polygon fill="#000000" stroke="#000000" points="844.4135,-45 840.9134,-35 837.4135,-45 844.4135,-45"/>
</g>
<!-- n4_only_wfatropos_wf&#45;&gt;n4_only_wfoutputnode -->
<g id="edge5" class="edge">
<title>n4_only_wfatropos_wf:e&#45;&gt;n4_only_wfoutputnode:w</title>
<path fill="none" stroke="#000000" d="M840.9134,-209.5C840.9134,-209.5 840.9134,-62.3122 840.9134,-22.0656"/>
<polygon fill="#000000" stroke="#000000" points="844.4135,-22 840.9134,-12 837.4135,-22 844.4135,-22"/>
</g>
</g>
</svg>
