<?xml version="1.0" encoding="UTF-8" standalone="no"?>
<!DOCTYPE svg PUBLIC "-//W3C//DTD SVG 1.1//EN"
 "http://www.w3.org/Graphics/SVG/1.1/DTD/svg11.dtd">
<!-- Generated by graphviz version 2.43.0 (0)
 -->
<!-- Title: %3 Pages: 1 -->
<svg width="673pt" height="1268pt"
 viewBox="0.00 0.00 673.24 1268.00" xmlns="http://www.w3.org/2000/svg" xmlns:xlink="http://www.w3.org/1999/xlink">
<g id="graph0" class="graph" transform="scale(1 1) rotate(0) translate(4 1264)">
<title>%3</title>
<polygon fill="white" stroke="transparent" points="-4,4 -4,-1264 669.24,-1264 669.24,4 -4,4"/>
<!-- inputnode (utility) -->
<g id="node1" class="node">
<title>inputnode (utility)</title>
<ellipse fill="none" stroke="black" cx="332.85" cy="-1242" rx="94.78" ry="18"/>
<text text-anchor="middle" x="332.85" y="-1238.3" font-family="Times,serif" font-size="14.00">inputnode (utility)</text>
</g>
<!-- init_aff (ants) -->
<g id="node2" class="node">
<title>init_aff (ants)</title>
<ellipse fill="none" stroke="black" cx="470.85" cy="-1170" rx="72.29" ry="18"/>
<text text-anchor="middle" x="470.85" y="-1166.3" font-family="Times,serif" font-size="14.00">init_aff (ants)</text>
</g>
<!-- inputnode (utility)&#45;&gt;init_aff (ants) -->
<g id="edge1" class="edge">
<title>inputnode (utility)&#45;&gt;init_aff (ants)</title>
<path fill="none" stroke="black" d="M364.51,-1224.94C384.33,-1214.88 410.04,-1201.84 431.22,-1191.1"/>
<polygon fill="black" stroke="black" points="432.95,-1194.15 440.29,-1186.5 429.78,-1187.91 432.95,-1194.15"/>
</g>
<!-- map_brainmask (fixes) -->
<g id="node3" class="node">
<title>map_brainmask (fixes)</title>
<ellipse fill="none" stroke="black" cx="481.85" cy="-1026" rx="115.08" ry="18"/>
<text text-anchor="middle" x="481.85" y="-1022.3" font-family="Times,serif" font-size="14.00">map_brainmask (fixes)</text>
</g>
<!-- inputnode (utility)&#45;&gt;map_brainmask (fixes) -->
<g id="edge2" class="edge">
<title>inputnode (utility)&#45;&gt;map_brainmask (fixes)</title>
<path fill="none" stroke="black" d="M412.21,-1232.11C467.55,-1224.09 534.46,-1210.1 551.85,-1188 562.28,-1174.74 557.45,-1102.23 545.85,-1080 539.63,-1068.09 529.47,-1057.84 519.06,-1049.6"/>
<polygon fill="black" stroke="black" points="520.85,-1046.57 510.72,-1043.44 516.69,-1052.2 520.85,-1046.57"/>
</g>
<!-- norm (fixes) -->
<g id="node4" class="node">
<title>norm (fixes)</title>
<ellipse fill="none" stroke="black" cx="470.85" cy="-1098" rx="66.09" ry="18"/>
<text text-anchor="middle" x="470.85" y="-1094.3" font-family="Times,serif" font-size="14.00">norm (fixes)</text>
</g>
<!-- inputnode (utility)&#45;&gt;norm (fixes) -->
<g id="edge3" class="edge">
<title>inputnode (utility)&#45;&gt;norm (fixes)</title>
<path fill="none" stroke="black" d="M341.08,-1223.76C350.81,-1204.64 368.42,-1173.64 389.85,-1152 402.29,-1139.44 418.17,-1128.26 432.58,-1119.44"/>
<polygon fill="black" stroke="black" points="434.5,-1122.37 441.31,-1114.26 430.93,-1116.35 434.5,-1122.37"/>
</g>
<!-- check_hdr (header) -->
<g id="node5" class="node">
<title>check_hdr (header)</title>
<ellipse fill="none" stroke="black" cx="452.85" cy="-810" rx="99.38" ry="18"/>
<text text-anchor="middle" x="452.85" y="-806.3" font-family="Times,serif" font-size="14.00">check_hdr (header)</text>
</g>
<!-- inputnode (utility)&#45;&gt;check_hdr (header) -->
<g id="edge4" class="edge">
<title>inputnode (utility)&#45;&gt;check_hdr (header)</title>
<path fill="none" stroke="black" d="M332.85,-1223.95C332.85,-1197.29 332.85,-1144.11 332.85,-1099 332.85,-1099 332.85,-1099 332.85,-953 332.85,-911.79 333.23,-896.28 358.85,-864 369.95,-850.01 385.81,-839.1 401.35,-830.9"/>
<polygon fill="black" stroke="black" points="403.03,-833.98 410.42,-826.39 399.91,-827.71 403.03,-833.98"/>
</g>
<!-- n4_correct (fixes) -->
<g id="node6" class="node">
<title>n4_correct (fixes)</title>
<ellipse fill="none" stroke="black" cx="452.85" cy="-738" rx="90.98" ry="18"/>
<text text-anchor="middle" x="452.85" y="-734.3" font-family="Times,serif" font-size="14.00">n4_correct (fixes)</text>
</g>
<!-- inputnode (utility)&#45;&gt;n4_correct (fixes) -->
<g id="edge5" class="edge">
<title>inputnode (utility)&#45;&gt;n4_correct (fixes)</title>
<path fill="none" stroke="black" d="M325.16,-1223.91C314.06,-1197.62 294.85,-1145.45 294.85,-1099 294.85,-1099 294.85,-1099 294.85,-881 294.85,-835.63 311.89,-823.18 344.85,-792 360.23,-777.45 380.37,-766.11 399.08,-757.73"/>
<polygon fill="black" stroke="black" points="400.6,-760.88 408.41,-753.73 397.84,-754.45 400.6,-760.88"/>
</g>
<!-- fixhdr_unifize (header) -->
<g id="node7" class="node">
<title>fixhdr_unifize (header)</title>
<ellipse fill="none" stroke="black" cx="173.85" cy="-378" rx="115.08" ry="18"/>
<text text-anchor="middle" x="173.85" y="-374.3" font-family="Times,serif" font-size="14.00">fixhdr_unifize (header)</text>
</g>
<!-- inputnode (utility)&#45;&gt;fixhdr_unifize (header) -->
<g id="edge6" class="edge">
<title>inputnode (utility)&#45;&gt;fixhdr_unifize (header)</title>
<path fill="none" stroke="black" d="M294.97,-1225.35C277.28,-1216.52 257.05,-1204 242.85,-1188 214.18,-1155.7 203.85,-1142.19 203.85,-1099 203.85,-1099 203.85,-1099 203.85,-521 203.85,-480.16 191.82,-434.11 183,-405.82"/>
<polygon fill="black" stroke="black" points="186.31,-404.69 179.92,-396.24 179.65,-406.83 186.31,-404.69"/>
</g>
<!-- fixhdr_skullstrip2 (header) -->
<g id="node8" class="node">
<title>fixhdr_skullstrip2 (header)</title>
<ellipse fill="none" stroke="black" cx="331.85" cy="-234" rx="133.78" ry="18"/>
<text text-anchor="middle" x="331.85" y="-230.3" font-family="Times,serif" font-size="14.00">fixhdr_skullstrip2 (header)</text>
</g>
<!-- inputnode (utility)&#45;&gt;fixhdr_skullstrip2 (header) -->
<g id="edge7" class="edge">
<title>inputnode (utility)&#45;&gt;fixhdr_skullstrip2 (header)</title>
<path fill="none" stroke="black" d="M316.73,-1224.19C294.42,-1199.09 256.85,-1149.33 256.85,-1099 256.85,-1099 256.85,-1099 256.85,-593 256.85,-590.89 308.61,-345.2 326.13,-262.11"/>
<polygon fill="black" stroke="black" points="329.59,-262.66 328.23,-252.15 322.74,-261.21 329.59,-262.66"/>
</g>
<!-- init_aff (ants)&#45;&gt;norm (fixes) -->
<g id="edge8" class="edge">
<title>init_aff (ants)&#45;&gt;norm (fixes)</title>
<path fill="none" stroke="black" d="M470.85,-1151.7C470.85,-1143.98 470.85,-1134.71 470.85,-1126.11"/>
<polygon fill="black" stroke="black" points="474.35,-1126.1 470.85,-1116.1 467.35,-1126.1 474.35,-1126.1"/>
</g>
<!-- binarize_mask (nibabel) -->
<g id="node9" class="node">
<title>binarize_mask (nibabel)</title>
<ellipse fill="none" stroke="black" cx="481.85" cy="-954" rx="120.78" ry="18"/>
<text text-anchor="middle" x="481.85" y="-950.3" font-family="Times,serif" font-size="14.00">binarize_mask (nibabel)</text>
</g>
<!-- map_brainmask (fixes)&#45;&gt;binarize_mask (nibabel) -->
<g id="edge9" class="edge">
<title>map_brainmask (fixes)&#45;&gt;binarize_mask (nibabel)</title>
<path fill="none" stroke="black" d="M481.85,-1007.7C481.85,-999.98 481.85,-990.71 481.85,-982.11"/>
<polygon fill="black" stroke="black" points="485.35,-982.1 481.85,-972.1 478.35,-982.1 485.35,-982.1"/>
</g>
<!-- norm (fixes)&#45;&gt;map_brainmask (fixes) -->
<g id="edge10" class="edge">
<title>norm (fixes)&#45;&gt;map_brainmask (fixes)</title>
<path fill="none" stroke="black" d="M473.57,-1079.7C474.78,-1071.98 476.24,-1062.71 477.59,-1054.11"/>
<polygon fill="black" stroke="black" points="481.07,-1054.53 479.16,-1044.1 474.15,-1053.44 481.07,-1054.53"/>
</g>
<!-- check_hdr (header)&#45;&gt;n4_correct (fixes) -->
<g id="edge11" class="edge">
<title>check_hdr (header)&#45;&gt;n4_correct (fixes)</title>
<path fill="none" stroke="black" d="M452.85,-791.7C452.85,-783.98 452.85,-774.71 452.85,-766.11"/>
<polygon fill="black" stroke="black" points="456.35,-766.1 452.85,-756.1 449.35,-766.1 456.35,-766.1"/>
</g>
<!-- skullstrip_first_pass (fsl) -->
<g id="node11" class="node">
<title>skullstrip_first_pass (fsl)</title>
<ellipse fill="none" stroke="black" cx="452.85" cy="-666" rx="124.28" ry="18"/>
<text text-anchor="middle" x="452.85" y="-662.3" font-family="Times,serif" font-size="14.00">skullstrip_first_pass (fsl)</text>
</g>
<!-- n4_correct (fixes)&#45;&gt;skullstrip_first_pass (fsl) -->
<g id="edge12" class="edge">
<title>n4_correct (fixes)&#45;&gt;skullstrip_first_pass (fsl)</title>
<path fill="none" stroke="black" d="M452.85,-719.7C452.85,-711.98 452.85,-702.71 452.85,-694.11"/>
<polygon fill="black" stroke="black" points="456.35,-694.1 452.85,-684.1 449.35,-694.1 456.35,-694.1"/>
</g>
<!-- outputnode (utility) -->
<g id="node12" class="node">
<title>outputnode (utility)</title>
<ellipse fill="none" stroke="black" cx="563.85" cy="-18" rx="101.28" ry="18"/>
<text text-anchor="middle" x="563.85" y="-14.3" font-family="Times,serif" font-size="14.00">outputnode (utility)</text>
</g>
<!-- n4_correct (fixes)&#45;&gt;outputnode (utility) -->
<g id="edge13" class="edge">
<title>n4_correct (fixes)&#45;&gt;outputnode (utility)</title>
<path fill="none" stroke="black" d="M506.15,-723.31C564.19,-704.8 648.85,-665.7 648.85,-595 648.85,-595 648.85,-595 648.85,-161 648.85,-114.19 614.42,-69.45 589.39,-43.1"/>
<polygon fill="black" stroke="black" points="591.79,-40.55 582.29,-35.85 586.79,-45.45 591.79,-40.55"/>
</g>
<!-- skullstrip_second_pass (afni) -->
<g id="node13" class="node">
<title>skullstrip_second_pass (afni)</title>
<ellipse fill="none" stroke="black" cx="159.85" cy="-306" rx="143.77" ry="18"/>
<text text-anchor="middle" x="159.85" y="-302.3" font-family="Times,serif" font-size="14.00">skullstrip_second_pass (afni)</text>
</g>
<!-- fixhdr_unifize (header)&#45;&gt;skullstrip_second_pass (afni) -->
<g id="edge14" class="edge">
<title>fixhdr_unifize (header)&#45;&gt;skullstrip_second_pass (afni)</title>
<path fill="none" stroke="black" d="M170.39,-359.7C168.85,-351.98 166.99,-342.71 165.27,-334.11"/>
<polygon fill="black" stroke="black" points="168.66,-333.22 163.27,-324.1 161.8,-334.6 168.66,-333.22"/>
</g>
<!-- apply_mask (fsl) -->
<g id="node14" class="node">
<title>apply_mask (fsl)</title>
<ellipse fill="none" stroke="black" cx="449.85" cy="-90" rx="85.59" ry="18"/>
<text text-anchor="middle" x="449.85" y="-86.3" font-family="Times,serif" font-size="14.00">apply_mask (fsl)</text>
</g>
<!-- fixhdr_unifize (header)&#45;&gt;apply_mask (fsl) -->
<g id="edge15" class="edge">
<title>fixhdr_unifize (header)&#45;&gt;apply_mask (fsl)</title>
<path fill="none" stroke="black" d="M95.9,-364.68C40.52,-352.23 -19.69,-328.84 6.85,-288 86.48,-165.44 261.91,-118.5 366.54,-100.99"/>
<polygon fill="black" stroke="black" points="367.12,-104.44 376.44,-99.39 366,-97.53 367.12,-104.44"/>
</g>
<!-- combine_masks (fsl) -->
<g id="node15" class="node">
<title>combine_masks (fsl)</title>
<ellipse fill="none" stroke="black" cx="482.85" cy="-162" rx="104.78" ry="18"/>
<text text-anchor="middle" x="482.85" y="-158.3" font-family="Times,serif" font-size="14.00">combine_masks (fsl)</text>
</g>
<!-- fixhdr_skullstrip2 (header)&#45;&gt;combine_masks (fsl) -->
<g id="edge16" class="edge">
<title>fixhdr_skullstrip2 (header)&#45;&gt;combine_masks (fsl)</title>
<path fill="none" stroke="black" d="M367.25,-216.59C388.7,-206.64 416.24,-193.88 439.06,-183.3"/>
<polygon fill="black" stroke="black" points="440.59,-186.45 448.19,-179.07 437.64,-180.1 440.59,-186.45"/>
</g>
<!-- pre_mask_dilate (fsl) -->
<g id="node10" class="node">
<title>pre_mask_dilate (fsl)</title>
<ellipse fill="none" stroke="black" cx="474.85" cy="-882" rx="106.68" ry="18"/>
<text text-anchor="middle" x="474.85" y="-878.3" font-family="Times,serif" font-size="14.00">pre_mask_dilate (fsl)</text>
</g>
<!-- binarize_mask (nibabel)&#45;&gt;pre_mask_dilate (fsl) -->
<g id="edge17" class="edge">
<title>binarize_mask (nibabel)&#45;&gt;pre_mask_dilate (fsl)</title>
<path fill="none" stroke="black" d="M480.12,-935.7C479.35,-927.98 478.42,-918.71 477.56,-910.11"/>
<polygon fill="black" stroke="black" points="481.04,-909.71 476.56,-900.1 474.07,-910.4 481.04,-909.71"/>
</g>
<!-- pre_mask_dilate (fsl)&#45;&gt;check_hdr (header) -->
<g id="edge18" class="edge">
<title>pre_mask_dilate (fsl)&#45;&gt;check_hdr (header)</title>
<path fill="none" stroke="black" d="M469.41,-863.7C466.96,-855.9 464.01,-846.51 461.28,-837.83"/>
<polygon fill="black" stroke="black" points="464.56,-836.59 458.22,-828.1 457.88,-838.69 464.56,-836.59"/>
</g>
<!-- skullstrip_first_pass (fsl)&#45;&gt;combine_masks (fsl) -->
<g id="edge21" class="edge">
<title>skullstrip_first_pass (fsl)&#45;&gt;combine_masks (fsl)</title>
<path fill="none" stroke="black" d="M527.15,-651.44C550.9,-643.62 575.3,-631.32 591.85,-612 618.17,-581.29 610.85,-563.45 610.85,-523 610.85,-523 610.85,-523 610.85,-305 610.85,-251.38 559.88,-208.89 522.26,-184.83"/>
<polygon fill="black" stroke="black" points="523.85,-181.7 513.51,-179.4 520.16,-187.65 523.85,-181.7"/>
</g>
<!-- skullstrip_first_dilate (fsl) -->
<g id="node16" class="node">
<title>skullstrip_first_dilate (fsl)</title>
<ellipse fill="none" stroke="black" cx="452.85" cy="-594" rx="129.98" ry="18"/>
<text text-anchor="middle" x="452.85" y="-590.3" font-family="Times,serif" font-size="14.00">skullstrip_first_dilate (fsl)</text>
</g>
<!-- skullstrip_first_pass (fsl)&#45;&gt;skullstrip_first_dilate (fsl) -->
<g id="edge19" class="edge">
<title>skullstrip_first_pass (fsl)&#45;&gt;skullstrip_first_dilate (fsl)</title>
<path fill="none" stroke="black" d="M452.85,-647.7C452.85,-639.98 452.85,-630.71 452.85,-622.11"/>
<polygon fill="black" stroke="black" points="456.35,-622.1 452.85,-612.1 449.35,-622.1 456.35,-622.1"/>
</g>
<!-- skullstrip_first_mask (fsl) -->
<g id="node17" class="node">
<title>skullstrip_first_mask (fsl)</title>
<ellipse fill="none" stroke="black" cx="412.85" cy="-522" rx="128.08" ry="18"/>
<text text-anchor="middle" x="412.85" y="-518.3" font-family="Times,serif" font-size="14.00">skullstrip_first_mask (fsl)</text>
</g>
<!-- skullstrip_first_pass (fsl)&#45;&gt;skullstrip_first_mask (fsl) -->
<g id="edge20" class="edge">
<title>skullstrip_first_pass (fsl)&#45;&gt;skullstrip_first_mask (fsl)</title>
<path fill="none" stroke="black" d="M372.86,-652.21C350.02,-644.45 327.62,-631.99 313.85,-612 304.77,-598.82 305.63,-589.73 313.85,-576 322.48,-561.6 336.5,-550.88 351.32,-543.01"/>
<polygon fill="black" stroke="black" points="353.16,-546.01 360.61,-538.47 350.09,-539.72 353.16,-546.01"/>
</g>
<!-- skullstrip_second_pass (afni)&#45;&gt;fixhdr_skullstrip2 (header) -->
<g id="edge22" class="edge">
<title>skullstrip_second_pass (afni)&#45;&gt;fixhdr_skullstrip2 (header)</title>
<path fill="none" stroke="black" d="M200.18,-288.59C224.85,-278.55 256.59,-265.63 282.72,-254.99"/>
<polygon fill="black" stroke="black" points="284.13,-258.2 292.07,-251.19 281.49,-251.72 284.13,-258.2"/>
</g>
<!-- apply_mask (fsl)&#45;&gt;outputnode (utility) -->
<g id="edge23" class="edge">
<title>apply_mask (fsl)&#45;&gt;outputnode (utility)</title>
<path fill="none" stroke="black" d="M476.29,-72.76C491.72,-63.29 511.39,-51.21 528.17,-40.91"/>
<polygon fill="black" stroke="black" points="530.47,-43.61 537.16,-35.39 526.8,-37.64 530.47,-43.61"/>
</g>
<!-- combine_masks (fsl)&#45;&gt;outputnode (utility) -->
<g id="edge25" class="edge">
<title>combine_masks (fsl)&#45;&gt;outputnode (utility)</title>
<path fill="none" stroke="black" d="M509.39,-144.38C521.99,-135.16 536.16,-122.6 544.85,-108 556,-89.27 560.65,-64.89 562.57,-46.38"/>
<polygon fill="black" stroke="black" points="566.07,-46.51 563.41,-36.25 559.09,-45.93 566.07,-46.51"/>
</g>
<!-- combine_masks (fsl)&#45;&gt;apply_mask (fsl) -->
<g id="edge24" class="edge">
<title>combine_masks (fsl)&#45;&gt;apply_mask (fsl)</title>
<path fill="none" stroke="black" d="M474.69,-143.7C470.94,-135.73 466.4,-126.1 462.23,-117.26"/>
<polygon fill="black" stroke="black" points="465.34,-115.66 457.91,-108.1 459.01,-118.64 465.34,-115.66"/>
</g>
<!-- skullstrip_first_dilate (fsl)&#45;&gt;skullstrip_first_mask (fsl) -->
<g id="edge26" class="edge">
<title>skullstrip_first_dilate (fsl)&#45;&gt;skullstrip_first_mask (fsl)</title>
<path fill="none" stroke="black" d="M442.96,-575.7C438.36,-567.64 432.79,-557.89 427.7,-548.98"/>
<polygon fill="black" stroke="black" points="430.62,-547.05 422.62,-540.1 424.55,-550.52 430.62,-547.05"/>
</g>
<!-- unifize (afni) -->
<g id="node18" class="node">
<title>unifize (afni)</title>
<ellipse fill="none" stroke="black" cx="383.85" cy="-450" rx="68.79" ry="18"/>
<text text-anchor="middle" x="383.85" y="-446.3" font-family="Times,serif" font-size="14.00">unifize (afni)</text>
</g>
<!-- skullstrip_first_mask (fsl)&#45;&gt;unifize (afni) -->
<g id="edge27" class="edge">
<title>skullstrip_first_mask (fsl)&#45;&gt;unifize (afni)</title>
<path fill="none" stroke="black" d="M405.68,-503.7C402.41,-495.81 398.48,-486.3 394.85,-477.55"/>
<polygon fill="black" stroke="black" points="398,-476 390.94,-468.1 391.53,-478.68 398,-476"/>
</g>
<!-- unifize (afni)&#45;&gt;fixhdr_unifize (header) -->
<g id="edge28" class="edge">
<title>unifize (afni)&#45;&gt;fixhdr_unifize (header)</title>
<path fill="none" stroke="black" d="M343.11,-435.42C310.95,-424.7 265.71,-409.62 230.1,-397.75"/>
<polygon fill="black" stroke="black" points="230.92,-394.33 220.33,-394.49 228.71,-400.98 230.92,-394.33"/>
</g>
</g>
</svg>
